G75*
%MOIN*%
%OFA0B0*%
%FSLAX25Y25*%
%IPPOS*%
%LPD*%
%AMOC8*
5,1,8,0,0,1.08239X$1,22.5*
%
%ADD10R,0.06800X0.06800*%
%ADD11OC8,0.06800*%
%ADD12C,0.04000*%
D10*
X0059800Y0103700D03*
D11*
X0049800Y0103700D03*
X0039800Y0103700D03*
X0039800Y0093700D03*
X0049800Y0093700D03*
X0059800Y0093700D03*
D12*
X0035600Y0009100D03*
X0041100Y0017300D03*
X0048200Y0027400D03*
X0058000Y0026000D03*
X0057500Y0035500D03*
X0050600Y0036000D03*
X0034800Y0034000D03*
X0032300Y0047100D03*
X0047300Y0056000D03*
X0055700Y0055100D03*
X0055400Y0062800D03*
X0046100Y0065500D03*
X0052400Y0073100D03*
X0061500Y0071700D03*
X0070900Y0067700D03*
X0071400Y0060500D03*
X0088100Y0060800D03*
X0089900Y0068100D03*
X0101000Y0072600D03*
X0103300Y0081000D03*
X0110800Y0086800D03*
X0120700Y0088100D03*
X0136100Y0088600D03*
X0139200Y0094500D03*
X0144900Y0094600D03*
X0150600Y0094700D03*
X0156100Y0095000D03*
X0136300Y0082700D03*
X0119500Y0077500D03*
X0092300Y0083500D03*
X0087100Y0075700D03*
X0066800Y0082000D03*
X0074300Y0094800D03*
X0081900Y0105700D03*
X0066400Y0115300D03*
X0056300Y0121500D03*
X0045000Y0121400D03*
X0039700Y0121400D03*
X0032000Y0119000D03*
X0032700Y0114000D03*
X0026200Y0113200D03*
X0021400Y0089300D03*
X0033400Y0081300D03*
X0038400Y0073000D03*
X0029300Y0067500D03*
X0029500Y0062200D03*
X0074500Y0032700D03*
X0074500Y0021400D03*
X0056400Y0012000D03*
X0058100Y0007100D03*
X0074800Y0008400D03*
X0098100Y0009100D03*
X0108100Y0009000D03*
X0109300Y0019300D03*
X0101800Y0029400D03*
X0092200Y0032500D03*
X0086800Y0043400D03*
X0087400Y0052000D03*
X0100600Y0053200D03*
X0118300Y0051100D03*
X0128700Y0051100D03*
X0140200Y0053400D03*
X0151500Y0053400D03*
X0172900Y0023600D03*
X0151200Y0013300D03*
X0128200Y0009000D03*
X0125400Y0103000D03*
X0121300Y0107500D03*
X0101600Y0106200D03*
X0100500Y0112700D03*
M02*
