%
M48
M72
T01C0.01600
T02C0.04000
%
T01
X35600Y9100
X41100Y17300
X48200Y27400
X58000Y26000
X57500Y35500
X50600Y36000
X34800Y34000
X32300Y47100
X47300Y56000
X55700Y55100
X55400Y62800
X46100Y65500
X52400Y73100
X61500Y71700
X70900Y67700
X71400Y60500
X88100Y60800
X89900Y68100
X101000Y72600
X103300Y81000
X110800Y86800
X120700Y88100
X136100Y88600
X139200Y94500
X144900Y94600
X150600Y94700
X156100Y95000
X136300Y82700
X119500Y77500
X92300Y83500
X87100Y75700
X66800Y82000
X74300Y94800
X81900Y105700
X66400Y115300
X56300Y121500
X45000Y121400
X39700Y121400
X32000Y119000
X32700Y114000
X26200Y113200
X21400Y89300
X33400Y81300
X38400Y73000
X29300Y67500
X29500Y62200
X74500Y32700
X74500Y21400
X56400Y12000
X58100Y7100
X74800Y8400
X98100Y9100
X108100Y9000
X109300Y19300
X101800Y29400
X92200Y32500
X86800Y43400
X87400Y52000
X100600Y53200
X118300Y51100
X128700Y51100
X140200Y53400
X151500Y53400
X172900Y23600
X151200Y13300
X128200Y9000
X125400Y103000
X121300Y107500
X101600Y106200
X100500Y112700
T02
X59800Y103700
X49800Y103700
X39800Y103700
X39800Y93700
X49800Y93700
X59800Y93700
M30
