G75*
%MOIN*%
%OFA0B0*%
%FSLAX25Y25*%
%IPPOS*%
%LPD*%
%AMOC8*
5,1,8,0,0,1.08239X$1,22.5*
%
%ADD10R,0.04800X0.04800*%
%ADD11C,0.04800*%
%ADD12C,0.04200*%
%ADD13C,0.02600*%
%ADD14C,0.01600*%
%ADD15C,0.00800*%
%ADD16C,0.01000*%
%ADD17C,0.03200*%
D10*
X0157124Y0095737D03*
D11*
X0157124Y0087863D03*
X0149250Y0087863D03*
X0141376Y0087863D03*
X0141376Y0095737D03*
X0149250Y0095737D03*
D12*
X0044350Y0097800D02*
X0040150Y0097800D01*
X0040150Y0102800D02*
X0044350Y0102800D01*
X0044350Y0107800D02*
X0040150Y0107800D01*
X0040150Y0112800D02*
X0044350Y0112800D01*
X0044350Y0117800D02*
X0040150Y0117800D01*
X0040150Y0092800D02*
X0044350Y0092800D01*
X0044350Y0087800D02*
X0040150Y0087800D01*
X0040150Y0082800D02*
X0044350Y0082800D01*
X0044350Y0077800D02*
X0040150Y0077800D01*
X0040150Y0072800D02*
X0044350Y0072800D01*
D13*
X0042250Y0031800D03*
X0054250Y0019300D03*
X0064250Y0026800D03*
X0068250Y0023800D03*
X0081250Y0020800D03*
X0086250Y0020800D03*
X0086250Y0014800D03*
X0081250Y0014800D03*
X0085250Y0029800D03*
X0063250Y0043800D03*
X0063250Y0049800D03*
X0063250Y0055800D03*
X0072250Y0067800D03*
X0079250Y0082800D03*
X0083250Y0085800D03*
X0071250Y0083800D03*
X0061250Y0085800D03*
X0071250Y0099800D03*
X0068250Y0105800D03*
X0078250Y0102800D03*
X0079750Y0114300D03*
X0084250Y0117300D03*
X0071250Y0116800D03*
X0068250Y0123800D03*
X0071250Y0131800D03*
X0082250Y0131800D03*
X0097250Y0139800D03*
X0095250Y0147800D03*
X0097250Y0155800D03*
X0113250Y0161800D03*
X0120250Y0155800D03*
X0125250Y0148800D03*
X0125250Y0143800D03*
X0125250Y0136800D03*
X0125250Y0130800D03*
X0105250Y0133800D03*
X0104250Y0127800D03*
X0100250Y0124800D03*
X0099250Y0118800D03*
X0102250Y0110800D03*
X0103750Y0093300D03*
X0101250Y0083800D03*
X0104250Y0073800D03*
X0125250Y0085800D03*
X0125250Y0091800D03*
X0128250Y0079800D03*
X0132250Y0075800D03*
X0154250Y0072800D03*
X0166250Y0072800D03*
X0171250Y0080800D03*
X0178250Y0072800D03*
X0182250Y0061800D03*
X0192250Y0067800D03*
X0203250Y0088800D03*
X0171250Y0090800D03*
X0149250Y0105800D03*
X0159250Y0118800D03*
X0149250Y0119800D03*
X0125250Y0112800D03*
X0125250Y0104800D03*
X0074250Y0145300D03*
X0079250Y0147800D03*
X0071250Y0152800D03*
X0066250Y0155800D03*
X0057250Y0155800D03*
X0049250Y0152800D03*
X0044250Y0159800D03*
X0033250Y0144800D03*
X0043250Y0140800D03*
X0066250Y0144800D03*
X0053250Y0116800D03*
X0055250Y0101800D03*
X0113250Y0148800D03*
X0125250Y0166800D03*
X0180250Y0118800D03*
X0188250Y0125800D03*
X0190250Y0165800D03*
X0156250Y0056800D03*
X0147250Y0043800D03*
X0139250Y0040800D03*
X0128250Y0039800D03*
X0123250Y0045800D03*
X0133250Y0052800D03*
X0162250Y0035800D03*
X0166250Y0035800D03*
X0170250Y0035800D03*
X0176250Y0028800D03*
X0190250Y0036800D03*
X0201250Y0044800D03*
X0157250Y0027800D03*
X0157250Y0018800D03*
X0145250Y0016800D03*
X0092250Y0051800D03*
X0087250Y0051800D03*
X0083250Y0051800D03*
X0079250Y0051800D03*
D14*
X0085250Y0029800D02*
X0144250Y0029800D01*
X0147250Y0032800D01*
X0147250Y0043800D01*
X0147250Y0057800D01*
X0151250Y0061800D01*
X0174250Y0061800D01*
X0180250Y0067800D01*
X0192250Y0067800D01*
X0191250Y0164800D02*
X0190250Y0165800D01*
X0068250Y0123800D02*
X0045250Y0123800D01*
X0042250Y0120800D01*
X0042250Y0117800D01*
D15*
X0053250Y0116800D02*
X0053250Y0105800D01*
X0051250Y0103800D01*
X0051250Y0095800D01*
X0048250Y0092800D01*
X0042250Y0092800D01*
X0042250Y0087800D02*
X0052250Y0087800D01*
X0055250Y0090800D01*
X0055250Y0101800D01*
X0042250Y0097800D02*
X0034250Y0097800D01*
X0033250Y0098800D01*
X0033250Y0133800D01*
X0035250Y0135800D01*
X0047250Y0135800D01*
X0049250Y0137800D01*
X0049250Y0139800D01*
X0051250Y0141800D01*
X0065250Y0141800D01*
X0066250Y0142800D01*
X0066250Y0144800D01*
X0071250Y0152800D02*
X0049250Y0152800D01*
X0105250Y0133800D02*
X0108250Y0130800D01*
X0108250Y0115800D01*
X0110250Y0113800D01*
X0110250Y0087800D01*
X0118250Y0079800D01*
X0128250Y0079800D01*
X0132250Y0075800D02*
X0113250Y0075800D01*
X0106250Y0082800D01*
X0106250Y0089800D01*
X0107250Y0090800D01*
X0107250Y0111800D01*
X0104250Y0114800D01*
X0104250Y0127800D01*
X0114250Y0138800D02*
X0113250Y0139800D01*
X0113250Y0148800D01*
X0117250Y0152800D02*
X0113250Y0156800D01*
X0113250Y0161800D01*
X0117250Y0152800D02*
X0117250Y0092800D01*
X0118250Y0091800D01*
X0125250Y0091800D01*
X0125250Y0085800D02*
X0116250Y0085800D01*
X0114250Y0087800D01*
X0114250Y0138800D01*
D16*
X0125250Y0136800D02*
X0125439Y0136989D01*
X0128250Y0136989D01*
X0130250Y0134989D01*
X0130250Y0115800D01*
X0134250Y0111800D01*
X0153250Y0111800D01*
X0157250Y0107800D01*
X0157250Y0104800D01*
X0162250Y0099800D01*
X0162250Y0074800D01*
X0164250Y0072800D01*
X0166250Y0072800D01*
X0154250Y0072800D02*
X0153250Y0073800D01*
X0153250Y0106800D01*
X0151250Y0108800D01*
X0133250Y0108800D01*
X0125250Y0116800D01*
X0125250Y0130800D01*
X0133250Y0121800D02*
X0133250Y0141816D01*
X0132171Y0142894D01*
X0126156Y0142894D01*
X0125250Y0143800D01*
X0125250Y0148800D02*
X0132171Y0148800D01*
X0136250Y0144721D01*
X0136250Y0124800D01*
X0138250Y0122800D01*
X0156250Y0122800D01*
X0159250Y0119800D01*
X0159250Y0118800D01*
X0149250Y0119800D02*
X0135250Y0119800D01*
X0133250Y0121800D01*
X0147250Y0105800D02*
X0149250Y0105800D01*
X0147250Y0105800D02*
X0145250Y0103800D01*
X0145250Y0089800D01*
X0147187Y0087863D01*
X0149250Y0087863D01*
D17*
X0201250Y0044800D02*
X0201250Y0036800D01*
X0196250Y0031800D01*
X0196250Y0023800D01*
X0188250Y0012800D01*
X0151250Y0012800D01*
X0147250Y0016800D01*
X0145250Y0016800D01*
M02*
