G75*
%MOIN*%
%OFA0B0*%
%FSLAX25Y25*%
%IPPOS*%
%LPD*%
%AMOC8*
5,1,8,0,0,1.08239X$1,22.5*
%
%ADD10R,0.03937X0.01575*%
%ADD11R,0.01693X0.01102*%
%ADD12R,0.02756X0.03543*%
%ADD13R,0.01102X0.01693*%
%ADD14R,0.00984X0.01378*%
%ADD15R,0.01378X0.00984*%
%ADD16R,0.07800X0.01400*%
%ADD17R,0.08600X0.02200*%
%ADD18R,0.03543X0.02756*%
%ADD19R,0.05000X0.02200*%
%ADD20R,0.02200X0.05000*%
%ADD21R,0.04724X0.05512*%
%ADD22R,0.04724X0.05906*%
%ADD23R,0.03150X0.04724*%
%ADD24R,0.05906X0.04724*%
%ADD25R,0.05512X0.05512*%
%ADD26R,0.04724X0.03150*%
%ADD27R,0.00984X0.03150*%
%ADD28R,0.01969X0.01969*%
%ADD29R,0.02362X0.04724*%
%ADD30R,0.04724X0.04724*%
%ADD31R,0.09843X0.04724*%
%ADD32R,0.08858X0.01969*%
%ADD33R,0.09843X0.07874*%
D10*
X0056341Y0072965D03*
X0056341Y0075524D03*
X0056341Y0078083D03*
X0056341Y0080643D03*
X0056341Y0088965D03*
X0056341Y0091524D03*
X0056341Y0094083D03*
X0056341Y0096643D03*
X0056341Y0105965D03*
X0056341Y0108524D03*
X0056341Y0111083D03*
X0056341Y0113643D03*
X0056341Y0120965D03*
X0056341Y0123524D03*
X0056341Y0126083D03*
X0056341Y0128643D03*
X0074156Y0128643D03*
X0074156Y0126083D03*
X0074156Y0123524D03*
X0074156Y0120965D03*
X0074156Y0113643D03*
X0074156Y0111083D03*
X0074156Y0108524D03*
X0074156Y0105965D03*
X0074156Y0096643D03*
X0074156Y0094083D03*
X0074156Y0091524D03*
X0074156Y0088965D03*
X0074156Y0080643D03*
X0074156Y0078083D03*
X0074156Y0075524D03*
X0074156Y0072965D03*
X0061156Y0144965D03*
X0061156Y0147524D03*
X0061156Y0150083D03*
X0061156Y0152643D03*
X0043341Y0152643D03*
X0043341Y0150083D03*
X0043341Y0147524D03*
X0043341Y0144965D03*
D11*
X0035250Y0149796D03*
X0035250Y0151804D03*
X0052250Y0125804D03*
X0052250Y0123796D03*
X0052250Y0110804D03*
X0052250Y0108796D03*
X0052250Y0093804D03*
X0052250Y0091796D03*
X0052250Y0077804D03*
X0052250Y0075796D03*
X0079250Y0077796D03*
X0079250Y0079804D03*
X0079250Y0091796D03*
X0079250Y0093804D03*
X0080250Y0109296D03*
X0080250Y0111304D03*
X0080250Y0123296D03*
X0080250Y0125304D03*
X0068250Y0147796D03*
X0068250Y0149804D03*
D12*
X0030691Y0031800D03*
X0035809Y0031800D03*
X0069691Y0037800D03*
X0074809Y0037800D03*
X0074691Y0031800D03*
X0079809Y0031800D03*
X0074809Y0045800D03*
X0069691Y0045800D03*
X0114691Y0033800D03*
X0119809Y0033800D03*
X0119691Y0027800D03*
X0124809Y0027800D03*
X0135691Y0027800D03*
X0140809Y0027800D03*
X0139691Y0051800D03*
X0144809Y0051800D03*
X0138809Y0057800D03*
X0133691Y0057800D03*
X0125809Y0057800D03*
X0120691Y0057800D03*
X0159691Y0061800D03*
X0164809Y0061800D03*
X0171691Y0061800D03*
X0176809Y0061800D03*
X0178691Y0091800D03*
X0183809Y0091800D03*
X0182809Y0113800D03*
X0177691Y0113800D03*
X0061809Y0134800D03*
X0056691Y0134800D03*
X0055809Y0159800D03*
X0050691Y0159800D03*
D13*
X0074246Y0153800D03*
X0076254Y0153800D03*
X0078246Y0153800D03*
X0080254Y0153800D03*
X0084246Y0159800D03*
X0086254Y0159800D03*
X0089246Y0159800D03*
X0091254Y0159800D03*
X0078254Y0141300D03*
X0076246Y0141300D03*
X0073254Y0141300D03*
X0071246Y0141300D03*
X0083246Y0135800D03*
X0085254Y0135800D03*
X0088246Y0135800D03*
X0090254Y0135800D03*
X0091254Y0128800D03*
X0093246Y0128800D03*
X0095254Y0128800D03*
X0089246Y0128800D03*
X0084754Y0122800D03*
X0082746Y0122800D03*
X0082746Y0111300D03*
X0084754Y0111300D03*
X0088246Y0104800D03*
X0090254Y0104800D03*
X0093246Y0104800D03*
X0095254Y0104800D03*
X0094254Y0097800D03*
X0092246Y0097800D03*
X0097246Y0097800D03*
X0099254Y0097800D03*
X0084254Y0091800D03*
X0082246Y0091800D03*
X0082246Y0079800D03*
X0084254Y0079800D03*
X0088246Y0073800D03*
X0090254Y0073800D03*
X0093246Y0073800D03*
X0095254Y0073800D03*
X0172246Y0072800D03*
X0174254Y0072800D03*
D14*
X0168234Y0080800D03*
X0166266Y0080800D03*
X0127234Y0108800D03*
X0125266Y0108800D03*
X0103734Y0097800D03*
X0101766Y0097800D03*
X0099234Y0104800D03*
X0097266Y0104800D03*
X0084734Y0105800D03*
X0082766Y0105800D03*
X0082766Y0108800D03*
X0084734Y0108800D03*
X0084734Y0114300D03*
X0082766Y0114300D03*
X0082766Y0120300D03*
X0084734Y0120300D03*
X0084734Y0125300D03*
X0082766Y0125300D03*
X0082766Y0127800D03*
X0084734Y0127800D03*
X0076234Y0131800D03*
X0074266Y0131800D03*
X0078266Y0135800D03*
X0080234Y0135800D03*
X0080234Y0138300D03*
X0078266Y0138300D03*
X0077766Y0144300D03*
X0079734Y0144300D03*
X0080234Y0151300D03*
X0078266Y0151300D03*
X0078266Y0156300D03*
X0080234Y0156300D03*
X0080234Y0158800D03*
X0078266Y0158800D03*
X0063234Y0155800D03*
X0061266Y0155800D03*
X0093266Y0135800D03*
X0095234Y0135800D03*
X0097266Y0128800D03*
X0099234Y0128800D03*
X0076234Y0116800D03*
X0074266Y0116800D03*
X0074266Y0099800D03*
X0076234Y0099800D03*
X0082266Y0097800D03*
X0084234Y0097800D03*
X0084234Y0094800D03*
X0082266Y0094800D03*
X0082266Y0089300D03*
X0084234Y0089300D03*
X0076234Y0083800D03*
X0074266Y0083800D03*
X0082266Y0082800D03*
X0084234Y0082800D03*
X0084234Y0076800D03*
X0082266Y0076800D03*
X0082266Y0073800D03*
X0084234Y0073800D03*
X0098266Y0073800D03*
X0100234Y0073800D03*
X0096234Y0159800D03*
X0094266Y0159800D03*
D15*
X0103250Y0159816D03*
X0103250Y0161784D03*
X0106250Y0161784D03*
X0106250Y0159816D03*
X0101250Y0135784D03*
X0101250Y0133816D03*
X0098250Y0133816D03*
X0098250Y0135784D03*
X0109250Y0130784D03*
X0109250Y0128816D03*
X0112250Y0128816D03*
X0112250Y0130784D03*
X0108250Y0105784D03*
X0108250Y0103816D03*
X0105250Y0103816D03*
X0105250Y0105784D03*
X0109250Y0099784D03*
X0109250Y0097816D03*
X0112250Y0097816D03*
X0112250Y0099784D03*
X0112250Y0074784D03*
X0112250Y0072816D03*
X0109250Y0072816D03*
X0109250Y0074784D03*
X0079250Y0086816D03*
X0079250Y0088784D03*
X0080250Y0117316D03*
X0080250Y0119284D03*
X0076250Y0147816D03*
X0076250Y0149784D03*
X0065250Y0149784D03*
X0065250Y0147816D03*
X0038250Y0149816D03*
X0038250Y0151784D03*
D16*
X0086550Y0151600D03*
X0086550Y0149000D03*
X0086550Y0146600D03*
X0086550Y0144000D03*
X0086550Y0141600D03*
X0086550Y0139000D03*
X0091550Y0125600D03*
X0091550Y0123000D03*
X0091550Y0120600D03*
X0091550Y0118000D03*
X0091550Y0115600D03*
X0091550Y0113000D03*
X0091550Y0110600D03*
X0091550Y0108000D03*
X0091550Y0094600D03*
X0091550Y0092000D03*
X0091550Y0089600D03*
X0091550Y0087000D03*
X0091550Y0084600D03*
X0091550Y0082000D03*
X0091550Y0079600D03*
X0091550Y0077000D03*
X0110950Y0077000D03*
X0110950Y0079600D03*
X0110950Y0082000D03*
X0110950Y0084600D03*
X0110950Y0087000D03*
X0110950Y0089600D03*
X0110950Y0092000D03*
X0110950Y0094600D03*
X0110950Y0108000D03*
X0110950Y0110600D03*
X0110950Y0113000D03*
X0110950Y0115600D03*
X0110950Y0118000D03*
X0110950Y0120600D03*
X0110950Y0123000D03*
X0110950Y0125600D03*
X0105950Y0139000D03*
X0105950Y0141600D03*
X0105950Y0144000D03*
X0105950Y0146600D03*
X0105950Y0149000D03*
X0105950Y0151600D03*
X0105950Y0154000D03*
X0105950Y0156600D03*
X0086550Y0156600D03*
X0086550Y0154000D03*
D17*
X0049550Y0053300D03*
X0049550Y0048300D03*
X0049550Y0043300D03*
X0049550Y0038300D03*
X0030950Y0038300D03*
X0030950Y0043300D03*
X0030950Y0048300D03*
X0030950Y0053300D03*
D18*
X0058250Y0055359D03*
X0058250Y0050241D03*
X0058250Y0043359D03*
X0058250Y0038241D03*
X0072250Y0024359D03*
X0072250Y0019241D03*
X0066250Y0019359D03*
X0066250Y0014241D03*
X0043250Y0019241D03*
X0043250Y0024359D03*
X0084250Y0057241D03*
X0084250Y0062359D03*
X0100250Y0040359D03*
X0100250Y0035241D03*
X0153250Y0036241D03*
X0153250Y0041359D03*
X0162250Y0049241D03*
X0162250Y0054359D03*
X0168250Y0054359D03*
X0174250Y0054359D03*
X0174250Y0049241D03*
X0168250Y0049241D03*
X0176250Y0038359D03*
X0176250Y0033241D03*
X0174250Y0023359D03*
X0174250Y0018241D03*
X0168250Y0018241D03*
X0168250Y0023359D03*
X0162250Y0023359D03*
X0162250Y0018241D03*
X0120250Y0161241D03*
X0120250Y0166359D03*
D19*
X0132350Y0106824D03*
X0132350Y0103674D03*
X0132350Y0100524D03*
X0132350Y0097375D03*
X0132350Y0094225D03*
X0132350Y0091076D03*
X0132350Y0087926D03*
X0132350Y0084776D03*
X0166150Y0084776D03*
X0166150Y0087926D03*
X0166150Y0091076D03*
X0166150Y0094225D03*
X0166150Y0097375D03*
X0166150Y0100524D03*
X0166150Y0103674D03*
X0166150Y0106824D03*
X0059350Y0023500D03*
X0059350Y0016100D03*
X0049150Y0016100D03*
X0049150Y0019800D03*
X0049150Y0023500D03*
D20*
X0084550Y0035700D03*
X0091950Y0035700D03*
X0091950Y0045900D03*
X0088250Y0045900D03*
X0084550Y0045900D03*
X0116550Y0050900D03*
X0120250Y0050900D03*
X0123950Y0050900D03*
X0135550Y0045900D03*
X0142950Y0045900D03*
X0142950Y0035700D03*
X0139250Y0035700D03*
X0135550Y0035700D03*
X0123950Y0040700D03*
X0116550Y0040700D03*
X0138226Y0078900D03*
X0141376Y0078900D03*
X0144526Y0078900D03*
X0147675Y0078900D03*
X0150825Y0078900D03*
X0153974Y0078900D03*
X0157124Y0078900D03*
X0160274Y0078900D03*
X0160274Y0112700D03*
X0157124Y0112700D03*
X0153974Y0112700D03*
X0150825Y0112700D03*
X0147675Y0112700D03*
X0144526Y0112700D03*
X0141376Y0112700D03*
X0138226Y0112700D03*
D21*
X0177100Y0107131D03*
X0183400Y0107131D03*
X0183400Y0098469D03*
X0177100Y0098469D03*
D22*
X0173195Y0127540D03*
X0166699Y0127540D03*
D23*
X0160203Y0128721D03*
X0156404Y0128721D03*
X0152604Y0128721D03*
X0148805Y0128721D03*
X0145006Y0128721D03*
X0141207Y0128721D03*
D24*
X0132171Y0131083D03*
X0132171Y0136989D03*
X0132171Y0142894D03*
X0132171Y0148800D03*
X0132171Y0154706D03*
X0132171Y0160611D03*
X0132171Y0166517D03*
X0182329Y0166517D03*
X0182329Y0160611D03*
X0182329Y0154706D03*
X0182329Y0148800D03*
X0182329Y0142894D03*
X0182329Y0136989D03*
X0182329Y0131083D03*
D25*
X0100250Y0062280D03*
X0100250Y0047320D03*
D26*
X0106250Y0042343D03*
X0106250Y0035257D03*
D27*
X0162313Y0029894D03*
X0164281Y0029894D03*
X0166250Y0029894D03*
X0168219Y0029894D03*
X0170187Y0029894D03*
X0170187Y0041706D03*
X0168219Y0041706D03*
X0166250Y0041706D03*
X0164281Y0041706D03*
X0162313Y0041706D03*
D28*
X0163297Y0037178D03*
X0163297Y0034422D03*
X0169203Y0034422D03*
X0169203Y0037178D03*
D29*
X0166250Y0035800D03*
D30*
X0182250Y0026934D03*
X0190250Y0026934D03*
X0190250Y0018666D03*
X0182250Y0018666D03*
X0182250Y0045666D03*
X0182250Y0053934D03*
D31*
X0202179Y0057761D03*
X0202179Y0067603D03*
X0202179Y0077446D03*
D32*
X0195163Y0109501D03*
X0195163Y0112650D03*
X0195163Y0115800D03*
X0195163Y0118950D03*
X0195163Y0122099D03*
D33*
X0195754Y0133320D03*
X0216817Y0133320D03*
X0216817Y0098280D03*
X0195557Y0098280D03*
M02*
