G75*
%MOIN*%
%OFA0B0*%
%FSLAX25Y25*%
%IPPOS*%
%LPD*%
%AMOC8*
5,1,8,0,0,1.08239X$1,22.5*
%
%ADD10C,0.04800*%
%ADD11C,0.04200*%
%ADD12C,0.02600*%
%ADD13C,0.01600*%
D10*
X0141376Y0087863D03*
X0149250Y0087863D03*
X0149250Y0095737D03*
X0141376Y0095737D03*
X0157124Y0095737D03*
X0157124Y0087863D03*
D11*
X0042250Y0087800D03*
X0042250Y0082800D03*
X0042250Y0077800D03*
X0042250Y0072800D03*
X0042250Y0092800D03*
X0042250Y0097800D03*
X0042250Y0102800D03*
X0042250Y0107800D03*
X0042250Y0112800D03*
X0042250Y0117800D03*
D12*
X0053250Y0116800D03*
X0068250Y0123800D03*
X0071250Y0116800D03*
X0079750Y0114300D03*
X0084250Y0117300D03*
X0099250Y0118800D03*
X0100250Y0124800D03*
X0104250Y0127800D03*
X0105250Y0133800D03*
X0097250Y0139800D03*
X0095250Y0147800D03*
X0097250Y0155800D03*
X0113250Y0161800D03*
X0120250Y0155800D03*
X0125250Y0148800D03*
X0125250Y0143800D03*
X0125250Y0136800D03*
X0125250Y0130800D03*
X0125250Y0112800D03*
X0125250Y0104800D03*
X0125250Y0091800D03*
X0125250Y0085800D03*
X0128250Y0079800D03*
X0132250Y0075800D03*
X0154250Y0072800D03*
X0166250Y0072800D03*
X0171250Y0080800D03*
X0178250Y0072800D03*
X0182250Y0061800D03*
X0192250Y0067800D03*
X0203250Y0088800D03*
X0171250Y0090800D03*
X0149250Y0105800D03*
X0159250Y0118800D03*
X0149250Y0119800D03*
X0180250Y0118800D03*
X0188250Y0125800D03*
X0190250Y0165800D03*
X0125250Y0166800D03*
X0113250Y0148800D03*
X0082250Y0131800D03*
X0071250Y0131800D03*
X0066250Y0144800D03*
X0074250Y0145300D03*
X0079250Y0147800D03*
X0071250Y0152800D03*
X0066250Y0155800D03*
X0057250Y0155800D03*
X0049250Y0152800D03*
X0044250Y0159800D03*
X0033250Y0144800D03*
X0043250Y0140800D03*
X0068250Y0105800D03*
X0071250Y0099800D03*
X0078250Y0102800D03*
X0083250Y0085800D03*
X0079250Y0082800D03*
X0071250Y0083800D03*
X0061250Y0085800D03*
X0055250Y0101800D03*
X0072250Y0067800D03*
X0063250Y0055800D03*
X0063250Y0049800D03*
X0063250Y0043800D03*
X0079250Y0051800D03*
X0083250Y0051800D03*
X0087250Y0051800D03*
X0092250Y0051800D03*
X0085250Y0029800D03*
X0086250Y0020800D03*
X0081250Y0020800D03*
X0081250Y0014800D03*
X0086250Y0014800D03*
X0068250Y0023800D03*
X0064250Y0026800D03*
X0054250Y0019300D03*
X0042250Y0031800D03*
X0104250Y0073800D03*
X0101250Y0083800D03*
X0103750Y0093300D03*
X0102250Y0110800D03*
X0156250Y0056800D03*
X0147250Y0043800D03*
X0139250Y0040800D03*
X0128250Y0039800D03*
X0123250Y0045800D03*
X0133250Y0052800D03*
X0162250Y0035800D03*
X0166250Y0035800D03*
X0170250Y0035800D03*
X0176250Y0028800D03*
X0190250Y0036800D03*
X0201250Y0044800D03*
X0157250Y0027800D03*
X0157250Y0018800D03*
X0145250Y0016800D03*
D13*
X0022361Y0009328D02*
X0021100Y0008600D01*
X0207400Y0008600D01*
X0206139Y0009328D01*
X0204219Y0011248D01*
X0202861Y0013599D01*
X0202159Y0016222D01*
X0202159Y0018937D01*
X0202861Y0021560D01*
X0204219Y0023911D01*
X0206139Y0025831D01*
X0208490Y0027189D01*
X0211113Y0027891D01*
X0213828Y0027891D01*
X0216451Y0027189D01*
X0218802Y0025831D01*
X0220722Y0023911D01*
X0221450Y0022650D01*
X0221450Y0160950D01*
X0220722Y0159689D01*
X0218802Y0157769D01*
X0216451Y0156411D01*
X0213828Y0155709D01*
X0211113Y0155709D01*
X0208490Y0156411D01*
X0206139Y0157769D01*
X0204219Y0159689D01*
X0202861Y0162040D01*
X0202159Y0164663D01*
X0202159Y0167378D01*
X0202861Y0170001D01*
X0204219Y0172352D01*
X0206139Y0174272D01*
X0207400Y0175000D01*
X0194850Y0175000D01*
X0187250Y0174800D01*
X0187250Y0121800D01*
X0151351Y0121800D01*
X0151708Y0121443D01*
X0152150Y0120377D01*
X0152150Y0119223D01*
X0151708Y0118157D01*
X0150893Y0117341D01*
X0149827Y0116900D01*
X0148673Y0116900D01*
X0147607Y0117341D01*
X0146791Y0118157D01*
X0146350Y0119223D01*
X0146350Y0120377D01*
X0146791Y0121443D01*
X0147149Y0121800D01*
X0127250Y0121800D01*
X0127250Y0128699D01*
X0126893Y0128341D01*
X0125827Y0127900D01*
X0124673Y0127900D01*
X0123607Y0128341D01*
X0122791Y0129157D01*
X0122350Y0130223D01*
X0122350Y0131377D01*
X0122791Y0132443D01*
X0123607Y0133258D01*
X0124673Y0133700D01*
X0125827Y0133700D01*
X0126893Y0133258D01*
X0127250Y0132901D01*
X0127250Y0134699D01*
X0126893Y0134341D01*
X0125827Y0133900D01*
X0124673Y0133900D01*
X0123607Y0134341D01*
X0122791Y0135157D01*
X0122350Y0136223D01*
X0122350Y0137377D01*
X0122791Y0138443D01*
X0123607Y0139258D01*
X0124673Y0139700D01*
X0125827Y0139700D01*
X0126893Y0139258D01*
X0127250Y0138901D01*
X0127250Y0141699D01*
X0126893Y0141341D01*
X0125827Y0140900D01*
X0124673Y0140900D01*
X0123607Y0141341D01*
X0122791Y0142157D01*
X0122350Y0143223D01*
X0122350Y0144377D01*
X0122791Y0145443D01*
X0123607Y0146258D01*
X0123707Y0146300D01*
X0123607Y0146341D01*
X0122791Y0147157D01*
X0122350Y0148223D01*
X0122350Y0149377D01*
X0122791Y0150443D01*
X0123607Y0151258D01*
X0124673Y0151700D01*
X0125827Y0151700D01*
X0126893Y0151258D01*
X0127250Y0150901D01*
X0127250Y0164699D01*
X0126893Y0164341D01*
X0125827Y0163900D01*
X0124673Y0163900D01*
X0123607Y0164341D01*
X0122791Y0165157D01*
X0122350Y0166223D01*
X0122350Y0167377D01*
X0122791Y0168443D01*
X0123607Y0169258D01*
X0124673Y0169700D01*
X0125827Y0169700D01*
X0126893Y0169258D01*
X0127250Y0168901D01*
X0127250Y0174800D01*
X0103449Y0175000D01*
X0021100Y0175000D01*
X0022361Y0174272D01*
X0024281Y0172352D01*
X0025639Y0170001D01*
X0026341Y0167378D01*
X0026341Y0164663D01*
X0025639Y0162040D01*
X0024281Y0159689D01*
X0022361Y0157769D01*
X0020010Y0156411D01*
X0017387Y0155709D01*
X0014672Y0155709D01*
X0012049Y0156411D01*
X0009698Y0157769D01*
X0008250Y0159217D01*
X0008250Y0024383D01*
X0009698Y0025831D01*
X0012049Y0027189D01*
X0014672Y0027891D01*
X0017387Y0027891D01*
X0020010Y0027189D01*
X0022361Y0025831D01*
X0024281Y0023911D01*
X0025639Y0021560D01*
X0026341Y0018937D01*
X0026341Y0016222D01*
X0025639Y0013599D01*
X0024281Y0011248D01*
X0022361Y0009328D01*
X0023227Y0010194D02*
X0205273Y0010194D01*
X0203905Y0011793D02*
X0024595Y0011793D01*
X0025518Y0013391D02*
X0202982Y0013391D01*
X0202489Y0014990D02*
X0147541Y0014990D01*
X0147708Y0015157D02*
X0148150Y0016223D01*
X0148150Y0017377D01*
X0147708Y0018443D01*
X0146893Y0019258D01*
X0145827Y0019700D01*
X0144673Y0019700D01*
X0143607Y0019258D01*
X0142791Y0018443D01*
X0142350Y0017377D01*
X0142350Y0016223D01*
X0142791Y0015157D01*
X0143607Y0014341D01*
X0144673Y0013900D01*
X0145827Y0013900D01*
X0146893Y0014341D01*
X0147708Y0015157D01*
X0148150Y0016588D02*
X0202159Y0016588D01*
X0202159Y0018187D02*
X0147815Y0018187D01*
X0142685Y0018187D02*
X0026341Y0018187D01*
X0026341Y0016588D02*
X0142350Y0016588D01*
X0142959Y0014990D02*
X0026011Y0014990D01*
X0026114Y0019785D02*
X0202386Y0019785D01*
X0202814Y0021384D02*
X0069935Y0021384D01*
X0069893Y0021341D02*
X0070708Y0022157D01*
X0071150Y0023223D01*
X0071150Y0024377D01*
X0070708Y0025443D01*
X0069893Y0026258D01*
X0068827Y0026700D01*
X0067673Y0026700D01*
X0067150Y0026483D01*
X0067150Y0027377D01*
X0066708Y0028443D01*
X0065893Y0029258D01*
X0064827Y0029700D01*
X0063673Y0029700D01*
X0062607Y0029258D01*
X0061791Y0028443D01*
X0061350Y0027377D01*
X0061350Y0026223D01*
X0061791Y0025157D01*
X0062607Y0024341D01*
X0063673Y0023900D01*
X0064827Y0023900D01*
X0065350Y0024117D01*
X0065350Y0023223D01*
X0065791Y0022157D01*
X0066607Y0021341D01*
X0067673Y0020900D01*
X0068827Y0020900D01*
X0069893Y0021341D01*
X0071050Y0022982D02*
X0203683Y0022982D01*
X0204889Y0024581D02*
X0071066Y0024581D01*
X0069972Y0026179D02*
X0154782Y0026179D01*
X0154791Y0026157D02*
X0155607Y0025341D01*
X0156673Y0024900D01*
X0157827Y0024900D01*
X0158893Y0025341D01*
X0159708Y0026157D01*
X0160150Y0027223D01*
X0160150Y0028377D01*
X0159708Y0029443D01*
X0158893Y0030258D01*
X0157827Y0030700D01*
X0156673Y0030700D01*
X0155607Y0030258D01*
X0154791Y0029443D01*
X0154350Y0028377D01*
X0154350Y0027223D01*
X0154791Y0026157D01*
X0154350Y0027778D02*
X0087329Y0027778D01*
X0087708Y0028157D02*
X0086893Y0027341D01*
X0085827Y0026900D01*
X0084673Y0026900D01*
X0083607Y0027341D01*
X0082791Y0028157D01*
X0082350Y0029223D01*
X0082350Y0030377D01*
X0082791Y0031443D01*
X0083607Y0032258D01*
X0084673Y0032700D01*
X0085827Y0032700D01*
X0086893Y0032258D01*
X0087708Y0031443D01*
X0088150Y0030377D01*
X0088150Y0029223D01*
X0087708Y0028157D01*
X0088150Y0029376D02*
X0154764Y0029376D01*
X0159736Y0029376D02*
X0221450Y0029376D01*
X0221450Y0027778D02*
X0214252Y0027778D01*
X0218199Y0026179D02*
X0221450Y0026179D01*
X0221450Y0024581D02*
X0220052Y0024581D01*
X0221258Y0022982D02*
X0221450Y0022982D01*
X0221450Y0030975D02*
X0087902Y0030975D01*
X0086133Y0032573D02*
X0221450Y0032573D01*
X0221450Y0034172D02*
X0191483Y0034172D01*
X0191893Y0034341D02*
X0192708Y0035157D01*
X0193150Y0036223D01*
X0193150Y0037377D01*
X0192708Y0038443D01*
X0191893Y0039258D01*
X0190827Y0039700D01*
X0189673Y0039700D01*
X0188607Y0039258D01*
X0187791Y0038443D01*
X0187350Y0037377D01*
X0187350Y0036223D01*
X0187791Y0035157D01*
X0188607Y0034341D01*
X0189673Y0033900D01*
X0190827Y0033900D01*
X0191893Y0034341D01*
X0192962Y0035770D02*
X0221450Y0035770D01*
X0221450Y0037369D02*
X0193150Y0037369D01*
X0192184Y0038967D02*
X0221450Y0038967D01*
X0221450Y0040566D02*
X0131072Y0040566D01*
X0131150Y0040377D02*
X0130708Y0041443D01*
X0129893Y0042258D01*
X0128827Y0042700D01*
X0127673Y0042700D01*
X0126607Y0042258D01*
X0125791Y0041443D01*
X0125350Y0040377D01*
X0125350Y0039223D01*
X0125791Y0038157D01*
X0126607Y0037341D01*
X0127673Y0036900D01*
X0128827Y0036900D01*
X0129893Y0037341D01*
X0130708Y0038157D01*
X0131150Y0039223D01*
X0131150Y0040377D01*
X0131044Y0038967D02*
X0188316Y0038967D01*
X0187350Y0037369D02*
X0129920Y0037369D01*
X0126580Y0037369D02*
X0008250Y0037369D01*
X0008250Y0038967D02*
X0125456Y0038967D01*
X0125428Y0040566D02*
X0008250Y0040566D01*
X0008250Y0042164D02*
X0126513Y0042164D01*
X0129987Y0042164D02*
X0144789Y0042164D01*
X0144791Y0042157D02*
X0145607Y0041341D01*
X0146673Y0040900D01*
X0147827Y0040900D01*
X0148893Y0041341D01*
X0149708Y0042157D01*
X0150150Y0043223D01*
X0150150Y0044377D01*
X0149708Y0045443D01*
X0148893Y0046258D01*
X0147827Y0046700D01*
X0146673Y0046700D01*
X0145607Y0046258D01*
X0144791Y0045443D01*
X0144350Y0044377D01*
X0144350Y0043223D01*
X0144791Y0042157D01*
X0144350Y0043763D02*
X0008250Y0043763D01*
X0008250Y0045361D02*
X0144758Y0045361D01*
X0149742Y0045361D02*
X0198350Y0045361D01*
X0198350Y0045377D02*
X0198350Y0044223D01*
X0198791Y0043157D01*
X0199607Y0042341D01*
X0200673Y0041900D01*
X0201827Y0041900D01*
X0202893Y0042341D01*
X0203708Y0043157D01*
X0204150Y0044223D01*
X0204150Y0045377D01*
X0203708Y0046443D01*
X0202893Y0047258D01*
X0201827Y0047700D01*
X0200673Y0047700D01*
X0199607Y0047258D01*
X0198791Y0046443D01*
X0198350Y0045377D01*
X0198541Y0043763D02*
X0150150Y0043763D01*
X0149711Y0042164D02*
X0200035Y0042164D01*
X0202465Y0042164D02*
X0221450Y0042164D01*
X0221450Y0043763D02*
X0203959Y0043763D01*
X0204150Y0045361D02*
X0221450Y0045361D01*
X0221450Y0046960D02*
X0203191Y0046960D01*
X0199309Y0046960D02*
X0063971Y0046960D01*
X0063827Y0046900D02*
X0064893Y0047341D01*
X0065708Y0048157D01*
X0066150Y0049223D01*
X0066150Y0050377D01*
X0065708Y0051443D01*
X0064893Y0052258D01*
X0063827Y0052700D01*
X0062673Y0052700D01*
X0061607Y0052258D01*
X0060791Y0051443D01*
X0060350Y0050377D01*
X0060350Y0049223D01*
X0060791Y0048157D01*
X0061607Y0047341D01*
X0062673Y0046900D01*
X0063827Y0046900D01*
X0062529Y0046960D02*
X0008250Y0046960D01*
X0008250Y0048558D02*
X0060625Y0048558D01*
X0060350Y0050157D02*
X0008250Y0050157D01*
X0008250Y0051755D02*
X0061104Y0051755D01*
X0065396Y0051755D02*
X0130544Y0051755D01*
X0130350Y0052223D02*
X0130791Y0051157D01*
X0131607Y0050341D01*
X0132673Y0049900D01*
X0133827Y0049900D01*
X0134893Y0050341D01*
X0135708Y0051157D01*
X0136150Y0052223D01*
X0136150Y0053377D01*
X0135708Y0054443D01*
X0134893Y0055258D01*
X0133827Y0055700D01*
X0132673Y0055700D01*
X0131607Y0055258D01*
X0130791Y0054443D01*
X0130350Y0053377D01*
X0130350Y0052223D01*
X0130350Y0053354D02*
X0008250Y0053354D01*
X0008250Y0054952D02*
X0131301Y0054952D01*
X0135199Y0054952D02*
X0206434Y0054952D01*
X0206434Y0055525D02*
X0206434Y0052910D01*
X0207435Y0050495D01*
X0209283Y0048646D01*
X0211699Y0047646D01*
X0214313Y0047646D01*
X0216728Y0048646D01*
X0218577Y0050495D01*
X0219578Y0052910D01*
X0219578Y0055525D01*
X0218577Y0057940D01*
X0216728Y0059788D01*
X0214313Y0060789D01*
X0211699Y0060789D01*
X0209283Y0059788D01*
X0207435Y0057940D01*
X0206434Y0055525D01*
X0206859Y0056551D02*
X0008250Y0056551D01*
X0008250Y0058149D02*
X0207644Y0058149D01*
X0209243Y0059748D02*
X0008250Y0059748D01*
X0008250Y0061346D02*
X0221450Y0061346D01*
X0221450Y0059748D02*
X0216769Y0059748D01*
X0218368Y0058149D02*
X0221450Y0058149D01*
X0221450Y0056551D02*
X0219152Y0056551D01*
X0219578Y0054952D02*
X0221450Y0054952D01*
X0221450Y0053354D02*
X0219578Y0053354D01*
X0219099Y0051755D02*
X0221450Y0051755D01*
X0221450Y0050157D02*
X0218239Y0050157D01*
X0216516Y0048558D02*
X0221450Y0048558D01*
X0209495Y0048558D02*
X0065875Y0048558D01*
X0066150Y0050157D02*
X0132053Y0050157D01*
X0134447Y0050157D02*
X0207773Y0050157D01*
X0206913Y0051755D02*
X0135956Y0051755D01*
X0136150Y0053354D02*
X0206434Y0053354D01*
X0193893Y0065341D02*
X0192827Y0064900D01*
X0191673Y0064900D01*
X0190607Y0065341D01*
X0189791Y0066157D01*
X0189350Y0067223D01*
X0189350Y0068377D01*
X0189791Y0069443D01*
X0190607Y0070258D01*
X0191673Y0070700D01*
X0192827Y0070700D01*
X0193893Y0070258D01*
X0194708Y0069443D01*
X0195150Y0068377D01*
X0195150Y0067223D01*
X0194708Y0066157D01*
X0193893Y0065341D01*
X0194693Y0066142D02*
X0221450Y0066142D01*
X0221450Y0067740D02*
X0195150Y0067740D01*
X0194751Y0069339D02*
X0221450Y0069339D01*
X0221450Y0070937D02*
X0180489Y0070937D01*
X0180708Y0071157D02*
X0181150Y0072223D01*
X0181150Y0073377D01*
X0180708Y0074443D01*
X0179893Y0075258D01*
X0178827Y0075700D01*
X0177673Y0075700D01*
X0176607Y0075258D01*
X0175791Y0074443D01*
X0175350Y0073377D01*
X0175350Y0072223D01*
X0175791Y0071157D01*
X0176607Y0070341D01*
X0177673Y0069900D01*
X0178827Y0069900D01*
X0179893Y0070341D01*
X0180708Y0071157D01*
X0181150Y0072536D02*
X0221450Y0072536D01*
X0221450Y0074134D02*
X0180836Y0074134D01*
X0175664Y0074134D02*
X0168836Y0074134D01*
X0168708Y0074443D02*
X0169150Y0073377D01*
X0169150Y0072223D01*
X0168708Y0071157D01*
X0167893Y0070341D01*
X0166827Y0069900D01*
X0165673Y0069900D01*
X0164607Y0070341D01*
X0163791Y0071157D01*
X0163350Y0072223D01*
X0163350Y0073377D01*
X0163791Y0074443D01*
X0164607Y0075258D01*
X0165673Y0075700D01*
X0166827Y0075700D01*
X0167893Y0075258D01*
X0168708Y0074443D01*
X0169150Y0072536D02*
X0175350Y0072536D01*
X0176011Y0070937D02*
X0168489Y0070937D01*
X0164011Y0070937D02*
X0156489Y0070937D01*
X0156708Y0071157D02*
X0157150Y0072223D01*
X0157150Y0073377D01*
X0156708Y0074443D01*
X0155893Y0075258D01*
X0154827Y0075700D01*
X0153673Y0075700D01*
X0152607Y0075258D01*
X0151791Y0074443D01*
X0151350Y0073377D01*
X0151350Y0072223D01*
X0151791Y0071157D01*
X0152607Y0070341D01*
X0153673Y0069900D01*
X0154827Y0069900D01*
X0155893Y0070341D01*
X0156708Y0071157D01*
X0157150Y0072536D02*
X0163350Y0072536D01*
X0163664Y0074134D02*
X0156836Y0074134D01*
X0152011Y0070937D02*
X0045483Y0070937D01*
X0045387Y0070704D02*
X0045950Y0072064D01*
X0045950Y0073536D01*
X0045387Y0074896D01*
X0044983Y0075300D01*
X0045387Y0075704D01*
X0045950Y0077064D01*
X0045950Y0078536D01*
X0045387Y0079896D01*
X0044983Y0080300D01*
X0045387Y0080704D01*
X0045950Y0082064D01*
X0045950Y0083536D01*
X0045387Y0084896D01*
X0044983Y0085300D01*
X0045387Y0085704D01*
X0045950Y0087064D01*
X0045950Y0088536D01*
X0045387Y0089896D01*
X0044983Y0090300D01*
X0045387Y0090704D01*
X0045950Y0092064D01*
X0045950Y0093536D01*
X0045387Y0094896D01*
X0044983Y0095300D01*
X0045387Y0095704D01*
X0045950Y0097064D01*
X0045950Y0098536D01*
X0045387Y0099896D01*
X0044983Y0100300D01*
X0045387Y0100704D01*
X0045950Y0102064D01*
X0045950Y0103536D01*
X0045387Y0104896D01*
X0044983Y0105300D01*
X0045387Y0105704D01*
X0045950Y0107064D01*
X0045950Y0108536D01*
X0045387Y0109896D01*
X0044983Y0110300D01*
X0045387Y0110704D01*
X0045950Y0112064D01*
X0045950Y0113536D01*
X0045387Y0114896D01*
X0044983Y0115300D01*
X0045387Y0115704D01*
X0045950Y0117064D01*
X0045950Y0118536D01*
X0045387Y0119896D01*
X0044346Y0120937D01*
X0042986Y0121500D01*
X0041514Y0121500D01*
X0040154Y0120937D01*
X0039113Y0119896D01*
X0038550Y0118536D01*
X0038550Y0117064D01*
X0039113Y0115704D01*
X0039517Y0115300D01*
X0039113Y0114896D01*
X0038550Y0113536D01*
X0038550Y0112064D01*
X0039113Y0110704D01*
X0039517Y0110300D01*
X0039113Y0109896D01*
X0038550Y0108536D01*
X0038550Y0107064D01*
X0039113Y0105704D01*
X0039517Y0105300D01*
X0039113Y0104896D01*
X0038550Y0103536D01*
X0038550Y0102064D01*
X0039113Y0100704D01*
X0039517Y0100300D01*
X0039113Y0099896D01*
X0038550Y0098536D01*
X0038550Y0097064D01*
X0039113Y0095704D01*
X0039517Y0095300D01*
X0039113Y0094896D01*
X0038550Y0093536D01*
X0038550Y0092064D01*
X0039113Y0090704D01*
X0039517Y0090300D01*
X0039113Y0089896D01*
X0038550Y0088536D01*
X0038550Y0087064D01*
X0039113Y0085704D01*
X0039517Y0085300D01*
X0039113Y0084896D01*
X0038550Y0083536D01*
X0038550Y0082064D01*
X0039113Y0080704D01*
X0039517Y0080300D01*
X0039113Y0079896D01*
X0038550Y0078536D01*
X0038550Y0077064D01*
X0039113Y0075704D01*
X0039517Y0075300D01*
X0039113Y0074896D01*
X0038550Y0073536D01*
X0038550Y0072064D01*
X0039113Y0070704D01*
X0040154Y0069663D01*
X0041514Y0069100D01*
X0042986Y0069100D01*
X0044346Y0069663D01*
X0045387Y0070704D01*
X0045950Y0072536D02*
X0151350Y0072536D01*
X0151664Y0074134D02*
X0134686Y0074134D01*
X0134708Y0074157D02*
X0135150Y0075223D01*
X0135150Y0076377D01*
X0134708Y0077443D01*
X0133893Y0078258D01*
X0132827Y0078700D01*
X0131673Y0078700D01*
X0130780Y0078330D01*
X0131150Y0079223D01*
X0131150Y0080377D01*
X0130708Y0081443D01*
X0129893Y0082258D01*
X0128827Y0082700D01*
X0127673Y0082700D01*
X0126607Y0082258D01*
X0125791Y0081443D01*
X0125350Y0080377D01*
X0125350Y0079223D01*
X0125791Y0078157D01*
X0126607Y0077341D01*
X0127673Y0076900D01*
X0128827Y0076900D01*
X0129720Y0077270D01*
X0129350Y0076377D01*
X0129350Y0075223D01*
X0129791Y0074157D01*
X0130607Y0073341D01*
X0131673Y0072900D01*
X0132827Y0072900D01*
X0133893Y0073341D01*
X0134708Y0074157D01*
X0135150Y0075733D02*
X0208968Y0075733D01*
X0209283Y0075418D02*
X0207435Y0077266D01*
X0206434Y0079682D01*
X0206434Y0082296D01*
X0207435Y0084712D01*
X0209283Y0086560D01*
X0211699Y0087561D01*
X0214313Y0087561D01*
X0216728Y0086560D01*
X0218577Y0084712D01*
X0219578Y0082296D01*
X0219578Y0079682D01*
X0218577Y0077266D01*
X0216728Y0075418D01*
X0214313Y0074417D01*
X0211699Y0074417D01*
X0209283Y0075418D01*
X0207408Y0077332D02*
X0134755Y0077332D01*
X0131029Y0078930D02*
X0206746Y0078930D01*
X0206434Y0080529D02*
X0131087Y0080529D01*
X0130024Y0082127D02*
X0206434Y0082127D01*
X0207026Y0083726D02*
X0142102Y0083726D01*
X0142359Y0083766D02*
X0142988Y0083971D01*
X0143577Y0084271D01*
X0144112Y0084659D01*
X0144580Y0085127D01*
X0144968Y0085662D01*
X0145268Y0086251D01*
X0145409Y0086684D01*
X0145859Y0085597D01*
X0146984Y0084472D01*
X0148454Y0083863D01*
X0150046Y0083863D01*
X0151516Y0084472D01*
X0152641Y0085597D01*
X0153187Y0086915D01*
X0153733Y0085597D01*
X0154858Y0084472D01*
X0156328Y0083863D01*
X0157920Y0083863D01*
X0159390Y0084472D01*
X0160515Y0085597D01*
X0161124Y0087067D01*
X0161124Y0088659D01*
X0160515Y0090129D01*
X0159390Y0091254D01*
X0158072Y0091800D01*
X0159390Y0092346D01*
X0160515Y0093471D01*
X0161124Y0094941D01*
X0161124Y0096533D01*
X0160515Y0098003D01*
X0159390Y0099128D01*
X0157920Y0099737D01*
X0156328Y0099737D01*
X0154858Y0099128D01*
X0153733Y0098003D01*
X0153187Y0096685D01*
X0152641Y0098003D01*
X0151516Y0099128D01*
X0150046Y0099737D01*
X0148454Y0099737D01*
X0146984Y0099128D01*
X0145859Y0098003D01*
X0145313Y0096685D01*
X0144767Y0098003D01*
X0143642Y0099128D01*
X0142172Y0099737D01*
X0140580Y0099737D01*
X0139110Y0099128D01*
X0137985Y0098003D01*
X0137376Y0096533D01*
X0137376Y0094941D01*
X0137985Y0093471D01*
X0139110Y0092346D01*
X0140197Y0091896D01*
X0139764Y0091755D01*
X0139175Y0091455D01*
X0138640Y0091067D01*
X0138172Y0090599D01*
X0137784Y0090064D01*
X0137484Y0089475D01*
X0137279Y0088846D01*
X0137176Y0088194D01*
X0137176Y0087863D01*
X0141376Y0087863D01*
X0141376Y0083663D01*
X0141707Y0083663D01*
X0142359Y0083766D01*
X0141376Y0083726D02*
X0141376Y0083726D01*
X0141376Y0083663D02*
X0141376Y0087863D01*
X0141376Y0087863D01*
X0141376Y0087863D01*
X0137176Y0087863D01*
X0137176Y0087532D01*
X0137279Y0086879D01*
X0137484Y0086251D01*
X0137784Y0085662D01*
X0138172Y0085127D01*
X0138640Y0084659D01*
X0139175Y0084271D01*
X0139764Y0083971D01*
X0140392Y0083766D01*
X0141045Y0083663D01*
X0141376Y0083663D01*
X0140650Y0083726D02*
X0127277Y0083726D01*
X0126893Y0083341D02*
X0127708Y0084157D01*
X0128150Y0085223D01*
X0128150Y0086377D01*
X0127708Y0087443D01*
X0126893Y0088258D01*
X0125827Y0088700D01*
X0124673Y0088700D01*
X0123607Y0088258D01*
X0122791Y0087443D01*
X0122350Y0086377D01*
X0122350Y0085223D01*
X0122791Y0084157D01*
X0123607Y0083341D01*
X0124673Y0082900D01*
X0125827Y0082900D01*
X0126893Y0083341D01*
X0126476Y0082127D02*
X0073678Y0082127D01*
X0073708Y0082157D02*
X0074150Y0083223D01*
X0074150Y0084377D01*
X0073708Y0085443D01*
X0072893Y0086258D01*
X0071827Y0086700D01*
X0070673Y0086700D01*
X0069607Y0086258D01*
X0068791Y0085443D01*
X0068350Y0084377D01*
X0068350Y0083223D01*
X0068791Y0082157D01*
X0069607Y0081341D01*
X0070673Y0080900D01*
X0071827Y0080900D01*
X0072893Y0081341D01*
X0073708Y0082157D01*
X0074150Y0083726D02*
X0081223Y0083726D01*
X0081607Y0083341D02*
X0082673Y0082900D01*
X0083827Y0082900D01*
X0084893Y0083341D01*
X0085708Y0084157D01*
X0086150Y0085223D01*
X0086150Y0086377D01*
X0085708Y0087443D01*
X0084893Y0088258D01*
X0083827Y0088700D01*
X0082673Y0088700D01*
X0081607Y0088258D01*
X0080791Y0087443D01*
X0080350Y0086377D01*
X0080350Y0085223D01*
X0080791Y0084157D01*
X0081607Y0083341D01*
X0080350Y0085324D02*
X0073758Y0085324D01*
X0068742Y0085324D02*
X0064150Y0085324D01*
X0064150Y0085223D02*
X0063708Y0084157D01*
X0062893Y0083341D01*
X0061827Y0082900D01*
X0060673Y0082900D01*
X0059607Y0083341D01*
X0058791Y0084157D01*
X0058350Y0085223D01*
X0058350Y0086377D01*
X0058791Y0087443D01*
X0059607Y0088258D01*
X0060673Y0088700D01*
X0061827Y0088700D01*
X0062893Y0088258D01*
X0063708Y0087443D01*
X0064150Y0086377D01*
X0064150Y0085223D01*
X0063924Y0086923D02*
X0080576Y0086923D01*
X0082241Y0088521D02*
X0062259Y0088521D01*
X0060241Y0088521D02*
X0045950Y0088521D01*
X0045891Y0086923D02*
X0058576Y0086923D01*
X0058350Y0085324D02*
X0045007Y0085324D01*
X0045871Y0083726D02*
X0059223Y0083726D01*
X0063277Y0083726D02*
X0068350Y0083726D01*
X0068822Y0082127D02*
X0045950Y0082127D01*
X0045211Y0080529D02*
X0125413Y0080529D01*
X0125471Y0078930D02*
X0045787Y0078930D01*
X0045950Y0077332D02*
X0126631Y0077332D01*
X0129350Y0075733D02*
X0045399Y0075733D01*
X0045702Y0074134D02*
X0129814Y0074134D01*
X0123223Y0083726D02*
X0085277Y0083726D01*
X0086150Y0085324D02*
X0122350Y0085324D01*
X0122576Y0086923D02*
X0085924Y0086923D01*
X0084259Y0088521D02*
X0124241Y0088521D01*
X0124673Y0088900D02*
X0123607Y0089341D01*
X0122791Y0090157D01*
X0122350Y0091223D01*
X0122350Y0092377D01*
X0122791Y0093443D01*
X0123607Y0094258D01*
X0124673Y0094700D01*
X0125827Y0094700D01*
X0126893Y0094258D01*
X0127708Y0093443D01*
X0128150Y0092377D01*
X0128150Y0091223D01*
X0127708Y0090157D01*
X0126893Y0089341D01*
X0125827Y0088900D01*
X0124673Y0088900D01*
X0126259Y0088521D02*
X0137228Y0088521D01*
X0137273Y0086923D02*
X0127924Y0086923D01*
X0128150Y0085324D02*
X0138029Y0085324D01*
X0141376Y0085324D02*
X0141376Y0085324D01*
X0141376Y0086923D02*
X0141376Y0086923D01*
X0144723Y0085324D02*
X0146132Y0085324D01*
X0152368Y0085324D02*
X0154006Y0085324D01*
X0160242Y0085324D02*
X0208047Y0085324D01*
X0210158Y0086923D02*
X0161064Y0086923D01*
X0161124Y0088521D02*
X0221450Y0088521D01*
X0221450Y0086923D02*
X0215853Y0086923D01*
X0217965Y0085324D02*
X0221450Y0085324D01*
X0221450Y0083726D02*
X0218985Y0083726D01*
X0219578Y0082127D02*
X0221450Y0082127D01*
X0221450Y0080529D02*
X0219578Y0080529D01*
X0219266Y0078930D02*
X0221450Y0078930D01*
X0221450Y0077332D02*
X0218604Y0077332D01*
X0217044Y0075733D02*
X0221450Y0075733D01*
X0221450Y0064543D02*
X0008250Y0064543D01*
X0008250Y0062945D02*
X0221450Y0062945D01*
X0189807Y0066142D02*
X0008250Y0066142D01*
X0008250Y0067740D02*
X0189350Y0067740D01*
X0189749Y0069339D02*
X0043563Y0069339D01*
X0040937Y0069339D02*
X0008250Y0069339D01*
X0008250Y0070937D02*
X0039017Y0070937D01*
X0038550Y0072536D02*
X0030391Y0072536D01*
X0030017Y0072162D02*
X0031888Y0074033D01*
X0032900Y0076477D01*
X0032900Y0079123D01*
X0031888Y0081567D01*
X0030017Y0083438D01*
X0027573Y0084450D01*
X0024927Y0084450D01*
X0022483Y0083438D01*
X0020612Y0081567D01*
X0019600Y0079123D01*
X0019600Y0076477D01*
X0020612Y0074033D01*
X0022483Y0072162D01*
X0024927Y0071150D01*
X0027573Y0071150D01*
X0030017Y0072162D01*
X0031930Y0074134D02*
X0038798Y0074134D01*
X0039101Y0075733D02*
X0032592Y0075733D01*
X0032900Y0077332D02*
X0038550Y0077332D01*
X0038713Y0078930D02*
X0032900Y0078930D01*
X0032318Y0080529D02*
X0039289Y0080529D01*
X0038550Y0082127D02*
X0031327Y0082127D01*
X0029322Y0083726D02*
X0038629Y0083726D01*
X0039493Y0085324D02*
X0008250Y0085324D01*
X0008250Y0083726D02*
X0023178Y0083726D01*
X0021173Y0082127D02*
X0008250Y0082127D01*
X0008250Y0080529D02*
X0020182Y0080529D01*
X0019600Y0078930D02*
X0008250Y0078930D01*
X0008250Y0077332D02*
X0019600Y0077332D01*
X0019908Y0075733D02*
X0008250Y0075733D01*
X0008250Y0074134D02*
X0020570Y0074134D01*
X0022109Y0072536D02*
X0008250Y0072536D01*
X0008250Y0086923D02*
X0038609Y0086923D01*
X0038550Y0088521D02*
X0008250Y0088521D01*
X0008250Y0090120D02*
X0022026Y0090120D01*
X0022483Y0089662D02*
X0024927Y0088650D01*
X0027573Y0088650D01*
X0030017Y0089662D01*
X0031888Y0091533D01*
X0032900Y0093977D01*
X0032900Y0096623D01*
X0031888Y0099067D01*
X0030017Y0100938D01*
X0027573Y0101950D01*
X0024927Y0101950D01*
X0022483Y0100938D01*
X0020612Y0099067D01*
X0019600Y0096623D01*
X0019600Y0093977D01*
X0020612Y0091533D01*
X0022483Y0089662D01*
X0020536Y0091718D02*
X0008250Y0091718D01*
X0008250Y0093317D02*
X0019874Y0093317D01*
X0019600Y0094915D02*
X0008250Y0094915D01*
X0008250Y0096514D02*
X0019600Y0096514D01*
X0020217Y0098112D02*
X0008250Y0098112D01*
X0008250Y0099711D02*
X0021256Y0099711D01*
X0023380Y0101309D02*
X0008250Y0101309D01*
X0008250Y0102908D02*
X0038550Y0102908D01*
X0038863Y0101309D02*
X0029120Y0101309D01*
X0031244Y0099711D02*
X0039037Y0099711D01*
X0038550Y0098112D02*
X0032283Y0098112D01*
X0032900Y0096514D02*
X0038778Y0096514D01*
X0039133Y0094915D02*
X0032900Y0094915D01*
X0032626Y0093317D02*
X0038550Y0093317D01*
X0038693Y0091718D02*
X0031964Y0091718D01*
X0030474Y0090120D02*
X0039337Y0090120D01*
X0045163Y0090120D02*
X0122829Y0090120D01*
X0122350Y0091718D02*
X0045807Y0091718D01*
X0045950Y0093317D02*
X0122739Y0093317D01*
X0127761Y0093317D02*
X0138139Y0093317D01*
X0137387Y0094915D02*
X0045367Y0094915D01*
X0045722Y0096514D02*
X0137376Y0096514D01*
X0138094Y0098112D02*
X0073663Y0098112D01*
X0073708Y0098157D02*
X0074150Y0099223D01*
X0074150Y0100377D01*
X0073708Y0101443D01*
X0072893Y0102258D01*
X0071827Y0102700D01*
X0070673Y0102700D01*
X0069607Y0102258D01*
X0068791Y0101443D01*
X0068350Y0100377D01*
X0068350Y0099223D01*
X0068791Y0098157D01*
X0069607Y0097341D01*
X0070673Y0096900D01*
X0071827Y0096900D01*
X0072893Y0097341D01*
X0073708Y0098157D01*
X0074150Y0099711D02*
X0140517Y0099711D01*
X0142235Y0099711D02*
X0148391Y0099711D01*
X0150109Y0099711D02*
X0156265Y0099711D01*
X0157983Y0099711D02*
X0221450Y0099711D01*
X0221450Y0101309D02*
X0208892Y0101309D01*
X0209516Y0101567D02*
X0207100Y0100567D01*
X0204486Y0100567D01*
X0202071Y0101567D01*
X0200222Y0103416D01*
X0199222Y0105831D01*
X0199222Y0108446D01*
X0200222Y0110861D01*
X0202071Y0112710D01*
X0204486Y0113710D01*
X0207100Y0113710D01*
X0209516Y0112710D01*
X0211364Y0110861D01*
X0212365Y0108446D01*
X0212365Y0105831D01*
X0211364Y0103416D01*
X0209516Y0101567D01*
X0210856Y0102908D02*
X0221450Y0102908D01*
X0221450Y0104506D02*
X0211816Y0104506D01*
X0212365Y0106105D02*
X0221450Y0106105D01*
X0221450Y0107703D02*
X0212365Y0107703D01*
X0212010Y0109302D02*
X0221450Y0109302D01*
X0221450Y0110900D02*
X0211325Y0110900D01*
X0209727Y0112499D02*
X0221450Y0112499D01*
X0221450Y0114097D02*
X0072303Y0114097D01*
X0071827Y0113900D02*
X0072893Y0114341D01*
X0073708Y0115157D01*
X0074150Y0116223D01*
X0074150Y0117377D01*
X0073708Y0118443D01*
X0072893Y0119258D01*
X0071827Y0119700D01*
X0070673Y0119700D01*
X0069607Y0119258D01*
X0068791Y0118443D01*
X0068350Y0117377D01*
X0068350Y0116223D01*
X0068791Y0115157D01*
X0069607Y0114341D01*
X0070673Y0113900D01*
X0071827Y0113900D01*
X0070197Y0114097D02*
X0054303Y0114097D01*
X0053827Y0113900D02*
X0054893Y0114341D01*
X0055708Y0115157D01*
X0056150Y0116223D01*
X0056150Y0117377D01*
X0055708Y0118443D01*
X0054893Y0119258D01*
X0053827Y0119700D01*
X0052673Y0119700D01*
X0051607Y0119258D01*
X0050791Y0118443D01*
X0050350Y0117377D01*
X0050350Y0116223D01*
X0050791Y0115157D01*
X0051607Y0114341D01*
X0052673Y0113900D01*
X0053827Y0113900D01*
X0052197Y0114097D02*
X0045717Y0114097D01*
X0045950Y0112499D02*
X0201860Y0112499D01*
X0200261Y0110900D02*
X0045468Y0110900D01*
X0045633Y0109302D02*
X0199576Y0109302D01*
X0199222Y0107703D02*
X0151448Y0107703D01*
X0151708Y0107443D02*
X0150893Y0108258D01*
X0149827Y0108700D01*
X0148673Y0108700D01*
X0147607Y0108258D01*
X0146791Y0107443D01*
X0146350Y0106377D01*
X0146350Y0105223D01*
X0146791Y0104157D01*
X0147607Y0103341D01*
X0148673Y0102900D01*
X0149827Y0102900D01*
X0150893Y0103341D01*
X0151708Y0104157D01*
X0152150Y0105223D01*
X0152150Y0106377D01*
X0151708Y0107443D01*
X0152150Y0106105D02*
X0199222Y0106105D01*
X0199771Y0104506D02*
X0151853Y0104506D01*
X0149845Y0102908D02*
X0200730Y0102908D01*
X0202694Y0101309D02*
X0073764Y0101309D01*
X0070708Y0104157D02*
X0071150Y0105223D01*
X0071150Y0106377D01*
X0070708Y0107443D01*
X0069893Y0108258D01*
X0068827Y0108700D01*
X0067673Y0108700D01*
X0066607Y0108258D01*
X0065791Y0107443D01*
X0065350Y0106377D01*
X0065350Y0105223D01*
X0065791Y0104157D01*
X0066607Y0103341D01*
X0067673Y0102900D01*
X0068827Y0102900D01*
X0069893Y0103341D01*
X0070708Y0104157D01*
X0070853Y0104506D02*
X0122350Y0104506D01*
X0122350Y0104223D02*
X0122791Y0103157D01*
X0123607Y0102341D01*
X0124673Y0101900D01*
X0125827Y0101900D01*
X0126893Y0102341D01*
X0127708Y0103157D01*
X0128150Y0104223D01*
X0128150Y0105377D01*
X0127708Y0106443D01*
X0126893Y0107258D01*
X0125827Y0107700D01*
X0124673Y0107700D01*
X0123607Y0107258D01*
X0122791Y0106443D01*
X0122350Y0105377D01*
X0122350Y0104223D01*
X0123041Y0102908D02*
X0068845Y0102908D01*
X0067655Y0102908D02*
X0057930Y0102908D01*
X0058150Y0102377D02*
X0057708Y0103443D01*
X0056893Y0104258D01*
X0055827Y0104700D01*
X0054673Y0104700D01*
X0053607Y0104258D01*
X0052791Y0103443D01*
X0052350Y0102377D01*
X0052350Y0101223D01*
X0052791Y0100157D01*
X0053607Y0099341D01*
X0054673Y0098900D01*
X0055827Y0098900D01*
X0056893Y0099341D01*
X0057708Y0100157D01*
X0058150Y0101223D01*
X0058150Y0102377D01*
X0058150Y0101309D02*
X0068736Y0101309D01*
X0068350Y0099711D02*
X0057262Y0099711D01*
X0053238Y0099711D02*
X0045463Y0099711D01*
X0045637Y0101309D02*
X0052350Y0101309D01*
X0052570Y0102908D02*
X0045950Y0102908D01*
X0045548Y0104506D02*
X0054205Y0104506D01*
X0056295Y0104506D02*
X0065647Y0104506D01*
X0065350Y0106105D02*
X0045553Y0106105D01*
X0045950Y0107703D02*
X0066052Y0107703D01*
X0070448Y0107703D02*
X0147052Y0107703D01*
X0146350Y0106105D02*
X0127848Y0106105D01*
X0128150Y0104506D02*
X0146647Y0104506D01*
X0148655Y0102908D02*
X0127459Y0102908D01*
X0122652Y0106105D02*
X0071150Y0106105D01*
X0068837Y0098112D02*
X0045950Y0098112D01*
X0038952Y0104506D02*
X0008250Y0104506D01*
X0008250Y0106105D02*
X0038947Y0106105D01*
X0038550Y0107703D02*
X0030558Y0107703D01*
X0030017Y0107162D02*
X0031888Y0109033D01*
X0032900Y0111477D01*
X0032900Y0114123D01*
X0031888Y0116567D01*
X0030017Y0118438D01*
X0027573Y0119450D01*
X0024927Y0119450D01*
X0022483Y0118438D01*
X0020612Y0116567D01*
X0019600Y0114123D01*
X0019600Y0111477D01*
X0020612Y0109033D01*
X0022483Y0107162D01*
X0024927Y0106150D01*
X0027573Y0106150D01*
X0030017Y0107162D01*
X0031999Y0109302D02*
X0038867Y0109302D01*
X0039032Y0110900D02*
X0032661Y0110900D01*
X0032900Y0112499D02*
X0038550Y0112499D01*
X0038783Y0114097D02*
X0032900Y0114097D01*
X0032248Y0115696D02*
X0039122Y0115696D01*
X0038550Y0117294D02*
X0031160Y0117294D01*
X0028918Y0118893D02*
X0038698Y0118893D01*
X0039709Y0120491D02*
X0008250Y0120491D01*
X0008250Y0118893D02*
X0023582Y0118893D01*
X0021340Y0117294D02*
X0008250Y0117294D01*
X0008250Y0115696D02*
X0020252Y0115696D01*
X0019600Y0114097D02*
X0008250Y0114097D01*
X0008250Y0112499D02*
X0019600Y0112499D01*
X0019839Y0110900D02*
X0008250Y0110900D01*
X0008250Y0109302D02*
X0020501Y0109302D01*
X0021942Y0107703D02*
X0008250Y0107703D01*
X0008250Y0122090D02*
X0065859Y0122090D01*
X0065791Y0122157D02*
X0066607Y0121341D01*
X0067673Y0120900D01*
X0068827Y0120900D01*
X0069893Y0121341D01*
X0070708Y0122157D01*
X0071150Y0123223D01*
X0071150Y0124377D01*
X0070708Y0125443D01*
X0069893Y0126258D01*
X0068827Y0126700D01*
X0067673Y0126700D01*
X0066607Y0126258D01*
X0065791Y0125443D01*
X0065350Y0124377D01*
X0065350Y0123223D01*
X0065791Y0122157D01*
X0065350Y0123688D02*
X0008250Y0123688D01*
X0008250Y0125287D02*
X0065727Y0125287D01*
X0070773Y0125287D02*
X0102739Y0125287D01*
X0102607Y0125341D02*
X0103673Y0124900D01*
X0104827Y0124900D01*
X0105893Y0125341D01*
X0106708Y0126157D01*
X0107150Y0127223D01*
X0107150Y0128377D01*
X0106708Y0129443D01*
X0105893Y0130258D01*
X0104827Y0130700D01*
X0103673Y0130700D01*
X0102607Y0130258D01*
X0101791Y0129443D01*
X0101350Y0128377D01*
X0101350Y0127223D01*
X0101791Y0126157D01*
X0102607Y0125341D01*
X0101490Y0126885D02*
X0008250Y0126885D01*
X0008250Y0128484D02*
X0101394Y0128484D01*
X0102431Y0130082D02*
X0073634Y0130082D01*
X0073708Y0130157D02*
X0074150Y0131223D01*
X0074150Y0132377D01*
X0073708Y0133443D01*
X0072893Y0134258D01*
X0071827Y0134700D01*
X0070673Y0134700D01*
X0069607Y0134258D01*
X0068791Y0133443D01*
X0068350Y0132377D01*
X0068350Y0131223D01*
X0068791Y0130157D01*
X0069607Y0129341D01*
X0070673Y0128900D01*
X0071827Y0128900D01*
X0072893Y0129341D01*
X0073708Y0130157D01*
X0074150Y0131681D02*
X0103268Y0131681D01*
X0103607Y0131341D02*
X0102791Y0132157D01*
X0102350Y0133223D01*
X0102350Y0134377D01*
X0102791Y0135443D01*
X0103607Y0136258D01*
X0104673Y0136700D01*
X0105827Y0136700D01*
X0106893Y0136258D01*
X0107708Y0135443D01*
X0108150Y0134377D01*
X0108150Y0133223D01*
X0107708Y0132157D01*
X0106893Y0131341D01*
X0105827Y0130900D01*
X0104673Y0130900D01*
X0103607Y0131341D01*
X0102350Y0133279D02*
X0073776Y0133279D01*
X0068724Y0133279D02*
X0008250Y0133279D01*
X0008250Y0131681D02*
X0068350Y0131681D01*
X0068866Y0130082D02*
X0008250Y0130082D01*
X0008250Y0134878D02*
X0102558Y0134878D01*
X0104133Y0136476D02*
X0008250Y0136476D01*
X0008250Y0138075D02*
X0122639Y0138075D01*
X0122350Y0136476D02*
X0106367Y0136476D01*
X0107942Y0134878D02*
X0123071Y0134878D01*
X0123658Y0133279D02*
X0108150Y0133279D01*
X0107232Y0131681D02*
X0122476Y0131681D01*
X0122408Y0130082D02*
X0106069Y0130082D01*
X0107106Y0128484D02*
X0123465Y0128484D01*
X0127035Y0128484D02*
X0127250Y0128484D01*
X0127250Y0126885D02*
X0107010Y0126885D01*
X0105761Y0125287D02*
X0127250Y0125287D01*
X0127250Y0123688D02*
X0071150Y0123688D01*
X0070641Y0122090D02*
X0127250Y0122090D01*
X0127250Y0133279D02*
X0126842Y0133279D01*
X0127250Y0139673D02*
X0125891Y0139673D01*
X0124609Y0139673D02*
X0008250Y0139673D01*
X0008250Y0141272D02*
X0123775Y0141272D01*
X0122496Y0142870D02*
X0068422Y0142870D01*
X0068708Y0143157D02*
X0067893Y0142341D01*
X0066827Y0141900D01*
X0065673Y0141900D01*
X0064607Y0142341D01*
X0063791Y0143157D01*
X0063350Y0144223D01*
X0063350Y0145377D01*
X0063791Y0146443D01*
X0064607Y0147258D01*
X0065673Y0147700D01*
X0066827Y0147700D01*
X0067893Y0147258D01*
X0068708Y0146443D01*
X0069150Y0145377D01*
X0069150Y0144223D01*
X0068708Y0143157D01*
X0069150Y0144469D02*
X0122388Y0144469D01*
X0123416Y0146068D02*
X0114231Y0146068D01*
X0113827Y0145900D02*
X0114893Y0146341D01*
X0115708Y0147157D01*
X0116150Y0148223D01*
X0116150Y0149377D01*
X0115708Y0150443D01*
X0114893Y0151258D01*
X0113827Y0151700D01*
X0112673Y0151700D01*
X0111607Y0151258D01*
X0110791Y0150443D01*
X0110350Y0149377D01*
X0110350Y0148223D01*
X0110791Y0147157D01*
X0111607Y0146341D01*
X0112673Y0145900D01*
X0113827Y0145900D01*
X0112269Y0146068D02*
X0081619Y0146068D01*
X0081708Y0146157D02*
X0082150Y0147223D01*
X0082150Y0148377D01*
X0081708Y0149443D01*
X0080893Y0150258D01*
X0079827Y0150700D01*
X0078673Y0150700D01*
X0077607Y0150258D01*
X0076791Y0149443D01*
X0076350Y0148377D01*
X0076350Y0147223D01*
X0076791Y0146157D01*
X0077607Y0145341D01*
X0078673Y0144900D01*
X0079827Y0144900D01*
X0080893Y0145341D01*
X0081708Y0146157D01*
X0082150Y0147666D02*
X0110581Y0147666D01*
X0110350Y0149265D02*
X0081782Y0149265D01*
X0076718Y0149265D02*
X0008250Y0149265D01*
X0008250Y0150863D02*
X0047086Y0150863D01*
X0046791Y0151157D02*
X0047607Y0150341D01*
X0048673Y0149900D01*
X0049827Y0149900D01*
X0050893Y0150341D01*
X0051708Y0151157D01*
X0052150Y0152223D01*
X0052150Y0153377D01*
X0051708Y0154443D01*
X0050893Y0155258D01*
X0049827Y0155700D01*
X0048673Y0155700D01*
X0047607Y0155258D01*
X0046791Y0154443D01*
X0046350Y0153377D01*
X0046350Y0152223D01*
X0046791Y0151157D01*
X0046350Y0152462D02*
X0008250Y0152462D01*
X0008250Y0154060D02*
X0046633Y0154060D01*
X0048573Y0155659D02*
X0008250Y0155659D01*
X0008250Y0157257D02*
X0010585Y0157257D01*
X0008611Y0158856D02*
X0008250Y0158856D01*
X0008250Y0147666D02*
X0032591Y0147666D01*
X0032673Y0147700D02*
X0031607Y0147258D01*
X0030791Y0146443D01*
X0030350Y0145377D01*
X0030350Y0144223D01*
X0030791Y0143157D01*
X0031607Y0142341D01*
X0032673Y0141900D01*
X0033827Y0141900D01*
X0034893Y0142341D01*
X0035708Y0143157D01*
X0036150Y0144223D01*
X0036150Y0145377D01*
X0035708Y0146443D01*
X0034893Y0147258D01*
X0033827Y0147700D01*
X0032673Y0147700D01*
X0033909Y0147666D02*
X0065591Y0147666D01*
X0066909Y0147666D02*
X0076350Y0147666D01*
X0076881Y0146068D02*
X0068864Y0146068D01*
X0070673Y0149900D02*
X0071827Y0149900D01*
X0072893Y0150341D01*
X0073708Y0151157D01*
X0074150Y0152223D01*
X0074150Y0153377D01*
X0073708Y0154443D01*
X0072893Y0155258D01*
X0071827Y0155700D01*
X0070673Y0155700D01*
X0069607Y0155258D01*
X0068791Y0154443D01*
X0068350Y0153377D01*
X0068350Y0152223D01*
X0068791Y0151157D01*
X0069607Y0150341D01*
X0070673Y0149900D01*
X0069086Y0150863D02*
X0051414Y0150863D01*
X0052150Y0152462D02*
X0068350Y0152462D01*
X0068633Y0154060D02*
X0059611Y0154060D01*
X0059708Y0154157D02*
X0060150Y0155223D01*
X0060150Y0156377D01*
X0059708Y0157443D01*
X0058893Y0158258D01*
X0057827Y0158700D01*
X0056673Y0158700D01*
X0055607Y0158258D01*
X0054791Y0157443D01*
X0054350Y0156377D01*
X0054350Y0155223D01*
X0054791Y0154157D01*
X0055607Y0153341D01*
X0056673Y0152900D01*
X0057827Y0152900D01*
X0058893Y0153341D01*
X0059708Y0154157D01*
X0060150Y0155659D02*
X0070573Y0155659D01*
X0071927Y0155659D02*
X0127250Y0155659D01*
X0127250Y0157257D02*
X0059785Y0157257D01*
X0054715Y0157257D02*
X0045689Y0157257D01*
X0045893Y0157341D02*
X0046708Y0158157D01*
X0047150Y0159223D01*
X0047150Y0160377D01*
X0046708Y0161443D01*
X0045893Y0162258D01*
X0044827Y0162700D01*
X0043673Y0162700D01*
X0042607Y0162258D01*
X0041791Y0161443D01*
X0041350Y0160377D01*
X0041350Y0159223D01*
X0041791Y0158157D01*
X0042607Y0157341D01*
X0043673Y0156900D01*
X0044827Y0156900D01*
X0045893Y0157341D01*
X0046998Y0158856D02*
X0127250Y0158856D01*
X0127250Y0160454D02*
X0115831Y0160454D01*
X0115708Y0160157D02*
X0116150Y0161223D01*
X0116150Y0162377D01*
X0115708Y0163443D01*
X0114893Y0164258D01*
X0113827Y0164700D01*
X0112673Y0164700D01*
X0111607Y0164258D01*
X0110791Y0163443D01*
X0110350Y0162377D01*
X0110350Y0161223D01*
X0110791Y0160157D01*
X0111607Y0159341D01*
X0112673Y0158900D01*
X0113827Y0158900D01*
X0114893Y0159341D01*
X0115708Y0160157D01*
X0116150Y0162053D02*
X0127250Y0162053D01*
X0127250Y0163651D02*
X0115500Y0163651D01*
X0111000Y0163651D02*
X0026070Y0163651D01*
X0026341Y0165250D02*
X0122753Y0165250D01*
X0122350Y0166848D02*
X0026341Y0166848D01*
X0026055Y0168447D02*
X0122795Y0168447D01*
X0127250Y0170045D02*
X0025613Y0170045D01*
X0024690Y0171644D02*
X0127250Y0171644D01*
X0127250Y0173242D02*
X0023391Y0173242D01*
X0021376Y0174841D02*
X0122405Y0174841D01*
X0110350Y0162053D02*
X0046099Y0162053D01*
X0047118Y0160454D02*
X0110669Y0160454D01*
X0111212Y0150863D02*
X0073414Y0150863D01*
X0074150Y0152462D02*
X0127250Y0152462D01*
X0127250Y0154060D02*
X0073867Y0154060D01*
X0063636Y0146068D02*
X0035864Y0146068D01*
X0036150Y0144469D02*
X0063350Y0144469D01*
X0064078Y0142870D02*
X0035422Y0142870D01*
X0031078Y0142870D02*
X0008250Y0142870D01*
X0008250Y0144469D02*
X0030350Y0144469D01*
X0030636Y0146068D02*
X0008250Y0146068D01*
X0021474Y0157257D02*
X0042811Y0157257D01*
X0041502Y0158856D02*
X0023448Y0158856D01*
X0024723Y0160454D02*
X0041382Y0160454D01*
X0042401Y0162053D02*
X0025642Y0162053D01*
X0049927Y0155659D02*
X0054350Y0155659D01*
X0054889Y0154060D02*
X0051867Y0154060D01*
X0044791Y0120491D02*
X0146397Y0120491D01*
X0146487Y0118893D02*
X0086729Y0118893D01*
X0086708Y0118943D02*
X0085893Y0119758D01*
X0084827Y0120200D01*
X0083673Y0120200D01*
X0082607Y0119758D01*
X0081791Y0118943D01*
X0081350Y0117877D01*
X0081350Y0116723D01*
X0081791Y0115657D01*
X0082607Y0114841D01*
X0083673Y0114400D01*
X0084827Y0114400D01*
X0085893Y0114841D01*
X0086708Y0115657D01*
X0087150Y0116723D01*
X0087150Y0117877D01*
X0086708Y0118943D01*
X0087150Y0117294D02*
X0147721Y0117294D01*
X0150779Y0117294D02*
X0156735Y0117294D01*
X0156791Y0117157D02*
X0157607Y0116341D01*
X0158673Y0115900D01*
X0159827Y0115900D01*
X0160893Y0116341D01*
X0161708Y0117157D01*
X0162150Y0118223D01*
X0162150Y0119377D01*
X0161708Y0120443D01*
X0160893Y0121258D01*
X0159827Y0121700D01*
X0158673Y0121700D01*
X0157607Y0121258D01*
X0156791Y0120443D01*
X0156350Y0119377D01*
X0156350Y0118223D01*
X0156791Y0117157D01*
X0156350Y0118893D02*
X0152013Y0118893D01*
X0152103Y0120491D02*
X0156840Y0120491D01*
X0161660Y0120491D02*
X0200470Y0120491D01*
X0200222Y0120739D02*
X0202071Y0118890D01*
X0204486Y0117890D01*
X0207100Y0117890D01*
X0209516Y0118890D01*
X0211364Y0120739D01*
X0212365Y0123154D01*
X0212365Y0125769D01*
X0211364Y0128184D01*
X0209516Y0130033D01*
X0207100Y0131033D01*
X0204486Y0131033D01*
X0202071Y0130033D01*
X0200222Y0128184D01*
X0199222Y0125769D01*
X0199222Y0123154D01*
X0200222Y0120739D01*
X0199663Y0122090D02*
X0187250Y0122090D01*
X0187250Y0123688D02*
X0199222Y0123688D01*
X0199222Y0125287D02*
X0187250Y0125287D01*
X0187250Y0126885D02*
X0199684Y0126885D01*
X0200522Y0128484D02*
X0187250Y0128484D01*
X0187250Y0130082D02*
X0202191Y0130082D01*
X0209396Y0130082D02*
X0221450Y0130082D01*
X0221450Y0128484D02*
X0211065Y0128484D01*
X0211902Y0126885D02*
X0221450Y0126885D01*
X0221450Y0125287D02*
X0212365Y0125287D01*
X0212365Y0123688D02*
X0221450Y0123688D01*
X0221450Y0122090D02*
X0211924Y0122090D01*
X0211117Y0120491D02*
X0221450Y0120491D01*
X0221450Y0118893D02*
X0209518Y0118893D01*
X0202068Y0118893D02*
X0162150Y0118893D01*
X0161765Y0117294D02*
X0221450Y0117294D01*
X0221450Y0115696D02*
X0086724Y0115696D01*
X0081776Y0115696D02*
X0073932Y0115696D01*
X0074150Y0117294D02*
X0081350Y0117294D01*
X0081771Y0118893D02*
X0073258Y0118893D01*
X0069242Y0118893D02*
X0055258Y0118893D01*
X0056150Y0117294D02*
X0068350Y0117294D01*
X0068568Y0115696D02*
X0055932Y0115696D01*
X0051242Y0118893D02*
X0045802Y0118893D01*
X0045950Y0117294D02*
X0050350Y0117294D01*
X0050568Y0115696D02*
X0045378Y0115696D01*
X0115919Y0147666D02*
X0122581Y0147666D01*
X0122350Y0149265D02*
X0116150Y0149265D01*
X0115288Y0150863D02*
X0123212Y0150863D01*
X0126725Y0141272D02*
X0127250Y0141272D01*
X0144658Y0098112D02*
X0145968Y0098112D01*
X0152532Y0098112D02*
X0153842Y0098112D01*
X0160406Y0098112D02*
X0221450Y0098112D01*
X0221450Y0096514D02*
X0161124Y0096514D01*
X0161113Y0094915D02*
X0221450Y0094915D01*
X0221450Y0093317D02*
X0160360Y0093317D01*
X0158269Y0091718D02*
X0221450Y0091718D01*
X0221450Y0090120D02*
X0160519Y0090120D01*
X0139691Y0091718D02*
X0128150Y0091718D01*
X0127671Y0090120D02*
X0137824Y0090120D01*
X0187250Y0131681D02*
X0221450Y0131681D01*
X0221450Y0133279D02*
X0187250Y0133279D01*
X0187250Y0134878D02*
X0221450Y0134878D01*
X0221450Y0136476D02*
X0187250Y0136476D01*
X0187250Y0138075D02*
X0221450Y0138075D01*
X0221450Y0139673D02*
X0187250Y0139673D01*
X0187250Y0141272D02*
X0221450Y0141272D01*
X0221450Y0142870D02*
X0187250Y0142870D01*
X0187250Y0144469D02*
X0221450Y0144469D01*
X0221450Y0146068D02*
X0187250Y0146068D01*
X0187250Y0147666D02*
X0221450Y0147666D01*
X0221450Y0149265D02*
X0187250Y0149265D01*
X0187250Y0150863D02*
X0221450Y0150863D01*
X0221450Y0152462D02*
X0187250Y0152462D01*
X0187250Y0154060D02*
X0221450Y0154060D01*
X0221450Y0155659D02*
X0187250Y0155659D01*
X0187250Y0157257D02*
X0207026Y0157257D01*
X0205052Y0158856D02*
X0187250Y0158856D01*
X0187250Y0160454D02*
X0203777Y0160454D01*
X0202858Y0162053D02*
X0187250Y0162053D01*
X0187250Y0163651D02*
X0202430Y0163651D01*
X0202159Y0165250D02*
X0187250Y0165250D01*
X0187250Y0166848D02*
X0202159Y0166848D01*
X0202445Y0168447D02*
X0187250Y0168447D01*
X0187250Y0170045D02*
X0202887Y0170045D01*
X0203810Y0171644D02*
X0187250Y0171644D01*
X0187250Y0173242D02*
X0205109Y0173242D01*
X0207124Y0174841D02*
X0188797Y0174841D01*
X0217915Y0157257D02*
X0221450Y0157257D01*
X0221450Y0158856D02*
X0219889Y0158856D01*
X0221164Y0160454D02*
X0221450Y0160454D01*
X0187538Y0035770D02*
X0008250Y0035770D01*
X0008250Y0034172D02*
X0189017Y0034172D01*
X0206742Y0026179D02*
X0159718Y0026179D01*
X0160150Y0027778D02*
X0210689Y0027778D01*
X0084367Y0032573D02*
X0008250Y0032573D01*
X0008250Y0030975D02*
X0082598Y0030975D01*
X0082350Y0029376D02*
X0065609Y0029376D01*
X0066984Y0027778D02*
X0083171Y0027778D01*
X0066565Y0021384D02*
X0025686Y0021384D01*
X0024817Y0022982D02*
X0065450Y0022982D01*
X0062368Y0024581D02*
X0023611Y0024581D01*
X0021758Y0026179D02*
X0061368Y0026179D01*
X0061516Y0027778D02*
X0017811Y0027778D01*
X0014248Y0027778D02*
X0008250Y0027778D01*
X0008250Y0029376D02*
X0062891Y0029376D01*
X0010301Y0026179D02*
X0008250Y0026179D01*
X0008250Y0024581D02*
X0008448Y0024581D01*
M02*
