%
M48
M72
T01C0.01600
T02C0.04000
%
T01
X35600Y8600
X41100Y16800
X56400Y11500
X58100Y6600
X74800Y7900
X74500Y20900
X58000Y25500
X48200Y26900
X57500Y35000
X50600Y35500
X34800Y33500
X32300Y46600
X47300Y55500
X55700Y54600
X55400Y62300
X46200Y63100
X52400Y72600
X61800Y71800
X70900Y67200
X87100Y75200
X92300Y83000
X102700Y83700
X110500Y87600
X123500Y80600
X136300Y82200
X136100Y88100
X139200Y94000
X144900Y94100
X150600Y94200
X156100Y94500
X127400Y101900
X121300Y107000
X101600Y105700
X100500Y112200
X81900Y105200
X66400Y114800
X56300Y121000
X45000Y120900
X39700Y120900
X32000Y118500
X32700Y113500
X26200Y112700
X21400Y88800
X33400Y80800
X38400Y72500
X29300Y67000
X29500Y61700
X66800Y81500
X74300Y94300
X106600Y63500
X102300Y60000
X118300Y50600
X107600Y49400
X92900Y42900
X87800Y49300
X68400Y55700
X74500Y32200
X92200Y32000
X101800Y28900
X109300Y18800
X108100Y8500
X98100Y8600
X128200Y8500
X151200Y12800
X172900Y23100
X128700Y50600
X140200Y52900
X151500Y52900
X145900Y64900
T02
X59800Y93200
X49800Y93200
X39800Y93200
X39800Y103200
X49800Y103200
X59800Y103200
M30
