G75*
%MOIN*%
%OFA0B0*%
%FSLAX25Y25*%
%IPPOS*%
%LPD*%
%AMOC8*
5,1,8,0,0,1.08239X$1,22.5*
%
%ADD10C,0.00300*%
D10*
X0181783Y0040505D02*
X0181783Y0040989D01*
X0182266Y0041472D01*
X0184685Y0041472D01*
X0184685Y0039537D02*
X0183234Y0039537D01*
X0182750Y0040021D01*
X0182750Y0041472D01*
X0183717Y0038526D02*
X0183717Y0036591D01*
X0183234Y0036591D02*
X0184201Y0036591D01*
X0184685Y0037075D01*
X0184685Y0038042D01*
X0184201Y0038526D01*
X0183717Y0038526D01*
X0182750Y0038042D02*
X0182750Y0037075D01*
X0183234Y0036591D01*
X0184685Y0035579D02*
X0182750Y0034612D01*
X0184685Y0033644D01*
X0184201Y0032633D02*
X0182750Y0032633D01*
X0182750Y0031182D01*
X0183234Y0030698D01*
X0183717Y0031182D01*
X0183717Y0032633D01*
X0184201Y0032633D02*
X0184685Y0032149D01*
X0184685Y0031182D01*
X0185652Y0029686D02*
X0185652Y0028719D01*
X0185652Y0029203D02*
X0183234Y0029203D01*
X0182750Y0028719D01*
X0182750Y0028235D01*
X0183234Y0027751D01*
X0187550Y0027751D02*
X0189485Y0027751D01*
X0190452Y0028719D01*
X0189485Y0029686D01*
X0187550Y0029686D01*
X0187550Y0030698D02*
X0187550Y0031665D01*
X0187550Y0031182D02*
X0190452Y0031182D01*
X0190452Y0030698D01*
X0189001Y0029686D02*
X0189001Y0027751D01*
X0192350Y0027751D02*
X0192350Y0029203D01*
X0192834Y0029686D01*
X0194769Y0029686D01*
X0195252Y0029203D01*
X0195252Y0027751D01*
X0192350Y0027751D01*
X0192834Y0030698D02*
X0193801Y0030698D01*
X0194285Y0031182D01*
X0194285Y0032149D01*
X0193801Y0032633D01*
X0193317Y0032633D01*
X0193317Y0030698D01*
X0192834Y0030698D02*
X0192350Y0031182D01*
X0192350Y0032149D01*
X0192350Y0033644D02*
X0192350Y0035096D01*
X0192834Y0035579D01*
X0193317Y0035096D01*
X0193317Y0034128D01*
X0193801Y0033644D01*
X0194285Y0034128D01*
X0194285Y0035579D01*
X0194285Y0036591D02*
X0194285Y0037075D01*
X0192350Y0037075D01*
X0192350Y0037558D02*
X0192350Y0036591D01*
X0189485Y0036078D02*
X0189485Y0035110D01*
X0188517Y0035110D02*
X0188517Y0036562D01*
X0189001Y0036562D02*
X0187550Y0036562D01*
X0187550Y0035110D01*
X0188034Y0034627D01*
X0188517Y0035110D01*
X0189485Y0036078D02*
X0189001Y0036562D01*
X0189485Y0037573D02*
X0187550Y0037573D01*
X0189485Y0037573D02*
X0189485Y0039024D01*
X0189001Y0039508D01*
X0187550Y0039508D01*
X0191383Y0039523D02*
X0191383Y0040007D01*
X0191866Y0040490D01*
X0194285Y0040490D01*
X0194285Y0039039D01*
X0193801Y0038555D01*
X0192834Y0038555D01*
X0192350Y0039039D01*
X0192350Y0040490D01*
X0192350Y0041502D02*
X0194285Y0041502D01*
X0194285Y0042953D01*
X0193801Y0043437D01*
X0192350Y0043437D01*
X0192834Y0044448D02*
X0193801Y0044448D01*
X0194285Y0044932D01*
X0194285Y0045900D01*
X0193801Y0046383D01*
X0193317Y0046383D01*
X0193317Y0044448D01*
X0192834Y0044448D02*
X0192350Y0044932D01*
X0192350Y0045900D01*
X0190452Y0045401D02*
X0190452Y0043466D01*
X0190452Y0045401D02*
X0189969Y0045401D01*
X0188034Y0043466D01*
X0187550Y0043466D01*
X0187550Y0045401D01*
X0187550Y0046413D02*
X0190452Y0046413D01*
X0189485Y0046896D02*
X0189485Y0047864D01*
X0189001Y0048348D01*
X0187550Y0048348D01*
X0188034Y0049359D02*
X0188517Y0049843D01*
X0188517Y0051294D01*
X0189001Y0051294D02*
X0187550Y0051294D01*
X0187550Y0049843D01*
X0188034Y0049359D01*
X0189485Y0049843D02*
X0189485Y0050810D01*
X0189001Y0051294D01*
X0189001Y0052306D02*
X0188034Y0052306D01*
X0187550Y0052789D01*
X0187550Y0053757D01*
X0188034Y0054241D01*
X0189001Y0054241D01*
X0189485Y0053757D01*
X0189485Y0052789D01*
X0189001Y0052306D01*
X0192350Y0053288D02*
X0192350Y0054739D01*
X0192834Y0055223D01*
X0193801Y0055223D01*
X0194285Y0054739D01*
X0194285Y0053288D01*
X0195252Y0053288D02*
X0192350Y0053288D01*
X0192834Y0056234D02*
X0192350Y0056718D01*
X0192350Y0058169D01*
X0191866Y0058169D02*
X0191383Y0057686D01*
X0191383Y0057202D01*
X0191866Y0058169D02*
X0194285Y0058169D01*
X0197150Y0058199D02*
X0199085Y0058199D01*
X0199085Y0059650D01*
X0198601Y0060134D01*
X0197150Y0060134D01*
X0197634Y0061145D02*
X0197150Y0061629D01*
X0197150Y0063080D01*
X0196666Y0063080D02*
X0199085Y0063080D01*
X0199085Y0061629D01*
X0198601Y0061145D01*
X0197634Y0061145D01*
X0196183Y0062113D02*
X0196183Y0062596D01*
X0196666Y0063080D01*
X0195252Y0062127D02*
X0192350Y0062127D01*
X0192350Y0064062D01*
X0192350Y0065074D02*
X0194285Y0065074D01*
X0194285Y0066041D02*
X0194285Y0066525D01*
X0194285Y0066041D02*
X0193317Y0065074D01*
X0193801Y0063095D02*
X0193801Y0062127D01*
X0195252Y0062127D02*
X0195252Y0064062D01*
X0190452Y0061614D02*
X0190452Y0060647D01*
X0189969Y0060163D01*
X0189485Y0060163D01*
X0189001Y0060647D01*
X0189001Y0061614D01*
X0188517Y0062098D01*
X0188034Y0062098D01*
X0187550Y0061614D01*
X0187550Y0060647D01*
X0188034Y0060163D01*
X0189969Y0062098D02*
X0190452Y0061614D01*
X0189485Y0063593D02*
X0189485Y0064561D01*
X0189001Y0065045D01*
X0187550Y0065045D01*
X0187550Y0063593D01*
X0188034Y0063110D01*
X0188517Y0063593D01*
X0188517Y0065045D01*
X0187550Y0066056D02*
X0189485Y0066056D01*
X0189485Y0066540D01*
X0189001Y0067024D01*
X0189485Y0067507D01*
X0189001Y0067991D01*
X0187550Y0067991D01*
X0187550Y0067024D02*
X0189001Y0067024D01*
X0192350Y0067529D02*
X0192350Y0068497D01*
X0192350Y0068013D02*
X0194285Y0068013D01*
X0194285Y0067529D01*
X0195252Y0068013D02*
X0195736Y0068013D01*
X0197150Y0067038D02*
X0199085Y0067038D01*
X0198117Y0067038D02*
X0199085Y0068006D01*
X0199085Y0068490D01*
X0199569Y0069494D02*
X0200052Y0069977D01*
X0200052Y0070945D01*
X0199569Y0071429D01*
X0199085Y0071429D01*
X0197150Y0069494D01*
X0197150Y0071429D01*
X0194285Y0071429D02*
X0194285Y0069977D01*
X0193801Y0069494D01*
X0192834Y0069494D01*
X0192350Y0069977D01*
X0192350Y0071429D01*
X0190452Y0071949D02*
X0187550Y0071949D01*
X0187550Y0073884D01*
X0187550Y0074896D02*
X0189485Y0074896D01*
X0189485Y0075379D01*
X0189001Y0075863D01*
X0189485Y0076347D01*
X0189001Y0076831D01*
X0187550Y0076831D01*
X0187550Y0075863D02*
X0189001Y0075863D01*
X0190452Y0073884D02*
X0190452Y0071949D01*
X0189001Y0071949D02*
X0189001Y0072917D01*
X0185652Y0073400D02*
X0185652Y0072433D01*
X0185169Y0071949D01*
X0183234Y0071949D01*
X0182750Y0072433D01*
X0182750Y0073400D01*
X0183234Y0073884D01*
X0185169Y0073884D02*
X0185652Y0073400D01*
X0185652Y0070938D02*
X0185652Y0069003D01*
X0185652Y0069970D02*
X0182750Y0069970D01*
X0183234Y0067991D02*
X0184201Y0067991D01*
X0184201Y0067024D01*
X0183234Y0067991D02*
X0182750Y0067507D01*
X0182750Y0066540D01*
X0183234Y0066056D01*
X0185169Y0066056D01*
X0185652Y0066540D01*
X0185652Y0067507D01*
X0185169Y0067991D01*
X0185169Y0065045D02*
X0185652Y0064561D01*
X0185652Y0063593D01*
X0185169Y0063110D01*
X0184685Y0063110D01*
X0184201Y0063593D01*
X0184201Y0064561D01*
X0183717Y0065045D01*
X0183234Y0065045D01*
X0182750Y0064561D01*
X0182750Y0063593D01*
X0183234Y0063110D01*
X0184201Y0059152D02*
X0184201Y0057217D01*
X0186583Y0055252D02*
X0187550Y0056220D01*
X0187550Y0055736D01*
X0188034Y0055736D01*
X0188034Y0056220D01*
X0187550Y0056220D01*
X0184201Y0053259D02*
X0184685Y0052775D01*
X0184685Y0051324D01*
X0185652Y0051324D02*
X0182750Y0051324D01*
X0182750Y0052775D01*
X0183234Y0053259D01*
X0184201Y0053259D01*
X0184201Y0050312D02*
X0182750Y0050312D01*
X0182750Y0048861D01*
X0183234Y0048377D01*
X0183717Y0048861D01*
X0183717Y0050312D01*
X0184201Y0050312D02*
X0184685Y0049828D01*
X0184685Y0048861D01*
X0182750Y0047365D02*
X0182750Y0045430D01*
X0185652Y0045430D01*
X0189001Y0046413D02*
X0189485Y0046896D01*
X0192350Y0047879D02*
X0192834Y0047395D01*
X0193801Y0047395D01*
X0194285Y0047879D01*
X0194285Y0049330D01*
X0195252Y0049330D02*
X0192350Y0049330D01*
X0192350Y0047879D01*
X0197150Y0047879D02*
X0197634Y0047395D01*
X0198601Y0047395D01*
X0199085Y0047879D01*
X0199085Y0048846D01*
X0198601Y0049330D01*
X0198117Y0049330D01*
X0198117Y0047395D01*
X0198117Y0046383D02*
X0197634Y0046383D01*
X0197150Y0045900D01*
X0197150Y0044932D01*
X0197634Y0044448D01*
X0198601Y0044932D02*
X0198601Y0045900D01*
X0198117Y0046383D01*
X0199569Y0046383D02*
X0200052Y0045900D01*
X0200052Y0044932D01*
X0199569Y0044448D01*
X0199085Y0044448D01*
X0198601Y0044932D01*
X0197150Y0047879D02*
X0197150Y0048846D01*
X0197150Y0050341D02*
X0199085Y0050341D01*
X0199085Y0051793D01*
X0198601Y0052276D01*
X0197150Y0052276D01*
X0197150Y0053288D02*
X0197150Y0054739D01*
X0197634Y0055223D01*
X0198117Y0054739D01*
X0198117Y0053772D01*
X0198601Y0053288D01*
X0199085Y0053772D01*
X0199085Y0055223D01*
X0199085Y0056234D02*
X0199085Y0056718D01*
X0197150Y0056718D01*
X0197150Y0056234D02*
X0197150Y0057202D01*
X0200052Y0056718D02*
X0200536Y0056718D01*
X0194285Y0056234D02*
X0192834Y0056234D01*
X0197150Y0040505D02*
X0197150Y0039537D01*
X0197150Y0040021D02*
X0200052Y0040021D01*
X0200052Y0039537D01*
X0199569Y0038526D02*
X0200052Y0038042D01*
X0200052Y0037075D01*
X0199569Y0036591D01*
X0197634Y0036591D01*
X0197150Y0037075D01*
X0197150Y0038042D01*
X0197634Y0038526D01*
X0195736Y0037075D02*
X0195252Y0037075D01*
X0197150Y0033644D02*
X0200052Y0035579D01*
X0198601Y0032633D02*
X0197150Y0032633D01*
X0197150Y0031182D01*
X0197634Y0030698D01*
X0198117Y0031182D01*
X0198117Y0032633D01*
X0198601Y0032633D02*
X0199085Y0032149D01*
X0199085Y0031182D01*
X0200052Y0029686D02*
X0197150Y0029686D01*
X0200052Y0027751D01*
X0197150Y0027751D01*
X0190452Y0032662D02*
X0190452Y0033146D01*
X0187550Y0033146D01*
X0187550Y0032662D02*
X0187550Y0033630D01*
X0192350Y0075387D02*
X0193317Y0076354D01*
X0192350Y0077322D01*
X0195252Y0077322D01*
X0194285Y0078333D02*
X0192834Y0078333D01*
X0192350Y0078817D01*
X0192350Y0080268D01*
X0194285Y0080268D01*
X0192834Y0081764D02*
X0192350Y0081764D01*
X0192350Y0082247D01*
X0192834Y0082247D01*
X0192834Y0081764D01*
X0192350Y0082247D02*
X0191383Y0081280D01*
X0189485Y0081272D02*
X0189001Y0081756D01*
X0189485Y0082240D01*
X0189001Y0082724D01*
X0187550Y0082724D01*
X0187550Y0081756D02*
X0189001Y0081756D01*
X0189485Y0081272D02*
X0189485Y0080789D01*
X0187550Y0080789D01*
X0187550Y0079777D02*
X0187550Y0078326D01*
X0188034Y0077842D01*
X0188517Y0078326D01*
X0188517Y0079777D01*
X0189001Y0079777D02*
X0187550Y0079777D01*
X0189001Y0079777D02*
X0189485Y0079293D01*
X0189485Y0078326D01*
X0192350Y0075387D02*
X0195252Y0075387D01*
X0189485Y0083735D02*
X0189485Y0084219D01*
X0187550Y0084219D01*
X0187550Y0083735D02*
X0187550Y0084703D01*
X0187550Y0085700D02*
X0189485Y0085700D01*
X0189485Y0087151D01*
X0189001Y0087635D01*
X0187550Y0087635D01*
X0188034Y0088646D02*
X0189001Y0088646D01*
X0189485Y0089130D01*
X0189485Y0090097D01*
X0189001Y0090581D01*
X0188517Y0090581D01*
X0188517Y0088646D01*
X0188034Y0088646D02*
X0187550Y0089130D01*
X0187550Y0090097D01*
X0186583Y0091593D02*
X0186583Y0092076D01*
X0187066Y0092560D01*
X0189485Y0092560D01*
X0190452Y0092560D02*
X0190936Y0092560D01*
X0189485Y0094041D02*
X0189485Y0095008D01*
X0189001Y0095492D01*
X0187550Y0095492D01*
X0187550Y0094041D01*
X0188034Y0093557D01*
X0188517Y0094041D01*
X0188517Y0095492D01*
X0188034Y0096503D02*
X0189001Y0096503D01*
X0189485Y0096987D01*
X0189485Y0098438D01*
X0190452Y0098438D02*
X0187550Y0098438D01*
X0187550Y0096987D01*
X0188034Y0096503D01*
X0190452Y0084219D02*
X0190936Y0084219D01*
M02*
