G75*
%MOIN*%
%OFA0B0*%
%FSLAX25Y25*%
%IPPOS*%
%LPD*%
%AMOC8*
5,1,8,0,0,1.08239X$1,22.5*
%
%ADD10R,0.06000X0.06000*%
%ADD11OC8,0.06000*%
%ADD12C,0.03200*%
%ADD13C,0.03200*%
%ADD14C,0.01000*%
%ADD15C,0.01600*%
D10*
X0059800Y0103200D03*
D11*
X0049800Y0103200D03*
X0039800Y0103200D03*
X0039800Y0093200D03*
X0049800Y0093200D03*
X0059800Y0093200D03*
D12*
X0074300Y0094300D03*
X0092300Y0083000D03*
X0102700Y0083700D03*
X0110500Y0087600D03*
X0123500Y0080600D03*
X0136300Y0082200D03*
X0136100Y0088100D03*
X0139200Y0094000D03*
X0144900Y0094100D03*
X0150600Y0094200D03*
X0156100Y0094500D03*
X0127400Y0101900D03*
X0121300Y0107000D03*
X0101600Y0105700D03*
X0100500Y0112200D03*
X0081900Y0105200D03*
X0066400Y0114800D03*
X0056300Y0121000D03*
X0045000Y0120900D03*
X0039700Y0120900D03*
X0032000Y0118500D03*
X0032700Y0113500D03*
X0026200Y0112700D03*
X0021400Y0088800D03*
X0033400Y0080800D03*
X0038400Y0072500D03*
X0029300Y0067000D03*
X0029500Y0061700D03*
X0046200Y0063100D03*
X0055400Y0062300D03*
X0047300Y0055500D03*
X0055700Y0054600D03*
X0068400Y0055700D03*
X0087800Y0049300D03*
X0092900Y0042900D03*
X0107600Y0049400D03*
X0118300Y0050600D03*
X0128700Y0050600D03*
X0140200Y0052900D03*
X0151500Y0052900D03*
X0145900Y0064900D03*
X0106600Y0063500D03*
X0102300Y0060000D03*
X0087100Y0075200D03*
X0070900Y0067200D03*
X0061800Y0071800D03*
X0052400Y0072600D03*
X0066800Y0081500D03*
X0032300Y0046600D03*
X0050600Y0035500D03*
X0057500Y0035000D03*
X0048200Y0026900D03*
X0058000Y0025500D03*
X0074500Y0020900D03*
X0056400Y0011500D03*
X0058100Y0006600D03*
X0074800Y0007900D03*
X0098100Y0008600D03*
X0108100Y0008500D03*
X0109300Y0018800D03*
X0101800Y0028900D03*
X0092200Y0032000D03*
X0074500Y0032200D03*
X0041100Y0016800D03*
X0035600Y0008600D03*
X0034800Y0033500D03*
X0128200Y0008500D03*
X0151200Y0012800D03*
X0172900Y0023100D03*
D13*
X0143300Y0022900D01*
X0141200Y0020800D01*
X0141200Y0010700D01*
X0138600Y0008100D01*
X0128600Y0008100D01*
X0128200Y0008500D01*
D14*
X0006100Y0005500D02*
X0006100Y0125400D01*
X0216300Y0125400D01*
X0216300Y0005500D01*
X0140384Y0005500D01*
X0141228Y0006344D01*
X0143828Y0008944D01*
X0144300Y0010083D01*
X0144300Y0019516D01*
X0144593Y0019809D01*
X0172911Y0020000D01*
X0173517Y0020000D01*
X0173527Y0020004D01*
X0173538Y0020004D01*
X0174097Y0020240D01*
X0174656Y0020472D01*
X0174664Y0020480D01*
X0174674Y0020484D01*
X0175100Y0020916D01*
X0175528Y0021344D01*
X0175532Y0021354D01*
X0175540Y0021362D01*
X0175768Y0021924D01*
X0176000Y0022483D01*
X0176000Y0022494D01*
X0176004Y0022504D01*
X0176000Y0023111D01*
X0176000Y0023717D01*
X0175996Y0023727D01*
X0175996Y0023738D01*
X0175760Y0024297D01*
X0175528Y0024856D01*
X0175520Y0024864D01*
X0175516Y0024874D01*
X0175084Y0025300D01*
X0174656Y0025728D01*
X0174646Y0025732D01*
X0174638Y0025740D01*
X0174076Y0025968D01*
X0173517Y0026200D01*
X0173506Y0026200D01*
X0173496Y0026204D01*
X0172889Y0026200D01*
X0172283Y0026200D01*
X0172273Y0026196D01*
X0143289Y0026000D01*
X0142683Y0026000D01*
X0142673Y0025996D01*
X0142662Y0025996D01*
X0142103Y0025760D01*
X0141544Y0025528D01*
X0141536Y0025520D01*
X0141526Y0025516D01*
X0141100Y0025084D01*
X0139444Y0023428D01*
X0138572Y0022556D01*
X0138100Y0021417D01*
X0138100Y0011984D01*
X0137316Y0011200D01*
X0129782Y0011200D01*
X0128817Y0011600D01*
X0127583Y0011600D01*
X0126444Y0011128D01*
X0125572Y0010256D01*
X0125100Y0009117D01*
X0125100Y0007883D01*
X0125572Y0006744D01*
X0126816Y0005500D01*
X0076784Y0005500D01*
X0077284Y0006000D01*
X0079528Y0006000D01*
X0080700Y0007172D01*
X0082128Y0008600D01*
X0083300Y0009772D01*
X0083300Y0027031D01*
X0084834Y0028565D01*
X0085137Y0028565D01*
X0084572Y0028000D01*
X0083400Y0026828D01*
X0083400Y0011672D01*
X0087300Y0007772D01*
X0088472Y0006600D01*
X0080128Y0006600D01*
X0080800Y0007272D02*
X0080800Y0005500D01*
X0077600Y0005500D02*
X0077600Y0006000D01*
X0078700Y0008000D02*
X0074900Y0008000D01*
X0074800Y0007900D01*
X0078700Y0008000D02*
X0081300Y0010600D01*
X0081300Y0027860D01*
X0084006Y0030565D01*
X0090765Y0030565D01*
X0092200Y0032000D01*
X0095200Y0036000D02*
X0096700Y0034500D01*
X0096700Y0028800D01*
X0095400Y0027500D01*
X0086900Y0027500D01*
X0085400Y0026000D01*
X0085400Y0012500D01*
X0089300Y0008600D01*
X0098100Y0008600D01*
X0100958Y0009800D02*
X0125383Y0009800D01*
X0125600Y0010284D02*
X0125600Y0049983D01*
X0126072Y0048844D01*
X0126944Y0047972D01*
X0128083Y0047500D01*
X0129317Y0047500D01*
X0130456Y0047972D01*
X0131328Y0048844D01*
X0131800Y0049983D01*
X0131800Y0051217D01*
X0131328Y0052356D01*
X0130456Y0053228D01*
X0129317Y0053700D01*
X0128083Y0053700D01*
X0126944Y0053228D01*
X0126072Y0052356D01*
X0125600Y0051217D01*
X0125600Y0097272D01*
X0124528Y0096200D02*
X0129300Y0096200D01*
X0128017Y0098800D02*
X0127128Y0098800D01*
X0118900Y0090572D01*
X0118900Y0086472D01*
X0117728Y0085300D01*
X0112700Y0080272D01*
X0112700Y0060972D01*
X0111528Y0059800D01*
X0109600Y0057872D01*
X0109600Y0051784D01*
X0109600Y0057872D01*
X0109600Y0057800D02*
X0216300Y0057800D01*
X0216300Y0054600D02*
X0109600Y0054600D01*
X0109600Y0051784D02*
X0110228Y0051156D01*
X0110700Y0050017D01*
X0110700Y0048783D01*
X0110228Y0047644D01*
X0109356Y0046772D01*
X0108217Y0046300D01*
X0106983Y0046300D01*
X0105844Y0046772D01*
X0104972Y0047644D01*
X0104500Y0048783D01*
X0104500Y0050017D01*
X0104972Y0051156D01*
X0105600Y0051784D01*
X0105600Y0059528D01*
X0106472Y0060400D01*
X0105983Y0060400D01*
X0104844Y0060872D01*
X0103972Y0061744D01*
X0103500Y0062883D01*
X0103500Y0064117D01*
X0103972Y0065256D01*
X0104600Y0065884D01*
X0104600Y0081216D01*
X0104456Y0081072D01*
X0103317Y0080600D01*
X0102083Y0080600D01*
X0100944Y0081072D01*
X0100072Y0081944D01*
X0099600Y0083083D01*
X0099600Y0083547D01*
X0099300Y0083847D01*
X0099300Y0103616D01*
X0098972Y0103944D01*
X0098500Y0105083D01*
X0098500Y0106317D01*
X0098972Y0107456D01*
X0099844Y0108328D01*
X0100983Y0108800D01*
X0102217Y0108800D01*
X0103356Y0108328D01*
X0104228Y0107456D01*
X0104700Y0106317D01*
X0104700Y0105083D01*
X0104228Y0103944D01*
X0103900Y0103616D01*
X0103900Y0086558D01*
X0104456Y0086328D01*
X0105328Y0085456D01*
X0105386Y0085315D01*
X0107400Y0087328D01*
X0107400Y0088217D01*
X0107872Y0089356D01*
X0108744Y0090228D01*
X0109883Y0090700D01*
X0111117Y0090700D01*
X0112256Y0090228D01*
X0113128Y0089356D01*
X0113600Y0088217D01*
X0113600Y0086983D01*
X0113490Y0086719D01*
X0114900Y0088128D01*
X0114900Y0092228D01*
X0124300Y0101628D01*
X0124300Y0102517D01*
X0124772Y0103656D01*
X0125644Y0104528D01*
X0126783Y0105000D01*
X0128017Y0105000D01*
X0129156Y0104528D01*
X0129300Y0104384D01*
X0129300Y0115200D01*
X0076228Y0115200D01*
X0080600Y0110828D01*
X0080600Y0071528D01*
X0084000Y0074928D01*
X0084000Y0075817D01*
X0084000Y0115200D01*
X0080800Y0115200D02*
X0080800Y0071728D01*
X0081700Y0069800D02*
X0087100Y0075200D01*
X0089876Y0073800D02*
X0090900Y0073800D01*
X0090200Y0074583D02*
X0090200Y0075817D01*
X0089728Y0076956D01*
X0088856Y0077828D01*
X0087717Y0078300D01*
X0086483Y0078300D01*
X0085344Y0077828D01*
X0084472Y0076956D01*
X0084000Y0075817D01*
X0084516Y0077000D02*
X0080600Y0077000D01*
X0080600Y0073800D02*
X0082872Y0073800D01*
X0086828Y0072100D02*
X0087717Y0072100D01*
X0088856Y0072572D01*
X0089728Y0073444D01*
X0090200Y0074583D01*
X0089684Y0077000D02*
X0090900Y0077000D01*
X0087200Y0078300D02*
X0087200Y0115200D01*
X0090400Y0115200D02*
X0090400Y0085484D01*
X0090544Y0085628D02*
X0089672Y0084756D01*
X0089200Y0083617D01*
X0089200Y0082383D01*
X0089672Y0081244D01*
X0090544Y0080372D01*
X0090900Y0080224D01*
X0090900Y0045284D01*
X0090272Y0044656D01*
X0089800Y0043517D01*
X0089800Y0042283D01*
X0090272Y0041144D01*
X0091144Y0040272D01*
X0092283Y0039800D01*
X0093517Y0039800D01*
X0094656Y0040272D01*
X0095528Y0041144D01*
X0096000Y0042283D01*
X0096000Y0043517D01*
X0095528Y0044656D01*
X0094900Y0045284D01*
X0094900Y0081216D01*
X0094928Y0081244D01*
X0095400Y0082383D01*
X0095400Y0083617D01*
X0094928Y0084756D01*
X0094056Y0085628D01*
X0092917Y0086100D01*
X0091683Y0086100D01*
X0090544Y0085628D01*
X0089200Y0083400D02*
X0080600Y0083400D01*
X0080600Y0080200D02*
X0090900Y0080200D01*
X0090400Y0080516D02*
X0090400Y0044784D01*
X0090616Y0045000D02*
X0083700Y0045000D01*
X0083700Y0043128D02*
X0083700Y0068972D01*
X0086828Y0072100D01*
X0087200Y0072100D02*
X0087200Y0039628D01*
X0088228Y0038600D02*
X0216300Y0038600D01*
X0216300Y0041800D02*
X0095800Y0041800D01*
X0093600Y0039835D02*
X0093600Y0038000D01*
X0096028Y0038000D02*
X0097528Y0036500D01*
X0098700Y0035328D01*
X0098700Y0027972D01*
X0097400Y0026672D01*
X0096228Y0025500D01*
X0087728Y0025500D01*
X0087400Y0025172D01*
X0087400Y0013328D01*
X0090128Y0010600D01*
X0095716Y0010600D01*
X0096344Y0011228D01*
X0097483Y0011700D01*
X0098717Y0011700D01*
X0099856Y0011228D01*
X0100728Y0010356D01*
X0101200Y0009217D01*
X0101200Y0007983D01*
X0100728Y0006844D01*
X0099856Y0005972D01*
X0098717Y0005500D01*
X0097483Y0005500D01*
X0096344Y0005972D01*
X0095716Y0006600D01*
X0088472Y0006600D01*
X0087200Y0005500D02*
X0087200Y0007872D01*
X0090400Y0006600D02*
X0090400Y0005500D01*
X0093600Y0005500D02*
X0093600Y0006600D01*
X0096800Y0005783D02*
X0096800Y0005500D01*
X0100000Y0005500D02*
X0100000Y0006116D01*
X0100484Y0006600D02*
X0125716Y0006600D01*
X0125600Y0006716D02*
X0125600Y0005500D01*
X0122400Y0005500D02*
X0122400Y0094072D01*
X0121328Y0093000D02*
X0129300Y0093000D01*
X0129300Y0089800D02*
X0118900Y0089800D01*
X0119200Y0090872D02*
X0119200Y0005500D01*
X0116000Y0005500D02*
X0116000Y0083572D01*
X0115828Y0083400D02*
X0130072Y0083400D01*
X0130472Y0083000D02*
X0133272Y0080200D01*
X0112700Y0080200D01*
X0112800Y0080372D02*
X0112800Y0005500D01*
X0109600Y0005500D02*
X0109600Y0047016D01*
X0110458Y0048200D02*
X0126716Y0048200D01*
X0128800Y0047500D02*
X0128800Y0011600D01*
X0132000Y0011200D02*
X0132000Y0081472D01*
X0133272Y0080200D02*
X0133916Y0080200D01*
X0134544Y0079572D01*
X0135683Y0079100D01*
X0136917Y0079100D01*
X0138056Y0079572D01*
X0138928Y0080444D01*
X0139400Y0081583D01*
X0139400Y0082817D01*
X0138928Y0083956D01*
X0138056Y0084828D01*
X0137179Y0085191D01*
X0137856Y0085472D01*
X0138728Y0086344D01*
X0139200Y0087483D01*
X0139200Y0088717D01*
X0138728Y0089856D01*
X0138100Y0090484D01*
X0138100Y0116828D01*
X0133200Y0121728D01*
X0132028Y0122900D01*
X0059872Y0122900D01*
X0059162Y0122191D01*
X0058928Y0122756D01*
X0058056Y0123628D01*
X0056917Y0124100D01*
X0055683Y0124100D01*
X0054544Y0123628D01*
X0053672Y0122756D01*
X0053200Y0121617D01*
X0053200Y0120383D01*
X0053672Y0119244D01*
X0054544Y0118372D01*
X0055109Y0118138D01*
X0053772Y0116800D01*
X0047828Y0116800D01*
X0047000Y0117628D01*
X0047000Y0118516D01*
X0047628Y0119144D01*
X0048100Y0120283D01*
X0048100Y0121517D01*
X0047628Y0122656D01*
X0046756Y0123528D01*
X0045617Y0124000D01*
X0044383Y0124000D01*
X0043244Y0123528D01*
X0042372Y0122656D01*
X0042350Y0122603D01*
X0042328Y0122656D01*
X0041456Y0123528D01*
X0040317Y0124000D01*
X0039083Y0124000D01*
X0037944Y0123528D01*
X0037072Y0122656D01*
X0036600Y0121517D01*
X0036600Y0120283D01*
X0037072Y0119144D01*
X0037944Y0118272D01*
X0039083Y0117800D01*
X0039600Y0117800D01*
X0039600Y0110572D01*
X0040772Y0109400D01*
X0042372Y0107800D01*
X0059828Y0107800D01*
X0061000Y0108972D01*
X0063700Y0111672D01*
X0063700Y0113218D01*
X0063772Y0113044D01*
X0064644Y0112172D01*
X0065783Y0111700D01*
X0067017Y0111700D01*
X0068156Y0112172D01*
X0068784Y0112800D01*
X0072972Y0112800D01*
X0076600Y0109172D01*
X0076600Y0096384D01*
X0076056Y0096928D01*
X0074917Y0097400D01*
X0073683Y0097400D01*
X0072544Y0096928D01*
X0071672Y0096056D01*
X0071200Y0094917D01*
X0071200Y0112800D01*
X0073572Y0112200D02*
X0068184Y0112200D01*
X0068000Y0112107D02*
X0068000Y0076653D01*
X0067653Y0077000D02*
X0072000Y0077000D01*
X0072000Y0073800D02*
X0070853Y0073800D01*
X0071200Y0073453D02*
X0071200Y0093683D01*
X0071672Y0092544D01*
X0072000Y0092216D01*
X0072000Y0072653D01*
X0071653Y0073000D01*
X0057964Y0086689D01*
X0049564Y0086689D01*
X0044300Y0091953D01*
X0044300Y0095064D01*
X0041664Y0097700D01*
X0037936Y0097700D01*
X0035300Y0095064D01*
X0035300Y0091336D01*
X0037936Y0088700D01*
X0041047Y0088700D01*
X0047658Y0082089D01*
X0056058Y0082089D01*
X0068400Y0069747D01*
X0068400Y0069084D01*
X0068272Y0068956D01*
X0067800Y0067817D01*
X0067800Y0066583D01*
X0068272Y0065444D01*
X0069144Y0064572D01*
X0070283Y0064100D01*
X0070447Y0064100D01*
X0072000Y0062547D01*
X0072000Y0052753D01*
X0057347Y0038100D01*
X0056883Y0038100D01*
X0055744Y0037628D01*
X0055416Y0037300D01*
X0053247Y0037300D01*
X0053216Y0037268D01*
X0052356Y0038128D01*
X0051217Y0038600D01*
X0049983Y0038600D01*
X0048844Y0038128D01*
X0048616Y0037900D01*
X0041928Y0037900D01*
X0036928Y0042900D01*
X0022628Y0042900D01*
X0020500Y0045028D01*
X0020500Y0046672D01*
X0022572Y0044600D01*
X0029916Y0044600D01*
X0030544Y0043972D01*
X0031683Y0043500D01*
X0032917Y0043500D01*
X0034056Y0043972D01*
X0034928Y0044844D01*
X0035400Y0045983D01*
X0035400Y0047217D01*
X0034928Y0048356D01*
X0034056Y0049228D01*
X0033641Y0049400D01*
X0055228Y0049400D01*
X0056400Y0050572D01*
X0057700Y0051872D01*
X0057700Y0052216D01*
X0058328Y0052844D01*
X0058800Y0053983D01*
X0058800Y0055217D01*
X0058328Y0056356D01*
X0057456Y0057228D01*
X0056317Y0057700D01*
X0055083Y0057700D01*
X0053944Y0057228D01*
X0053072Y0056356D01*
X0052600Y0055217D01*
X0052600Y0053983D01*
X0052842Y0053400D01*
X0027828Y0053400D01*
X0025600Y0055628D01*
X0025600Y0060472D01*
X0026400Y0061272D01*
X0026400Y0061083D01*
X0026400Y0054828D01*
X0026628Y0054600D02*
X0052600Y0054600D01*
X0052000Y0053400D02*
X0052000Y0057300D01*
X0053228Y0057300D02*
X0055128Y0059200D01*
X0056017Y0059200D01*
X0057156Y0059672D01*
X0058028Y0060544D01*
X0058500Y0061683D01*
X0058500Y0062917D01*
X0058028Y0064056D01*
X0057156Y0064928D01*
X0056017Y0065400D01*
X0054783Y0065400D01*
X0053644Y0064928D01*
X0052772Y0064056D01*
X0052300Y0062917D01*
X0052300Y0062028D01*
X0051572Y0061300D01*
X0049928Y0061300D01*
X0058428Y0069800D01*
X0059416Y0069800D01*
X0060044Y0069172D01*
X0061183Y0068700D01*
X0062417Y0068700D01*
X0063556Y0069172D01*
X0064428Y0070044D01*
X0064900Y0071183D01*
X0064900Y0072417D01*
X0064428Y0073556D01*
X0063556Y0074428D01*
X0062417Y0074900D01*
X0061183Y0074900D01*
X0060044Y0074428D01*
X0059416Y0073800D01*
X0055258Y0073800D01*
X0055200Y0073941D02*
X0055200Y0082089D01*
X0057947Y0080200D02*
X0036500Y0080200D01*
X0036500Y0080183D02*
X0036500Y0081417D01*
X0036028Y0082556D01*
X0035156Y0083428D01*
X0034017Y0083900D01*
X0032783Y0083900D01*
X0031644Y0083428D01*
X0030816Y0082600D01*
X0027372Y0082600D01*
X0026200Y0081428D01*
X0020500Y0075728D01*
X0020500Y0077272D01*
X0028100Y0084872D01*
X0028100Y0106072D01*
X0032428Y0110400D01*
X0033317Y0110400D01*
X0034456Y0110872D01*
X0035328Y0111744D01*
X0035800Y0112883D01*
X0035800Y0114117D01*
X0035328Y0115256D01*
X0034456Y0116128D01*
X0033317Y0116600D01*
X0032083Y0116600D01*
X0030944Y0116128D01*
X0030072Y0115256D01*
X0029600Y0114117D01*
X0029600Y0125400D01*
X0026400Y0125400D02*
X0026400Y0115800D01*
X0026817Y0115800D02*
X0025583Y0115800D01*
X0024444Y0115328D01*
X0023572Y0114456D01*
X0023100Y0113317D01*
X0023100Y0112083D01*
X0023572Y0110944D01*
X0024444Y0110072D01*
X0025583Y0109600D01*
X0025972Y0109600D01*
X0025272Y0108900D01*
X0024100Y0107728D01*
X0024100Y0086528D01*
X0017672Y0080100D01*
X0016500Y0078928D01*
X0016500Y0043372D01*
X0019800Y0040072D01*
X0020972Y0038900D01*
X0035272Y0038900D01*
X0039100Y0035072D01*
X0040272Y0033900D01*
X0047907Y0033900D01*
X0047972Y0033744D01*
X0048844Y0032872D01*
X0049983Y0032400D01*
X0051217Y0032400D01*
X0051900Y0032683D01*
X0051900Y0022653D01*
X0048347Y0019100D01*
X0043184Y0019100D01*
X0042856Y0019428D01*
X0041717Y0019900D01*
X0040483Y0019900D01*
X0039344Y0019428D01*
X0038472Y0018556D01*
X0038000Y0017417D01*
X0038000Y0016183D01*
X0038472Y0015044D01*
X0039344Y0014172D01*
X0040483Y0013700D01*
X0041717Y0013700D01*
X0042856Y0014172D01*
X0043184Y0014500D01*
X0048947Y0014500D01*
X0045447Y0011000D01*
X0042353Y0011000D01*
X0037100Y0016253D01*
X0037100Y0031416D01*
X0037428Y0031744D01*
X0037900Y0032883D01*
X0037900Y0034117D01*
X0037428Y0035256D01*
X0036556Y0036128D01*
X0035417Y0036600D01*
X0034183Y0036600D01*
X0033044Y0036128D01*
X0032172Y0035256D01*
X0031700Y0034117D01*
X0031700Y0032883D01*
X0032172Y0031744D01*
X0032500Y0031416D01*
X0032500Y0014347D01*
X0033847Y0013000D01*
X0006100Y0013000D01*
X0006100Y0009800D02*
X0037047Y0009800D01*
X0036000Y0010847D02*
X0036000Y0005500D01*
X0032800Y0005500D02*
X0032800Y0014047D01*
X0033847Y0013000D02*
X0040447Y0006400D01*
X0047353Y0006400D01*
X0048700Y0007747D01*
X0054253Y0013300D01*
X0060953Y0013300D01*
X0062300Y0014647D01*
X0062300Y0014647D01*
X0066253Y0018600D01*
X0072416Y0018600D01*
X0072744Y0018272D01*
X0073883Y0017800D01*
X0075117Y0017800D01*
X0076256Y0018272D01*
X0076600Y0018616D01*
X0076600Y0014100D01*
X0073372Y0014100D01*
X0072200Y0012928D01*
X0067872Y0008600D01*
X0060484Y0008600D01*
X0059856Y0009228D01*
X0058717Y0009700D01*
X0057483Y0009700D01*
X0056344Y0009228D01*
X0055472Y0008356D01*
X0055000Y0007217D01*
X0055000Y0005983D01*
X0055200Y0005500D01*
X0055200Y0005501D01*
X0055200Y0005500D02*
X0006100Y0005500D01*
X0006100Y0006600D02*
X0040247Y0006600D01*
X0039200Y0007647D02*
X0039200Y0005500D01*
X0042400Y0005500D02*
X0042400Y0006400D01*
X0045600Y0006400D02*
X0045600Y0005500D01*
X0047553Y0006600D02*
X0055000Y0006600D01*
X0055200Y0007699D02*
X0055200Y0013300D01*
X0053953Y0013000D02*
X0072272Y0013000D01*
X0071200Y0011928D02*
X0071200Y0018600D01*
X0074400Y0017800D02*
X0074400Y0014100D01*
X0074200Y0012100D02*
X0077500Y0012100D01*
X0078600Y0013200D01*
X0078600Y0110000D01*
X0073800Y0114800D01*
X0066400Y0114800D01*
X0064800Y0112107D02*
X0064800Y0079853D01*
X0064453Y0080200D02*
X0072000Y0080200D01*
X0072000Y0083400D02*
X0061253Y0083400D01*
X0061600Y0083053D02*
X0061600Y0088700D01*
X0061664Y0088700D02*
X0064300Y0091336D01*
X0064300Y0095064D01*
X0061664Y0097700D01*
X0057936Y0097700D01*
X0055300Y0095064D01*
X0055300Y0091336D01*
X0057936Y0088700D01*
X0061664Y0088700D01*
X0062764Y0089800D02*
X0072000Y0089800D01*
X0071483Y0093000D02*
X0064300Y0093000D01*
X0063164Y0096200D02*
X0071816Y0096200D01*
X0071200Y0094917D02*
X0071200Y0093683D01*
X0076600Y0092216D02*
X0076600Y0092216D01*
X0076600Y0023184D01*
X0076256Y0023528D01*
X0075117Y0024000D01*
X0073883Y0024000D01*
X0072744Y0023528D01*
X0072416Y0023200D01*
X0064347Y0023200D01*
X0059047Y0017900D01*
X0053653Y0017900D01*
X0055153Y0019400D01*
X0060547Y0019400D01*
X0061600Y0020453D02*
X0061600Y0035847D01*
X0061153Y0035400D02*
X0076600Y0035400D01*
X0076600Y0032200D02*
X0058841Y0032200D01*
X0059256Y0032372D02*
X0058117Y0031900D01*
X0056883Y0031900D01*
X0056500Y0032059D01*
X0056500Y0020747D01*
X0055153Y0019400D01*
X0055153Y0019400D01*
X0055200Y0019447D02*
X0055200Y0017900D01*
X0058400Y0017900D02*
X0058400Y0032017D01*
X0059256Y0032372D02*
X0060128Y0033244D01*
X0060600Y0034383D01*
X0060600Y0034847D01*
X0075253Y0049500D01*
X0076600Y0050847D01*
X0076600Y0064453D01*
X0074003Y0067050D01*
X0076600Y0069647D01*
X0076600Y0092216D01*
X0076600Y0089800D02*
X0076600Y0089800D01*
X0080600Y0089800D02*
X0099300Y0089800D01*
X0099300Y0093000D02*
X0080600Y0093000D01*
X0080600Y0096200D02*
X0099300Y0096200D01*
X0099300Y0099400D02*
X0080600Y0099400D01*
X0076600Y0099400D02*
X0064070Y0099400D01*
X0064000Y0099279D02*
X0064198Y0099621D01*
X0064300Y0100003D01*
X0064300Y0102700D01*
X0060300Y0102700D01*
X0060300Y0103700D01*
X0059300Y0103700D01*
X0059300Y0107700D01*
X0056603Y0107700D01*
X0056221Y0107598D01*
X0055879Y0107400D01*
X0055600Y0107121D01*
X0055402Y0106779D01*
X0055300Y0106397D01*
X0055300Y0103700D01*
X0059300Y0103700D01*
X0059300Y0102700D01*
X0055300Y0102700D01*
X0055300Y0100003D01*
X0055402Y0099621D01*
X0055600Y0099279D01*
X0055879Y0099000D01*
X0056221Y0098802D01*
X0056603Y0098700D01*
X0059300Y0098700D01*
X0059300Y0102700D01*
X0060300Y0102700D01*
X0060300Y0098700D01*
X0062997Y0098700D01*
X0063379Y0098802D01*
X0063721Y0099000D01*
X0064000Y0099279D01*
X0061600Y0098700D02*
X0061600Y0097700D01*
X0060300Y0099400D02*
X0059300Y0099400D01*
X0058400Y0098700D02*
X0058400Y0097700D01*
X0056436Y0096200D02*
X0053164Y0096200D01*
X0054300Y0095064D02*
X0051664Y0097700D01*
X0047936Y0097700D01*
X0045300Y0095064D01*
X0045300Y0091336D01*
X0047936Y0088700D01*
X0051664Y0088700D01*
X0054300Y0091336D01*
X0054300Y0095064D01*
X0054300Y0093000D02*
X0055300Y0093000D01*
X0056836Y0089800D02*
X0052764Y0089800D01*
X0052000Y0089036D02*
X0052000Y0086689D01*
X0048800Y0087453D02*
X0048800Y0088700D01*
X0046836Y0089800D02*
X0046453Y0089800D01*
X0045600Y0090653D02*
X0045600Y0091036D01*
X0045300Y0093000D02*
X0044300Y0093000D01*
X0045600Y0095364D02*
X0045600Y0101036D01*
X0045300Y0101336D02*
X0047936Y0098700D01*
X0051664Y0098700D01*
X0054300Y0101336D01*
X0054300Y0105064D01*
X0051664Y0107700D01*
X0047936Y0107700D01*
X0045300Y0105064D01*
X0045300Y0101336D01*
X0044300Y0101336D02*
X0041664Y0098700D01*
X0037936Y0098700D01*
X0035300Y0101336D01*
X0035300Y0105064D01*
X0037936Y0107700D01*
X0041664Y0107700D01*
X0044300Y0105064D01*
X0044300Y0101336D01*
X0044300Y0102600D02*
X0045300Y0102600D01*
X0045600Y0105364D02*
X0045600Y0107800D01*
X0048800Y0107800D02*
X0048800Y0107700D01*
X0052000Y0107800D02*
X0052000Y0107364D01*
X0053564Y0105800D02*
X0055300Y0105800D01*
X0058400Y0107700D02*
X0058400Y0107800D01*
X0060300Y0107700D02*
X0060300Y0103700D01*
X0064300Y0103700D01*
X0064300Y0106397D01*
X0064198Y0106779D01*
X0064000Y0107121D01*
X0063721Y0107400D01*
X0063379Y0107598D01*
X0062997Y0107700D01*
X0060300Y0107700D01*
X0061600Y0107700D02*
X0061600Y0109572D01*
X0061028Y0109000D02*
X0076600Y0109000D01*
X0076600Y0105800D02*
X0064300Y0105800D01*
X0064300Y0102600D02*
X0076600Y0102600D01*
X0080600Y0102600D02*
X0099300Y0102600D01*
X0098500Y0105800D02*
X0080600Y0105800D01*
X0080600Y0109000D02*
X0129300Y0109000D01*
X0129300Y0105800D02*
X0104700Y0105800D01*
X0103200Y0108393D02*
X0103200Y0115200D01*
X0106400Y0115200D02*
X0106400Y0086328D01*
X0106672Y0086600D02*
X0103900Y0086600D01*
X0106600Y0083700D02*
X0110500Y0087600D01*
X0112684Y0089800D02*
X0114900Y0089800D01*
X0112800Y0089684D02*
X0112800Y0115200D01*
X0109600Y0115200D02*
X0109600Y0090583D01*
X0108316Y0089800D02*
X0103900Y0089800D01*
X0103900Y0093000D02*
X0115672Y0093000D01*
X0116000Y0093328D02*
X0116000Y0115200D01*
X0119200Y0115200D02*
X0119200Y0096528D01*
X0118872Y0096200D02*
X0103900Y0096200D01*
X0103900Y0099400D02*
X0122072Y0099400D01*
X0122400Y0099728D02*
X0122400Y0115200D01*
X0125600Y0115200D02*
X0125600Y0104484D01*
X0124335Y0102600D02*
X0103900Y0102600D01*
X0100000Y0108393D02*
X0100000Y0115200D01*
X0096800Y0115200D02*
X0096800Y0037228D01*
X0096028Y0038000D02*
X0088828Y0038000D01*
X0083700Y0043128D01*
X0084000Y0042828D02*
X0084000Y0069272D01*
X0085328Y0070600D02*
X0090900Y0070600D01*
X0090900Y0067400D02*
X0083700Y0067400D01*
X0081700Y0069800D02*
X0081700Y0042300D01*
X0088000Y0036000D01*
X0095200Y0036000D01*
X0098628Y0035400D02*
X0216300Y0035400D01*
X0216300Y0032200D02*
X0098700Y0032200D01*
X0098700Y0029000D02*
X0216300Y0029000D01*
X0216300Y0025800D02*
X0174490Y0025800D01*
X0173600Y0026165D02*
X0173600Y0125400D01*
X0176800Y0125400D02*
X0176800Y0005500D01*
X0173600Y0005500D02*
X0173600Y0020031D01*
X0170400Y0019983D02*
X0170400Y0005500D01*
X0167200Y0005500D02*
X0167200Y0019961D01*
X0164000Y0019940D02*
X0164000Y0005500D01*
X0160800Y0005500D02*
X0160800Y0019918D01*
X0157600Y0019897D02*
X0157600Y0005500D01*
X0154400Y0005500D02*
X0154400Y0019875D01*
X0151200Y0019853D02*
X0151200Y0005500D01*
X0148000Y0005500D02*
X0148000Y0019832D01*
X0144800Y0019810D02*
X0144800Y0005500D01*
X0141600Y0005500D02*
X0141600Y0006716D01*
X0141484Y0006600D02*
X0216300Y0006600D01*
X0215200Y0005500D02*
X0215200Y0125400D01*
X0216300Y0125000D02*
X0006100Y0125000D01*
X0007200Y0125400D02*
X0007200Y0005500D01*
X0010400Y0005500D02*
X0010400Y0125400D01*
X0013600Y0125400D02*
X0013600Y0005500D01*
X0016800Y0005500D02*
X0016800Y0043072D01*
X0018072Y0041800D02*
X0006100Y0041800D01*
X0006100Y0038600D02*
X0035572Y0038600D01*
X0036000Y0038172D02*
X0036000Y0036358D01*
X0037284Y0035400D02*
X0038772Y0035400D01*
X0039200Y0034972D02*
X0039200Y0019284D01*
X0039316Y0019400D02*
X0037100Y0019400D01*
X0037153Y0016200D02*
X0038000Y0016200D01*
X0039200Y0014316D02*
X0039200Y0014153D01*
X0040353Y0013000D02*
X0047447Y0013000D01*
X0048800Y0014353D02*
X0048800Y0014500D01*
X0045600Y0014500D02*
X0045600Y0011153D01*
X0042400Y0011000D02*
X0042400Y0013983D01*
X0042884Y0019400D02*
X0048647Y0019400D01*
X0048800Y0019553D02*
X0048800Y0032916D01*
X0051900Y0032200D02*
X0037617Y0032200D01*
X0037100Y0029000D02*
X0051900Y0029000D01*
X0056500Y0029000D02*
X0076600Y0029000D01*
X0076600Y0025800D02*
X0056500Y0025800D01*
X0056500Y0022600D02*
X0063747Y0022600D01*
X0064800Y0023200D02*
X0064800Y0039047D01*
X0064353Y0038600D02*
X0076600Y0038600D01*
X0076600Y0041800D02*
X0067553Y0041800D01*
X0068000Y0042247D02*
X0068000Y0023200D01*
X0071200Y0023200D02*
X0071200Y0045447D01*
X0070753Y0045000D02*
X0076600Y0045000D01*
X0076600Y0048200D02*
X0073953Y0048200D01*
X0074400Y0048647D02*
X0074400Y0024000D01*
X0068000Y0018600D02*
X0068000Y0008728D01*
X0069072Y0009800D02*
X0050753Y0009800D01*
X0052000Y0011047D02*
X0052000Y0005500D01*
X0048800Y0005500D02*
X0048800Y0007847D01*
X0058100Y0006600D02*
X0068700Y0006600D01*
X0074200Y0012100D01*
X0076600Y0016200D02*
X0063853Y0016200D01*
X0064800Y0017147D02*
X0064800Y0008600D01*
X0061600Y0008600D02*
X0061600Y0013947D01*
X0058400Y0013300D02*
X0058400Y0009700D01*
X0045600Y0019100D02*
X0045600Y0033900D01*
X0042400Y0033900D02*
X0042400Y0019617D01*
X0037100Y0022600D02*
X0051847Y0022600D01*
X0051900Y0025800D02*
X0037100Y0025800D01*
X0032500Y0025800D02*
X0006100Y0025800D01*
X0006100Y0022600D02*
X0032500Y0022600D01*
X0032500Y0019400D02*
X0006100Y0019400D01*
X0006100Y0016200D02*
X0032500Y0016200D01*
X0029600Y0005500D02*
X0029600Y0038900D01*
X0026400Y0038900D02*
X0026400Y0005500D01*
X0023200Y0005500D02*
X0023200Y0038900D01*
X0021800Y0040900D02*
X0036100Y0040900D01*
X0041100Y0035900D01*
X0050200Y0035900D01*
X0050600Y0035500D01*
X0048800Y0038084D02*
X0048800Y0049400D01*
X0045600Y0049400D02*
X0045600Y0037900D01*
X0042400Y0037900D02*
X0042400Y0049400D01*
X0039200Y0049400D02*
X0039200Y0040628D01*
X0038028Y0041800D02*
X0061047Y0041800D01*
X0061600Y0042353D02*
X0061600Y0068700D01*
X0064658Y0070600D02*
X0067547Y0070600D01*
X0068000Y0070147D02*
X0068000Y0068299D01*
X0067800Y0067400D02*
X0056028Y0067400D01*
X0055200Y0066572D02*
X0055200Y0065400D01*
X0052916Y0064200D02*
X0052828Y0064200D01*
X0052000Y0063372D02*
X0052000Y0061728D01*
X0052400Y0059300D02*
X0055400Y0062300D01*
X0058217Y0061000D02*
X0072000Y0061000D01*
X0071200Y0063347D02*
X0071200Y0051953D01*
X0070647Y0051400D02*
X0057228Y0051400D01*
X0058400Y0053018D02*
X0058400Y0039153D01*
X0057847Y0038600D02*
X0041228Y0038600D01*
X0036000Y0042900D02*
X0036000Y0049400D01*
X0034993Y0048200D02*
X0067447Y0048200D01*
X0068000Y0048753D02*
X0068000Y0066101D01*
X0070042Y0064200D02*
X0057884Y0064200D01*
X0058400Y0063158D02*
X0058400Y0069772D01*
X0057600Y0071800D02*
X0061800Y0071800D01*
X0064800Y0072658D02*
X0064800Y0073347D01*
X0064347Y0073800D02*
X0064184Y0073800D01*
X0061600Y0074900D02*
X0061600Y0076547D01*
X0061147Y0077000D02*
X0027428Y0077000D01*
X0026400Y0075972D02*
X0026400Y0068099D01*
X0026200Y0067617D02*
X0026200Y0066728D01*
X0023100Y0063628D01*
X0023100Y0072672D01*
X0029028Y0078600D01*
X0031216Y0078600D01*
X0031644Y0078172D01*
X0032783Y0077700D01*
X0034017Y0077700D01*
X0035156Y0078172D01*
X0036028Y0079044D01*
X0036500Y0080183D01*
X0036000Y0079016D02*
X0036000Y0074484D01*
X0035772Y0074256D02*
X0035300Y0073117D01*
X0035300Y0071883D01*
X0035772Y0070744D01*
X0036644Y0069872D01*
X0037783Y0069400D01*
X0039017Y0069400D01*
X0040156Y0069872D01*
X0040784Y0070500D01*
X0050116Y0070500D01*
X0050644Y0069972D01*
X0051783Y0069500D01*
X0052472Y0069500D01*
X0048328Y0065356D01*
X0047956Y0065728D01*
X0046817Y0066200D01*
X0045583Y0066200D01*
X0044444Y0065728D01*
X0043572Y0064856D01*
X0043100Y0063717D01*
X0043100Y0062483D01*
X0043572Y0061344D01*
X0043616Y0061300D01*
X0034228Y0061300D01*
X0032167Y0063361D01*
X0032128Y0063456D01*
X0031256Y0064328D01*
X0031084Y0064399D01*
X0031928Y0065244D01*
X0032400Y0066383D01*
X0032400Y0067617D01*
X0031928Y0068756D01*
X0031056Y0069628D01*
X0029917Y0070100D01*
X0028683Y0070100D01*
X0027544Y0069628D01*
X0026672Y0068756D01*
X0026200Y0067617D01*
X0026200Y0067400D02*
X0023100Y0067400D01*
X0023100Y0070600D02*
X0035916Y0070600D01*
X0036000Y0070516D02*
X0036000Y0061300D01*
X0033400Y0059300D02*
X0052400Y0059300D01*
X0055200Y0059200D02*
X0055200Y0057700D01*
X0053728Y0057800D02*
X0072000Y0057800D01*
X0072000Y0054600D02*
X0058800Y0054600D01*
X0058400Y0056182D02*
X0058400Y0061442D01*
X0053228Y0057300D02*
X0032572Y0057300D01*
X0031400Y0058472D01*
X0030933Y0058938D01*
X0030117Y0058600D01*
X0028883Y0058600D01*
X0027744Y0059072D01*
X0026872Y0059944D01*
X0026400Y0061083D01*
X0026435Y0061000D02*
X0026128Y0061000D01*
X0023600Y0061300D02*
X0029300Y0067000D01*
X0032400Y0067400D02*
X0050372Y0067400D01*
X0048800Y0065828D02*
X0048800Y0070500D01*
X0045600Y0070500D02*
X0045600Y0066200D01*
X0043300Y0064200D02*
X0031384Y0064200D01*
X0032800Y0062728D02*
X0032800Y0077700D01*
X0033200Y0080600D02*
X0028200Y0080600D01*
X0021100Y0073500D01*
X0021100Y0048900D01*
X0023400Y0046600D01*
X0032300Y0046600D01*
X0034993Y0045000D02*
X0064247Y0045000D01*
X0064800Y0045553D02*
X0064800Y0070942D01*
X0059416Y0073800D02*
X0056772Y0073800D01*
X0055600Y0072628D01*
X0055500Y0072528D01*
X0055500Y0073217D01*
X0055028Y0074356D01*
X0054156Y0075228D01*
X0053017Y0075700D01*
X0051783Y0075700D01*
X0050644Y0075228D01*
X0049916Y0074500D01*
X0040784Y0074500D01*
X0040156Y0075128D01*
X0039017Y0075600D01*
X0037783Y0075600D01*
X0036644Y0075128D01*
X0035772Y0074256D01*
X0035583Y0073800D02*
X0024228Y0073800D01*
X0023200Y0072772D02*
X0023200Y0063728D01*
X0023100Y0064200D02*
X0023672Y0064200D01*
X0023600Y0061300D02*
X0023600Y0054800D01*
X0027000Y0051400D01*
X0054400Y0051400D01*
X0055700Y0052700D01*
X0055700Y0054600D01*
X0048800Y0053400D02*
X0048800Y0057300D01*
X0045600Y0057300D02*
X0045600Y0053400D01*
X0042400Y0053400D02*
X0042400Y0057300D01*
X0039200Y0057300D02*
X0039200Y0053400D01*
X0036000Y0053400D02*
X0036000Y0057300D01*
X0032800Y0057300D02*
X0032800Y0053400D01*
X0029600Y0053400D02*
X0029600Y0058600D01*
X0032072Y0057800D02*
X0025600Y0057800D01*
X0029500Y0061700D02*
X0031000Y0061700D01*
X0033400Y0059300D01*
X0039200Y0061300D02*
X0039200Y0069476D01*
X0042400Y0070500D02*
X0042400Y0061300D01*
X0046200Y0063100D02*
X0048900Y0063100D01*
X0057600Y0071800D01*
X0058400Y0073800D02*
X0058400Y0079747D01*
X0052000Y0082089D02*
X0052000Y0075700D01*
X0048800Y0074500D02*
X0048800Y0082089D01*
X0046347Y0083400D02*
X0035184Y0083400D01*
X0036000Y0082584D02*
X0036000Y0090636D01*
X0036836Y0089800D02*
X0028100Y0089800D01*
X0028100Y0093000D02*
X0035300Y0093000D01*
X0036000Y0095764D02*
X0036000Y0100636D01*
X0037236Y0099400D02*
X0028100Y0099400D01*
X0028100Y0096200D02*
X0036436Y0096200D01*
X0039200Y0097700D02*
X0039200Y0098700D01*
X0042364Y0099400D02*
X0047236Y0099400D01*
X0048800Y0098700D02*
X0048800Y0097700D01*
X0046436Y0096200D02*
X0043164Y0096200D01*
X0042400Y0096964D02*
X0042400Y0099436D01*
X0035300Y0102600D02*
X0028100Y0102600D01*
X0028100Y0105800D02*
X0036036Y0105800D01*
X0036000Y0105764D02*
X0036000Y0125400D01*
X0032800Y0125400D02*
X0032800Y0116600D01*
X0035184Y0115400D02*
X0039600Y0115400D01*
X0039200Y0117800D02*
X0039200Y0107700D01*
X0041172Y0109000D02*
X0031028Y0109000D01*
X0029600Y0107572D02*
X0029600Y0082600D01*
X0031616Y0083400D02*
X0026628Y0083400D01*
X0026400Y0083172D02*
X0026400Y0081628D01*
X0024972Y0080200D02*
X0023428Y0080200D01*
X0023200Y0079972D02*
X0023200Y0078428D01*
X0021772Y0077000D02*
X0020500Y0077000D01*
X0018500Y0078100D02*
X0018500Y0044200D01*
X0021800Y0040900D01*
X0020000Y0039872D02*
X0020000Y0005500D01*
X0032500Y0029000D02*
X0006100Y0029000D01*
X0006100Y0032200D02*
X0031983Y0032200D01*
X0032316Y0035400D02*
X0006100Y0035400D01*
X0006100Y0045000D02*
X0016500Y0045000D01*
X0016500Y0048200D02*
X0006100Y0048200D01*
X0006100Y0051400D02*
X0016500Y0051400D01*
X0016500Y0054600D02*
X0006100Y0054600D01*
X0006100Y0057800D02*
X0016500Y0057800D01*
X0016500Y0061000D02*
X0006100Y0061000D01*
X0006100Y0064200D02*
X0016500Y0064200D01*
X0016500Y0067400D02*
X0006100Y0067400D01*
X0006100Y0070600D02*
X0016500Y0070600D01*
X0016500Y0073800D02*
X0006100Y0073800D01*
X0006100Y0077000D02*
X0016500Y0077000D01*
X0018500Y0078100D02*
X0026100Y0085700D01*
X0026100Y0106900D01*
X0032700Y0113500D01*
X0035517Y0112200D02*
X0039600Y0112200D01*
X0041600Y0111400D02*
X0041600Y0119000D01*
X0039700Y0120900D01*
X0036717Y0121800D02*
X0006100Y0121800D01*
X0006100Y0118600D02*
X0037616Y0118600D01*
X0042400Y0122684D02*
X0042400Y0125400D01*
X0039200Y0125400D02*
X0039200Y0124000D01*
X0045000Y0120900D02*
X0045000Y0116800D01*
X0047000Y0114800D01*
X0054600Y0114800D01*
X0060700Y0120900D01*
X0131200Y0120900D01*
X0136100Y0116000D01*
X0136100Y0088100D01*
X0138400Y0090184D02*
X0138400Y0125400D01*
X0135200Y0125400D02*
X0135200Y0119728D01*
X0136328Y0118600D02*
X0216300Y0118600D01*
X0216300Y0121800D02*
X0133128Y0121800D01*
X0132000Y0122900D02*
X0132000Y0125400D01*
X0128800Y0125400D02*
X0128800Y0122900D01*
X0125600Y0122900D02*
X0125600Y0125400D01*
X0122400Y0125400D02*
X0122400Y0122900D01*
X0119200Y0122900D02*
X0119200Y0125400D01*
X0116000Y0125400D02*
X0116000Y0122900D01*
X0112800Y0122900D02*
X0112800Y0125400D01*
X0109600Y0125400D02*
X0109600Y0122900D01*
X0106400Y0122900D02*
X0106400Y0125400D01*
X0103200Y0125400D02*
X0103200Y0122900D01*
X0100000Y0122900D02*
X0100000Y0125400D01*
X0096800Y0125400D02*
X0096800Y0122900D01*
X0093600Y0122900D02*
X0093600Y0125400D01*
X0090400Y0125400D02*
X0090400Y0122900D01*
X0087200Y0122900D02*
X0087200Y0125400D01*
X0084000Y0125400D02*
X0084000Y0122900D01*
X0080800Y0122900D02*
X0080800Y0125400D01*
X0077600Y0125400D02*
X0077600Y0122900D01*
X0074400Y0122900D02*
X0074400Y0125400D01*
X0071200Y0125400D02*
X0071200Y0122900D01*
X0068000Y0122900D02*
X0068000Y0125400D01*
X0064800Y0125400D02*
X0064800Y0122900D01*
X0061600Y0122900D02*
X0061600Y0125400D01*
X0058400Y0125400D02*
X0058400Y0123284D01*
X0055200Y0123900D02*
X0055200Y0125400D01*
X0052000Y0125400D02*
X0052000Y0116800D01*
X0048800Y0116800D02*
X0048800Y0125400D01*
X0045600Y0125400D02*
X0045600Y0124000D01*
X0047983Y0121800D02*
X0053276Y0121800D01*
X0054316Y0118600D02*
X0047084Y0118600D01*
X0041600Y0111400D02*
X0043200Y0109800D01*
X0059000Y0109800D01*
X0061700Y0112500D01*
X0061700Y0116900D01*
X0063500Y0118700D01*
X0070000Y0118700D01*
X0071500Y0117200D01*
X0130400Y0117200D01*
X0131300Y0116300D01*
X0131300Y0085000D01*
X0134100Y0082200D01*
X0136300Y0082200D01*
X0138684Y0080200D02*
X0216300Y0080200D01*
X0216300Y0083400D02*
X0139158Y0083400D01*
X0138400Y0084484D02*
X0138400Y0086016D01*
X0138834Y0086600D02*
X0216300Y0086600D01*
X0216300Y0089800D02*
X0138751Y0089800D01*
X0138100Y0093000D02*
X0216300Y0093000D01*
X0216300Y0096200D02*
X0138100Y0096200D01*
X0138100Y0099400D02*
X0216300Y0099400D01*
X0216300Y0102600D02*
X0138100Y0102600D01*
X0138100Y0105800D02*
X0216300Y0105800D01*
X0216300Y0109000D02*
X0138100Y0109000D01*
X0138100Y0112200D02*
X0216300Y0112200D01*
X0216300Y0115400D02*
X0138100Y0115400D01*
X0128800Y0115200D02*
X0128800Y0104675D01*
X0127400Y0101900D02*
X0116900Y0091400D01*
X0116900Y0087300D01*
X0110700Y0081100D01*
X0110700Y0061800D01*
X0107600Y0058700D01*
X0107600Y0049400D01*
X0106400Y0046542D02*
X0106400Y0005500D01*
X0103200Y0005500D02*
X0103200Y0080600D01*
X0104600Y0080200D02*
X0094900Y0080200D01*
X0092900Y0082400D02*
X0092300Y0083000D01*
X0092900Y0082400D02*
X0092900Y0042900D01*
X0090000Y0041800D02*
X0085028Y0041800D01*
X0090400Y0041016D02*
X0090400Y0038000D01*
X0095184Y0045000D02*
X0216300Y0045000D01*
X0216300Y0048200D02*
X0130684Y0048200D01*
X0125600Y0049983D02*
X0125600Y0051217D01*
X0125676Y0051400D02*
X0109984Y0051400D01*
X0105216Y0051400D02*
X0094900Y0051400D01*
X0094900Y0054600D02*
X0105600Y0054600D01*
X0105600Y0057800D02*
X0094900Y0057800D01*
X0090900Y0057800D02*
X0083700Y0057800D01*
X0083700Y0054600D02*
X0090900Y0054600D01*
X0090900Y0051400D02*
X0083700Y0051400D01*
X0083700Y0048200D02*
X0090900Y0048200D01*
X0094900Y0048200D02*
X0104742Y0048200D01*
X0106400Y0060328D02*
X0106400Y0060400D01*
X0104716Y0061000D02*
X0094900Y0061000D01*
X0094900Y0064200D02*
X0103535Y0064200D01*
X0106600Y0063500D02*
X0106600Y0083700D01*
X0100000Y0082118D02*
X0100000Y0011084D01*
X0096800Y0011417D02*
X0096800Y0026072D01*
X0096528Y0025800D02*
X0142199Y0025800D01*
X0141600Y0025551D02*
X0141600Y0125400D01*
X0144800Y0125400D02*
X0144800Y0026010D01*
X0148000Y0026032D02*
X0148000Y0125400D01*
X0151200Y0125400D02*
X0151200Y0026053D01*
X0154400Y0026075D02*
X0154400Y0125400D01*
X0157600Y0125400D02*
X0157600Y0026097D01*
X0160800Y0026118D02*
X0160800Y0125400D01*
X0164000Y0125400D02*
X0164000Y0026140D01*
X0167200Y0026162D02*
X0167200Y0125400D01*
X0170400Y0125400D02*
X0170400Y0026183D01*
X0176003Y0022600D02*
X0216300Y0022600D01*
X0216300Y0019400D02*
X0144300Y0019400D01*
X0144300Y0016200D02*
X0216300Y0016200D01*
X0216300Y0013000D02*
X0144300Y0013000D01*
X0144183Y0009800D02*
X0216300Y0009800D01*
X0212000Y0005500D02*
X0212000Y0125400D01*
X0208800Y0125400D02*
X0208800Y0005500D01*
X0205600Y0005500D02*
X0205600Y0125400D01*
X0202400Y0125400D02*
X0202400Y0005500D01*
X0199200Y0005500D02*
X0199200Y0125400D01*
X0196000Y0125400D02*
X0196000Y0005500D01*
X0192800Y0005500D02*
X0192800Y0125400D01*
X0189600Y0125400D02*
X0189600Y0005500D01*
X0186400Y0005500D02*
X0186400Y0125400D01*
X0183200Y0125400D02*
X0183200Y0005500D01*
X0180000Y0005500D02*
X0180000Y0125400D01*
X0129300Y0112200D02*
X0079228Y0112200D01*
X0077600Y0113828D02*
X0077600Y0115200D01*
X0074400Y0111372D02*
X0074400Y0097400D01*
X0061600Y0102700D02*
X0061600Y0103700D01*
X0060300Y0102600D02*
X0059300Y0102600D01*
X0058400Y0102700D02*
X0058400Y0103700D01*
X0055300Y0102600D02*
X0054300Y0102600D01*
X0055530Y0099400D02*
X0052364Y0099400D01*
X0052000Y0099036D02*
X0052000Y0097364D01*
X0046036Y0105800D02*
X0043564Y0105800D01*
X0042400Y0106964D02*
X0042400Y0107800D01*
X0032800Y0110400D02*
X0032800Y0083900D01*
X0033400Y0080800D02*
X0033200Y0080600D01*
X0029600Y0078600D02*
X0029600Y0070100D01*
X0038400Y0072500D02*
X0052300Y0072500D01*
X0052400Y0072600D01*
X0052000Y0069500D02*
X0052000Y0069028D01*
X0045600Y0074500D02*
X0045600Y0084147D01*
X0043147Y0086600D02*
X0028100Y0086600D01*
X0024100Y0086600D02*
X0006100Y0086600D01*
X0006100Y0083400D02*
X0020972Y0083400D01*
X0020000Y0082428D02*
X0020000Y0125400D01*
X0016800Y0125400D02*
X0016800Y0079228D01*
X0017772Y0080200D02*
X0006100Y0080200D01*
X0006100Y0089800D02*
X0024100Y0089800D01*
X0024100Y0093000D02*
X0006100Y0093000D01*
X0006100Y0096200D02*
X0024100Y0096200D01*
X0024100Y0099400D02*
X0006100Y0099400D01*
X0006100Y0102600D02*
X0024100Y0102600D01*
X0024100Y0105800D02*
X0006100Y0105800D01*
X0006100Y0109000D02*
X0025372Y0109000D01*
X0023200Y0111842D02*
X0023200Y0085628D01*
X0039200Y0088700D02*
X0039200Y0075524D01*
X0042400Y0074500D02*
X0042400Y0087347D01*
X0055200Y0086689D02*
X0055200Y0107800D01*
X0059300Y0105800D02*
X0060300Y0105800D01*
X0063700Y0112200D02*
X0064616Y0112200D01*
X0093600Y0115200D02*
X0093600Y0085817D01*
X0095400Y0083400D02*
X0099600Y0083400D01*
X0099300Y0086600D02*
X0080600Y0086600D01*
X0076600Y0086600D02*
X0076600Y0086600D01*
X0076600Y0083400D02*
X0076600Y0083400D01*
X0076600Y0080200D02*
X0076600Y0080200D01*
X0076600Y0077000D02*
X0076600Y0077000D01*
X0076600Y0073800D02*
X0076600Y0073800D01*
X0076600Y0070600D02*
X0076600Y0070600D01*
X0076600Y0067400D02*
X0074353Y0067400D01*
X0074400Y0067447D02*
X0074400Y0066653D01*
X0076600Y0064200D02*
X0076600Y0064200D01*
X0076600Y0061000D02*
X0076600Y0061000D01*
X0076600Y0057800D02*
X0076600Y0057800D01*
X0076600Y0054600D02*
X0076600Y0054600D01*
X0076600Y0051400D02*
X0076600Y0051400D01*
X0075253Y0049500D02*
X0075253Y0049500D01*
X0083700Y0061000D02*
X0090900Y0061000D01*
X0090900Y0064200D02*
X0083700Y0064200D01*
X0094900Y0067400D02*
X0104600Y0067400D01*
X0104600Y0070600D02*
X0094900Y0070600D01*
X0094900Y0073800D02*
X0104600Y0073800D01*
X0104600Y0077000D02*
X0094900Y0077000D01*
X0112700Y0077000D02*
X0216300Y0077000D01*
X0216300Y0073800D02*
X0112700Y0073800D01*
X0112700Y0070600D02*
X0216300Y0070600D01*
X0216300Y0067400D02*
X0112700Y0067400D01*
X0112700Y0064200D02*
X0216300Y0064200D01*
X0216300Y0061000D02*
X0112700Y0061000D01*
X0128800Y0053700D02*
X0128800Y0099124D01*
X0129156Y0099272D02*
X0129300Y0099416D01*
X0129300Y0084172D01*
X0130472Y0083000D01*
X0129300Y0086600D02*
X0118900Y0086600D01*
X0135200Y0079300D02*
X0135200Y0011200D01*
X0138100Y0013000D02*
X0087728Y0013000D01*
X0090400Y0010600D02*
X0090400Y0025500D01*
X0093600Y0025500D02*
X0093600Y0010600D01*
X0087400Y0016200D02*
X0138100Y0016200D01*
X0138100Y0019400D02*
X0087400Y0019400D01*
X0083400Y0019400D02*
X0083300Y0019400D01*
X0083300Y0016200D02*
X0083400Y0016200D01*
X0083400Y0013000D02*
X0083300Y0013000D01*
X0084000Y0011072D02*
X0084000Y0005500D01*
X0083300Y0009800D02*
X0085272Y0009800D01*
X0083400Y0022600D02*
X0083300Y0022600D01*
X0083300Y0025800D02*
X0083400Y0025800D01*
X0084000Y0027428D02*
X0084000Y0027731D01*
X0087400Y0022600D02*
X0138616Y0022600D01*
X0138400Y0022141D02*
X0138400Y0079916D01*
X0129156Y0099272D02*
X0128017Y0098800D01*
X0129284Y0099400D02*
X0129300Y0099400D01*
X0072000Y0086600D02*
X0058053Y0086600D01*
X0058400Y0086253D02*
X0058400Y0088700D01*
X0029600Y0113228D02*
X0029300Y0112928D01*
X0029300Y0113317D01*
X0028828Y0114456D01*
X0027956Y0115328D01*
X0026817Y0115800D01*
X0027782Y0115400D02*
X0030216Y0115400D01*
X0029600Y0114117D02*
X0029600Y0113228D01*
X0024618Y0115400D02*
X0006100Y0115400D01*
X0006100Y0112200D02*
X0023100Y0112200D01*
X0023200Y0113558D02*
X0023200Y0125400D01*
X0131724Y0051400D02*
X0216300Y0051400D01*
X0055200Y0049400D02*
X0055200Y0037300D01*
X0052000Y0038275D02*
X0052000Y0049400D01*
X0032800Y0043500D02*
X0032800Y0042900D01*
X0029600Y0042900D02*
X0029600Y0044600D01*
X0026400Y0044600D02*
X0026400Y0042900D01*
X0023200Y0042900D02*
X0023200Y0044600D01*
X0022172Y0045000D02*
X0020528Y0045000D01*
X0032800Y0038900D02*
X0032800Y0035884D01*
D15*
X0034800Y0033500D02*
X0034800Y0015300D01*
X0041400Y0008700D01*
X0046400Y0008700D01*
X0053300Y0015600D01*
X0060000Y0015600D01*
X0065300Y0020900D01*
X0074500Y0020900D01*
X0054200Y0021700D02*
X0049300Y0016800D01*
X0041100Y0016800D01*
X0054200Y0021700D02*
X0054200Y0035000D01*
X0057500Y0035000D01*
X0074300Y0051800D01*
X0074300Y0063500D01*
X0070900Y0066900D01*
X0070900Y0067200D01*
X0070700Y0067400D01*
X0070700Y0070700D01*
X0057011Y0084389D01*
X0048611Y0084389D01*
X0039800Y0093200D01*
X0074300Y0094300D02*
X0074300Y0070600D01*
X0070900Y0067200D01*
X0101600Y0084800D02*
X0102700Y0083700D01*
X0101600Y0084800D02*
X0101600Y0105700D01*
M02*
