G75*
%MOIN*%
%OFA0B0*%
%FSLAX25Y25*%
%IPPOS*%
%LPD*%
%AMOC8*
5,1,8,0,0,1.08239X$1,22.5*
%
%ADD10R,0.05512X0.03937*%
%ADD11R,0.03937X0.01575*%
%ADD12R,0.01693X0.01102*%
%ADD13R,0.02600X0.04300*%
%ADD14R,0.05512X0.05512*%
%ADD15R,0.03543X0.02756*%
%ADD16R,0.02756X0.03543*%
%ADD17R,0.03937X0.04331*%
%ADD18R,0.03150X0.04724*%
%ADD19R,0.04600X0.01400*%
%ADD20R,0.01378X0.00984*%
%ADD21R,0.01102X0.01693*%
%ADD22R,0.00984X0.01378*%
%ADD23R,0.07800X0.01400*%
%ADD24R,0.08600X0.02200*%
%ADD25R,0.08700X0.02400*%
%ADD26R,0.07874X0.03937*%
%ADD27R,0.03937X0.07087*%
%ADD28R,0.05000X0.02200*%
%ADD29R,0.02200X0.05000*%
%ADD30R,0.05512X0.04724*%
%ADD31R,0.06000X0.06000*%
%ADD32OC8,0.06000*%
%ADD33R,0.04724X0.02165*%
%ADD34R,0.03937X0.21654*%
%ADD35R,0.06299X0.13386*%
%ADD36R,0.04724X0.03150*%
%ADD37R,0.05118X0.01969*%
%ADD38R,0.08661X0.07087*%
%ADD39R,0.05800X0.01400*%
%ADD40C,0.01600*%
%ADD41C,0.03200*%
%ADD42C,0.03200*%
%ADD43C,0.01000*%
%ADD44C,0.01200*%
%ADD45C,0.02400*%
D10*
X0017931Y0009360D03*
X0009269Y0013100D03*
X0017931Y0016840D03*
X0066369Y0019640D03*
X0075031Y0015900D03*
X0066369Y0012160D03*
X0136669Y0038360D03*
X0145331Y0042100D03*
X0136669Y0045840D03*
D11*
X0097506Y0047165D03*
X0097506Y0049724D03*
X0097506Y0052283D03*
X0097506Y0054843D03*
X0097706Y0062565D03*
X0097706Y0065124D03*
X0097706Y0067683D03*
X0097706Y0070243D03*
X0079891Y0070243D03*
X0079891Y0067683D03*
X0079891Y0065124D03*
X0079891Y0062565D03*
X0079691Y0054843D03*
X0079691Y0052283D03*
X0079691Y0049724D03*
X0079691Y0047165D03*
X0086806Y0038243D03*
X0086806Y0035683D03*
X0086806Y0033124D03*
X0086806Y0030565D03*
X0068991Y0030565D03*
X0068991Y0033124D03*
X0068991Y0035683D03*
X0068991Y0038243D03*
X0045206Y0038483D03*
X0045206Y0035924D03*
X0045206Y0033365D03*
X0045206Y0041043D03*
X0027391Y0041043D03*
X0027391Y0038483D03*
X0027391Y0035924D03*
X0027391Y0033365D03*
D12*
X0060700Y0021304D03*
X0060700Y0019296D03*
X0060700Y0013404D03*
X0060700Y0011396D03*
X0075200Y0049896D03*
X0075200Y0051904D03*
X0075200Y0065396D03*
X0075200Y0067404D03*
X0075100Y0070296D03*
X0075100Y0072304D03*
X0076700Y0080496D03*
X0076700Y0082504D03*
X0095800Y0118696D03*
X0095800Y0120704D03*
D13*
X0098060Y0023624D03*
X0101800Y0023624D03*
X0105540Y0023624D03*
X0105540Y0014176D03*
X0098060Y0014176D03*
D14*
X0112700Y0028320D03*
X0112700Y0043280D03*
D15*
X0146100Y0026059D03*
X0146100Y0020941D03*
X0113800Y0019259D03*
X0113800Y0014141D03*
X0152900Y0068341D03*
X0152900Y0073459D03*
X0081200Y0085141D03*
X0081200Y0090259D03*
D16*
X0110341Y0078800D03*
X0115459Y0078800D03*
X0127641Y0095100D03*
X0132759Y0095100D03*
X0128759Y0044300D03*
X0123641Y0044300D03*
X0123741Y0038000D03*
X0128859Y0038000D03*
X0128859Y0032100D03*
X0123741Y0032100D03*
X0136341Y0032000D03*
X0141459Y0032000D03*
X0091759Y0023800D03*
X0086641Y0023800D03*
X0086641Y0016200D03*
X0091759Y0016200D03*
X0091459Y0009200D03*
X0086341Y0009200D03*
X0060359Y0041200D03*
X0055241Y0041200D03*
X0014059Y0023200D03*
X0008941Y0023200D03*
X0010641Y0089000D03*
X0015759Y0089000D03*
X0014241Y0108500D03*
X0019359Y0108500D03*
X0020959Y0117900D03*
X0015841Y0117900D03*
D17*
X0101600Y0040546D03*
X0101600Y0033854D03*
D18*
X0128957Y0014600D03*
X0136043Y0014600D03*
D19*
X0137000Y0020800D03*
X0137000Y0023400D03*
X0137000Y0026000D03*
X0128800Y0026000D03*
X0128800Y0023400D03*
X0128800Y0020800D03*
D20*
X0102400Y0047716D03*
X0102400Y0049684D03*
X0102500Y0054816D03*
X0102500Y0056784D03*
X0102400Y0063216D03*
X0102400Y0065184D03*
X0102400Y0070316D03*
X0102400Y0072284D03*
X0073700Y0080516D03*
X0073700Y0082484D03*
X0070700Y0082384D03*
X0070700Y0080416D03*
X0072700Y0088116D03*
X0072700Y0090084D03*
X0076500Y0090084D03*
X0076500Y0088116D03*
X0078000Y0095716D03*
X0081500Y0095716D03*
X0081500Y0097684D03*
X0078000Y0097684D03*
X0078000Y0110516D03*
X0078000Y0112484D03*
X0082000Y0112584D03*
X0082000Y0110616D03*
X0068500Y0061084D03*
X0068500Y0059116D03*
D21*
X0068496Y0077100D03*
X0070504Y0077100D03*
X0074596Y0077100D03*
X0076604Y0077100D03*
X0098796Y0091800D03*
X0100804Y0091800D03*
X0095904Y0095200D03*
X0093896Y0095200D03*
X0114596Y0091200D03*
X0116604Y0091200D03*
X0116804Y0087700D03*
X0114796Y0087700D03*
X0151296Y0088100D03*
X0153304Y0088100D03*
X0153404Y0082200D03*
X0151396Y0082200D03*
X0122904Y0113000D03*
X0120896Y0113000D03*
X0120896Y0116400D03*
X0122904Y0116400D03*
X0101804Y0121600D03*
X0099796Y0121600D03*
X0052504Y0121100D03*
X0050496Y0121100D03*
X0040204Y0025800D03*
X0038196Y0025800D03*
D22*
X0108716Y0091200D03*
X0110684Y0091200D03*
X0110684Y0094900D03*
X0108716Y0094900D03*
X0100784Y0095200D03*
X0098816Y0095200D03*
X0116616Y0094800D03*
X0118584Y0094800D03*
X0129816Y0090700D03*
X0131784Y0090700D03*
X0117584Y0108100D03*
X0115616Y0108100D03*
X0115916Y0113000D03*
X0117884Y0113000D03*
X0117884Y0116500D03*
X0115916Y0116500D03*
X0101684Y0118800D03*
X0099716Y0118800D03*
X0020984Y0113200D03*
X0019016Y0113200D03*
D23*
X0089300Y0113100D03*
X0089300Y0110700D03*
X0089300Y0108100D03*
X0089300Y0105700D03*
X0089300Y0103100D03*
X0089300Y0100700D03*
X0089300Y0098100D03*
X0108700Y0098100D03*
X0108700Y0100700D03*
X0108700Y0103100D03*
X0108700Y0105700D03*
X0108700Y0108100D03*
X0108700Y0110700D03*
X0108700Y0113100D03*
X0108700Y0115700D03*
X0089300Y0115700D03*
D24*
X0118600Y0073500D03*
X0118600Y0068500D03*
X0118600Y0063500D03*
X0118600Y0058500D03*
X0137200Y0058500D03*
X0137200Y0063500D03*
X0137200Y0068500D03*
X0137200Y0073500D03*
D25*
X0048400Y0021500D03*
X0048400Y0016500D03*
X0048400Y0011500D03*
X0048400Y0006500D03*
X0027800Y0006500D03*
X0027800Y0011500D03*
X0027800Y0016500D03*
X0027800Y0021500D03*
D26*
X0160900Y0023139D03*
X0160900Y0017234D03*
X0160900Y0029045D03*
X0160900Y0034950D03*
X0160900Y0040856D03*
X0160900Y0046761D03*
X0160900Y0052667D03*
X0160900Y0058572D03*
X0160900Y0064478D03*
X0160900Y0070383D03*
X0160900Y0076289D03*
X0160900Y0082194D03*
X0160900Y0088100D03*
X0212081Y0088100D03*
X0212081Y0082194D03*
X0212081Y0076289D03*
X0212081Y0070383D03*
X0212081Y0064478D03*
X0212081Y0058572D03*
X0212081Y0052667D03*
X0212081Y0046761D03*
X0212081Y0040856D03*
X0212081Y0034950D03*
X0212081Y0029045D03*
X0212081Y0023139D03*
X0212081Y0017234D03*
D27*
X0207160Y0010344D03*
X0201254Y0010344D03*
X0195349Y0010344D03*
X0189443Y0010344D03*
X0183538Y0010344D03*
X0177632Y0010344D03*
X0171727Y0010344D03*
X0165821Y0010344D03*
D28*
X0066600Y0086876D03*
X0066600Y0090026D03*
X0066600Y0093176D03*
X0066600Y0096325D03*
X0066600Y0099475D03*
X0066600Y0102624D03*
X0066600Y0105774D03*
X0066600Y0108924D03*
X0032800Y0108924D03*
X0032800Y0105774D03*
X0032800Y0102624D03*
X0032800Y0099475D03*
X0032800Y0096325D03*
X0032800Y0093176D03*
X0032800Y0090026D03*
X0032800Y0086876D03*
D29*
X0038676Y0081000D03*
X0041826Y0081000D03*
X0044976Y0081000D03*
X0048125Y0081000D03*
X0051275Y0081000D03*
X0054424Y0081000D03*
X0057574Y0081000D03*
X0060724Y0081000D03*
X0060724Y0114800D03*
X0057574Y0114800D03*
X0054424Y0114800D03*
X0051275Y0114800D03*
X0048125Y0114800D03*
X0044976Y0114800D03*
X0041826Y0114800D03*
X0038676Y0114800D03*
D30*
X0019331Y0102050D03*
X0010669Y0102050D03*
X0010669Y0095750D03*
X0019331Y0095750D03*
D31*
X0059800Y0103200D03*
D32*
X0049800Y0103200D03*
X0039800Y0103200D03*
X0039800Y0093200D03*
X0049800Y0093200D03*
X0059800Y0093200D03*
D33*
X0087182Y0086740D03*
X0087182Y0083000D03*
X0087182Y0079260D03*
X0097418Y0079260D03*
X0097418Y0086740D03*
D34*
X0139463Y0108013D03*
X0147337Y0108013D03*
D35*
X0156786Y0115100D03*
X0130014Y0115100D03*
D36*
X0119800Y0021143D03*
X0119800Y0014057D03*
D37*
X0023687Y0053926D03*
X0023687Y0057863D03*
X0023687Y0061800D03*
X0023687Y0065737D03*
X0023687Y0069674D03*
D38*
X0010891Y0079162D03*
X0010891Y0044438D03*
D39*
X0039400Y0049600D03*
X0039400Y0052200D03*
X0039400Y0054800D03*
X0039400Y0057300D03*
X0039400Y0059900D03*
X0039400Y0062400D03*
X0039400Y0065000D03*
X0039400Y0067600D03*
X0061600Y0067600D03*
X0061600Y0065000D03*
X0061600Y0062400D03*
X0061600Y0059900D03*
X0061600Y0057300D03*
X0061600Y0054800D03*
X0061600Y0052200D03*
X0061600Y0049600D03*
D40*
X0060359Y0041200D02*
X0060100Y0040941D01*
X0060100Y0037600D01*
X0057500Y0035000D01*
X0034800Y0033500D02*
X0034665Y0033365D01*
X0027391Y0033365D01*
X0027348Y0041000D02*
X0024500Y0041000D01*
X0023687Y0041813D01*
X0023687Y0053926D01*
X0027391Y0041043D02*
X0027348Y0041000D01*
X0075031Y0015900D02*
X0075731Y0016200D01*
X0086600Y0016241D02*
X0086641Y0016200D01*
X0086600Y0016241D02*
X0086600Y0023841D01*
X0086641Y0023800D01*
X0086600Y0023841D02*
X0086600Y0026900D01*
X0087300Y0027600D01*
X0094700Y0027600D01*
X0095900Y0028800D01*
X0095900Y0035400D01*
X0095617Y0035683D01*
X0096000Y0036067D01*
X0096000Y0039400D01*
X0097146Y0040546D01*
X0101600Y0040546D01*
X0104446Y0040546D01*
X0107200Y0043300D01*
X0112680Y0043300D01*
X0112700Y0043280D01*
X0128700Y0044359D02*
X0128759Y0044300D01*
X0128759Y0045840D01*
X0136669Y0045840D01*
X0128759Y0044300D02*
X0128759Y0038000D01*
X0128859Y0038000D01*
X0128859Y0032100D01*
X0128800Y0032100D01*
X0128800Y0026000D01*
X0128800Y0020800D02*
X0128957Y0020643D01*
X0128957Y0014600D01*
X0136043Y0014600D02*
X0137000Y0015557D01*
X0137000Y0020800D01*
X0142000Y0020800D01*
X0146100Y0020800D01*
X0146100Y0020941D01*
X0142000Y0020800D02*
X0142000Y0026000D01*
X0137000Y0026000D01*
X0136341Y0032000D02*
X0136341Y0036900D01*
X0150900Y0036900D01*
X0150900Y0023139D01*
X0160900Y0023139D01*
X0136341Y0036900D02*
X0136341Y0038360D01*
X0136669Y0038360D01*
X0128700Y0044359D02*
X0128700Y0050600D01*
X0128759Y0050659D01*
X0128759Y0061741D01*
X0127600Y0062900D01*
X0127616Y0062916D01*
X0127600Y0062900D02*
X0127100Y0063400D01*
X0127641Y0063941D01*
X0127641Y0090800D01*
X0127641Y0095100D01*
X0125141Y0097600D01*
X0120600Y0097600D01*
X0119400Y0098800D01*
X0119400Y0102500D01*
X0116200Y0105700D01*
X0108700Y0105700D01*
X0101600Y0105700D01*
X0092500Y0090200D02*
X0081259Y0090200D01*
X0081200Y0090259D01*
X0076675Y0090259D01*
X0076500Y0090084D02*
X0074300Y0090084D01*
X0072700Y0090084D01*
X0072642Y0090026D02*
X0066600Y0090026D01*
X0074300Y0090084D02*
X0074300Y0094300D01*
X0092500Y0090200D02*
X0095960Y0086740D01*
X0097418Y0086740D01*
X0100458Y0083700D01*
X0102700Y0083700D01*
X0105000Y0078800D02*
X0103700Y0077500D01*
X0103700Y0077000D01*
X0102000Y0075300D01*
X0094800Y0075300D01*
X0091900Y0072400D01*
X0091900Y0068700D01*
X0091900Y0065500D01*
X0091524Y0065124D01*
X0110300Y0075800D02*
X0112700Y0073400D01*
X0118600Y0073500D01*
X0110300Y0075800D02*
X0110300Y0078759D01*
X0110341Y0078800D01*
X0105000Y0078800D01*
X0118600Y0063500D02*
X0127100Y0063400D01*
X0137200Y0073500D02*
X0145926Y0073459D01*
X0152900Y0073459D01*
X0095617Y0035683D02*
X0086806Y0035683D01*
X0091759Y0023800D02*
X0097884Y0023800D01*
X0098060Y0023624D01*
X0091759Y0023800D02*
X0091759Y0016200D01*
X0091459Y0015900D01*
X0091459Y0009200D01*
X0105540Y0014176D02*
X0105575Y0014141D01*
X0113800Y0014141D01*
X0112284Y0014057D01*
X0119800Y0014057D01*
X0119800Y0021143D02*
X0119800Y0021220D01*
D41*
X0119800Y0014057D02*
X0119800Y0009700D01*
X0121000Y0008500D01*
X0128200Y0008500D01*
X0134600Y0008500D01*
X0136200Y0010100D01*
X0136200Y0014443D01*
X0136043Y0014600D01*
X0172900Y0023100D02*
X0172900Y0089000D01*
X0166800Y0095100D01*
X0166800Y0098100D01*
X0163800Y0101100D01*
X0147437Y0101100D01*
X0147337Y0101200D01*
X0147337Y0108013D01*
D42*
X0127400Y0101900D03*
X0121300Y0107000D03*
X0101600Y0105700D03*
X0100500Y0112200D03*
X0081900Y0105200D03*
X0066400Y0114800D03*
X0056300Y0121000D03*
X0045000Y0120900D03*
X0039700Y0120900D03*
X0032000Y0118500D03*
X0032700Y0113500D03*
X0026200Y0112700D03*
X0021400Y0088800D03*
X0033400Y0080800D03*
X0038400Y0072500D03*
X0029300Y0067000D03*
X0029500Y0061700D03*
X0046200Y0063100D03*
X0055400Y0062300D03*
X0047300Y0055500D03*
X0055700Y0054600D03*
X0068400Y0055700D03*
X0087800Y0049300D03*
X0092900Y0042900D03*
X0107600Y0049400D03*
X0118300Y0050600D03*
X0128700Y0050600D03*
X0140200Y0052900D03*
X0151500Y0052900D03*
X0145900Y0064900D03*
X0123500Y0080600D03*
X0136300Y0082200D03*
X0136100Y0088100D03*
X0139200Y0094000D03*
X0144900Y0094100D03*
X0150600Y0094200D03*
X0156100Y0094500D03*
X0110500Y0087600D03*
X0102700Y0083700D03*
X0092300Y0083000D03*
X0087100Y0075200D03*
X0070900Y0067200D03*
X0061800Y0071800D03*
X0052400Y0072600D03*
X0066800Y0081500D03*
X0074300Y0094300D03*
X0106600Y0063500D03*
X0102300Y0060000D03*
X0057500Y0035000D03*
X0050600Y0035500D03*
X0048200Y0026900D03*
X0058000Y0025500D03*
X0074500Y0020900D03*
X0056400Y0011500D03*
X0058100Y0006600D03*
X0074800Y0007900D03*
X0098100Y0008600D03*
X0108100Y0008500D03*
X0109300Y0018800D03*
X0101800Y0028900D03*
X0092200Y0032000D03*
X0074500Y0032200D03*
X0041100Y0016800D03*
X0035600Y0008600D03*
X0034800Y0033500D03*
X0032300Y0046600D03*
X0128200Y0008500D03*
X0151200Y0012800D03*
X0172900Y0023100D03*
D43*
X0017931Y0009360D02*
X0016371Y0008800D01*
X0017931Y0009360D02*
X0017971Y0009400D01*
X0021600Y0009400D01*
X0022100Y0009900D01*
X0022100Y0021300D01*
X0022300Y0021500D01*
X0027800Y0021500D01*
X0036700Y0021500D01*
X0038100Y0022900D01*
X0038100Y0025704D01*
X0038196Y0025800D01*
X0040204Y0025800D02*
X0040204Y0022696D01*
X0041400Y0021500D01*
X0048400Y0021500D01*
X0048596Y0021304D01*
X0060700Y0021304D01*
X0061800Y0022404D01*
X0061800Y0025600D01*
X0062800Y0026600D01*
X0079000Y0026600D01*
X0080400Y0028000D01*
X0080400Y0037800D01*
X0079700Y0038500D01*
X0069248Y0038500D01*
X0068991Y0038243D01*
X0068991Y0035684D02*
X0072459Y0035684D01*
X0072459Y0036500D01*
X0078400Y0036500D01*
X0078400Y0028828D01*
X0078172Y0028600D01*
X0071902Y0028600D01*
X0072159Y0028857D01*
X0072357Y0029199D01*
X0072459Y0029580D01*
X0072459Y0030565D01*
X0068991Y0030565D01*
X0068991Y0030565D01*
X0072459Y0030565D01*
X0072459Y0031550D01*
X0072424Y0031681D01*
X0072459Y0031716D01*
X0072459Y0034533D01*
X0072424Y0034568D01*
X0072459Y0034699D01*
X0072459Y0035683D01*
X0068991Y0035683D01*
X0068991Y0035684D01*
X0071200Y0035683D02*
X0071200Y0035684D01*
X0072459Y0035400D02*
X0078400Y0035400D01*
X0077600Y0036500D02*
X0077600Y0028600D01*
X0078400Y0029000D02*
X0072242Y0029000D01*
X0071200Y0030565D02*
X0071200Y0030565D01*
X0072459Y0032200D02*
X0078400Y0032200D01*
X0082700Y0032300D02*
X0083524Y0033124D01*
X0086806Y0033124D01*
X0086806Y0030565D02*
X0090765Y0030565D01*
X0092200Y0032000D01*
X0098200Y0031235D02*
X0098200Y0027847D01*
X0097627Y0027274D01*
X0099981Y0027274D01*
X0100049Y0027206D01*
X0100303Y0027274D01*
X0101650Y0027274D01*
X0101650Y0023774D01*
X0101950Y0023774D01*
X0101950Y0027274D01*
X0103297Y0027274D01*
X0103551Y0027206D01*
X0103619Y0027274D01*
X0103700Y0027274D01*
X0103700Y0030188D01*
X0102084Y0030188D01*
X0102084Y0033369D01*
X0101116Y0033369D01*
X0101116Y0030188D01*
X0099434Y0030188D01*
X0099053Y0030290D01*
X0098710Y0030488D01*
X0098431Y0030767D01*
X0098234Y0031109D01*
X0098200Y0031235D01*
X0100000Y0030188D02*
X0100000Y0027255D01*
X0101650Y0025800D02*
X0101950Y0025800D01*
X0103200Y0027274D02*
X0103200Y0030188D01*
X0103700Y0029000D02*
X0098200Y0029000D01*
X0101116Y0032200D02*
X0102084Y0032200D01*
X0102084Y0033369D02*
X0102084Y0034338D01*
X0105068Y0034338D01*
X0105068Y0036216D01*
X0104966Y0036598D01*
X0104769Y0036940D01*
X0104509Y0037200D01*
X0105068Y0037760D01*
X0105068Y0038246D01*
X0105399Y0038246D01*
X0108153Y0041000D01*
X0108444Y0041000D01*
X0108444Y0039903D01*
X0109323Y0039024D01*
X0116077Y0039024D01*
X0116956Y0039903D01*
X0116956Y0046658D01*
X0116077Y0047536D01*
X0110120Y0047536D01*
X0110228Y0047644D01*
X0110700Y0048783D01*
X0110700Y0050017D01*
X0110228Y0051156D01*
X0109356Y0052028D01*
X0108217Y0052500D01*
X0107328Y0052500D01*
X0107028Y0052800D01*
X0109728Y0052800D01*
X0110900Y0053972D01*
X0111900Y0054972D01*
X0111900Y0061419D01*
X0113145Y0061434D01*
X0113579Y0061000D01*
X0112800Y0060221D01*
X0112800Y0061430D01*
X0113579Y0061000D02*
X0111900Y0061000D01*
X0112800Y0060221D02*
X0112800Y0056779D01*
X0112800Y0047536D01*
X0110458Y0048200D02*
X0126400Y0048200D01*
X0126400Y0048516D02*
X0126400Y0047212D01*
X0126200Y0047012D01*
X0125940Y0047272D01*
X0125598Y0047469D01*
X0125216Y0047572D01*
X0123830Y0047572D01*
X0123830Y0044489D01*
X0123452Y0044489D01*
X0123452Y0047572D01*
X0122066Y0047572D01*
X0121684Y0047469D01*
X0121342Y0047272D01*
X0121063Y0046993D01*
X0120865Y0046651D01*
X0120763Y0046269D01*
X0120763Y0044489D01*
X0123452Y0044489D01*
X0123452Y0044111D01*
X0123830Y0044111D01*
X0123830Y0041028D01*
X0123930Y0041028D01*
X0123930Y0038189D01*
X0123552Y0038189D01*
X0123552Y0041272D01*
X0123452Y0041272D01*
X0123452Y0044111D01*
X0120763Y0044111D01*
X0120763Y0042331D01*
X0120865Y0041949D01*
X0121063Y0041607D01*
X0121342Y0041328D01*
X0121684Y0041131D01*
X0121706Y0041125D01*
X0121442Y0040972D01*
X0121163Y0040693D01*
X0120965Y0040351D01*
X0120863Y0039969D01*
X0120863Y0038189D01*
X0123552Y0038189D01*
X0123552Y0037811D01*
X0123930Y0037811D01*
X0123930Y0032289D01*
X0123552Y0032289D01*
X0123552Y0035372D01*
X0123552Y0037811D01*
X0120863Y0037811D01*
X0120863Y0036031D01*
X0120965Y0035649D01*
X0121163Y0035307D01*
X0121420Y0035050D01*
X0121163Y0034793D01*
X0120965Y0034451D01*
X0120863Y0034069D01*
X0120863Y0033265D01*
X0120728Y0033400D01*
X0104872Y0033400D01*
X0104841Y0033369D01*
X0102084Y0033369D01*
X0103200Y0033369D02*
X0103200Y0034338D01*
X0105068Y0035400D02*
X0121109Y0035400D01*
X0123552Y0035400D02*
X0123930Y0035400D01*
X0122400Y0037811D02*
X0122400Y0038189D01*
X0123552Y0038600D02*
X0123930Y0038600D01*
X0120863Y0038600D02*
X0105753Y0038600D01*
X0106400Y0039247D02*
X0106400Y0033400D01*
X0105800Y0031400D02*
X0105800Y0027274D01*
X0105700Y0027274D02*
X0105700Y0031400D01*
X0108478Y0031400D01*
X0108444Y0031273D01*
X0108444Y0028820D01*
X0112200Y0028820D01*
X0112200Y0027820D01*
X0108444Y0027820D01*
X0108444Y0025366D01*
X0108546Y0024985D01*
X0108744Y0024643D01*
X0109023Y0024363D01*
X0109365Y0024166D01*
X0109747Y0024064D01*
X0112200Y0024064D01*
X0112200Y0027820D01*
X0113200Y0027820D01*
X0113200Y0028820D01*
X0116956Y0028820D01*
X0116956Y0031273D01*
X0116922Y0031400D01*
X0119900Y0031400D01*
X0119900Y0022800D01*
X0119513Y0022800D01*
X0119513Y0024218D01*
X0117240Y0024218D01*
X0116859Y0024116D01*
X0116517Y0023918D01*
X0116237Y0023639D01*
X0116040Y0023297D01*
X0115938Y0022916D01*
X0115938Y0022800D01*
X0108340Y0022800D01*
X0108340Y0023474D01*
X0105700Y0023474D01*
X0105700Y0023774D01*
X0108340Y0023774D01*
X0108340Y0025972D01*
X0108238Y0026353D01*
X0108040Y0026695D01*
X0107761Y0026975D01*
X0107419Y0027172D01*
X0107038Y0027274D01*
X0105700Y0027274D01*
X0108340Y0025200D02*
X0108489Y0025200D01*
X0110800Y0024064D02*
X0110800Y0022800D01*
X0113200Y0024064D02*
X0115653Y0024064D01*
X0116035Y0024166D01*
X0116377Y0024363D01*
X0116656Y0024643D01*
X0116854Y0024985D01*
X0116956Y0025366D01*
X0116956Y0027820D01*
X0113200Y0027820D01*
X0113200Y0024064D01*
X0113200Y0025200D02*
X0112200Y0025200D01*
X0115800Y0024103D02*
X0115800Y0022800D01*
X0116911Y0025200D02*
X0119900Y0025200D01*
X0121900Y0025800D02*
X0125000Y0025800D01*
X0125000Y0024679D02*
X0125081Y0024598D01*
X0125000Y0024297D01*
X0125000Y0023400D01*
X0128800Y0023400D01*
X0132600Y0023400D01*
X0132600Y0024297D01*
X0132519Y0024598D01*
X0132600Y0024679D01*
X0132600Y0027321D01*
X0131721Y0028200D01*
X0131100Y0028200D01*
X0131100Y0029070D01*
X0131737Y0029707D01*
X0131737Y0034493D01*
X0131180Y0035050D01*
X0131737Y0035607D01*
X0131737Y0040393D01*
X0131059Y0041071D01*
X0131059Y0041329D01*
X0131637Y0041907D01*
X0131637Y0043540D01*
X0132413Y0043540D01*
X0132413Y0043250D01*
X0133292Y0042372D01*
X0140047Y0042372D01*
X0140925Y0043250D01*
X0140925Y0048430D01*
X0140047Y0049309D01*
X0133292Y0049309D01*
X0132413Y0048430D01*
X0132413Y0048140D01*
X0131000Y0048140D01*
X0131000Y0048516D01*
X0131328Y0048844D01*
X0131800Y0049983D01*
X0131800Y0051217D01*
X0131328Y0052356D01*
X0131059Y0052625D01*
X0131059Y0062694D01*
X0129941Y0063812D01*
X0129941Y0088511D01*
X0130929Y0088511D01*
X0130964Y0088546D01*
X0131095Y0088511D01*
X0131784Y0088511D01*
X0131784Y0089366D01*
X0131784Y0089366D01*
X0131784Y0088511D01*
X0132474Y0088511D01*
X0132855Y0088613D01*
X0133000Y0088697D01*
X0133000Y0087483D01*
X0133472Y0086344D01*
X0134344Y0085472D01*
X0135221Y0085109D01*
X0134544Y0084828D01*
X0133672Y0083956D01*
X0133200Y0082817D01*
X0133200Y0081583D01*
X0133672Y0080444D01*
X0134544Y0079572D01*
X0135683Y0079100D01*
X0136917Y0079100D01*
X0138056Y0079572D01*
X0138684Y0080200D01*
X0149877Y0080200D01*
X0150224Y0079854D01*
X0154576Y0079854D01*
X0154917Y0080194D01*
X0155463Y0080194D01*
X0155463Y0079605D01*
X0155826Y0079242D01*
X0155463Y0078879D01*
X0155463Y0076167D01*
X0155293Y0076337D01*
X0150507Y0076337D01*
X0149929Y0075759D01*
X0145932Y0075759D01*
X0142446Y0075775D01*
X0142121Y0076100D01*
X0132279Y0076100D01*
X0131400Y0075221D01*
X0131400Y0071779D01*
X0132179Y0071000D01*
X0131400Y0070221D01*
X0131400Y0066779D01*
X0132179Y0066000D01*
X0131400Y0065221D01*
X0131400Y0061779D01*
X0132179Y0061000D01*
X0131400Y0060221D01*
X0131400Y0056779D01*
X0132279Y0055900D01*
X0142121Y0055900D01*
X0143000Y0056779D01*
X0143000Y0060221D01*
X0142221Y0061000D01*
X0143000Y0061779D01*
X0143000Y0065221D01*
X0142221Y0066000D01*
X0143000Y0066779D01*
X0143000Y0070221D01*
X0142221Y0071000D01*
X0142397Y0071176D01*
X0144969Y0071164D01*
X0144973Y0071159D01*
X0145921Y0071159D01*
X0146868Y0071155D01*
X0146872Y0071159D01*
X0149929Y0071159D01*
X0150188Y0070900D01*
X0149928Y0070640D01*
X0149731Y0070298D01*
X0149628Y0069916D01*
X0149628Y0068530D01*
X0152711Y0068530D01*
X0152711Y0068152D01*
X0149628Y0068152D01*
X0149628Y0066766D01*
X0149731Y0066384D01*
X0149928Y0066042D01*
X0150207Y0065763D01*
X0150549Y0065565D01*
X0150931Y0065463D01*
X0152711Y0065463D01*
X0152711Y0068152D01*
X0153089Y0068152D01*
X0153089Y0065463D01*
X0154869Y0065463D01*
X0155251Y0065565D01*
X0155463Y0065688D01*
X0155463Y0061888D01*
X0155826Y0061525D01*
X0155463Y0061162D01*
X0155463Y0055983D01*
X0155826Y0055620D01*
X0155463Y0055257D01*
X0155463Y0050077D01*
X0155826Y0049714D01*
X0155463Y0049351D01*
X0155463Y0044172D01*
X0155826Y0043809D01*
X0155463Y0043446D01*
X0155463Y0038266D01*
X0155826Y0037903D01*
X0155463Y0037540D01*
X0155463Y0032361D01*
X0155826Y0031998D01*
X0155463Y0031635D01*
X0155463Y0026455D01*
X0155826Y0026092D01*
X0155463Y0025729D01*
X0155463Y0025439D01*
X0153200Y0025439D01*
X0153200Y0037853D01*
X0151853Y0039200D01*
X0149276Y0039200D01*
X0149287Y0039210D01*
X0149484Y0039553D01*
X0149587Y0039934D01*
X0149587Y0041616D01*
X0145815Y0041616D01*
X0145815Y0042584D01*
X0149587Y0042584D01*
X0149587Y0044266D01*
X0149484Y0044647D01*
X0149287Y0044990D01*
X0149008Y0045269D01*
X0148666Y0045466D01*
X0148284Y0045568D01*
X0145815Y0045568D01*
X0145815Y0042584D01*
X0144846Y0042584D01*
X0144846Y0041616D01*
X0141075Y0041616D01*
X0141075Y0039934D01*
X0141177Y0039553D01*
X0141375Y0039210D01*
X0141385Y0039200D01*
X0140925Y0039200D01*
X0140925Y0040950D01*
X0140047Y0041828D01*
X0133292Y0041828D01*
X0132413Y0040950D01*
X0132413Y0035770D01*
X0133292Y0034891D01*
X0133961Y0034891D01*
X0133463Y0034393D01*
X0133463Y0029607D01*
X0134342Y0028728D01*
X0138340Y0028728D01*
X0138900Y0029288D01*
X0139160Y0029028D01*
X0139502Y0028831D01*
X0139884Y0028728D01*
X0141270Y0028728D01*
X0141270Y0031811D01*
X0141648Y0031811D01*
X0141648Y0028728D01*
X0143034Y0028728D01*
X0143416Y0028831D01*
X0143758Y0029028D01*
X0144037Y0029307D01*
X0144235Y0029649D01*
X0144337Y0030031D01*
X0144337Y0031811D01*
X0141648Y0031811D01*
X0141648Y0032189D01*
X0144337Y0032189D01*
X0144337Y0033969D01*
X0144235Y0034351D01*
X0144091Y0034600D01*
X0148600Y0034600D01*
X0148600Y0028749D01*
X0148451Y0028835D01*
X0148069Y0028937D01*
X0146289Y0028937D01*
X0146289Y0026248D01*
X0145911Y0026248D01*
X0145911Y0028937D01*
X0144131Y0028937D01*
X0143749Y0028835D01*
X0143407Y0028637D01*
X0143128Y0028358D01*
X0143043Y0028210D01*
X0142953Y0028300D01*
X0136047Y0028300D01*
X0135947Y0028200D01*
X0134079Y0028200D01*
X0133200Y0027321D01*
X0133200Y0024679D01*
X0133281Y0024598D01*
X0133200Y0024297D01*
X0133200Y0023400D01*
X0137000Y0023400D01*
X0137000Y0023400D01*
X0133200Y0023400D01*
X0133200Y0022503D01*
X0133281Y0022202D01*
X0133200Y0022121D01*
X0133200Y0019479D01*
X0134079Y0018600D01*
X0134700Y0018600D01*
X0134700Y0018462D01*
X0133847Y0018462D01*
X0132969Y0017584D01*
X0132969Y0015277D01*
X0132943Y0015217D01*
X0132943Y0013983D01*
X0132969Y0013923D01*
X0132969Y0011616D01*
X0132985Y0011600D01*
X0132015Y0011600D01*
X0132031Y0011616D01*
X0132031Y0017584D01*
X0131257Y0018358D01*
X0131257Y0018600D01*
X0131721Y0018600D01*
X0132600Y0019479D01*
X0132600Y0022121D01*
X0132519Y0022202D01*
X0132600Y0022503D01*
X0132600Y0023400D01*
X0128800Y0023400D01*
X0128800Y0023400D01*
X0128800Y0023400D01*
X0125000Y0023400D01*
X0125000Y0022503D01*
X0125081Y0022202D01*
X0125000Y0022121D01*
X0125000Y0019479D01*
X0125879Y0018600D01*
X0126657Y0018600D01*
X0126657Y0018358D01*
X0125882Y0017584D01*
X0125882Y0011616D01*
X0125898Y0011600D01*
X0123402Y0011600D01*
X0123662Y0011861D01*
X0123662Y0016253D01*
X0122784Y0017131D01*
X0120477Y0017131D01*
X0120417Y0017157D01*
X0119183Y0017157D01*
X0119123Y0017131D01*
X0116871Y0017131D01*
X0116969Y0017302D01*
X0117072Y0017684D01*
X0117072Y0018069D01*
X0122784Y0018069D01*
X0123662Y0018947D01*
X0123662Y0023339D01*
X0122784Y0024218D01*
X0121900Y0024218D01*
X0121900Y0028899D01*
X0122166Y0028828D01*
X0123552Y0028828D01*
X0123552Y0031911D01*
X0123930Y0031911D01*
X0123930Y0028828D01*
X0125316Y0028828D01*
X0125698Y0028931D01*
X0126040Y0029128D01*
X0126300Y0029388D01*
X0126500Y0029188D01*
X0126500Y0028200D01*
X0125879Y0028200D01*
X0125000Y0027321D01*
X0125000Y0024679D01*
X0125600Y0023400D02*
X0125600Y0023400D01*
X0125000Y0022600D02*
X0123662Y0022600D01*
X0122400Y0024218D02*
X0122400Y0028828D01*
X0123552Y0029000D02*
X0123930Y0029000D01*
X0125600Y0028904D02*
X0125600Y0027921D01*
X0125818Y0029000D02*
X0126500Y0029000D01*
X0131100Y0029000D02*
X0134070Y0029000D01*
X0135200Y0028728D02*
X0135200Y0028200D01*
X0138400Y0028300D02*
X0138400Y0028788D01*
X0138612Y0029000D02*
X0139209Y0029000D01*
X0141270Y0029000D02*
X0141648Y0029000D01*
X0141600Y0028300D02*
X0141600Y0031811D01*
X0144337Y0032200D02*
X0148600Y0032200D01*
X0148000Y0034600D02*
X0148000Y0028937D01*
X0148600Y0029000D02*
X0143709Y0029000D01*
X0144800Y0028937D02*
X0144800Y0034600D01*
X0151200Y0039200D02*
X0151200Y0065463D01*
X0154400Y0065463D02*
X0154400Y0025439D01*
X0155534Y0025800D02*
X0153200Y0025800D01*
X0153200Y0029000D02*
X0155463Y0029000D01*
X0155624Y0032200D02*
X0153200Y0032200D01*
X0153200Y0035400D02*
X0155463Y0035400D01*
X0155463Y0038600D02*
X0152453Y0038600D01*
X0155463Y0041800D02*
X0145815Y0041800D01*
X0144846Y0041800D02*
X0140075Y0041800D01*
X0141075Y0042584D02*
X0144846Y0042584D01*
X0144846Y0045568D01*
X0142377Y0045568D01*
X0141996Y0045466D01*
X0141654Y0045269D01*
X0141375Y0044990D01*
X0141177Y0044647D01*
X0141075Y0044266D01*
X0141075Y0042584D01*
X0141600Y0042584D02*
X0141600Y0041616D01*
X0144800Y0041616D02*
X0144800Y0042584D01*
X0148000Y0042584D02*
X0148000Y0041616D01*
X0149276Y0045000D02*
X0155463Y0045000D01*
X0155463Y0048200D02*
X0140925Y0048200D01*
X0138400Y0049309D02*
X0138400Y0055900D01*
X0135200Y0055900D02*
X0135200Y0049309D01*
X0132413Y0048200D02*
X0131000Y0048200D01*
X0132000Y0048140D02*
X0132000Y0056179D01*
X0131400Y0057800D02*
X0131059Y0057800D01*
X0131059Y0054600D02*
X0155463Y0054600D01*
X0155463Y0051400D02*
X0131724Y0051400D01*
X0126459Y0052743D02*
X0126072Y0052356D01*
X0125600Y0051217D01*
X0125600Y0061117D01*
X0126136Y0061111D02*
X0126459Y0060788D01*
X0126459Y0052743D01*
X0125676Y0051400D02*
X0109984Y0051400D01*
X0109600Y0051784D02*
X0109600Y0052800D01*
X0108900Y0054800D02*
X0102516Y0054800D01*
X0102500Y0054816D01*
X0102473Y0054843D01*
X0097506Y0054843D01*
X0093587Y0055200D02*
X0086987Y0055200D01*
X0084500Y0055800D02*
X0083400Y0054700D01*
X0079833Y0054700D01*
X0079691Y0054843D01*
X0079691Y0054996D01*
X0079691Y0052283D02*
X0075580Y0052283D01*
X0075200Y0051904D01*
X0075200Y0049896D02*
X0079519Y0049896D01*
X0079691Y0049724D01*
X0079691Y0047165D02*
X0051935Y0047165D01*
X0047000Y0052100D01*
X0039500Y0052100D01*
X0039400Y0052200D01*
X0039300Y0054700D02*
X0035100Y0054700D01*
X0031937Y0057863D01*
X0023687Y0057863D01*
X0019628Y0057800D02*
X0006100Y0057800D01*
X0006100Y0054600D02*
X0019628Y0054600D01*
X0019628Y0055532D02*
X0019990Y0055894D01*
X0019628Y0056257D01*
X0019628Y0059469D01*
X0019990Y0059831D01*
X0019628Y0060194D01*
X0019628Y0063406D01*
X0019990Y0063768D01*
X0019628Y0064131D01*
X0019628Y0067343D01*
X0019990Y0067705D01*
X0019628Y0068068D01*
X0019628Y0071280D01*
X0020506Y0072158D01*
X0025988Y0072158D01*
X0026600Y0072770D01*
X0027830Y0074000D01*
X0032870Y0074000D01*
X0034970Y0071900D01*
X0035522Y0071348D01*
X0035300Y0071883D01*
X0035300Y0073117D01*
X0035772Y0074256D01*
X0036644Y0075128D01*
X0037783Y0075600D01*
X0039017Y0075600D01*
X0039826Y0075265D01*
X0039826Y0077000D01*
X0036955Y0077000D01*
X0016722Y0077000D01*
X0016722Y0074998D02*
X0016722Y0083000D01*
X0031216Y0083000D01*
X0030772Y0082556D01*
X0030300Y0081417D01*
X0030300Y0080183D01*
X0030772Y0079044D01*
X0031644Y0078172D01*
X0032783Y0077700D01*
X0034017Y0077700D01*
X0035156Y0078172D01*
X0035984Y0079000D01*
X0036076Y0079000D01*
X0036076Y0077879D01*
X0036955Y0077000D01*
X0039200Y0077000D02*
X0039200Y0075524D01*
X0041826Y0074174D02*
X0050600Y0065400D01*
X0050600Y0051200D01*
X0052200Y0049600D01*
X0061600Y0049600D01*
X0061700Y0052100D02*
X0061600Y0052200D01*
X0061700Y0052100D02*
X0071200Y0052100D01*
X0072800Y0053700D01*
X0072800Y0060900D01*
X0074465Y0062565D01*
X0079891Y0062565D01*
X0079856Y0062600D01*
X0079891Y0065124D02*
X0079619Y0065396D01*
X0075200Y0065396D01*
X0073074Y0064003D02*
X0071972Y0062900D01*
X0070800Y0061728D01*
X0070800Y0054528D01*
X0070372Y0054100D01*
X0066000Y0054100D01*
X0066000Y0058072D01*
X0066320Y0058392D01*
X0066413Y0058045D01*
X0066611Y0057703D01*
X0066890Y0057423D01*
X0067232Y0057226D01*
X0067614Y0057124D01*
X0068500Y0057124D01*
X0069386Y0057124D01*
X0069768Y0057226D01*
X0070110Y0057423D01*
X0070389Y0057703D01*
X0070587Y0058045D01*
X0070689Y0058426D01*
X0070689Y0059116D01*
X0070689Y0059805D01*
X0070654Y0059936D01*
X0070689Y0059971D01*
X0070689Y0062198D01*
X0070500Y0062387D01*
X0070500Y0063972D01*
X0070628Y0064100D01*
X0071517Y0064100D01*
X0072656Y0064572D01*
X0072854Y0064770D01*
X0072854Y0064224D01*
X0073074Y0064003D01*
X0072877Y0064200D02*
X0071758Y0064200D01*
X0071200Y0064100D02*
X0071200Y0062128D01*
X0070800Y0061000D02*
X0070689Y0061000D01*
X0068500Y0061084D02*
X0068384Y0061200D01*
X0066300Y0061200D01*
X0064884Y0059784D01*
X0061716Y0059784D01*
X0061600Y0059900D01*
X0061600Y0062400D02*
X0055500Y0062400D01*
X0055400Y0062300D01*
X0061600Y0065000D02*
X0065900Y0065000D01*
X0067500Y0066600D01*
X0067500Y0068800D01*
X0068800Y0070100D01*
X0074904Y0070100D01*
X0075100Y0070296D01*
X0075100Y0070243D01*
X0079891Y0070243D01*
X0083557Y0070243D01*
X0084500Y0069300D01*
X0084500Y0055800D01*
X0084998Y0053470D02*
X0084228Y0052700D01*
X0083159Y0052700D01*
X0083159Y0045757D01*
X0082346Y0044943D01*
X0090526Y0044910D01*
X0091144Y0045528D01*
X0092283Y0046000D01*
X0093517Y0046000D01*
X0094182Y0045724D01*
X0094139Y0045799D01*
X0094037Y0046180D01*
X0094037Y0047165D01*
X0097505Y0047165D01*
X0097505Y0047165D01*
X0097506Y0047165D01*
X0097506Y0044878D01*
X0099671Y0044878D01*
X0100053Y0044980D01*
X0100395Y0045178D01*
X0100674Y0045457D01*
X0100872Y0045799D01*
X0100913Y0045952D01*
X0101132Y0045826D01*
X0101514Y0045724D01*
X0102400Y0045724D01*
X0103286Y0045724D01*
X0103668Y0045826D01*
X0104010Y0046023D01*
X0104289Y0046303D01*
X0104487Y0046645D01*
X0104589Y0047026D01*
X0104589Y0047716D01*
X0104589Y0048405D01*
X0104554Y0048536D01*
X0104588Y0048570D01*
X0104972Y0047644D01*
X0105844Y0046772D01*
X0106983Y0046300D01*
X0108217Y0046300D01*
X0108444Y0046394D01*
X0108444Y0045600D01*
X0106247Y0045600D01*
X0104900Y0044253D01*
X0104524Y0043877D01*
X0104190Y0044212D01*
X0099010Y0044212D01*
X0098131Y0043333D01*
X0098131Y0042846D01*
X0096194Y0042846D01*
X0096000Y0042653D01*
X0096000Y0043517D01*
X0095528Y0044656D01*
X0095294Y0044890D01*
X0095340Y0044878D01*
X0097505Y0044878D01*
X0097505Y0047165D01*
X0094037Y0047165D01*
X0094037Y0047724D01*
X0092247Y0047724D01*
X0090072Y0049900D01*
X0088900Y0051072D01*
X0088900Y0051200D01*
X0087006Y0051200D01*
X0086185Y0051195D01*
X0086179Y0051200D01*
X0086172Y0051200D01*
X0085590Y0051781D01*
X0085005Y0052359D01*
X0085005Y0052366D01*
X0085000Y0052372D01*
X0085000Y0053194D01*
X0084998Y0053470D01*
X0084000Y0052700D02*
X0084000Y0044937D01*
X0082402Y0045000D02*
X0090616Y0045000D01*
X0090400Y0044910D02*
X0090400Y0049572D01*
X0091772Y0048200D02*
X0083159Y0048200D01*
X0087200Y0051200D02*
X0087200Y0044923D01*
X0092900Y0042900D02*
X0068600Y0043000D01*
X0065900Y0043000D01*
X0064500Y0041600D01*
X0064500Y0033900D01*
X0065276Y0033124D01*
X0068991Y0033124D01*
X0068990Y0030565D02*
X0065522Y0030565D01*
X0065522Y0029580D01*
X0065624Y0029199D01*
X0065822Y0028857D01*
X0066079Y0028600D01*
X0061972Y0028600D01*
X0060972Y0027600D01*
X0059800Y0026428D01*
X0059800Y0023355D01*
X0059232Y0023355D01*
X0059181Y0023304D01*
X0054250Y0023304D01*
X0054250Y0023321D01*
X0053371Y0024200D01*
X0043429Y0024200D01*
X0042729Y0023500D01*
X0042228Y0023500D01*
X0042204Y0023524D01*
X0042204Y0024281D01*
X0042255Y0024332D01*
X0042255Y0027268D01*
X0041376Y0028146D01*
X0039916Y0028146D01*
X0040070Y0028300D01*
X0041300Y0029530D01*
X0041300Y0039200D01*
X0041737Y0039200D01*
X0041737Y0038484D01*
X0045205Y0038484D01*
X0045205Y0038483D01*
X0041737Y0038483D01*
X0041737Y0037499D01*
X0041772Y0037368D01*
X0041737Y0037333D01*
X0041737Y0031957D01*
X0042616Y0031078D01*
X0047795Y0031078D01*
X0048674Y0031957D01*
X0048674Y0033042D01*
X0048844Y0032872D01*
X0049983Y0032400D01*
X0051217Y0032400D01*
X0052356Y0032872D01*
X0053228Y0033744D01*
X0053700Y0034883D01*
X0053700Y0036117D01*
X0053228Y0037256D01*
X0052356Y0038128D01*
X0051217Y0038600D01*
X0049983Y0038600D01*
X0048844Y0038128D01*
X0048674Y0037958D01*
X0048674Y0038483D01*
X0045206Y0038483D01*
X0045206Y0038484D01*
X0048674Y0038484D01*
X0048674Y0039468D01*
X0048639Y0039599D01*
X0048674Y0039634D01*
X0048674Y0042451D01*
X0047795Y0043330D01*
X0045888Y0043330D01*
X0045818Y0043400D01*
X0039330Y0043400D01*
X0038100Y0042170D01*
X0037100Y0041170D01*
X0037100Y0035584D01*
X0036556Y0036128D01*
X0035417Y0036600D01*
X0034183Y0036600D01*
X0033044Y0036128D01*
X0032581Y0035665D01*
X0030859Y0035665D01*
X0030859Y0035924D01*
X0027391Y0035924D01*
X0027391Y0035924D01*
X0030859Y0035924D01*
X0030859Y0036909D01*
X0030824Y0037040D01*
X0030859Y0037075D01*
X0030859Y0042451D01*
X0029980Y0043330D01*
X0028356Y0043330D01*
X0028343Y0043343D01*
X0026438Y0043343D01*
X0026425Y0043330D01*
X0025987Y0043330D01*
X0025987Y0051442D01*
X0026867Y0051442D01*
X0027746Y0052320D01*
X0027746Y0055532D01*
X0027414Y0055863D01*
X0031109Y0055863D01*
X0033100Y0053872D01*
X0034272Y0052700D01*
X0035000Y0052700D01*
X0035000Y0048600D01*
X0034684Y0048600D01*
X0034056Y0049228D01*
X0032917Y0049700D01*
X0031683Y0049700D01*
X0030544Y0049228D01*
X0029672Y0048356D01*
X0029200Y0047217D01*
X0029200Y0045983D01*
X0029672Y0044844D01*
X0030544Y0043972D01*
X0031683Y0043500D01*
X0032917Y0043500D01*
X0034056Y0043972D01*
X0034684Y0044600D01*
X0037228Y0044600D01*
X0040028Y0047400D01*
X0042921Y0047400D01*
X0043800Y0048279D01*
X0043800Y0050100D01*
X0046172Y0050100D01*
X0051106Y0045165D01*
X0076813Y0045165D01*
X0077013Y0044965D01*
X0069432Y0044997D01*
X0069428Y0045000D01*
X0068605Y0045000D01*
X0067780Y0045003D01*
X0067776Y0045000D01*
X0065072Y0045000D01*
X0063900Y0043828D01*
X0063237Y0043165D01*
X0063237Y0043593D01*
X0062358Y0044472D01*
X0058360Y0044472D01*
X0057800Y0043912D01*
X0057540Y0044172D01*
X0057198Y0044369D01*
X0056816Y0044472D01*
X0055430Y0044472D01*
X0055430Y0041389D01*
X0055052Y0041389D01*
X0055052Y0044472D01*
X0053666Y0044472D01*
X0053284Y0044369D01*
X0052942Y0044172D01*
X0052663Y0043893D01*
X0052465Y0043551D01*
X0052363Y0043169D01*
X0052363Y0041389D01*
X0055052Y0041389D01*
X0055052Y0041011D01*
X0055430Y0041011D01*
X0055430Y0037928D01*
X0056469Y0037928D01*
X0055744Y0037628D01*
X0054872Y0036756D01*
X0054400Y0035617D01*
X0054400Y0034383D01*
X0054872Y0033244D01*
X0055744Y0032372D01*
X0056883Y0031900D01*
X0058117Y0031900D01*
X0059256Y0032372D01*
X0060128Y0033244D01*
X0060600Y0034383D01*
X0060600Y0034847D01*
X0061053Y0035300D01*
X0062400Y0036647D01*
X0062400Y0037970D01*
X0062500Y0038070D01*
X0062500Y0033072D01*
X0063672Y0031900D01*
X0064447Y0031124D01*
X0065522Y0031124D01*
X0065522Y0030565D01*
X0068990Y0030565D01*
X0068990Y0030565D01*
X0068000Y0030565D02*
X0068000Y0030565D01*
X0065739Y0029000D02*
X0040770Y0029000D01*
X0042400Y0031294D02*
X0042400Y0023500D01*
X0042255Y0025800D02*
X0059800Y0025800D01*
X0058400Y0023304D02*
X0058400Y0032017D01*
X0058841Y0032200D02*
X0063372Y0032200D01*
X0064800Y0031124D02*
X0064800Y0028600D01*
X0061600Y0028228D02*
X0061600Y0035847D01*
X0061153Y0035400D02*
X0062500Y0035400D01*
X0056159Y0032200D02*
X0048674Y0032200D01*
X0048800Y0032916D02*
X0048800Y0024200D01*
X0045600Y0024200D02*
X0045600Y0031078D01*
X0041737Y0032200D02*
X0041300Y0032200D01*
X0041300Y0035400D02*
X0041737Y0035400D01*
X0045206Y0035924D02*
X0050176Y0035924D01*
X0050600Y0035500D01*
X0053700Y0035400D02*
X0054400Y0035400D01*
X0055200Y0032916D02*
X0055200Y0023304D01*
X0052000Y0024200D02*
X0052000Y0032724D01*
X0055200Y0037084D02*
X0055200Y0041011D01*
X0055052Y0041011D02*
X0055052Y0037928D01*
X0053666Y0037928D01*
X0053284Y0038031D01*
X0052942Y0038228D01*
X0052663Y0038507D01*
X0052465Y0038849D01*
X0052363Y0039231D01*
X0052363Y0041011D01*
X0055052Y0041011D01*
X0055200Y0041389D02*
X0055200Y0045165D01*
X0058400Y0045165D02*
X0058400Y0044472D01*
X0061600Y0044472D02*
X0061600Y0045165D01*
X0064800Y0045165D02*
X0064800Y0044728D01*
X0067776Y0045000D02*
X0037628Y0045000D01*
X0036000Y0044600D02*
X0036000Y0036358D01*
X0032800Y0035884D02*
X0032800Y0043500D01*
X0029607Y0045000D02*
X0025987Y0045000D01*
X0029600Y0045018D02*
X0029600Y0043330D01*
X0030859Y0041800D02*
X0037730Y0041800D01*
X0039200Y0043270D02*
X0039200Y0046572D01*
X0042400Y0047400D02*
X0042400Y0043400D01*
X0045600Y0043400D02*
X0045600Y0050100D01*
X0043721Y0048200D02*
X0048072Y0048200D01*
X0048800Y0047472D02*
X0048800Y0038084D01*
X0048674Y0038600D02*
X0052609Y0038600D01*
X0052000Y0038275D02*
X0052000Y0045165D01*
X0052363Y0041800D02*
X0048674Y0041800D01*
X0045600Y0038484D02*
X0045600Y0038483D01*
X0042400Y0038483D02*
X0042400Y0038484D01*
X0041737Y0038600D02*
X0041300Y0038600D01*
X0037100Y0038600D02*
X0030859Y0038600D01*
X0029600Y0035924D02*
X0029600Y0035924D01*
X0027390Y0035924D02*
X0023922Y0035924D01*
X0023922Y0034940D01*
X0023957Y0034809D01*
X0023922Y0034774D01*
X0023922Y0031957D01*
X0024801Y0031078D01*
X0026425Y0031078D01*
X0026438Y0031065D01*
X0032851Y0031065D01*
X0033044Y0030872D01*
X0033721Y0030591D01*
X0033300Y0030170D01*
X0033300Y0030170D01*
X0032130Y0029000D01*
X0010130Y0029000D01*
X0007602Y0026472D01*
X0006942Y0026472D01*
X0006100Y0025630D01*
X0006100Y0039394D01*
X0015843Y0039394D01*
X0016722Y0040273D01*
X0016722Y0048602D01*
X0015843Y0049481D01*
X0006100Y0049481D01*
X0006100Y0074119D01*
X0015843Y0074119D01*
X0016722Y0074998D01*
X0013600Y0074119D02*
X0013600Y0049481D01*
X0010400Y0049481D02*
X0010400Y0074119D01*
X0007200Y0074119D02*
X0007200Y0049481D01*
X0006100Y0051400D02*
X0021387Y0051400D01*
X0021387Y0051442D02*
X0021387Y0040861D01*
X0022200Y0040047D01*
X0023547Y0038700D01*
X0023922Y0038700D01*
X0023922Y0037075D01*
X0023957Y0037040D01*
X0023922Y0036909D01*
X0023922Y0035924D01*
X0027390Y0035924D01*
X0027390Y0035924D01*
X0026400Y0035924D02*
X0026400Y0035924D01*
X0023922Y0035400D02*
X0006100Y0035400D01*
X0006100Y0032200D02*
X0023922Y0032200D01*
X0026400Y0031078D02*
X0026400Y0029000D01*
X0029600Y0029000D02*
X0029600Y0031065D01*
X0032800Y0031065D02*
X0032800Y0029670D01*
X0032130Y0029000D02*
X0006100Y0029000D01*
X0007200Y0026472D02*
X0007200Y0039394D01*
X0006100Y0038600D02*
X0023922Y0038600D01*
X0023200Y0039047D02*
X0023200Y0029000D01*
X0020000Y0029000D02*
X0020000Y0051948D01*
X0019628Y0052320D02*
X0020506Y0051442D01*
X0021387Y0051442D01*
X0019628Y0052320D02*
X0019628Y0055532D01*
X0025987Y0051400D02*
X0035000Y0051400D01*
X0032800Y0049700D02*
X0032800Y0054172D01*
X0032372Y0054600D02*
X0027746Y0054600D01*
X0029600Y0055863D02*
X0029600Y0048182D01*
X0029607Y0048200D02*
X0025987Y0048200D01*
X0021387Y0048200D02*
X0016722Y0048200D01*
X0016722Y0045000D02*
X0021387Y0045000D01*
X0026400Y0043330D02*
X0026400Y0051442D01*
X0032300Y0046600D02*
X0036400Y0046600D01*
X0039400Y0049600D01*
X0039300Y0054700D02*
X0039400Y0054800D01*
X0039400Y0057300D02*
X0039400Y0057300D01*
X0043800Y0057300D01*
X0043800Y0058197D01*
X0043719Y0058498D01*
X0043800Y0058579D01*
X0043800Y0061116D01*
X0044444Y0060472D01*
X0045583Y0060000D01*
X0046817Y0060000D01*
X0047956Y0060472D01*
X0048600Y0061116D01*
X0048600Y0053328D01*
X0047828Y0054100D01*
X0043800Y0054100D01*
X0043800Y0056121D01*
X0043741Y0056181D01*
X0043800Y0056403D01*
X0043800Y0057300D01*
X0039400Y0057300D01*
X0042400Y0057300D02*
X0042400Y0057300D01*
X0043800Y0057800D02*
X0048600Y0057800D01*
X0048600Y0054600D02*
X0043800Y0054600D01*
X0045600Y0054100D02*
X0045600Y0060000D01*
X0043916Y0061000D02*
X0043800Y0061000D01*
X0046200Y0063100D02*
X0044300Y0065000D01*
X0039400Y0065000D01*
X0039300Y0062500D02*
X0039400Y0062400D01*
X0039400Y0067600D02*
X0038400Y0068600D01*
X0038400Y0072500D01*
X0035583Y0073800D02*
X0033070Y0073800D01*
X0032800Y0074000D02*
X0032800Y0077700D01*
X0036000Y0079000D02*
X0036000Y0074484D01*
X0041826Y0074174D02*
X0041826Y0081000D01*
X0044976Y0081000D02*
X0044976Y0074424D01*
X0052000Y0067400D01*
X0061400Y0067400D01*
X0061600Y0067600D01*
X0061800Y0071800D02*
X0062304Y0072304D01*
X0075100Y0072304D01*
X0076704Y0072304D01*
X0077500Y0073100D01*
X0083600Y0073100D01*
X0087900Y0068800D01*
X0091800Y0068800D01*
X0091900Y0068700D01*
X0090800Y0068700D02*
X0090800Y0053200D01*
X0090900Y0051900D02*
X0090900Y0064100D01*
X0090700Y0064300D01*
X0091524Y0065124D01*
X0097706Y0065124D01*
X0102340Y0065124D01*
X0102400Y0065184D01*
X0102400Y0063124D02*
X0102400Y0061224D01*
X0103286Y0061224D01*
X0103668Y0061326D01*
X0104010Y0061523D01*
X0104101Y0061615D01*
X0104844Y0060872D01*
X0105983Y0060400D01*
X0107217Y0060400D01*
X0107900Y0060683D01*
X0107900Y0056800D01*
X0104689Y0056800D01*
X0104689Y0057474D01*
X0104587Y0057855D01*
X0104389Y0058197D01*
X0104110Y0058477D01*
X0103768Y0058674D01*
X0103386Y0058776D01*
X0102500Y0058776D01*
X0101614Y0058776D01*
X0101232Y0058674D01*
X0100890Y0058477D01*
X0100611Y0058197D01*
X0100413Y0057855D01*
X0100311Y0057474D01*
X0100311Y0056914D01*
X0100095Y0057130D01*
X0095575Y0057130D01*
X0095554Y0060278D01*
X0097705Y0060278D01*
X0097705Y0062565D01*
X0097706Y0062565D01*
X0097706Y0060278D01*
X0099871Y0060278D01*
X0100253Y0060380D01*
X0100595Y0060578D01*
X0100874Y0060857D01*
X0101072Y0061199D01*
X0101109Y0061339D01*
X0101132Y0061326D01*
X0101514Y0061224D01*
X0102400Y0061224D01*
X0102400Y0063124D01*
X0102400Y0063124D01*
X0103200Y0061224D02*
X0103200Y0058776D01*
X0102500Y0058776D02*
X0102500Y0056843D01*
X0102500Y0058776D01*
X0102500Y0057800D02*
X0102500Y0057800D01*
X0102500Y0056843D02*
X0102500Y0056843D01*
X0104602Y0057800D02*
X0107900Y0057800D01*
X0106400Y0056800D02*
X0106400Y0060400D01*
X0104716Y0061000D02*
X0100957Y0061000D01*
X0100000Y0060312D02*
X0100000Y0057130D01*
X0100398Y0057800D02*
X0095570Y0057800D01*
X0096800Y0057130D02*
X0096800Y0060278D01*
X0097705Y0061000D02*
X0097706Y0061000D01*
X0093555Y0060200D02*
X0086955Y0060200D01*
X0086922Y0065200D02*
X0093523Y0065200D01*
X0097706Y0067683D02*
X0105717Y0067683D01*
X0106600Y0066800D01*
X0106600Y0063500D01*
X0109900Y0063800D02*
X0109900Y0055800D01*
X0108900Y0054800D01*
X0111528Y0054600D02*
X0126459Y0054600D01*
X0124400Y0056779D02*
X0123521Y0055900D01*
X0113679Y0055900D01*
X0112800Y0056779D01*
X0112800Y0057800D02*
X0111900Y0057800D01*
X0116000Y0055900D02*
X0116000Y0047536D01*
X0116956Y0045000D02*
X0120763Y0045000D01*
X0122400Y0044489D02*
X0122400Y0044111D01*
X0123452Y0045000D02*
X0123830Y0045000D01*
X0122400Y0047572D02*
X0122400Y0055900D01*
X0124400Y0056779D02*
X0124400Y0060221D01*
X0123621Y0061000D01*
X0126247Y0061000D01*
X0126136Y0061111D02*
X0123760Y0061139D01*
X0123621Y0061000D01*
X0118600Y0063500D02*
X0110300Y0063400D01*
X0109900Y0063800D01*
X0109900Y0069300D01*
X0108884Y0070316D01*
X0102400Y0070316D01*
X0097779Y0070316D01*
X0097706Y0070243D01*
X0093500Y0068700D02*
X0088400Y0068700D01*
X0088200Y0068500D01*
X0088200Y0068600D01*
X0086900Y0068600D01*
X0087000Y0053200D01*
X0093600Y0053200D01*
X0093500Y0068700D01*
X0102400Y0072284D02*
X0105084Y0072284D01*
X0105100Y0072300D01*
X0109800Y0072300D01*
X0113500Y0068600D01*
X0117400Y0068600D01*
X0117200Y0068400D01*
X0118600Y0068500D01*
X0118650Y0068550D02*
X0124400Y0068550D01*
X0124400Y0069797D01*
X0124298Y0070179D01*
X0124100Y0070521D01*
X0123821Y0070800D01*
X0123568Y0070946D01*
X0124400Y0071779D01*
X0124400Y0075221D01*
X0123521Y0076100D01*
X0118030Y0076100D01*
X0118037Y0076107D01*
X0118235Y0076449D01*
X0118337Y0076831D01*
X0118337Y0078611D01*
X0115648Y0078611D01*
X0115648Y0078989D01*
X0115270Y0078989D01*
X0115270Y0082072D01*
X0113884Y0082072D01*
X0113502Y0081969D01*
X0113160Y0081772D01*
X0112900Y0081512D01*
X0112340Y0082072D01*
X0108342Y0082072D01*
X0107463Y0081193D01*
X0107463Y0081100D01*
X0104484Y0081100D01*
X0105328Y0081944D01*
X0105800Y0083083D01*
X0105800Y0084317D01*
X0105328Y0085456D01*
X0104456Y0086328D01*
X0103799Y0086600D01*
X0106944Y0086600D01*
X0107559Y0086600D01*
X0107400Y0086983D02*
X0107872Y0085844D01*
X0108500Y0085216D01*
X0108500Y0085172D01*
X0110000Y0083672D01*
X0111172Y0082500D01*
X0116728Y0082500D01*
X0118800Y0084572D01*
X0118800Y0086177D01*
X0118855Y0086232D01*
X0118855Y0089168D01*
X0118473Y0089550D01*
X0118655Y0089732D01*
X0118655Y0092611D01*
X0119274Y0092611D01*
X0119655Y0092713D01*
X0119997Y0092911D01*
X0120277Y0093190D01*
X0120474Y0093532D01*
X0120576Y0093914D01*
X0120576Y0094800D01*
X0120576Y0095300D01*
X0124188Y0095300D01*
X0124763Y0094725D01*
X0124763Y0092707D01*
X0125341Y0092129D01*
X0125341Y0065721D01*
X0123883Y0065738D01*
X0123568Y0066054D01*
X0123821Y0066200D01*
X0124100Y0066479D01*
X0124298Y0066821D01*
X0124400Y0067203D01*
X0124400Y0068450D01*
X0118650Y0068450D01*
X0118650Y0068550D01*
X0118550Y0068550D02*
X0118550Y0068450D01*
X0112800Y0068450D01*
X0112800Y0068550D01*
X0118550Y0068550D01*
X0119200Y0068550D02*
X0119200Y0068450D01*
X0122400Y0068450D02*
X0122400Y0068550D01*
X0124400Y0067400D02*
X0125341Y0067400D01*
X0125341Y0070600D02*
X0124021Y0070600D01*
X0124400Y0073800D02*
X0125341Y0073800D01*
X0125341Y0077000D02*
X0118337Y0077000D01*
X0119200Y0076100D02*
X0119200Y0092611D01*
X0120087Y0093000D02*
X0124763Y0093000D01*
X0125341Y0089800D02*
X0118655Y0089800D01*
X0116604Y0091200D02*
X0116604Y0094788D01*
X0116616Y0094800D01*
X0116600Y0094816D01*
X0116600Y0102300D01*
X0115800Y0103100D01*
X0108700Y0103100D01*
X0108700Y0100700D02*
X0108700Y0098100D01*
X0108716Y0098084D01*
X0108716Y0094900D01*
X0108716Y0091200D01*
X0106116Y0088600D01*
X0102800Y0088600D01*
X0100804Y0090596D01*
X0100804Y0091800D01*
X0098796Y0091800D02*
X0098496Y0092100D01*
X0094700Y0092100D01*
X0093896Y0092904D01*
X0093896Y0095200D01*
X0082016Y0095200D01*
X0081500Y0095716D01*
X0078000Y0095716D01*
X0075811Y0097030D02*
X0074917Y0097400D01*
X0073683Y0097400D01*
X0072544Y0096928D01*
X0071672Y0096056D01*
X0071200Y0094917D01*
X0071200Y0103774D01*
X0070600Y0103774D02*
X0076000Y0103774D01*
X0076000Y0098987D01*
X0075811Y0098798D01*
X0075811Y0097030D01*
X0074400Y0097400D02*
X0074400Y0103774D01*
X0076000Y0102600D02*
X0070600Y0102600D01*
X0070600Y0103774D02*
X0070600Y0100903D01*
X0070572Y0100875D01*
X0070600Y0100772D01*
X0070600Y0099525D01*
X0066650Y0099525D01*
X0066650Y0099425D01*
X0070600Y0099425D01*
X0070600Y0098177D01*
X0070572Y0098074D01*
X0070600Y0098047D01*
X0070600Y0094604D01*
X0070600Y0092326D01*
X0071689Y0092326D01*
X0071747Y0092384D01*
X0071832Y0092384D01*
X0071672Y0092544D01*
X0071200Y0093683D01*
X0071200Y0092326D01*
X0071483Y0093000D02*
X0070600Y0093000D01*
X0071200Y0093683D02*
X0071200Y0094917D01*
X0070600Y0096200D02*
X0071816Y0096200D01*
X0070600Y0099400D02*
X0076000Y0099400D01*
X0078000Y0097684D02*
X0078000Y0104800D01*
X0077026Y0105774D01*
X0066600Y0105774D01*
X0066724Y0108800D02*
X0066600Y0108924D01*
X0066724Y0108800D02*
X0075200Y0108800D01*
X0076916Y0110516D01*
X0078000Y0110516D01*
X0081900Y0110516D01*
X0082000Y0110616D01*
X0089216Y0110616D01*
X0089300Y0110700D01*
X0089300Y0113100D01*
X0082000Y0112584D02*
X0082000Y0117100D01*
X0085400Y0120500D01*
X0095596Y0120500D01*
X0095800Y0120704D01*
X0096696Y0121600D01*
X0099796Y0121600D01*
X0101804Y0121600D02*
X0113800Y0121600D01*
X0115900Y0119500D01*
X0115900Y0116516D01*
X0115916Y0116500D01*
X0115916Y0113000D01*
X0115816Y0113100D01*
X0108700Y0113100D01*
X0108700Y0110700D01*
X0108700Y0108100D02*
X0115616Y0108100D01*
X0115616Y0110316D01*
X0116000Y0110700D01*
X0122400Y0110700D01*
X0122904Y0111204D01*
X0122904Y0113000D01*
X0120896Y0113000D02*
X0117884Y0113000D01*
X0120896Y0113000D02*
X0120896Y0116400D01*
X0117984Y0116400D01*
X0117884Y0116500D01*
X0113900Y0117221D02*
X0113221Y0117900D01*
X0104179Y0117900D01*
X0103300Y0117021D01*
X0103300Y0108351D01*
X0102217Y0108800D01*
X0100983Y0108800D01*
X0099844Y0108328D01*
X0098972Y0107456D01*
X0098500Y0106317D01*
X0098500Y0105083D01*
X0098972Y0103944D01*
X0099844Y0103072D01*
X0100983Y0102600D01*
X0097904Y0102600D01*
X0097904Y0102824D02*
X0096800Y0103928D01*
X0096800Y0107072D01*
X0097000Y0107272D02*
X0097800Y0108072D01*
X0097800Y0116800D01*
X0098413Y0116800D01*
X0098602Y0116611D01*
X0100829Y0116611D01*
X0100864Y0116646D01*
X0100995Y0116611D01*
X0101684Y0116611D01*
X0101684Y0117466D01*
X0101684Y0117466D01*
X0101684Y0116611D01*
X0102374Y0116611D01*
X0102755Y0116713D01*
X0103097Y0116911D01*
X0103377Y0117190D01*
X0103574Y0117532D01*
X0103676Y0117914D01*
X0103676Y0118800D01*
X0103676Y0119600D01*
X0112972Y0119600D01*
X0113900Y0118672D01*
X0113900Y0117221D01*
X0112800Y0117900D02*
X0112800Y0119600D01*
X0113900Y0118600D02*
X0103676Y0118600D01*
X0103676Y0118800D02*
X0101716Y0118800D01*
X0103676Y0118800D01*
X0103200Y0118800D02*
X0103200Y0118800D01*
X0101716Y0118800D02*
X0101716Y0118800D01*
X0099716Y0118800D02*
X0095904Y0118800D01*
X0095800Y0118696D01*
X0095800Y0108900D01*
X0095000Y0108100D01*
X0089300Y0108100D01*
X0089300Y0105700D02*
X0089300Y0105700D01*
X0094700Y0105700D01*
X0094700Y0106100D01*
X0095828Y0106100D01*
X0097000Y0107272D01*
X0097800Y0109000D02*
X0103300Y0109000D01*
X0103200Y0108393D02*
X0103200Y0117013D01*
X0106400Y0117900D02*
X0106400Y0119600D01*
X0109600Y0119600D02*
X0109600Y0117900D01*
X0103300Y0115400D02*
X0097800Y0115400D01*
X0100000Y0116611D02*
X0100000Y0108393D01*
X0098500Y0105800D02*
X0094700Y0105800D01*
X0094700Y0105700D02*
X0089300Y0105700D01*
X0089300Y0105700D01*
X0083900Y0105700D01*
X0083900Y0106597D01*
X0083938Y0106740D01*
X0083900Y0106779D01*
X0083900Y0108616D01*
X0082828Y0108616D01*
X0082728Y0108516D01*
X0077744Y0108516D01*
X0077200Y0107972D01*
X0077002Y0107774D01*
X0077854Y0107774D01*
X0078828Y0106800D01*
X0080000Y0105628D01*
X0080000Y0099684D01*
X0080672Y0099684D01*
X0081087Y0100100D01*
X0083900Y0100100D01*
X0083900Y0104421D01*
X0083981Y0104502D01*
X0083900Y0104803D01*
X0083900Y0105700D01*
X0089300Y0105700D01*
X0090400Y0105700D02*
X0090400Y0105700D01*
X0087200Y0105700D02*
X0087200Y0105700D01*
X0084000Y0105700D02*
X0084000Y0105700D01*
X0083900Y0105800D02*
X0079828Y0105800D01*
X0080800Y0108516D02*
X0080800Y0099813D01*
X0081916Y0098100D02*
X0081500Y0097684D01*
X0078000Y0097684D01*
X0081916Y0098100D02*
X0089300Y0098100D01*
X0089300Y0100700D01*
X0089300Y0103100D02*
X0094800Y0103100D01*
X0095904Y0101996D01*
X0095904Y0095200D01*
X0098816Y0095200D01*
X0100816Y0095200D02*
X0102776Y0095200D01*
X0102776Y0096086D01*
X0102674Y0096468D01*
X0102477Y0096810D01*
X0102197Y0097089D01*
X0101855Y0097287D01*
X0101474Y0097389D01*
X0100784Y0097389D01*
X0100095Y0097389D01*
X0099964Y0097354D01*
X0099929Y0097389D01*
X0097904Y0097389D01*
X0097904Y0102824D01*
X0096800Y0103928D02*
X0095628Y0105100D01*
X0094700Y0105100D01*
X0094700Y0105700D01*
X0093600Y0105700D02*
X0093600Y0105700D01*
X0100000Y0103007D02*
X0100000Y0097364D01*
X0100784Y0097389D02*
X0100784Y0096534D01*
X0100784Y0096534D01*
X0100784Y0097389D01*
X0102746Y0096200D02*
X0103879Y0096200D01*
X0104179Y0095900D02*
X0103300Y0096779D01*
X0103300Y0103049D01*
X0102217Y0102600D01*
X0103300Y0102600D01*
X0103200Y0103007D02*
X0103200Y0091028D01*
X0102855Y0091373D02*
X0102855Y0093268D01*
X0102497Y0093626D01*
X0102674Y0093932D01*
X0102776Y0094314D01*
X0102776Y0095200D01*
X0100816Y0095200D01*
X0100816Y0095200D01*
X0104179Y0095900D02*
X0106716Y0095900D01*
X0106716Y0092028D01*
X0105287Y0090600D01*
X0103628Y0090600D01*
X0102855Y0091373D01*
X0102855Y0093000D02*
X0106716Y0093000D01*
X0106400Y0091713D02*
X0106400Y0095900D01*
X0110684Y0094900D02*
X0110684Y0091200D01*
X0114596Y0091200D01*
X0114596Y0087900D01*
X0114796Y0087700D01*
X0116800Y0087696D02*
X0116804Y0087700D01*
X0116800Y0087696D02*
X0116800Y0085400D01*
X0115900Y0084500D01*
X0112000Y0084500D01*
X0110500Y0086000D01*
X0110500Y0087600D01*
X0107400Y0087056D02*
X0107400Y0086983D01*
X0107400Y0087056D02*
X0106944Y0086600D01*
X0106400Y0086600D02*
X0106400Y0081100D01*
X0105800Y0083400D02*
X0110272Y0083400D01*
X0109600Y0084072D02*
X0109600Y0082072D01*
X0112800Y0082500D02*
X0112800Y0081612D01*
X0115270Y0080200D02*
X0115648Y0080200D01*
X0115648Y0078989D02*
X0115648Y0082072D01*
X0117034Y0082072D01*
X0117416Y0081969D01*
X0117758Y0081772D01*
X0118037Y0081493D01*
X0118235Y0081151D01*
X0118337Y0080769D01*
X0118337Y0078989D01*
X0115648Y0078989D01*
X0116000Y0078989D02*
X0116000Y0078611D01*
X0118337Y0080200D02*
X0125341Y0080200D01*
X0125341Y0083400D02*
X0117628Y0083400D01*
X0116000Y0082500D02*
X0116000Y0082072D01*
X0118855Y0086600D02*
X0125341Y0086600D01*
X0129941Y0086600D02*
X0133366Y0086600D01*
X0135200Y0085117D02*
X0135200Y0085100D01*
X0133442Y0083400D02*
X0129941Y0083400D01*
X0129941Y0080200D02*
X0133916Y0080200D01*
X0135200Y0079300D02*
X0135200Y0076100D01*
X0138400Y0076100D02*
X0138400Y0079916D01*
X0136300Y0082200D02*
X0151396Y0082200D01*
X0153404Y0082200D02*
X0153409Y0082194D01*
X0160900Y0082194D01*
X0165974Y0079242D02*
X0166337Y0079605D01*
X0166337Y0084784D01*
X0165974Y0085147D01*
X0166337Y0085510D01*
X0166337Y0090690D01*
X0165458Y0091568D01*
X0156342Y0091568D01*
X0155463Y0090690D01*
X0155463Y0090100D01*
X0154823Y0090100D01*
X0154476Y0090446D01*
X0150124Y0090446D01*
X0149777Y0090100D01*
X0138484Y0090100D01*
X0137856Y0090728D01*
X0136717Y0091200D01*
X0135483Y0091200D01*
X0134344Y0090728D01*
X0133776Y0090160D01*
X0133776Y0090700D01*
X0133776Y0091586D01*
X0133712Y0091828D01*
X0134334Y0091828D01*
X0134716Y0091931D01*
X0135058Y0092128D01*
X0135337Y0092407D01*
X0135535Y0092749D01*
X0135637Y0093131D01*
X0135637Y0094911D01*
X0132948Y0094911D01*
X0132948Y0095289D01*
X0132570Y0095289D01*
X0132570Y0098372D01*
X0131184Y0098372D01*
X0130802Y0098269D01*
X0130460Y0098072D01*
X0130200Y0097812D01*
X0129640Y0098372D01*
X0127622Y0098372D01*
X0127194Y0098800D01*
X0128017Y0098800D01*
X0129156Y0099272D01*
X0130028Y0100144D01*
X0130500Y0101283D01*
X0130500Y0102517D01*
X0130028Y0103656D01*
X0129156Y0104528D01*
X0128017Y0105000D01*
X0127128Y0105000D01*
X0127000Y0105128D01*
X0127000Y0106907D01*
X0133785Y0106907D01*
X0134664Y0107786D01*
X0134664Y0122414D01*
X0133785Y0123293D01*
X0126243Y0123293D01*
X0125365Y0122414D01*
X0125365Y0117964D01*
X0124928Y0118400D01*
X0124423Y0118400D01*
X0124076Y0118746D01*
X0119724Y0118746D01*
X0119377Y0118400D01*
X0119287Y0118400D01*
X0118998Y0118689D01*
X0117900Y0118689D01*
X0117900Y0120328D01*
X0116728Y0121500D01*
X0114628Y0123600D01*
X0103323Y0123600D01*
X0102976Y0123946D01*
X0098624Y0123946D01*
X0098277Y0123600D01*
X0095868Y0123600D01*
X0095023Y0122755D01*
X0094332Y0122755D01*
X0094077Y0122500D01*
X0084572Y0122500D01*
X0083400Y0121328D01*
X0080000Y0117928D01*
X0080000Y0114484D01*
X0077172Y0114484D01*
X0077164Y0114476D01*
X0076690Y0114476D01*
X0075811Y0113598D01*
X0075811Y0112239D01*
X0074372Y0110800D01*
X0070445Y0110800D01*
X0069721Y0111524D01*
X0063479Y0111524D01*
X0062600Y0110645D01*
X0062600Y0107700D01*
X0060300Y0107700D01*
X0060300Y0103700D01*
X0059300Y0103700D01*
X0059300Y0107700D01*
X0056603Y0107700D01*
X0056221Y0107598D01*
X0055879Y0107400D01*
X0055600Y0107121D01*
X0055402Y0106779D01*
X0055300Y0106397D01*
X0055300Y0103700D01*
X0059300Y0103700D01*
X0059300Y0102700D01*
X0055300Y0102700D01*
X0055300Y0100528D01*
X0054300Y0101528D01*
X0054300Y0105064D01*
X0051664Y0107700D01*
X0049228Y0107700D01*
X0050125Y0108597D01*
X0050125Y0110800D01*
X0062445Y0110800D01*
X0063324Y0111679D01*
X0063324Y0112800D01*
X0064016Y0112800D01*
X0064644Y0112172D01*
X0065783Y0111700D01*
X0067017Y0111700D01*
X0068156Y0112172D01*
X0069028Y0113044D01*
X0069500Y0114183D01*
X0069500Y0115417D01*
X0069028Y0116556D01*
X0068156Y0117428D01*
X0067017Y0117900D01*
X0065783Y0117900D01*
X0064644Y0117428D01*
X0064016Y0116800D01*
X0063324Y0116800D01*
X0063324Y0117921D01*
X0062445Y0118800D01*
X0058484Y0118800D01*
X0058928Y0119244D01*
X0059400Y0120383D01*
X0059400Y0121617D01*
X0058928Y0122756D01*
X0058056Y0123628D01*
X0056917Y0124100D01*
X0056028Y0124100D01*
X0054728Y0125400D01*
X0216300Y0125400D01*
X0216300Y0091568D01*
X0207523Y0091568D01*
X0206644Y0090690D01*
X0206644Y0085510D01*
X0207007Y0085147D01*
X0206644Y0084784D01*
X0206644Y0079605D01*
X0207007Y0079242D01*
X0206644Y0078879D01*
X0206644Y0073699D01*
X0207007Y0073336D01*
X0206644Y0072973D01*
X0206644Y0067794D01*
X0207007Y0067431D01*
X0206644Y0067068D01*
X0206644Y0061888D01*
X0207007Y0061525D01*
X0206644Y0061162D01*
X0206644Y0055983D01*
X0207007Y0055620D01*
X0206644Y0055257D01*
X0206644Y0050077D01*
X0207007Y0049714D01*
X0206644Y0049351D01*
X0206644Y0044172D01*
X0207007Y0043809D01*
X0206644Y0043446D01*
X0206644Y0038266D01*
X0207007Y0037903D01*
X0206644Y0037540D01*
X0206644Y0032361D01*
X0207007Y0031998D01*
X0206644Y0031635D01*
X0206644Y0026455D01*
X0207007Y0026092D01*
X0206644Y0025729D01*
X0206644Y0020550D01*
X0207007Y0020187D01*
X0206644Y0019824D01*
X0206644Y0015387D01*
X0204570Y0015387D01*
X0204207Y0015024D01*
X0203844Y0015387D01*
X0198664Y0015387D01*
X0198302Y0015024D01*
X0197939Y0015387D01*
X0192759Y0015387D01*
X0192396Y0015024D01*
X0192033Y0015387D01*
X0186853Y0015387D01*
X0186491Y0015024D01*
X0186128Y0015387D01*
X0180948Y0015387D01*
X0180585Y0015024D01*
X0180222Y0015387D01*
X0175042Y0015387D01*
X0174680Y0015024D01*
X0174317Y0015387D01*
X0169137Y0015387D01*
X0168774Y0015024D01*
X0168411Y0015387D01*
X0166337Y0015387D01*
X0166337Y0016750D01*
X0161384Y0016750D01*
X0161384Y0017718D01*
X0166337Y0017718D01*
X0166337Y0019400D01*
X0206644Y0019400D01*
X0206644Y0016200D02*
X0166337Y0016200D01*
X0167200Y0015387D02*
X0167200Y0090316D01*
X0167716Y0089800D02*
X0166337Y0089800D01*
X0164000Y0091568D02*
X0164000Y0093759D01*
X0164172Y0093344D02*
X0169800Y0087716D01*
X0169800Y0022483D01*
X0170272Y0021344D01*
X0171144Y0020472D01*
X0172283Y0020000D01*
X0173517Y0020000D01*
X0174656Y0020472D01*
X0175528Y0021344D01*
X0176000Y0022483D01*
X0176000Y0089617D01*
X0175528Y0090756D01*
X0169900Y0096384D01*
X0169900Y0098717D01*
X0169428Y0099856D01*
X0166428Y0102856D01*
X0165556Y0103728D01*
X0164417Y0104200D01*
X0150805Y0104200D01*
X0150805Y0119461D01*
X0149927Y0120340D01*
X0144747Y0120340D01*
X0143869Y0119461D01*
X0143869Y0096565D01*
X0144747Y0095687D01*
X0149927Y0095687D01*
X0150805Y0096565D01*
X0150805Y0098000D01*
X0162516Y0098000D01*
X0163700Y0096816D01*
X0163700Y0094483D01*
X0164172Y0093344D01*
X0164516Y0093000D02*
X0135602Y0093000D01*
X0135200Y0092270D02*
X0135200Y0091083D01*
X0133776Y0090700D02*
X0131816Y0090700D01*
X0131816Y0090700D01*
X0133776Y0090700D01*
X0132000Y0090700D02*
X0132000Y0090700D01*
X0129816Y0090700D02*
X0127741Y0090700D01*
X0127641Y0090800D01*
X0132000Y0088511D02*
X0132000Y0075821D01*
X0131400Y0073800D02*
X0129941Y0073800D01*
X0129941Y0077000D02*
X0155463Y0077000D01*
X0154400Y0076337D02*
X0154400Y0079854D01*
X0151200Y0079854D02*
X0151200Y0076337D01*
X0148000Y0075759D02*
X0148000Y0080200D01*
X0144800Y0080200D02*
X0144800Y0075764D01*
X0141600Y0076100D02*
X0141600Y0080200D01*
X0136100Y0088100D02*
X0151296Y0088100D01*
X0153304Y0088100D02*
X0160900Y0088100D01*
X0160800Y0091568D02*
X0160800Y0098000D01*
X0157600Y0098000D02*
X0157600Y0091568D01*
X0154400Y0090446D02*
X0154400Y0098000D01*
X0151200Y0098000D02*
X0151200Y0090446D01*
X0148000Y0090100D02*
X0148000Y0095687D01*
X0144800Y0095687D02*
X0144800Y0090100D01*
X0141600Y0090100D02*
X0141600Y0095687D01*
X0141629Y0095687D02*
X0142010Y0095789D01*
X0142353Y0095986D01*
X0142632Y0096266D01*
X0142829Y0096608D01*
X0142931Y0096989D01*
X0142931Y0107529D01*
X0139947Y0107529D01*
X0139947Y0095687D01*
X0141629Y0095687D01*
X0142566Y0096200D02*
X0144234Y0096200D01*
X0143869Y0099400D02*
X0142931Y0099400D01*
X0139947Y0099400D02*
X0138979Y0099400D01*
X0135994Y0099400D02*
X0129284Y0099400D01*
X0128800Y0099124D02*
X0128800Y0098372D01*
X0132000Y0098372D02*
X0132000Y0106907D01*
X0128800Y0106907D02*
X0128800Y0104675D01*
X0127000Y0105800D02*
X0135994Y0105800D01*
X0135994Y0107529D02*
X0135994Y0096989D01*
X0136097Y0096608D01*
X0136294Y0096266D01*
X0136573Y0095986D01*
X0136916Y0095789D01*
X0137297Y0095687D01*
X0138979Y0095687D01*
X0138979Y0107529D01*
X0139947Y0107529D01*
X0139947Y0108498D01*
X0138979Y0108498D01*
X0138979Y0120340D01*
X0137297Y0120340D01*
X0136916Y0120238D01*
X0136573Y0120040D01*
X0136294Y0119761D01*
X0136097Y0119419D01*
X0135994Y0119038D01*
X0135994Y0108498D01*
X0138979Y0108498D01*
X0138979Y0107529D01*
X0135994Y0107529D01*
X0135994Y0109000D02*
X0134664Y0109000D01*
X0138400Y0108498D02*
X0138400Y0107529D01*
X0138979Y0109000D02*
X0139947Y0109000D01*
X0139947Y0108498D02*
X0139947Y0120340D01*
X0141629Y0120340D01*
X0142010Y0120238D01*
X0142353Y0120040D01*
X0142632Y0119761D01*
X0142829Y0119419D01*
X0142931Y0119038D01*
X0142931Y0108498D01*
X0139947Y0108498D01*
X0141600Y0108498D02*
X0141600Y0107529D01*
X0142931Y0109000D02*
X0143869Y0109000D01*
X0143869Y0105800D02*
X0142931Y0105800D01*
X0139947Y0105800D02*
X0138979Y0105800D01*
X0138979Y0102600D02*
X0139947Y0102600D01*
X0142931Y0102600D02*
X0143869Y0102600D01*
X0151200Y0104200D02*
X0151200Y0125400D01*
X0154400Y0125400D02*
X0154400Y0123293D01*
X0153015Y0123293D02*
X0152136Y0122414D01*
X0152136Y0107786D01*
X0153015Y0106907D01*
X0160557Y0106907D01*
X0161435Y0107786D01*
X0161435Y0122414D01*
X0160557Y0123293D01*
X0153015Y0123293D01*
X0152136Y0121800D02*
X0134664Y0121800D01*
X0138400Y0120340D02*
X0138400Y0125400D01*
X0135200Y0125400D02*
X0135200Y0097930D01*
X0135337Y0097793D02*
X0135058Y0098072D01*
X0134716Y0098269D01*
X0134334Y0098372D01*
X0132948Y0098372D01*
X0132948Y0095289D01*
X0135637Y0095289D01*
X0135637Y0097069D01*
X0135535Y0097451D01*
X0135337Y0097793D01*
X0135637Y0096200D02*
X0136360Y0096200D01*
X0135200Y0095289D02*
X0135200Y0094911D01*
X0132948Y0096200D02*
X0132570Y0096200D01*
X0138400Y0095687D02*
X0138400Y0090184D01*
X0138979Y0096200D02*
X0139947Y0096200D01*
X0135994Y0102600D02*
X0130465Y0102600D01*
X0127400Y0101900D02*
X0125000Y0104300D01*
X0125000Y0115500D01*
X0124100Y0116400D01*
X0122904Y0116400D01*
X0122400Y0118746D02*
X0122400Y0125400D01*
X0119200Y0125400D02*
X0119200Y0118487D01*
X0119087Y0118600D02*
X0119577Y0118600D01*
X0116428Y0121800D02*
X0125365Y0121800D01*
X0125600Y0122650D02*
X0125600Y0125400D01*
X0128800Y0125400D02*
X0128800Y0123293D01*
X0132000Y0123293D02*
X0132000Y0125400D01*
X0134664Y0118600D02*
X0135994Y0118600D01*
X0138979Y0118600D02*
X0139947Y0118600D01*
X0141600Y0120340D02*
X0141600Y0125400D01*
X0144800Y0125400D02*
X0144800Y0120340D01*
X0143869Y0118600D02*
X0142931Y0118600D01*
X0148000Y0120340D02*
X0148000Y0125400D01*
X0150805Y0118600D02*
X0152136Y0118600D01*
X0152136Y0115400D02*
X0150805Y0115400D01*
X0150805Y0112200D02*
X0152136Y0112200D01*
X0152136Y0109000D02*
X0150805Y0109000D01*
X0154400Y0106907D02*
X0154400Y0104200D01*
X0150805Y0105800D02*
X0216300Y0105800D01*
X0216300Y0102600D02*
X0166684Y0102600D01*
X0166428Y0102856D02*
X0166428Y0102856D01*
X0167200Y0102084D02*
X0167200Y0125400D01*
X0164000Y0125400D02*
X0164000Y0104200D01*
X0160800Y0104200D02*
X0160800Y0107150D01*
X0161435Y0109000D02*
X0216300Y0109000D01*
X0216300Y0112200D02*
X0161435Y0112200D01*
X0161435Y0115400D02*
X0216300Y0115400D01*
X0216300Y0118600D02*
X0161435Y0118600D01*
X0161435Y0121800D02*
X0216300Y0121800D01*
X0216300Y0125000D02*
X0055128Y0125000D01*
X0055200Y0124928D02*
X0055200Y0125400D01*
X0053400Y0123900D02*
X0056300Y0121000D01*
X0052604Y0121000D01*
X0052504Y0121100D01*
X0050496Y0121100D02*
X0049000Y0121100D01*
X0048100Y0120200D01*
X0048100Y0114825D01*
X0048125Y0114800D01*
X0048125Y0109425D01*
X0047000Y0108300D01*
X0043200Y0108300D01*
X0039800Y0104900D01*
X0039800Y0103200D01*
X0039772Y0107700D02*
X0037936Y0107700D01*
X0036800Y0106564D01*
X0036800Y0110645D01*
X0035921Y0111524D01*
X0035108Y0111524D01*
X0035328Y0111744D01*
X0035800Y0112883D01*
X0035800Y0114117D01*
X0035328Y0115256D01*
X0034456Y0116128D01*
X0033317Y0116600D01*
X0032083Y0116600D01*
X0030944Y0116128D01*
X0030072Y0115256D01*
X0029600Y0114117D01*
X0029600Y0121900D01*
X0026400Y0121900D02*
X0026400Y0115800D01*
X0026817Y0115800D02*
X0025583Y0115800D01*
X0024444Y0115328D01*
X0024316Y0115200D01*
X0023530Y0115200D01*
X0023837Y0115507D01*
X0023837Y0120293D01*
X0023779Y0120351D01*
X0025328Y0121900D01*
X0036759Y0121900D01*
X0036600Y0121517D01*
X0036600Y0120283D01*
X0037072Y0119144D01*
X0037416Y0118800D01*
X0036955Y0118800D01*
X0036076Y0117921D01*
X0036076Y0111679D01*
X0036955Y0110800D01*
X0046125Y0110800D01*
X0046125Y0110300D01*
X0042372Y0110300D01*
X0039772Y0107700D01*
X0039200Y0107700D02*
X0039200Y0110800D01*
X0042400Y0110800D02*
X0042400Y0110300D01*
X0041072Y0109000D02*
X0036800Y0109000D01*
X0036000Y0111445D02*
X0036000Y0121900D01*
X0036717Y0121800D02*
X0025228Y0121800D01*
X0024500Y0123900D02*
X0053400Y0123900D01*
X0058400Y0123284D02*
X0058400Y0125400D01*
X0061600Y0125400D02*
X0061600Y0118800D01*
X0062645Y0118600D02*
X0080672Y0118600D01*
X0080800Y0118728D02*
X0080800Y0125400D01*
X0077600Y0125400D02*
X0077600Y0114484D01*
X0080000Y0115400D02*
X0069500Y0115400D01*
X0066400Y0114800D02*
X0060724Y0114800D01*
X0063324Y0112200D02*
X0064616Y0112200D01*
X0064800Y0112107D02*
X0064800Y0111524D01*
X0068000Y0111524D02*
X0068000Y0112107D01*
X0068184Y0112200D02*
X0075772Y0112200D01*
X0074400Y0110828D02*
X0074400Y0125400D01*
X0071200Y0125400D02*
X0071200Y0110800D01*
X0077600Y0108372D02*
X0077600Y0107774D01*
X0078000Y0112484D02*
X0081900Y0112484D01*
X0082000Y0112584D01*
X0097800Y0112200D02*
X0103300Y0112200D01*
X0117616Y0108100D02*
X0119576Y0108100D01*
X0119576Y0108700D01*
X0123000Y0108700D01*
X0123000Y0103472D01*
X0124300Y0102172D01*
X0124300Y0101283D01*
X0124772Y0100144D01*
X0125016Y0099900D01*
X0121700Y0099900D01*
X0121700Y0103453D01*
X0120353Y0104800D01*
X0118962Y0106190D01*
X0118997Y0106211D01*
X0119277Y0106490D01*
X0119474Y0106832D01*
X0119576Y0107214D01*
X0119576Y0108100D01*
X0117616Y0108100D01*
X0117616Y0108100D01*
X0119200Y0108100D02*
X0119200Y0108100D01*
X0122400Y0108700D02*
X0122400Y0099900D01*
X0121700Y0102600D02*
X0123872Y0102600D01*
X0123000Y0105800D02*
X0119353Y0105800D01*
X0119200Y0105953D02*
X0119200Y0106413D01*
X0134664Y0112200D02*
X0135994Y0112200D01*
X0138979Y0112200D02*
X0139947Y0112200D01*
X0142931Y0112200D02*
X0143869Y0112200D01*
X0143869Y0115400D02*
X0142931Y0115400D01*
X0139947Y0115400D02*
X0138979Y0115400D01*
X0135994Y0115400D02*
X0134664Y0115400D01*
X0125365Y0118600D02*
X0124223Y0118600D01*
X0116000Y0122228D02*
X0116000Y0125400D01*
X0112800Y0125400D02*
X0112800Y0123600D01*
X0109600Y0123600D02*
X0109600Y0125400D01*
X0106400Y0125400D02*
X0106400Y0123600D01*
X0103200Y0123723D02*
X0103200Y0125400D01*
X0100000Y0125400D02*
X0100000Y0123946D01*
X0096800Y0123600D02*
X0096800Y0125400D01*
X0093600Y0125400D02*
X0093600Y0122500D01*
X0090400Y0122500D02*
X0090400Y0125400D01*
X0087200Y0125400D02*
X0087200Y0122500D01*
X0084000Y0121928D02*
X0084000Y0125400D01*
X0083872Y0121800D02*
X0059324Y0121800D01*
X0064800Y0125400D02*
X0064800Y0117493D01*
X0068000Y0117493D02*
X0068000Y0125400D01*
X0045000Y0120900D02*
X0045000Y0114824D01*
X0044976Y0114800D01*
X0041826Y0114800D02*
X0041826Y0118774D01*
X0039700Y0120900D01*
X0036755Y0118600D02*
X0023837Y0118600D01*
X0020984Y0117875D02*
X0020959Y0117900D01*
X0020959Y0120359D01*
X0024500Y0123900D01*
X0023172Y0125400D02*
X0022500Y0124728D01*
X0018959Y0121187D01*
X0018959Y0121171D01*
X0018400Y0120612D01*
X0018140Y0120872D01*
X0017798Y0121069D01*
X0017416Y0121172D01*
X0016030Y0121172D01*
X0016030Y0118089D01*
X0015652Y0118089D01*
X0015652Y0121172D01*
X0014266Y0121172D01*
X0013884Y0121069D01*
X0013542Y0120872D01*
X0013263Y0120593D01*
X0013065Y0120251D01*
X0012963Y0119869D01*
X0012963Y0118089D01*
X0015652Y0118089D01*
X0015652Y0117711D01*
X0016030Y0117711D01*
X0016030Y0114628D01*
X0017218Y0114628D01*
X0017126Y0114468D01*
X0017024Y0114086D01*
X0017024Y0113200D01*
X0017024Y0112314D01*
X0017126Y0111932D01*
X0017270Y0111682D01*
X0016800Y0111212D01*
X0016800Y0114628D01*
X0016030Y0115400D02*
X0015652Y0115400D01*
X0015652Y0114628D02*
X0015652Y0117711D01*
X0012963Y0117711D01*
X0012963Y0115931D01*
X0013065Y0115549D01*
X0013263Y0115207D01*
X0013542Y0114928D01*
X0013884Y0114731D01*
X0014266Y0114628D01*
X0015652Y0114628D01*
X0017024Y0113200D02*
X0018984Y0113200D01*
X0017024Y0113200D01*
X0017054Y0112200D02*
X0006100Y0112200D01*
X0006100Y0115400D02*
X0013151Y0115400D01*
X0013600Y0114895D02*
X0013600Y0111772D01*
X0014052Y0111772D02*
X0012666Y0111772D01*
X0012284Y0111669D01*
X0011942Y0111472D01*
X0011663Y0111193D01*
X0011465Y0110851D01*
X0011363Y0110469D01*
X0011363Y0108689D01*
X0014052Y0108689D01*
X0014052Y0111772D01*
X0014430Y0111772D02*
X0014430Y0108689D01*
X0014052Y0108689D01*
X0014052Y0108311D01*
X0011363Y0108311D01*
X0011363Y0106531D01*
X0011465Y0106149D01*
X0011602Y0105912D01*
X0011169Y0105912D01*
X0011169Y0102550D01*
X0010169Y0102550D01*
X0010169Y0105912D01*
X0007716Y0105912D01*
X0007334Y0105810D01*
X0006992Y0105612D01*
X0006713Y0105333D01*
X0006516Y0104991D01*
X0006413Y0104609D01*
X0006413Y0102550D01*
X0010169Y0102550D01*
X0010169Y0101550D01*
X0006413Y0101550D01*
X0006413Y0099490D01*
X0006516Y0099108D01*
X0006615Y0098936D01*
X0006413Y0098734D01*
X0006413Y0092767D01*
X0007292Y0091888D01*
X0008258Y0091888D01*
X0007763Y0091393D01*
X0007763Y0086607D01*
X0008642Y0085728D01*
X0009643Y0085728D01*
X0011166Y0084205D01*
X0006100Y0084205D01*
X0006100Y0125400D01*
X0023172Y0125400D01*
X0022772Y0125000D02*
X0006100Y0125000D01*
X0007200Y0125400D02*
X0007200Y0105732D01*
X0007318Y0105800D02*
X0006100Y0105800D01*
X0006100Y0102600D02*
X0006413Y0102600D01*
X0007200Y0102550D02*
X0007200Y0101550D01*
X0010169Y0102600D02*
X0011169Y0102600D01*
X0011169Y0102550D02*
X0014925Y0102550D01*
X0014925Y0104609D01*
X0014823Y0104991D01*
X0014686Y0105228D01*
X0015270Y0105228D01*
X0015075Y0105033D01*
X0015075Y0099066D01*
X0015277Y0098864D01*
X0015177Y0098692D01*
X0015075Y0098310D01*
X0015075Y0096250D01*
X0018831Y0096250D01*
X0018831Y0095250D01*
X0019831Y0095250D01*
X0019831Y0091888D01*
X0022000Y0091888D01*
X0022000Y0090472D01*
X0023300Y0089172D01*
X0023300Y0089172D01*
X0024472Y0088000D01*
X0028800Y0088000D01*
X0028800Y0087000D01*
X0018629Y0087000D01*
X0018637Y0087031D01*
X0018637Y0088811D01*
X0015948Y0088811D01*
X0015948Y0089189D01*
X0018637Y0089189D01*
X0018637Y0090969D01*
X0018535Y0091351D01*
X0018337Y0091693D01*
X0018142Y0091888D01*
X0018831Y0091888D01*
X0018831Y0095250D01*
X0015075Y0095250D01*
X0015075Y0093191D01*
X0015177Y0092809D01*
X0015375Y0092467D01*
X0015570Y0092272D01*
X0014430Y0092272D01*
X0014925Y0092767D01*
X0014925Y0098734D01*
X0014723Y0098936D01*
X0014823Y0099108D01*
X0014925Y0099490D01*
X0014925Y0101550D01*
X0011169Y0101550D01*
X0011169Y0102550D01*
X0010400Y0102550D02*
X0010400Y0125400D01*
X0013600Y0125400D02*
X0013600Y0120905D01*
X0012963Y0118600D02*
X0006100Y0118600D01*
X0006100Y0121800D02*
X0019572Y0121800D01*
X0020000Y0122228D02*
X0020000Y0125400D01*
X0016800Y0125400D02*
X0016800Y0121172D01*
X0016030Y0118600D02*
X0015652Y0118600D01*
X0013600Y0118089D02*
X0013600Y0117711D01*
X0018984Y0113200D02*
X0018984Y0113200D01*
X0020984Y0113200D02*
X0025700Y0113200D01*
X0026200Y0112700D01*
X0026200Y0094400D01*
X0027500Y0093100D01*
X0032724Y0093100D01*
X0032800Y0093176D01*
X0033013Y0092963D01*
X0033250Y0093200D01*
X0039800Y0093200D01*
X0037900Y0095100D01*
X0037900Y0097700D01*
X0036125Y0099475D01*
X0032800Y0099475D01*
X0035314Y0099475D01*
X0032750Y0096375D02*
X0032750Y0096275D01*
X0028800Y0096275D01*
X0028800Y0095100D01*
X0028328Y0095100D01*
X0028200Y0095228D01*
X0028200Y0110316D01*
X0028828Y0110944D01*
X0029300Y0112083D01*
X0029300Y0113317D01*
X0028828Y0114456D01*
X0027956Y0115328D01*
X0026817Y0115800D01*
X0027782Y0115400D02*
X0030216Y0115400D01*
X0029600Y0114117D02*
X0029600Y0112883D01*
X0029600Y0111445D01*
X0029679Y0111524D02*
X0028800Y0110645D01*
X0028800Y0104053D01*
X0028828Y0104025D01*
X0028800Y0103922D01*
X0028800Y0102674D01*
X0032750Y0102674D01*
X0032750Y0102574D01*
X0028800Y0102574D01*
X0028800Y0101327D01*
X0028828Y0101224D01*
X0028800Y0101196D01*
X0028800Y0097753D01*
X0028828Y0097726D01*
X0028800Y0097623D01*
X0028800Y0096375D01*
X0032750Y0096375D01*
X0029600Y0096375D02*
X0029600Y0096275D01*
X0028800Y0096200D02*
X0028200Y0096200D01*
X0028200Y0099400D02*
X0028800Y0099400D01*
X0024000Y0101300D02*
X0024000Y0091300D01*
X0025300Y0090000D01*
X0032774Y0090000D01*
X0032800Y0090026D01*
X0032800Y0086876D02*
X0030924Y0085000D01*
X0013200Y0085000D01*
X0010641Y0087559D01*
X0010641Y0089000D01*
X0010669Y0089028D01*
X0010669Y0095750D01*
X0006413Y0096200D02*
X0006100Y0096200D01*
X0006100Y0099400D02*
X0006437Y0099400D01*
X0013600Y0101550D02*
X0013600Y0102550D01*
X0014925Y0102600D02*
X0015075Y0102600D01*
X0019331Y0102050D02*
X0019359Y0102078D01*
X0019359Y0108500D01*
X0016800Y0111212D02*
X0016540Y0111472D01*
X0016198Y0111669D01*
X0015816Y0111772D01*
X0014430Y0111772D01*
X0014430Y0109000D02*
X0014052Y0109000D01*
X0013600Y0108689D02*
X0013600Y0108311D01*
X0011363Y0109000D02*
X0006100Y0109000D01*
X0010169Y0105800D02*
X0011169Y0105800D01*
X0019331Y0102050D02*
X0023250Y0102050D01*
X0024000Y0101300D01*
X0028200Y0102600D02*
X0032750Y0102600D01*
X0029600Y0102574D02*
X0029600Y0102674D01*
X0028800Y0105800D02*
X0028200Y0105800D01*
X0028200Y0109000D02*
X0028800Y0109000D01*
X0029679Y0111524D02*
X0030292Y0111524D01*
X0030072Y0111744D01*
X0029600Y0112883D01*
X0029883Y0112200D02*
X0029300Y0112200D01*
X0024618Y0115400D02*
X0023730Y0115400D01*
X0020984Y0113200D02*
X0020984Y0117875D01*
X0032800Y0116600D02*
X0032800Y0121900D01*
X0035184Y0115400D02*
X0036076Y0115400D01*
X0036076Y0112200D02*
X0035517Y0112200D01*
X0045600Y0110800D02*
X0045600Y0110300D01*
X0050125Y0109000D02*
X0062600Y0109000D01*
X0061600Y0107700D02*
X0061600Y0110800D01*
X0058400Y0110800D02*
X0058400Y0107700D01*
X0059300Y0105800D02*
X0060300Y0105800D01*
X0059800Y0103200D02*
X0059800Y0101100D01*
X0061600Y0099300D01*
X0066425Y0099300D01*
X0066600Y0099475D01*
X0068000Y0099425D02*
X0068000Y0099525D01*
X0062600Y0098700D02*
X0062600Y0098177D01*
X0062628Y0098074D01*
X0062600Y0098047D01*
X0062600Y0096764D01*
X0061664Y0097700D01*
X0057936Y0097700D01*
X0057000Y0096764D01*
X0057000Y0098700D01*
X0059300Y0098700D01*
X0059300Y0102700D01*
X0060300Y0102700D01*
X0060300Y0098700D01*
X0062600Y0098700D01*
X0061600Y0098700D02*
X0061600Y0097700D01*
X0060300Y0099400D02*
X0059300Y0099400D01*
X0058400Y0098700D02*
X0058400Y0097700D01*
X0055000Y0098000D02*
X0049800Y0103200D01*
X0054300Y0102600D02*
X0055300Y0102600D01*
X0058400Y0102700D02*
X0058400Y0103700D01*
X0059300Y0102600D02*
X0060300Y0102600D01*
X0055200Y0100628D02*
X0055200Y0110800D01*
X0052000Y0110800D02*
X0052000Y0107364D01*
X0053564Y0105800D02*
X0055300Y0105800D01*
X0055000Y0098000D02*
X0055000Y0089100D01*
X0055800Y0088300D01*
X0057500Y0088300D01*
X0060724Y0085076D01*
X0060724Y0081000D01*
X0060700Y0081024D01*
X0063324Y0080200D02*
X0068504Y0080200D01*
X0068504Y0079446D02*
X0068504Y0081244D01*
X0068511Y0081251D01*
X0068511Y0081529D01*
X0068546Y0081564D01*
X0068511Y0081695D01*
X0068511Y0082384D01*
X0069366Y0082384D01*
X0069366Y0082384D01*
X0068511Y0082384D01*
X0068511Y0083074D01*
X0068613Y0083455D01*
X0068811Y0083797D01*
X0069090Y0084077D01*
X0069432Y0084274D01*
X0069440Y0084276D01*
X0063479Y0084276D01*
X0062879Y0084876D01*
X0062724Y0084876D01*
X0062724Y0084721D01*
X0063324Y0084121D01*
X0063324Y0079100D01*
X0066977Y0079100D01*
X0067324Y0079446D01*
X0068504Y0079446D01*
X0068000Y0079446D02*
X0068000Y0084276D01*
X0068598Y0083400D02*
X0063324Y0083400D01*
X0064800Y0084276D02*
X0064800Y0079100D01*
X0066800Y0081500D02*
X0067684Y0082384D01*
X0070700Y0082384D01*
X0070700Y0082416D02*
X0070700Y0084376D01*
X0069821Y0084376D01*
X0070600Y0085155D01*
X0070600Y0087094D01*
X0070613Y0087045D01*
X0070811Y0086703D01*
X0071090Y0086423D01*
X0071432Y0086226D01*
X0071814Y0086124D01*
X0072700Y0086124D01*
X0073586Y0086124D01*
X0073968Y0086226D01*
X0074310Y0086423D01*
X0074589Y0086703D01*
X0074600Y0086721D01*
X0074611Y0086703D01*
X0074890Y0086423D01*
X0075232Y0086226D01*
X0075614Y0086124D01*
X0076500Y0086124D01*
X0077386Y0086124D01*
X0077768Y0086226D01*
X0077928Y0086318D01*
X0077928Y0085330D01*
X0081011Y0085330D01*
X0081011Y0084952D01*
X0077928Y0084952D01*
X0077928Y0084506D01*
X0077744Y0084555D01*
X0076700Y0084555D01*
X0076700Y0082547D01*
X0076700Y0084555D01*
X0075656Y0084555D01*
X0075275Y0084453D01*
X0075053Y0084325D01*
X0074968Y0084374D01*
X0074586Y0084476D01*
X0073700Y0084476D01*
X0072814Y0084476D01*
X0072432Y0084374D01*
X0072113Y0084190D01*
X0071968Y0084274D01*
X0071586Y0084376D01*
X0070700Y0084376D01*
X0070700Y0082416D01*
X0070700Y0082416D01*
X0070700Y0083400D02*
X0070700Y0083400D01*
X0071200Y0084376D02*
X0071200Y0086360D01*
X0070913Y0086600D02*
X0070600Y0086600D01*
X0072700Y0086600D02*
X0072700Y0086600D01*
X0072700Y0086124D02*
X0072700Y0087726D01*
X0072700Y0087726D01*
X0072700Y0086124D01*
X0074400Y0086513D02*
X0074400Y0084476D01*
X0073700Y0084476D02*
X0073700Y0082516D01*
X0073700Y0084476D01*
X0073700Y0083400D02*
X0073700Y0083400D01*
X0073700Y0082516D02*
X0073700Y0082516D01*
X0073700Y0080516D02*
X0073700Y0080496D01*
X0076700Y0080496D01*
X0081804Y0080496D01*
X0083100Y0079200D01*
X0087122Y0079200D01*
X0087182Y0079260D01*
X0092300Y0079800D02*
X0092900Y0079200D01*
X0097358Y0079200D01*
X0097418Y0079260D01*
X0092300Y0079800D02*
X0092300Y0083000D01*
X0092300Y0086200D01*
X0091760Y0086740D01*
X0087182Y0086740D01*
X0087182Y0083000D02*
X0083341Y0083000D01*
X0081200Y0085141D01*
X0080800Y0084952D02*
X0080800Y0085330D01*
X0077600Y0084555D02*
X0077600Y0086181D01*
X0076500Y0086124D02*
X0076500Y0087784D01*
X0076500Y0087784D01*
X0076500Y0086124D01*
X0076500Y0086600D02*
X0076500Y0086600D01*
X0074713Y0086600D02*
X0074487Y0086600D01*
X0076700Y0083400D02*
X0076700Y0083400D01*
X0076700Y0082547D02*
X0076700Y0082547D01*
X0076700Y0080496D02*
X0076604Y0080496D01*
X0076604Y0077100D01*
X0074596Y0077100D02*
X0070504Y0077100D01*
X0070504Y0080416D01*
X0070700Y0080416D01*
X0068496Y0077100D02*
X0055800Y0077100D01*
X0054424Y0078476D01*
X0054424Y0081000D01*
X0051275Y0081000D02*
X0051275Y0076825D01*
X0051800Y0076300D01*
X0054000Y0076300D01*
X0055400Y0074900D01*
X0086800Y0074900D01*
X0087100Y0075200D01*
X0079891Y0067683D02*
X0079611Y0067404D01*
X0075200Y0067404D01*
X0070900Y0067200D02*
X0068500Y0064800D01*
X0068500Y0061084D01*
X0068500Y0059084D02*
X0068500Y0057124D01*
X0068500Y0059084D01*
X0068500Y0059084D01*
X0068500Y0057800D02*
X0068500Y0057800D01*
X0068000Y0057124D02*
X0068000Y0054100D01*
X0066000Y0054600D02*
X0070800Y0054600D01*
X0070800Y0057800D02*
X0070445Y0057800D01*
X0070689Y0059116D02*
X0069834Y0059116D01*
X0069834Y0059116D01*
X0070689Y0059116D01*
X0066554Y0057800D02*
X0066000Y0057800D01*
X0061600Y0054800D02*
X0055900Y0054800D01*
X0055700Y0054600D01*
X0048600Y0061000D02*
X0048484Y0061000D01*
X0052400Y0072600D02*
X0048125Y0076875D01*
X0048125Y0081000D01*
X0050700Y0086000D02*
X0049700Y0087000D01*
X0049700Y0093100D01*
X0049800Y0093200D01*
X0050700Y0086000D02*
X0056400Y0086000D01*
X0057574Y0084826D01*
X0057574Y0081000D01*
X0061924Y0086876D02*
X0059800Y0089000D01*
X0059800Y0093200D01*
X0061924Y0086876D02*
X0066600Y0086876D01*
X0072642Y0090026D02*
X0072700Y0090084D01*
X0076500Y0090084D02*
X0076675Y0090259D01*
X0097418Y0086740D02*
X0097500Y0086822D01*
X0106000Y0076500D02*
X0107463Y0076500D01*
X0107463Y0076407D01*
X0108000Y0075870D01*
X0108000Y0074847D01*
X0109347Y0073500D01*
X0109347Y0073500D01*
X0110416Y0072431D01*
X0110416Y0072408D01*
X0111087Y0071760D01*
X0111747Y0071100D01*
X0111770Y0071100D01*
X0111786Y0071084D01*
X0112719Y0071100D01*
X0113479Y0071100D01*
X0113632Y0070946D01*
X0113379Y0070800D01*
X0113100Y0070521D01*
X0112902Y0070179D01*
X0112800Y0069797D01*
X0112800Y0071100D01*
X0113179Y0070600D02*
X0111428Y0070600D01*
X0111900Y0070128D02*
X0110728Y0071300D01*
X0109713Y0072316D01*
X0104589Y0072316D01*
X0104589Y0072974D01*
X0104487Y0073355D01*
X0104289Y0073697D01*
X0104010Y0073977D01*
X0103959Y0074006D01*
X0104300Y0074347D01*
X0106000Y0076047D01*
X0106000Y0076500D01*
X0106400Y0076500D02*
X0106400Y0072316D01*
X0104187Y0073800D02*
X0109047Y0073800D01*
X0109600Y0073247D02*
X0109600Y0072316D01*
X0111900Y0070128D02*
X0111900Y0065419D01*
X0113011Y0065433D01*
X0113632Y0066054D01*
X0113379Y0066200D01*
X0113100Y0066479D01*
X0112902Y0066821D01*
X0112800Y0067203D01*
X0112800Y0065430D01*
X0112800Y0067203D02*
X0112800Y0068450D01*
X0112800Y0068550D02*
X0112800Y0069797D01*
X0116000Y0068550D02*
X0116000Y0068450D01*
X0112800Y0067400D02*
X0111900Y0067400D01*
X0122400Y0076100D02*
X0122400Y0095300D01*
X0120576Y0094800D02*
X0118616Y0094800D01*
X0118616Y0094800D01*
X0120576Y0094800D01*
X0119200Y0094800D02*
X0119200Y0094800D01*
X0103300Y0099400D02*
X0097904Y0099400D01*
X0100983Y0102600D02*
X0102217Y0102600D01*
X0083900Y0102600D02*
X0080000Y0102600D01*
X0038676Y0081000D02*
X0033600Y0081000D01*
X0033400Y0080800D01*
X0030300Y0080200D02*
X0016722Y0080200D01*
X0016800Y0083000D02*
X0016800Y0029000D01*
X0013600Y0029000D02*
X0013600Y0039394D01*
X0010400Y0039394D02*
X0010400Y0029000D01*
X0006270Y0025800D02*
X0006100Y0025800D01*
X0014059Y0023200D02*
X0017300Y0023200D01*
X0017900Y0022600D01*
X0017900Y0016871D01*
X0017931Y0016840D01*
X0009269Y0013100D02*
X0008941Y0013428D01*
X0027700Y0013000D02*
X0027900Y0013000D01*
X0027700Y0014200D02*
X0027700Y0011600D01*
X0027900Y0011600D01*
X0033650Y0011600D01*
X0033650Y0012897D01*
X0033548Y0013279D01*
X0033350Y0013621D01*
X0033071Y0013900D01*
X0032898Y0014000D01*
X0033071Y0014100D01*
X0033350Y0014379D01*
X0033548Y0014721D01*
X0033650Y0015103D01*
X0033650Y0016400D01*
X0027900Y0016400D01*
X0027900Y0016600D01*
X0033650Y0016600D01*
X0033650Y0017897D01*
X0033548Y0018279D01*
X0033350Y0018621D01*
X0033071Y0018900D01*
X0032945Y0018973D01*
X0033471Y0019500D01*
X0037528Y0019500D01*
X0038928Y0020900D01*
X0038928Y0020900D01*
X0039050Y0021022D01*
X0039400Y0020672D01*
X0040263Y0019809D01*
X0039344Y0019428D01*
X0038472Y0018556D01*
X0038000Y0017417D01*
X0038000Y0016183D01*
X0038472Y0015044D01*
X0039000Y0014516D01*
X0039000Y0012230D01*
X0040700Y0010530D01*
X0041930Y0009300D01*
X0042929Y0009300D01*
X0043229Y0009000D01*
X0042550Y0008321D01*
X0042550Y0005500D01*
X0033650Y0005500D01*
X0033650Y0008321D01*
X0032945Y0009027D01*
X0033071Y0009100D01*
X0033350Y0009379D01*
X0033548Y0009721D01*
X0033650Y0010103D01*
X0033650Y0011400D01*
X0027900Y0011400D01*
X0027900Y0011600D01*
X0027900Y0016400D01*
X0027700Y0016400D01*
X0027700Y0014200D01*
X0027700Y0016200D02*
X0027900Y0016200D01*
X0029600Y0016400D02*
X0029600Y0016600D01*
X0032800Y0016600D02*
X0032800Y0016400D01*
X0033650Y0016200D02*
X0038000Y0016200D01*
X0039200Y0019284D02*
X0039200Y0020872D01*
X0039316Y0019400D02*
X0033371Y0019400D01*
X0036000Y0019500D02*
X0036000Y0005500D01*
X0033650Y0006600D02*
X0042550Y0006600D01*
X0042400Y0005500D02*
X0042400Y0009300D01*
X0041430Y0009800D02*
X0033569Y0009800D01*
X0032800Y0011400D02*
X0032800Y0011600D01*
X0033623Y0013000D02*
X0039000Y0013000D01*
X0039200Y0012030D02*
X0039200Y0005500D01*
X0048400Y0006500D02*
X0048500Y0006600D01*
X0058100Y0006600D01*
X0055716Y0008600D02*
X0053971Y0008600D01*
X0053571Y0009000D01*
X0054250Y0009679D01*
X0054250Y0013321D01*
X0053545Y0014027D01*
X0053671Y0014100D01*
X0053950Y0014379D01*
X0054148Y0014721D01*
X0054250Y0015103D01*
X0054250Y0016400D01*
X0048500Y0016400D01*
X0048500Y0016600D01*
X0054250Y0016600D01*
X0054250Y0017897D01*
X0054148Y0018279D01*
X0053950Y0018621D01*
X0053671Y0018900D01*
X0053545Y0018973D01*
X0053875Y0019304D01*
X0058354Y0019304D01*
X0058354Y0018124D01*
X0058700Y0017777D01*
X0058700Y0014923D01*
X0058354Y0014576D01*
X0058354Y0010224D01*
X0058600Y0009977D01*
X0058600Y0009700D01*
X0057483Y0009700D01*
X0056344Y0009228D01*
X0055716Y0008600D01*
X0055200Y0008600D02*
X0055200Y0019304D01*
X0058400Y0018077D02*
X0058400Y0014623D01*
X0058700Y0016200D02*
X0054250Y0016200D01*
X0052000Y0016400D02*
X0052000Y0016600D01*
X0048800Y0016600D02*
X0048800Y0016400D01*
X0054250Y0013000D02*
X0058354Y0013000D01*
X0060700Y0013404D02*
X0065125Y0013404D01*
X0066369Y0012160D01*
X0065225Y0013304D01*
X0066225Y0013304D02*
X0066369Y0012160D01*
X0064800Y0015628D02*
X0064800Y0016172D01*
X0062992Y0016172D02*
X0069747Y0016172D01*
X0070625Y0017050D01*
X0070625Y0022230D01*
X0070255Y0022600D01*
X0071849Y0022600D01*
X0071400Y0021517D01*
X0071400Y0020283D01*
X0071779Y0019368D01*
X0071653Y0019368D01*
X0070775Y0018490D01*
X0070775Y0013310D01*
X0071653Y0012431D01*
X0078408Y0012431D01*
X0079287Y0013310D01*
X0079287Y0013541D01*
X0084029Y0013541D01*
X0084642Y0012928D01*
X0088640Y0012928D01*
X0089159Y0013447D01*
X0089159Y0012171D01*
X0088900Y0011912D01*
X0088640Y0012172D01*
X0088298Y0012369D01*
X0087916Y0012472D01*
X0086530Y0012472D01*
X0086530Y0009389D01*
X0086152Y0009389D01*
X0086152Y0012472D01*
X0084766Y0012472D01*
X0084384Y0012369D01*
X0084042Y0012172D01*
X0083763Y0011893D01*
X0083565Y0011551D01*
X0083463Y0011169D01*
X0083463Y0009389D01*
X0086152Y0009389D01*
X0086152Y0009011D01*
X0086530Y0009011D01*
X0086530Y0005928D01*
X0087916Y0005928D01*
X0088298Y0006031D01*
X0088640Y0006228D01*
X0088900Y0006488D01*
X0089460Y0005928D01*
X0093458Y0005928D01*
X0094337Y0006807D01*
X0094337Y0011593D01*
X0093759Y0012171D01*
X0093759Y0012929D01*
X0094637Y0013807D01*
X0094637Y0018593D01*
X0094059Y0019171D01*
X0094059Y0020829D01*
X0094637Y0021407D01*
X0094637Y0021500D01*
X0095260Y0021500D01*
X0095260Y0020853D01*
X0096138Y0019974D01*
X0099981Y0019974D01*
X0100049Y0020042D01*
X0100303Y0019974D01*
X0101650Y0019974D01*
X0101650Y0023474D01*
X0101950Y0023474D01*
X0101950Y0019974D01*
X0103297Y0019974D01*
X0103551Y0020042D01*
X0103619Y0019974D01*
X0107462Y0019974D01*
X0108287Y0020800D01*
X0110528Y0020800D01*
X0110528Y0019448D01*
X0113611Y0019448D01*
X0113611Y0019070D01*
X0110528Y0019070D01*
X0110528Y0017684D01*
X0110631Y0017302D01*
X0110828Y0016960D01*
X0111088Y0016700D01*
X0110829Y0016441D01*
X0108340Y0016441D01*
X0108340Y0016947D01*
X0107462Y0017826D01*
X0103619Y0017826D01*
X0102740Y0016947D01*
X0102740Y0011404D01*
X0103619Y0010526D01*
X0107462Y0010526D01*
X0108340Y0011404D01*
X0108340Y0011841D01*
X0110829Y0011841D01*
X0111407Y0011263D01*
X0116193Y0011263D01*
X0116364Y0011434D01*
X0116700Y0011098D01*
X0116700Y0009083D01*
X0117172Y0007944D01*
X0118372Y0006744D01*
X0119244Y0005872D01*
X0120142Y0005500D01*
X0076784Y0005500D01*
X0077428Y0006144D01*
X0077900Y0007283D01*
X0077900Y0008517D01*
X0077428Y0009656D01*
X0076556Y0010528D01*
X0075417Y0011000D01*
X0074183Y0011000D01*
X0073044Y0010528D01*
X0072416Y0009900D01*
X0070625Y0009900D01*
X0070625Y0014750D01*
X0069747Y0015628D01*
X0062992Y0015628D01*
X0062768Y0015404D01*
X0062700Y0015404D01*
X0062700Y0016464D01*
X0062992Y0016172D01*
X0062964Y0016200D02*
X0062700Y0016200D01*
X0060700Y0013404D02*
X0060700Y0019296D01*
X0066369Y0019640D02*
X0066609Y0020400D01*
X0066609Y0023329D01*
X0066569Y0023369D01*
X0067800Y0024600D01*
X0080500Y0024600D01*
X0082700Y0026800D01*
X0082700Y0032300D01*
X0074400Y0028600D02*
X0074400Y0036500D01*
X0074400Y0044976D02*
X0074400Y0045165D01*
X0076979Y0045000D02*
X0068602Y0045000D01*
X0068000Y0045002D02*
X0068000Y0045165D01*
X0071200Y0045165D02*
X0071200Y0044989D01*
X0083159Y0051400D02*
X0085972Y0051400D01*
X0090900Y0051900D02*
X0093076Y0049724D01*
X0097506Y0049724D01*
X0102360Y0049724D01*
X0102400Y0049684D01*
X0102400Y0047684D02*
X0102400Y0045724D01*
X0102400Y0047684D01*
X0102400Y0047684D01*
X0103734Y0047716D02*
X0103734Y0047716D01*
X0104589Y0047716D01*
X0103734Y0047716D01*
X0104589Y0048200D02*
X0104742Y0048200D01*
X0106400Y0046542D02*
X0106400Y0045600D01*
X0105647Y0045000D02*
X0100087Y0045000D01*
X0100000Y0044966D02*
X0100000Y0044212D01*
X0097506Y0045000D02*
X0097505Y0045000D01*
X0096800Y0044878D02*
X0096800Y0042846D01*
X0093600Y0045965D02*
X0093600Y0047724D01*
X0096800Y0047165D02*
X0096800Y0047165D01*
X0103200Y0045724D02*
X0103200Y0044212D01*
X0107600Y0049400D02*
X0104717Y0052283D01*
X0097506Y0052283D01*
X0116956Y0041800D02*
X0120951Y0041800D01*
X0123452Y0041800D02*
X0123830Y0041800D01*
X0131530Y0041800D02*
X0133264Y0041800D01*
X0135200Y0041828D02*
X0135200Y0042372D01*
X0138400Y0042372D02*
X0138400Y0041828D01*
X0132413Y0038600D02*
X0131737Y0038600D01*
X0131530Y0035400D02*
X0132783Y0035400D01*
X0133463Y0032200D02*
X0131737Y0032200D01*
X0132000Y0027921D02*
X0132000Y0043540D01*
X0126400Y0048516D02*
X0126072Y0048844D01*
X0125600Y0049983D01*
X0125600Y0047468D01*
X0125600Y0049983D02*
X0125600Y0051217D01*
X0119200Y0055900D02*
X0119200Y0033400D01*
X0116000Y0033400D02*
X0116000Y0039024D01*
X0112800Y0039024D02*
X0112800Y0033400D01*
X0109600Y0033400D02*
X0109600Y0039024D01*
X0108444Y0030200D02*
X0105700Y0030200D01*
X0110800Y0028820D02*
X0110800Y0027820D01*
X0112700Y0028243D02*
X0119800Y0021143D01*
X0123662Y0019400D02*
X0125079Y0019400D01*
X0125600Y0018879D02*
X0125600Y0011600D01*
X0125882Y0013000D02*
X0123662Y0013000D01*
X0123662Y0016200D02*
X0125882Y0016200D01*
X0122400Y0017131D02*
X0122400Y0018069D01*
X0119200Y0018069D02*
X0119200Y0017157D01*
X0113611Y0019400D02*
X0094059Y0019400D01*
X0096138Y0017826D02*
X0095260Y0016947D01*
X0095260Y0011404D01*
X0095890Y0010774D01*
X0095472Y0010356D01*
X0095000Y0009217D01*
X0095000Y0007983D01*
X0095472Y0006844D01*
X0096344Y0005972D01*
X0097483Y0005500D01*
X0098717Y0005500D01*
X0099856Y0005972D01*
X0100728Y0006844D01*
X0101200Y0007983D01*
X0101200Y0009217D01*
X0100728Y0010356D01*
X0100270Y0010814D01*
X0100860Y0011404D01*
X0100860Y0016947D01*
X0099981Y0017826D01*
X0096138Y0017826D01*
X0096800Y0017826D02*
X0096800Y0019974D01*
X0100000Y0019993D02*
X0100000Y0017807D01*
X0100860Y0016200D02*
X0102740Y0016200D01*
X0103200Y0017407D02*
X0103200Y0019974D01*
X0106400Y0019974D02*
X0106400Y0017826D01*
X0109600Y0016441D02*
X0109600Y0020800D01*
X0112800Y0019448D02*
X0112800Y0019070D01*
X0105800Y0023474D02*
X0105800Y0023774D01*
X0101950Y0022600D02*
X0101650Y0022600D01*
X0095260Y0016200D02*
X0094637Y0016200D01*
X0098060Y0014176D02*
X0098060Y0008640D01*
X0098100Y0008600D01*
X0100958Y0009800D02*
X0116700Y0009800D01*
X0116000Y0011263D02*
X0116000Y0005500D01*
X0112800Y0005500D02*
X0112800Y0011263D01*
X0109600Y0011841D02*
X0109600Y0005500D01*
X0106400Y0005500D02*
X0106400Y0010526D01*
X0103200Y0010944D02*
X0103200Y0005500D01*
X0100484Y0006600D02*
X0118516Y0006600D01*
X0119200Y0005916D02*
X0119200Y0005500D01*
X0132031Y0013000D02*
X0132969Y0013000D01*
X0132969Y0016200D02*
X0132031Y0016200D01*
X0132000Y0017615D02*
X0132000Y0018879D01*
X0132521Y0019400D02*
X0133279Y0019400D01*
X0133200Y0022600D02*
X0132600Y0022600D01*
X0132000Y0023400D02*
X0132000Y0023400D01*
X0132600Y0025800D02*
X0133200Y0025800D01*
X0135200Y0023400D02*
X0135200Y0023400D01*
X0139300Y0018500D02*
X0143270Y0018500D01*
X0143707Y0018063D01*
X0148493Y0018063D01*
X0149372Y0018942D01*
X0149372Y0021415D01*
X0149947Y0020839D01*
X0155463Y0020839D01*
X0155463Y0020550D01*
X0155826Y0020187D01*
X0155763Y0020123D01*
X0155565Y0019781D01*
X0155463Y0019400D01*
X0149372Y0019400D01*
X0148000Y0018063D02*
X0148000Y0005500D01*
X0144800Y0005500D02*
X0144800Y0018063D01*
X0141600Y0018500D02*
X0141600Y0005500D01*
X0138400Y0005500D02*
X0138400Y0007916D01*
X0138828Y0008344D02*
X0139300Y0009483D01*
X0139300Y0018500D01*
X0139300Y0016200D02*
X0155463Y0016200D01*
X0155463Y0016750D02*
X0155463Y0015068D01*
X0155565Y0014686D01*
X0155763Y0014344D01*
X0156042Y0014065D01*
X0156384Y0013868D01*
X0156766Y0013765D01*
X0160416Y0013765D01*
X0160416Y0016750D01*
X0155463Y0016750D01*
X0155463Y0017718D02*
X0160416Y0017718D01*
X0160416Y0016750D01*
X0161384Y0016750D01*
X0161384Y0013765D01*
X0162353Y0013765D01*
X0162353Y0006179D01*
X0163032Y0005500D01*
X0135458Y0005500D01*
X0136356Y0005872D01*
X0137228Y0006744D01*
X0138828Y0008344D01*
X0139300Y0009800D02*
X0162353Y0009800D01*
X0162353Y0006600D02*
X0137084Y0006600D01*
X0139300Y0013000D02*
X0162353Y0013000D01*
X0157600Y0013765D02*
X0157600Y0005500D01*
X0160800Y0005500D02*
X0160800Y0016750D01*
X0160416Y0016200D02*
X0161384Y0016200D01*
X0157600Y0016750D02*
X0157600Y0017718D01*
X0155463Y0017718D02*
X0155463Y0019400D01*
X0154400Y0020839D02*
X0154400Y0005500D01*
X0151200Y0005500D02*
X0151200Y0020839D01*
X0164000Y0017718D02*
X0164000Y0016750D01*
X0166337Y0019400D02*
X0166235Y0019781D01*
X0166037Y0020123D01*
X0165974Y0020187D01*
X0166337Y0020550D01*
X0166337Y0025729D01*
X0165974Y0026092D01*
X0166337Y0026455D01*
X0166337Y0031635D01*
X0165974Y0031998D01*
X0166337Y0032361D01*
X0166337Y0037540D01*
X0165974Y0037903D01*
X0166337Y0038266D01*
X0166337Y0043446D01*
X0165974Y0043809D01*
X0166337Y0044172D01*
X0166337Y0049351D01*
X0165974Y0049714D01*
X0166337Y0050077D01*
X0166337Y0055257D01*
X0165974Y0055620D01*
X0166337Y0055983D01*
X0166337Y0061162D01*
X0165974Y0061525D01*
X0166337Y0061888D01*
X0166337Y0067068D01*
X0165974Y0067431D01*
X0166337Y0067794D01*
X0166337Y0072973D01*
X0165974Y0073336D01*
X0166337Y0073699D01*
X0166337Y0078879D01*
X0165974Y0079242D01*
X0166337Y0080200D02*
X0169800Y0080200D01*
X0169800Y0083400D02*
X0166337Y0083400D01*
X0166337Y0086600D02*
X0169800Y0086600D01*
X0176000Y0086600D02*
X0206644Y0086600D01*
X0206644Y0083400D02*
X0176000Y0083400D01*
X0176000Y0080200D02*
X0206644Y0080200D01*
X0206644Y0077000D02*
X0176000Y0077000D01*
X0176000Y0073800D02*
X0206644Y0073800D01*
X0206644Y0070600D02*
X0176000Y0070600D01*
X0176000Y0067400D02*
X0206976Y0067400D01*
X0206644Y0064200D02*
X0176000Y0064200D01*
X0176000Y0061000D02*
X0206644Y0061000D01*
X0206644Y0057800D02*
X0176000Y0057800D01*
X0176000Y0054600D02*
X0206644Y0054600D01*
X0206644Y0051400D02*
X0176000Y0051400D01*
X0176000Y0048200D02*
X0206644Y0048200D01*
X0206644Y0045000D02*
X0176000Y0045000D01*
X0176000Y0041800D02*
X0206644Y0041800D01*
X0206644Y0038600D02*
X0176000Y0038600D01*
X0176000Y0035400D02*
X0206644Y0035400D01*
X0206805Y0032200D02*
X0176000Y0032200D01*
X0176000Y0029000D02*
X0206644Y0029000D01*
X0206715Y0025800D02*
X0176000Y0025800D01*
X0176000Y0022600D02*
X0206644Y0022600D01*
X0205600Y0015387D02*
X0205600Y0125400D01*
X0208800Y0125400D02*
X0208800Y0091568D01*
X0206644Y0089800D02*
X0175924Y0089800D01*
X0173600Y0092684D02*
X0173600Y0125400D01*
X0176800Y0125400D02*
X0176800Y0015387D01*
X0173600Y0015387D02*
X0173600Y0020035D01*
X0170400Y0021216D02*
X0170400Y0015387D01*
X0180000Y0015387D02*
X0180000Y0125400D01*
X0183200Y0125400D02*
X0183200Y0015387D01*
X0186400Y0015115D02*
X0186400Y0125400D01*
X0189600Y0125400D02*
X0189600Y0015387D01*
X0192800Y0015387D02*
X0192800Y0125400D01*
X0196000Y0125400D02*
X0196000Y0015387D01*
X0199200Y0015387D02*
X0199200Y0125400D01*
X0202400Y0125400D02*
X0202400Y0015387D01*
X0169800Y0022600D02*
X0166337Y0022600D01*
X0166266Y0025800D02*
X0169800Y0025800D01*
X0169800Y0029000D02*
X0166337Y0029000D01*
X0166176Y0032200D02*
X0169800Y0032200D01*
X0169800Y0035400D02*
X0166337Y0035400D01*
X0166337Y0038600D02*
X0169800Y0038600D01*
X0169800Y0041800D02*
X0166337Y0041800D01*
X0166337Y0045000D02*
X0169800Y0045000D01*
X0169800Y0048200D02*
X0166337Y0048200D01*
X0166337Y0051400D02*
X0169800Y0051400D01*
X0169800Y0054600D02*
X0166337Y0054600D01*
X0166337Y0057800D02*
X0169800Y0057800D01*
X0169800Y0061000D02*
X0166337Y0061000D01*
X0166337Y0064200D02*
X0169800Y0064200D01*
X0169800Y0067400D02*
X0166005Y0067400D01*
X0166337Y0070600D02*
X0169800Y0070600D01*
X0169800Y0073800D02*
X0166337Y0073800D01*
X0166337Y0077000D02*
X0169800Y0077000D01*
X0153089Y0067400D02*
X0152711Y0067400D01*
X0151200Y0068152D02*
X0151200Y0068530D01*
X0149628Y0067400D02*
X0143000Y0067400D01*
X0142621Y0070600D02*
X0149905Y0070600D01*
X0148000Y0071159D02*
X0148000Y0045568D01*
X0145815Y0045000D02*
X0144846Y0045000D01*
X0144800Y0045568D02*
X0144800Y0071164D01*
X0143000Y0064200D02*
X0155463Y0064200D01*
X0155463Y0061000D02*
X0142221Y0061000D01*
X0143000Y0057800D02*
X0155463Y0057800D01*
X0141600Y0055900D02*
X0141600Y0045215D01*
X0141385Y0045000D02*
X0140925Y0045000D01*
X0126459Y0057800D02*
X0124400Y0057800D01*
X0131059Y0061000D02*
X0132179Y0061000D01*
X0132000Y0060821D02*
X0132000Y0061179D01*
X0131400Y0064200D02*
X0129941Y0064200D01*
X0132000Y0065821D02*
X0132000Y0066179D01*
X0131400Y0067400D02*
X0129941Y0067400D01*
X0129941Y0070600D02*
X0131779Y0070600D01*
X0132000Y0070821D02*
X0132000Y0071179D01*
X0170400Y0095884D02*
X0170400Y0125400D01*
X0160800Y0125400D02*
X0160800Y0123050D01*
X0157600Y0123293D02*
X0157600Y0125400D01*
X0157600Y0106907D02*
X0157600Y0104200D01*
X0169617Y0099400D02*
X0216300Y0099400D01*
X0216300Y0096200D02*
X0170084Y0096200D01*
X0173284Y0093000D02*
X0216300Y0093000D01*
X0215200Y0091568D02*
X0215200Y0125400D01*
X0212000Y0125400D02*
X0212000Y0091568D01*
X0163700Y0096200D02*
X0150440Y0096200D01*
X0055430Y0041800D02*
X0055052Y0041800D01*
X0055052Y0038600D02*
X0055430Y0038600D01*
X0071200Y0022600D02*
X0071200Y0018915D01*
X0071766Y0019400D02*
X0070625Y0019400D01*
X0070775Y0016200D02*
X0069775Y0016200D01*
X0068000Y0016172D02*
X0068000Y0015628D01*
X0070625Y0013000D02*
X0071085Y0013000D01*
X0071200Y0012885D02*
X0071200Y0009900D01*
X0074400Y0011000D02*
X0074400Y0012431D01*
X0077600Y0012431D02*
X0077600Y0009241D01*
X0077284Y0009800D02*
X0083463Y0009800D01*
X0084000Y0009389D02*
X0084000Y0009011D01*
X0083463Y0009011D02*
X0083463Y0007231D01*
X0083565Y0006849D01*
X0083763Y0006507D01*
X0084042Y0006228D01*
X0084384Y0006031D01*
X0084766Y0005928D01*
X0086152Y0005928D01*
X0086152Y0009011D01*
X0083463Y0009011D01*
X0083709Y0006600D02*
X0077617Y0006600D01*
X0077600Y0006559D02*
X0077600Y0005500D01*
X0080800Y0005500D02*
X0080800Y0013541D01*
X0078976Y0013000D02*
X0084570Y0013000D01*
X0084000Y0013541D02*
X0084000Y0012130D01*
X0086152Y0009800D02*
X0086530Y0009800D01*
X0087200Y0012472D02*
X0087200Y0012928D01*
X0088712Y0013000D02*
X0089159Y0013000D01*
X0093830Y0013000D02*
X0095260Y0013000D01*
X0095242Y0009800D02*
X0094337Y0009800D01*
X0094130Y0006600D02*
X0095716Y0006600D01*
X0096800Y0005783D02*
X0096800Y0005500D01*
X0093600Y0005500D02*
X0093600Y0006070D01*
X0090400Y0005928D02*
X0090400Y0005500D01*
X0087200Y0005500D02*
X0087200Y0005928D01*
X0086530Y0006600D02*
X0086152Y0006600D01*
X0084000Y0006270D02*
X0084000Y0005500D01*
X0074800Y0007900D02*
X0061700Y0007900D01*
X0060600Y0009000D01*
X0060600Y0011296D01*
X0060700Y0011396D01*
X0058400Y0010177D02*
X0058400Y0009700D01*
X0058600Y0009800D02*
X0054250Y0009800D01*
X0048400Y0011500D02*
X0048200Y0011300D01*
X0029600Y0011400D02*
X0029600Y0011600D01*
X0021387Y0041800D02*
X0016722Y0041800D01*
X0019628Y0061000D02*
X0006100Y0061000D01*
X0006100Y0064200D02*
X0019628Y0064200D01*
X0023687Y0065737D02*
X0028037Y0065737D01*
X0029300Y0067000D01*
X0029400Y0061800D02*
X0023687Y0061800D01*
X0029400Y0061800D02*
X0029500Y0061700D01*
X0019685Y0067400D02*
X0006100Y0067400D01*
X0006100Y0070600D02*
X0019628Y0070600D01*
X0020000Y0071652D02*
X0020000Y0083000D01*
X0023200Y0083000D02*
X0023200Y0072158D01*
X0026400Y0072570D02*
X0026400Y0083000D01*
X0029600Y0083000D02*
X0029600Y0074000D01*
X0027630Y0073800D02*
X0006100Y0073800D01*
X0007200Y0084205D02*
X0007200Y0091980D01*
X0006413Y0093000D02*
X0006100Y0093000D01*
X0006100Y0089800D02*
X0007763Y0089800D01*
X0007770Y0086600D02*
X0006100Y0086600D01*
X0010400Y0084972D02*
X0010400Y0084205D01*
X0016800Y0088811D02*
X0016800Y0089189D01*
X0018637Y0089800D02*
X0022672Y0089800D01*
X0023200Y0089272D02*
X0023200Y0087000D01*
X0026400Y0087000D02*
X0026400Y0088000D01*
X0020000Y0087000D02*
X0020000Y0091888D01*
X0019831Y0093000D02*
X0018831Y0093000D01*
X0016800Y0095250D02*
X0016800Y0096250D01*
X0014925Y0096200D02*
X0018831Y0096200D01*
X0015075Y0099400D02*
X0014901Y0099400D01*
X0014925Y0093000D02*
X0015126Y0093000D01*
X0116956Y0030200D02*
X0119900Y0030200D01*
X0115800Y0028820D02*
X0115800Y0027820D01*
X0112700Y0028243D02*
X0112700Y0028320D01*
X0102740Y0013000D02*
X0100860Y0013000D01*
X0100000Y0006116D02*
X0100000Y0005500D01*
D44*
X0048400Y0011500D02*
X0048300Y0011400D01*
X0042800Y0011400D01*
X0041100Y0013100D01*
X0041100Y0016800D01*
X0033000Y0026900D02*
X0035400Y0029300D01*
X0038100Y0029300D01*
X0039200Y0030400D01*
X0039200Y0040300D01*
X0040200Y0041300D01*
X0044948Y0041300D01*
X0045206Y0041043D01*
X0033000Y0026900D02*
X0011000Y0026900D01*
X0008941Y0024841D01*
X0008941Y0023200D01*
X0008941Y0013428D01*
X0034700Y0062400D02*
X0034100Y0063000D01*
X0034100Y0069800D01*
X0032000Y0071900D01*
X0028700Y0071900D01*
X0026474Y0069674D01*
X0023687Y0069674D01*
X0034700Y0062400D02*
X0039400Y0062400D01*
X0061500Y0067500D02*
X0061600Y0067600D01*
X0032800Y0108924D02*
X0032700Y0109024D01*
X0032700Y0113500D01*
D45*
X0074500Y0020900D02*
X0074500Y0016431D01*
X0075031Y0015900D01*
X0075372Y0016241D01*
X0086600Y0016241D01*
M02*
