G75*
%MOIN*%
%OFA0B0*%
%FSLAX25Y25*%
%IPPOS*%
%LPD*%
%AMOC8*
5,1,8,0,0,1.08239X$1,22.5*
%
%ADD10C,0.00000*%
%ADD11C,0.00600*%
%ADD12C,0.00200*%
%ADD13R,0.01181X0.01181*%
%ADD14C,0.00300*%
%ADD15C,0.00500*%
%ADD16C,0.00800*%
%ADD17C,0.01000*%
%ADD18C,0.00700*%
D10*
X0001600Y0001000D02*
X0001600Y0129900D01*
X0220800Y0129900D01*
X0220800Y0001000D01*
X0001600Y0001000D01*
X0096000Y0016100D02*
X0096002Y0016066D01*
X0096009Y0016033D01*
X0096018Y0016001D01*
X0096031Y0015971D01*
X0096048Y0015941D01*
X0096067Y0015914D01*
X0096089Y0015889D01*
X0096114Y0015867D01*
X0096141Y0015848D01*
X0096171Y0015831D01*
X0096201Y0015818D01*
X0096233Y0015809D01*
X0096266Y0015802D01*
X0096300Y0015800D01*
X0096000Y0021800D02*
X0096002Y0021834D01*
X0096009Y0021867D01*
X0096018Y0021899D01*
X0096031Y0021929D01*
X0096048Y0021959D01*
X0096067Y0021986D01*
X0096089Y0022011D01*
X0096114Y0022033D01*
X0096141Y0022052D01*
X0096171Y0022069D01*
X0096201Y0022082D01*
X0096233Y0022091D01*
X0096266Y0022098D01*
X0096300Y0022100D01*
X0107200Y0022100D02*
X0107234Y0022098D01*
X0107267Y0022091D01*
X0107299Y0022082D01*
X0107329Y0022069D01*
X0107359Y0022052D01*
X0107386Y0022033D01*
X0107411Y0022011D01*
X0107433Y0021986D01*
X0107452Y0021959D01*
X0107469Y0021929D01*
X0107482Y0021899D01*
X0107491Y0021867D01*
X0107498Y0021834D01*
X0107500Y0021800D01*
X0107500Y0016100D02*
X0107498Y0016066D01*
X0107491Y0016033D01*
X0107482Y0016001D01*
X0107469Y0015971D01*
X0107452Y0015941D01*
X0107433Y0015914D01*
X0107411Y0015889D01*
X0107386Y0015867D01*
X0107359Y0015848D01*
X0107329Y0015831D01*
X0107299Y0015818D01*
X0107267Y0015809D01*
X0107234Y0015802D01*
X0107200Y0015800D01*
X0126700Y0075800D02*
X0126705Y0075732D01*
X0126714Y0075664D01*
X0126726Y0075596D01*
X0126743Y0075530D01*
X0126763Y0075464D01*
X0126787Y0075400D01*
X0126814Y0075337D01*
X0126845Y0075276D01*
X0126880Y0075216D01*
X0126918Y0075159D01*
X0126959Y0075104D01*
X0127003Y0075052D01*
X0127050Y0075002D01*
X0127100Y0074955D01*
X0127152Y0074910D01*
X0127207Y0074869D01*
X0127264Y0074831D01*
X0127323Y0074797D01*
X0127384Y0074765D01*
X0127447Y0074738D01*
X0127511Y0074714D01*
X0127577Y0074693D01*
X0127643Y0074677D01*
X0127711Y0074664D01*
X0127779Y0074655D01*
X0127847Y0074650D01*
X0127916Y0074649D01*
X0127984Y0074652D01*
X0128053Y0074659D01*
X0128120Y0074669D01*
X0128187Y0074684D01*
X0128253Y0074702D01*
X0128318Y0074724D01*
X0128382Y0074750D01*
X0128444Y0074779D01*
X0128504Y0074812D01*
X0128562Y0074848D01*
X0128619Y0074888D01*
X0128672Y0074930D01*
X0128724Y0074976D01*
X0128772Y0075024D01*
X0128818Y0075075D01*
X0128861Y0075129D01*
X0128900Y0075185D01*
X0128937Y0075243D01*
X0128969Y0075303D01*
X0128999Y0075365D01*
X0129025Y0075429D01*
X0129047Y0075494D01*
X0129065Y0075560D01*
X0129080Y0075627D01*
X0129091Y0075695D01*
X0129098Y0075763D01*
X0129101Y0075831D01*
X0129100Y0075900D01*
D11*
X0126700Y0075800D02*
X0120100Y0075800D01*
X0120100Y0056200D01*
X0135700Y0056200D01*
X0135700Y0075800D01*
X0126700Y0075800D01*
X0120100Y0074500D02*
X0120100Y0072500D01*
X0115700Y0072500D01*
X0115700Y0074500D01*
X0120100Y0074500D01*
X0120100Y0069500D02*
X0115700Y0069500D01*
X0115700Y0067500D01*
X0120100Y0067500D01*
X0120100Y0069500D01*
X0120100Y0064500D02*
X0115700Y0064500D01*
X0115700Y0062500D01*
X0120100Y0062500D01*
X0120100Y0064500D01*
X0120100Y0059500D02*
X0115700Y0059500D01*
X0115700Y0057500D01*
X0120100Y0057500D01*
X0120100Y0059500D01*
X0135700Y0059500D02*
X0135700Y0057500D01*
X0140100Y0057500D01*
X0140100Y0059500D01*
X0135700Y0059500D01*
X0135700Y0062500D02*
X0140100Y0062500D01*
X0140100Y0064500D01*
X0135700Y0064500D01*
X0135700Y0062500D01*
X0135700Y0067500D02*
X0140100Y0067500D01*
X0140100Y0069500D01*
X0135700Y0069500D01*
X0135700Y0067500D01*
X0135700Y0072500D02*
X0140100Y0072500D01*
X0140100Y0074500D01*
X0135700Y0074500D01*
X0135700Y0072500D01*
X0095194Y0071522D02*
X0095194Y0061286D01*
X0095192Y0061217D01*
X0095186Y0061148D01*
X0095177Y0061079D01*
X0095164Y0061011D01*
X0095147Y0060944D01*
X0095127Y0060877D01*
X0095103Y0060812D01*
X0095076Y0060749D01*
X0095045Y0060686D01*
X0095011Y0060626D01*
X0094973Y0060568D01*
X0094933Y0060511D01*
X0094890Y0060457D01*
X0094843Y0060406D01*
X0094794Y0060357D01*
X0094743Y0060310D01*
X0094689Y0060267D01*
X0094632Y0060227D01*
X0094574Y0060189D01*
X0094514Y0060155D01*
X0094451Y0060124D01*
X0094388Y0060097D01*
X0094323Y0060073D01*
X0094256Y0060053D01*
X0094189Y0060036D01*
X0094121Y0060023D01*
X0094052Y0060014D01*
X0093983Y0060008D01*
X0093914Y0060006D01*
X0083678Y0060006D01*
X0083609Y0060008D01*
X0083540Y0060014D01*
X0083471Y0060023D01*
X0083403Y0060036D01*
X0083336Y0060053D01*
X0083269Y0060073D01*
X0083204Y0060097D01*
X0083141Y0060124D01*
X0083078Y0060155D01*
X0083018Y0060189D01*
X0082960Y0060227D01*
X0082903Y0060267D01*
X0082849Y0060310D01*
X0082798Y0060357D01*
X0082749Y0060406D01*
X0082702Y0060457D01*
X0082659Y0060511D01*
X0082619Y0060568D01*
X0082581Y0060626D01*
X0082547Y0060686D01*
X0082516Y0060749D01*
X0082489Y0060812D01*
X0082465Y0060877D01*
X0082445Y0060944D01*
X0082428Y0061011D01*
X0082415Y0061079D01*
X0082406Y0061148D01*
X0082400Y0061217D01*
X0082398Y0061286D01*
X0082398Y0071680D01*
X0082398Y0071522D02*
X0082400Y0071591D01*
X0082406Y0071660D01*
X0082415Y0071729D01*
X0082428Y0071797D01*
X0082445Y0071864D01*
X0082465Y0071931D01*
X0082489Y0071996D01*
X0082516Y0072059D01*
X0082547Y0072122D01*
X0082581Y0072182D01*
X0082619Y0072240D01*
X0082659Y0072297D01*
X0082702Y0072351D01*
X0082749Y0072402D01*
X0082798Y0072451D01*
X0082849Y0072498D01*
X0082903Y0072541D01*
X0082960Y0072581D01*
X0083018Y0072619D01*
X0083078Y0072653D01*
X0083141Y0072684D01*
X0083204Y0072711D01*
X0083269Y0072735D01*
X0083336Y0072755D01*
X0083403Y0072772D01*
X0083471Y0072785D01*
X0083540Y0072794D01*
X0083609Y0072800D01*
X0083678Y0072802D01*
X0093914Y0072802D01*
X0093983Y0072800D01*
X0094052Y0072794D01*
X0094121Y0072785D01*
X0094189Y0072772D01*
X0094256Y0072755D01*
X0094323Y0072735D01*
X0094388Y0072711D01*
X0094451Y0072684D01*
X0094514Y0072653D01*
X0094574Y0072619D01*
X0094632Y0072581D01*
X0094689Y0072541D01*
X0094743Y0072498D01*
X0094794Y0072451D01*
X0094843Y0072402D01*
X0094890Y0072351D01*
X0094933Y0072297D01*
X0094973Y0072240D01*
X0095011Y0072182D01*
X0095045Y0072122D01*
X0095076Y0072059D01*
X0095103Y0071996D01*
X0095127Y0071931D01*
X0095147Y0071864D01*
X0095164Y0071797D01*
X0095177Y0071729D01*
X0095186Y0071660D01*
X0095192Y0071591D01*
X0095194Y0071522D01*
X0095194Y0077598D02*
X0089406Y0077598D01*
X0089406Y0077772D01*
X0089406Y0080945D02*
X0089406Y0081315D01*
X0095194Y0080945D02*
X0095194Y0085055D01*
X0089406Y0085055D02*
X0089406Y0084685D01*
X0089406Y0088228D02*
X0089406Y0088402D01*
X0095194Y0088402D01*
X0095194Y0088228D01*
X0094500Y0097100D02*
X0097800Y0097100D01*
X0100200Y0097100D01*
X0103500Y0097100D01*
X0100200Y0097100D02*
X0100198Y0097169D01*
X0100192Y0097237D01*
X0100182Y0097305D01*
X0100169Y0097372D01*
X0100151Y0097438D01*
X0100130Y0097503D01*
X0100105Y0097567D01*
X0100077Y0097629D01*
X0100045Y0097690D01*
X0100010Y0097749D01*
X0099971Y0097805D01*
X0099929Y0097860D01*
X0099884Y0097911D01*
X0099836Y0097961D01*
X0099786Y0098007D01*
X0099733Y0098050D01*
X0099677Y0098091D01*
X0099620Y0098128D01*
X0099560Y0098161D01*
X0099498Y0098192D01*
X0099435Y0098218D01*
X0099371Y0098241D01*
X0099305Y0098261D01*
X0099238Y0098276D01*
X0099171Y0098288D01*
X0099103Y0098296D01*
X0099034Y0098300D01*
X0098966Y0098300D01*
X0098897Y0098296D01*
X0098829Y0098288D01*
X0098762Y0098276D01*
X0098695Y0098261D01*
X0098629Y0098241D01*
X0098565Y0098218D01*
X0098502Y0098192D01*
X0098440Y0098161D01*
X0098380Y0098128D01*
X0098323Y0098091D01*
X0098267Y0098050D01*
X0098214Y0098007D01*
X0098164Y0097961D01*
X0098116Y0097911D01*
X0098071Y0097860D01*
X0098029Y0097805D01*
X0097990Y0097749D01*
X0097955Y0097690D01*
X0097923Y0097629D01*
X0097895Y0097567D01*
X0097870Y0097503D01*
X0097849Y0097438D01*
X0097831Y0097372D01*
X0097818Y0097305D01*
X0097808Y0097237D01*
X0097802Y0097169D01*
X0097800Y0097100D01*
X0084000Y0113200D02*
X0079900Y0113100D01*
X0094500Y0116700D02*
X0103500Y0116700D01*
X0095194Y0077772D02*
X0095194Y0077598D01*
X0093714Y0057402D02*
X0083478Y0057402D01*
X0083409Y0057400D01*
X0083340Y0057394D01*
X0083271Y0057385D01*
X0083203Y0057372D01*
X0083136Y0057355D01*
X0083069Y0057335D01*
X0083004Y0057311D01*
X0082941Y0057284D01*
X0082878Y0057253D01*
X0082818Y0057219D01*
X0082760Y0057181D01*
X0082703Y0057141D01*
X0082649Y0057098D01*
X0082598Y0057051D01*
X0082549Y0057002D01*
X0082502Y0056951D01*
X0082459Y0056897D01*
X0082419Y0056840D01*
X0082381Y0056782D01*
X0082347Y0056722D01*
X0082316Y0056659D01*
X0082289Y0056596D01*
X0082265Y0056531D01*
X0082245Y0056464D01*
X0082228Y0056397D01*
X0082215Y0056329D01*
X0082206Y0056260D01*
X0082200Y0056191D01*
X0082198Y0056122D01*
X0082198Y0056280D02*
X0082198Y0045886D01*
X0082200Y0045817D01*
X0082206Y0045748D01*
X0082215Y0045679D01*
X0082228Y0045611D01*
X0082245Y0045544D01*
X0082265Y0045477D01*
X0082289Y0045412D01*
X0082316Y0045349D01*
X0082347Y0045286D01*
X0082381Y0045226D01*
X0082419Y0045168D01*
X0082459Y0045111D01*
X0082502Y0045057D01*
X0082549Y0045006D01*
X0082598Y0044957D01*
X0082649Y0044910D01*
X0082703Y0044867D01*
X0082760Y0044827D01*
X0082818Y0044789D01*
X0082878Y0044755D01*
X0082941Y0044724D01*
X0083004Y0044697D01*
X0083069Y0044673D01*
X0083136Y0044653D01*
X0083203Y0044636D01*
X0083271Y0044623D01*
X0083340Y0044614D01*
X0083409Y0044608D01*
X0083478Y0044606D01*
X0093714Y0044606D01*
X0093783Y0044608D01*
X0093852Y0044614D01*
X0093921Y0044623D01*
X0093989Y0044636D01*
X0094056Y0044653D01*
X0094123Y0044673D01*
X0094188Y0044697D01*
X0094251Y0044724D01*
X0094314Y0044755D01*
X0094374Y0044789D01*
X0094432Y0044827D01*
X0094489Y0044867D01*
X0094543Y0044910D01*
X0094594Y0044957D01*
X0094643Y0045006D01*
X0094690Y0045057D01*
X0094733Y0045111D01*
X0094773Y0045168D01*
X0094811Y0045226D01*
X0094845Y0045286D01*
X0094876Y0045349D01*
X0094903Y0045412D01*
X0094927Y0045477D01*
X0094947Y0045544D01*
X0094964Y0045611D01*
X0094977Y0045679D01*
X0094986Y0045748D01*
X0094992Y0045817D01*
X0094994Y0045886D01*
X0094994Y0056122D01*
X0094992Y0056191D01*
X0094986Y0056260D01*
X0094977Y0056329D01*
X0094964Y0056397D01*
X0094947Y0056464D01*
X0094927Y0056531D01*
X0094903Y0056596D01*
X0094876Y0056659D01*
X0094845Y0056722D01*
X0094811Y0056782D01*
X0094773Y0056840D01*
X0094733Y0056897D01*
X0094690Y0056951D01*
X0094643Y0057002D01*
X0094594Y0057051D01*
X0094543Y0057098D01*
X0094489Y0057141D01*
X0094432Y0057181D01*
X0094374Y0057219D01*
X0094314Y0057253D01*
X0094251Y0057284D01*
X0094188Y0057311D01*
X0094123Y0057335D01*
X0094056Y0057355D01*
X0093989Y0057372D01*
X0093921Y0057385D01*
X0093852Y0057394D01*
X0093783Y0057400D01*
X0093714Y0057402D01*
X0069800Y0052000D02*
X0065800Y0052000D01*
X0057500Y0048600D02*
X0043500Y0048600D01*
X0041414Y0043602D02*
X0031178Y0043602D01*
X0031109Y0043600D01*
X0031040Y0043594D01*
X0030971Y0043585D01*
X0030903Y0043572D01*
X0030836Y0043555D01*
X0030769Y0043535D01*
X0030704Y0043511D01*
X0030641Y0043484D01*
X0030578Y0043453D01*
X0030518Y0043419D01*
X0030460Y0043381D01*
X0030403Y0043341D01*
X0030349Y0043298D01*
X0030298Y0043251D01*
X0030249Y0043202D01*
X0030202Y0043151D01*
X0030159Y0043097D01*
X0030119Y0043040D01*
X0030081Y0042982D01*
X0030047Y0042922D01*
X0030016Y0042859D01*
X0029989Y0042796D01*
X0029965Y0042731D01*
X0029945Y0042664D01*
X0029928Y0042597D01*
X0029915Y0042529D01*
X0029906Y0042460D01*
X0029900Y0042391D01*
X0029898Y0042322D01*
X0029898Y0042480D02*
X0029898Y0032086D01*
X0029900Y0032017D01*
X0029906Y0031948D01*
X0029915Y0031879D01*
X0029928Y0031811D01*
X0029945Y0031744D01*
X0029965Y0031677D01*
X0029989Y0031612D01*
X0030016Y0031549D01*
X0030047Y0031486D01*
X0030081Y0031426D01*
X0030119Y0031368D01*
X0030159Y0031311D01*
X0030202Y0031257D01*
X0030249Y0031206D01*
X0030298Y0031157D01*
X0030349Y0031110D01*
X0030403Y0031067D01*
X0030460Y0031027D01*
X0030518Y0030989D01*
X0030578Y0030955D01*
X0030641Y0030924D01*
X0030704Y0030897D01*
X0030769Y0030873D01*
X0030836Y0030853D01*
X0030903Y0030836D01*
X0030971Y0030823D01*
X0031040Y0030814D01*
X0031109Y0030808D01*
X0031178Y0030806D01*
X0041414Y0030806D01*
X0041483Y0030808D01*
X0041552Y0030814D01*
X0041621Y0030823D01*
X0041689Y0030836D01*
X0041756Y0030853D01*
X0041823Y0030873D01*
X0041888Y0030897D01*
X0041951Y0030924D01*
X0042014Y0030955D01*
X0042074Y0030989D01*
X0042132Y0031027D01*
X0042189Y0031067D01*
X0042243Y0031110D01*
X0042294Y0031157D01*
X0042343Y0031206D01*
X0042390Y0031257D01*
X0042433Y0031311D01*
X0042473Y0031368D01*
X0042511Y0031426D01*
X0042545Y0031486D01*
X0042576Y0031549D01*
X0042603Y0031612D01*
X0042627Y0031677D01*
X0042647Y0031744D01*
X0042664Y0031811D01*
X0042677Y0031879D01*
X0042686Y0031948D01*
X0042692Y0032017D01*
X0042694Y0032086D01*
X0042694Y0042322D01*
X0042692Y0042391D01*
X0042686Y0042460D01*
X0042677Y0042529D01*
X0042664Y0042597D01*
X0042647Y0042664D01*
X0042627Y0042731D01*
X0042603Y0042796D01*
X0042576Y0042859D01*
X0042545Y0042922D01*
X0042511Y0042982D01*
X0042473Y0043040D01*
X0042433Y0043097D01*
X0042390Y0043151D01*
X0042343Y0043202D01*
X0042294Y0043251D01*
X0042243Y0043298D01*
X0042189Y0043341D01*
X0042132Y0043381D01*
X0042074Y0043419D01*
X0042014Y0043453D01*
X0041951Y0043484D01*
X0041888Y0043511D01*
X0041823Y0043535D01*
X0041756Y0043555D01*
X0041689Y0043572D01*
X0041621Y0043585D01*
X0041552Y0043594D01*
X0041483Y0043600D01*
X0041414Y0043602D01*
X0071498Y0039680D02*
X0071498Y0029286D01*
X0071500Y0029217D01*
X0071506Y0029148D01*
X0071515Y0029079D01*
X0071528Y0029011D01*
X0071545Y0028944D01*
X0071565Y0028877D01*
X0071589Y0028812D01*
X0071616Y0028749D01*
X0071647Y0028686D01*
X0071681Y0028626D01*
X0071719Y0028568D01*
X0071759Y0028511D01*
X0071802Y0028457D01*
X0071849Y0028406D01*
X0071898Y0028357D01*
X0071949Y0028310D01*
X0072003Y0028267D01*
X0072060Y0028227D01*
X0072118Y0028189D01*
X0072178Y0028155D01*
X0072241Y0028124D01*
X0072304Y0028097D01*
X0072369Y0028073D01*
X0072436Y0028053D01*
X0072503Y0028036D01*
X0072571Y0028023D01*
X0072640Y0028014D01*
X0072709Y0028008D01*
X0072778Y0028006D01*
X0083014Y0028006D01*
X0083083Y0028008D01*
X0083152Y0028014D01*
X0083221Y0028023D01*
X0083289Y0028036D01*
X0083356Y0028053D01*
X0083423Y0028073D01*
X0083488Y0028097D01*
X0083551Y0028124D01*
X0083614Y0028155D01*
X0083674Y0028189D01*
X0083732Y0028227D01*
X0083789Y0028267D01*
X0083843Y0028310D01*
X0083894Y0028357D01*
X0083943Y0028406D01*
X0083990Y0028457D01*
X0084033Y0028511D01*
X0084073Y0028568D01*
X0084111Y0028626D01*
X0084145Y0028686D01*
X0084176Y0028749D01*
X0084203Y0028812D01*
X0084227Y0028877D01*
X0084247Y0028944D01*
X0084264Y0029011D01*
X0084277Y0029079D01*
X0084286Y0029148D01*
X0084292Y0029217D01*
X0084294Y0029286D01*
X0084294Y0039522D01*
X0084292Y0039591D01*
X0084286Y0039660D01*
X0084277Y0039729D01*
X0084264Y0039797D01*
X0084247Y0039864D01*
X0084227Y0039931D01*
X0084203Y0039996D01*
X0084176Y0040059D01*
X0084145Y0040122D01*
X0084111Y0040182D01*
X0084073Y0040240D01*
X0084033Y0040297D01*
X0083990Y0040351D01*
X0083943Y0040402D01*
X0083894Y0040451D01*
X0083843Y0040498D01*
X0083789Y0040541D01*
X0083732Y0040581D01*
X0083674Y0040619D01*
X0083614Y0040653D01*
X0083551Y0040684D01*
X0083488Y0040711D01*
X0083423Y0040735D01*
X0083356Y0040755D01*
X0083289Y0040772D01*
X0083221Y0040785D01*
X0083152Y0040794D01*
X0083083Y0040800D01*
X0083014Y0040802D01*
X0072778Y0040802D01*
X0072709Y0040800D01*
X0072640Y0040794D01*
X0072571Y0040785D01*
X0072503Y0040772D01*
X0072436Y0040755D01*
X0072369Y0040735D01*
X0072304Y0040711D01*
X0072241Y0040684D01*
X0072178Y0040653D01*
X0072118Y0040619D01*
X0072060Y0040581D01*
X0072003Y0040541D01*
X0071949Y0040498D01*
X0071898Y0040451D01*
X0071849Y0040402D01*
X0071802Y0040351D01*
X0071759Y0040297D01*
X0071719Y0040240D01*
X0071681Y0040182D01*
X0071647Y0040122D01*
X0071616Y0040059D01*
X0071589Y0039996D01*
X0071565Y0039931D01*
X0071545Y0039864D01*
X0071528Y0039797D01*
X0071515Y0039729D01*
X0071506Y0039660D01*
X0071500Y0039591D01*
X0071498Y0039522D01*
X0097200Y0024500D02*
X0098800Y0024500D01*
X0098800Y0022100D01*
X0097200Y0022100D01*
X0097200Y0024500D01*
X0097200Y0022100D02*
X0096300Y0022100D01*
X0096000Y0021800D02*
X0096000Y0016100D01*
X0096300Y0015800D02*
X0097200Y0015800D01*
X0098800Y0015800D01*
X0098800Y0013300D01*
X0097200Y0013300D01*
X0097200Y0015800D01*
X0098800Y0015800D02*
X0104700Y0015800D01*
X0106300Y0015800D01*
X0106300Y0013300D01*
X0104700Y0013300D01*
X0104700Y0015800D01*
X0106300Y0015800D02*
X0107200Y0015800D01*
X0107500Y0016100D02*
X0107500Y0021800D01*
X0107200Y0022100D02*
X0106300Y0022100D01*
X0104700Y0022100D01*
X0104700Y0024500D01*
X0106300Y0024500D01*
X0106300Y0022100D01*
X0104700Y0022100D02*
X0102500Y0022100D01*
X0101000Y0022100D01*
X0101000Y0024500D01*
X0102500Y0024500D01*
X0102500Y0022100D01*
X0101000Y0022100D02*
X0098800Y0022100D01*
X0117438Y0018781D02*
X0117438Y0016419D01*
X0122162Y0016419D02*
X0122162Y0018781D01*
X0131319Y0016962D02*
X0133681Y0016962D01*
X0134000Y0019100D02*
X0131800Y0019100D01*
X0132400Y0020200D02*
X0132463Y0020227D01*
X0132528Y0020250D01*
X0132594Y0020270D01*
X0132661Y0020285D01*
X0132729Y0020297D01*
X0132797Y0020305D01*
X0132866Y0020309D01*
X0132934Y0020309D01*
X0133003Y0020305D01*
X0133071Y0020297D01*
X0133139Y0020285D01*
X0133206Y0020270D01*
X0133272Y0020250D01*
X0133337Y0020227D01*
X0133400Y0020200D01*
X0134000Y0027700D02*
X0131800Y0027700D01*
X0140402Y0036502D02*
X0143598Y0036502D01*
X0143598Y0038698D01*
X0143598Y0045502D02*
X0143598Y0047698D01*
X0140402Y0047698D01*
X0133681Y0012238D02*
X0131319Y0012238D01*
X0045198Y0004701D02*
X0031002Y0004701D01*
X0014330Y0007500D02*
X0011000Y0007500D01*
X0011000Y0010511D01*
X0011000Y0015591D02*
X0011000Y0018700D01*
X0014330Y0018700D01*
X0031002Y0023299D02*
X0045198Y0023299D01*
X0043500Y0068600D02*
X0049300Y0068600D01*
X0051700Y0068600D01*
X0057500Y0068600D01*
X0051700Y0068600D02*
X0051698Y0068531D01*
X0051692Y0068463D01*
X0051682Y0068395D01*
X0051669Y0068328D01*
X0051651Y0068262D01*
X0051630Y0068197D01*
X0051605Y0068133D01*
X0051577Y0068071D01*
X0051545Y0068010D01*
X0051510Y0067951D01*
X0051471Y0067895D01*
X0051429Y0067840D01*
X0051384Y0067789D01*
X0051336Y0067739D01*
X0051286Y0067693D01*
X0051233Y0067650D01*
X0051177Y0067609D01*
X0051120Y0067572D01*
X0051060Y0067539D01*
X0050998Y0067508D01*
X0050935Y0067482D01*
X0050871Y0067459D01*
X0050805Y0067439D01*
X0050738Y0067424D01*
X0050671Y0067412D01*
X0050603Y0067404D01*
X0050534Y0067400D01*
X0050466Y0067400D01*
X0050397Y0067404D01*
X0050329Y0067412D01*
X0050262Y0067424D01*
X0050195Y0067439D01*
X0050129Y0067459D01*
X0050065Y0067482D01*
X0050002Y0067508D01*
X0049940Y0067539D01*
X0049880Y0067572D01*
X0049823Y0067609D01*
X0049767Y0067650D01*
X0049714Y0067693D01*
X0049664Y0067739D01*
X0049616Y0067789D01*
X0049571Y0067840D01*
X0049529Y0067895D01*
X0049490Y0067951D01*
X0049455Y0068010D01*
X0049423Y0068071D01*
X0049395Y0068133D01*
X0049370Y0068197D01*
X0049349Y0068262D01*
X0049331Y0068328D01*
X0049318Y0068395D01*
X0049308Y0068463D01*
X0049302Y0068531D01*
X0049300Y0068600D01*
D12*
X0083739Y0070517D02*
X0083741Y0070579D01*
X0083747Y0070640D01*
X0083757Y0070701D01*
X0083771Y0070762D01*
X0083788Y0070821D01*
X0083809Y0070879D01*
X0083834Y0070935D01*
X0083863Y0070990D01*
X0083895Y0071043D01*
X0083930Y0071094D01*
X0083969Y0071142D01*
X0084011Y0071188D01*
X0084055Y0071231D01*
X0084102Y0071271D01*
X0084151Y0071308D01*
X0084203Y0071341D01*
X0084257Y0071372D01*
X0084313Y0071398D01*
X0084370Y0071422D01*
X0084429Y0071441D01*
X0084488Y0071457D01*
X0084549Y0071469D01*
X0084610Y0071477D01*
X0084672Y0071481D01*
X0084734Y0071481D01*
X0084796Y0071477D01*
X0084857Y0071469D01*
X0084918Y0071457D01*
X0084977Y0071441D01*
X0085036Y0071422D01*
X0085093Y0071398D01*
X0085149Y0071372D01*
X0085203Y0071341D01*
X0085255Y0071308D01*
X0085304Y0071271D01*
X0085351Y0071231D01*
X0085395Y0071188D01*
X0085437Y0071142D01*
X0085476Y0071094D01*
X0085511Y0071043D01*
X0085543Y0070990D01*
X0085572Y0070935D01*
X0085597Y0070879D01*
X0085618Y0070821D01*
X0085635Y0070762D01*
X0085649Y0070701D01*
X0085659Y0070640D01*
X0085665Y0070579D01*
X0085667Y0070517D01*
X0085665Y0070455D01*
X0085659Y0070394D01*
X0085649Y0070333D01*
X0085635Y0070272D01*
X0085618Y0070213D01*
X0085597Y0070155D01*
X0085572Y0070099D01*
X0085543Y0070044D01*
X0085511Y0069991D01*
X0085476Y0069940D01*
X0085437Y0069892D01*
X0085395Y0069846D01*
X0085351Y0069803D01*
X0085304Y0069763D01*
X0085255Y0069726D01*
X0085203Y0069693D01*
X0085149Y0069662D01*
X0085093Y0069636D01*
X0085036Y0069612D01*
X0084977Y0069593D01*
X0084918Y0069577D01*
X0084857Y0069565D01*
X0084796Y0069557D01*
X0084734Y0069553D01*
X0084672Y0069553D01*
X0084610Y0069557D01*
X0084549Y0069565D01*
X0084488Y0069577D01*
X0084429Y0069593D01*
X0084370Y0069612D01*
X0084313Y0069636D01*
X0084257Y0069662D01*
X0084203Y0069693D01*
X0084151Y0069726D01*
X0084102Y0069763D01*
X0084055Y0069803D01*
X0084011Y0069846D01*
X0083969Y0069892D01*
X0083930Y0069940D01*
X0083895Y0069991D01*
X0083863Y0070044D01*
X0083834Y0070099D01*
X0083809Y0070155D01*
X0083788Y0070213D01*
X0083771Y0070272D01*
X0083757Y0070333D01*
X0083747Y0070394D01*
X0083741Y0070455D01*
X0083739Y0070517D01*
X0083539Y0055117D02*
X0083541Y0055179D01*
X0083547Y0055240D01*
X0083557Y0055301D01*
X0083571Y0055362D01*
X0083588Y0055421D01*
X0083609Y0055479D01*
X0083634Y0055535D01*
X0083663Y0055590D01*
X0083695Y0055643D01*
X0083730Y0055694D01*
X0083769Y0055742D01*
X0083811Y0055788D01*
X0083855Y0055831D01*
X0083902Y0055871D01*
X0083951Y0055908D01*
X0084003Y0055941D01*
X0084057Y0055972D01*
X0084113Y0055998D01*
X0084170Y0056022D01*
X0084229Y0056041D01*
X0084288Y0056057D01*
X0084349Y0056069D01*
X0084410Y0056077D01*
X0084472Y0056081D01*
X0084534Y0056081D01*
X0084596Y0056077D01*
X0084657Y0056069D01*
X0084718Y0056057D01*
X0084777Y0056041D01*
X0084836Y0056022D01*
X0084893Y0055998D01*
X0084949Y0055972D01*
X0085003Y0055941D01*
X0085055Y0055908D01*
X0085104Y0055871D01*
X0085151Y0055831D01*
X0085195Y0055788D01*
X0085237Y0055742D01*
X0085276Y0055694D01*
X0085311Y0055643D01*
X0085343Y0055590D01*
X0085372Y0055535D01*
X0085397Y0055479D01*
X0085418Y0055421D01*
X0085435Y0055362D01*
X0085449Y0055301D01*
X0085459Y0055240D01*
X0085465Y0055179D01*
X0085467Y0055117D01*
X0085465Y0055055D01*
X0085459Y0054994D01*
X0085449Y0054933D01*
X0085435Y0054872D01*
X0085418Y0054813D01*
X0085397Y0054755D01*
X0085372Y0054699D01*
X0085343Y0054644D01*
X0085311Y0054591D01*
X0085276Y0054540D01*
X0085237Y0054492D01*
X0085195Y0054446D01*
X0085151Y0054403D01*
X0085104Y0054363D01*
X0085055Y0054326D01*
X0085003Y0054293D01*
X0084949Y0054262D01*
X0084893Y0054236D01*
X0084836Y0054212D01*
X0084777Y0054193D01*
X0084718Y0054177D01*
X0084657Y0054165D01*
X0084596Y0054157D01*
X0084534Y0054153D01*
X0084472Y0054153D01*
X0084410Y0054157D01*
X0084349Y0054165D01*
X0084288Y0054177D01*
X0084229Y0054193D01*
X0084170Y0054212D01*
X0084113Y0054236D01*
X0084057Y0054262D01*
X0084003Y0054293D01*
X0083951Y0054326D01*
X0083902Y0054363D01*
X0083855Y0054403D01*
X0083811Y0054446D01*
X0083769Y0054492D01*
X0083730Y0054540D01*
X0083695Y0054591D01*
X0083663Y0054644D01*
X0083634Y0054699D01*
X0083609Y0054755D01*
X0083588Y0054813D01*
X0083571Y0054872D01*
X0083557Y0054933D01*
X0083547Y0054994D01*
X0083541Y0055055D01*
X0083539Y0055117D01*
X0072839Y0038517D02*
X0072841Y0038579D01*
X0072847Y0038640D01*
X0072857Y0038701D01*
X0072871Y0038762D01*
X0072888Y0038821D01*
X0072909Y0038879D01*
X0072934Y0038935D01*
X0072963Y0038990D01*
X0072995Y0039043D01*
X0073030Y0039094D01*
X0073069Y0039142D01*
X0073111Y0039188D01*
X0073155Y0039231D01*
X0073202Y0039271D01*
X0073251Y0039308D01*
X0073303Y0039341D01*
X0073357Y0039372D01*
X0073413Y0039398D01*
X0073470Y0039422D01*
X0073529Y0039441D01*
X0073588Y0039457D01*
X0073649Y0039469D01*
X0073710Y0039477D01*
X0073772Y0039481D01*
X0073834Y0039481D01*
X0073896Y0039477D01*
X0073957Y0039469D01*
X0074018Y0039457D01*
X0074077Y0039441D01*
X0074136Y0039422D01*
X0074193Y0039398D01*
X0074249Y0039372D01*
X0074303Y0039341D01*
X0074355Y0039308D01*
X0074404Y0039271D01*
X0074451Y0039231D01*
X0074495Y0039188D01*
X0074537Y0039142D01*
X0074576Y0039094D01*
X0074611Y0039043D01*
X0074643Y0038990D01*
X0074672Y0038935D01*
X0074697Y0038879D01*
X0074718Y0038821D01*
X0074735Y0038762D01*
X0074749Y0038701D01*
X0074759Y0038640D01*
X0074765Y0038579D01*
X0074767Y0038517D01*
X0074765Y0038455D01*
X0074759Y0038394D01*
X0074749Y0038333D01*
X0074735Y0038272D01*
X0074718Y0038213D01*
X0074697Y0038155D01*
X0074672Y0038099D01*
X0074643Y0038044D01*
X0074611Y0037991D01*
X0074576Y0037940D01*
X0074537Y0037892D01*
X0074495Y0037846D01*
X0074451Y0037803D01*
X0074404Y0037763D01*
X0074355Y0037726D01*
X0074303Y0037693D01*
X0074249Y0037662D01*
X0074193Y0037636D01*
X0074136Y0037612D01*
X0074077Y0037593D01*
X0074018Y0037577D01*
X0073957Y0037565D01*
X0073896Y0037557D01*
X0073834Y0037553D01*
X0073772Y0037553D01*
X0073710Y0037557D01*
X0073649Y0037565D01*
X0073588Y0037577D01*
X0073529Y0037593D01*
X0073470Y0037612D01*
X0073413Y0037636D01*
X0073357Y0037662D01*
X0073303Y0037693D01*
X0073251Y0037726D01*
X0073202Y0037763D01*
X0073155Y0037803D01*
X0073111Y0037846D01*
X0073069Y0037892D01*
X0073030Y0037940D01*
X0072995Y0037991D01*
X0072963Y0038044D01*
X0072934Y0038099D01*
X0072909Y0038155D01*
X0072888Y0038213D01*
X0072871Y0038272D01*
X0072857Y0038333D01*
X0072847Y0038394D01*
X0072841Y0038455D01*
X0072839Y0038517D01*
X0032800Y0021100D02*
X0032802Y0021175D01*
X0032808Y0021249D01*
X0032818Y0021323D01*
X0032832Y0021396D01*
X0032849Y0021468D01*
X0032871Y0021540D01*
X0032896Y0021610D01*
X0032925Y0021678D01*
X0032958Y0021746D01*
X0032994Y0021811D01*
X0033033Y0021874D01*
X0033076Y0021935D01*
X0033122Y0021994D01*
X0033171Y0022050D01*
X0033223Y0022103D01*
X0033278Y0022154D01*
X0033335Y0022201D01*
X0033395Y0022246D01*
X0033457Y0022287D01*
X0033522Y0022325D01*
X0033588Y0022359D01*
X0033656Y0022390D01*
X0033725Y0022417D01*
X0033796Y0022440D01*
X0033868Y0022460D01*
X0033941Y0022476D01*
X0034014Y0022488D01*
X0034088Y0022496D01*
X0034163Y0022500D01*
X0034237Y0022500D01*
X0034312Y0022496D01*
X0034386Y0022488D01*
X0034459Y0022476D01*
X0034532Y0022460D01*
X0034604Y0022440D01*
X0034675Y0022417D01*
X0034744Y0022390D01*
X0034812Y0022359D01*
X0034878Y0022325D01*
X0034943Y0022287D01*
X0035005Y0022246D01*
X0035065Y0022201D01*
X0035122Y0022154D01*
X0035177Y0022103D01*
X0035229Y0022050D01*
X0035278Y0021994D01*
X0035324Y0021935D01*
X0035367Y0021874D01*
X0035406Y0021811D01*
X0035442Y0021746D01*
X0035475Y0021678D01*
X0035504Y0021610D01*
X0035529Y0021540D01*
X0035551Y0021468D01*
X0035568Y0021396D01*
X0035582Y0021323D01*
X0035592Y0021249D01*
X0035598Y0021175D01*
X0035600Y0021100D01*
X0035598Y0021025D01*
X0035592Y0020951D01*
X0035582Y0020877D01*
X0035568Y0020804D01*
X0035551Y0020732D01*
X0035529Y0020660D01*
X0035504Y0020590D01*
X0035475Y0020522D01*
X0035442Y0020454D01*
X0035406Y0020389D01*
X0035367Y0020326D01*
X0035324Y0020265D01*
X0035278Y0020206D01*
X0035229Y0020150D01*
X0035177Y0020097D01*
X0035122Y0020046D01*
X0035065Y0019999D01*
X0035005Y0019954D01*
X0034943Y0019913D01*
X0034878Y0019875D01*
X0034812Y0019841D01*
X0034744Y0019810D01*
X0034675Y0019783D01*
X0034604Y0019760D01*
X0034532Y0019740D01*
X0034459Y0019724D01*
X0034386Y0019712D01*
X0034312Y0019704D01*
X0034237Y0019700D01*
X0034163Y0019700D01*
X0034088Y0019704D01*
X0034014Y0019712D01*
X0033941Y0019724D01*
X0033868Y0019740D01*
X0033796Y0019760D01*
X0033725Y0019783D01*
X0033656Y0019810D01*
X0033588Y0019841D01*
X0033522Y0019875D01*
X0033457Y0019913D01*
X0033395Y0019954D01*
X0033335Y0019999D01*
X0033278Y0020046D01*
X0033223Y0020097D01*
X0033171Y0020150D01*
X0033122Y0020206D01*
X0033076Y0020265D01*
X0033033Y0020326D01*
X0032994Y0020389D01*
X0032958Y0020454D01*
X0032925Y0020522D01*
X0032896Y0020590D01*
X0032871Y0020660D01*
X0032849Y0020732D01*
X0032832Y0020804D01*
X0032818Y0020877D01*
X0032808Y0020951D01*
X0032802Y0021025D01*
X0032800Y0021100D01*
X0031239Y0041317D02*
X0031241Y0041379D01*
X0031247Y0041440D01*
X0031257Y0041501D01*
X0031271Y0041562D01*
X0031288Y0041621D01*
X0031309Y0041679D01*
X0031334Y0041735D01*
X0031363Y0041790D01*
X0031395Y0041843D01*
X0031430Y0041894D01*
X0031469Y0041942D01*
X0031511Y0041988D01*
X0031555Y0042031D01*
X0031602Y0042071D01*
X0031651Y0042108D01*
X0031703Y0042141D01*
X0031757Y0042172D01*
X0031813Y0042198D01*
X0031870Y0042222D01*
X0031929Y0042241D01*
X0031988Y0042257D01*
X0032049Y0042269D01*
X0032110Y0042277D01*
X0032172Y0042281D01*
X0032234Y0042281D01*
X0032296Y0042277D01*
X0032357Y0042269D01*
X0032418Y0042257D01*
X0032477Y0042241D01*
X0032536Y0042222D01*
X0032593Y0042198D01*
X0032649Y0042172D01*
X0032703Y0042141D01*
X0032755Y0042108D01*
X0032804Y0042071D01*
X0032851Y0042031D01*
X0032895Y0041988D01*
X0032937Y0041942D01*
X0032976Y0041894D01*
X0033011Y0041843D01*
X0033043Y0041790D01*
X0033072Y0041735D01*
X0033097Y0041679D01*
X0033118Y0041621D01*
X0033135Y0041562D01*
X0033149Y0041501D01*
X0033159Y0041440D01*
X0033165Y0041379D01*
X0033167Y0041317D01*
X0033165Y0041255D01*
X0033159Y0041194D01*
X0033149Y0041133D01*
X0033135Y0041072D01*
X0033118Y0041013D01*
X0033097Y0040955D01*
X0033072Y0040899D01*
X0033043Y0040844D01*
X0033011Y0040791D01*
X0032976Y0040740D01*
X0032937Y0040692D01*
X0032895Y0040646D01*
X0032851Y0040603D01*
X0032804Y0040563D01*
X0032755Y0040526D01*
X0032703Y0040493D01*
X0032649Y0040462D01*
X0032593Y0040436D01*
X0032536Y0040412D01*
X0032477Y0040393D01*
X0032418Y0040377D01*
X0032357Y0040365D01*
X0032296Y0040357D01*
X0032234Y0040353D01*
X0032172Y0040353D01*
X0032110Y0040357D01*
X0032049Y0040365D01*
X0031988Y0040377D01*
X0031929Y0040393D01*
X0031870Y0040412D01*
X0031813Y0040436D01*
X0031757Y0040462D01*
X0031703Y0040493D01*
X0031651Y0040526D01*
X0031602Y0040563D01*
X0031555Y0040603D01*
X0031511Y0040646D01*
X0031469Y0040692D01*
X0031430Y0040740D01*
X0031395Y0040791D01*
X0031363Y0040844D01*
X0031334Y0040899D01*
X0031309Y0040955D01*
X0031288Y0041013D01*
X0031271Y0041072D01*
X0031257Y0041133D01*
X0031247Y0041194D01*
X0031241Y0041255D01*
X0031239Y0041317D01*
D13*
X0039200Y0025800D03*
X0060700Y0020300D03*
X0060700Y0012400D03*
X0075200Y0050900D03*
X0075200Y0066400D03*
X0075100Y0071300D03*
X0075600Y0077100D03*
X0069500Y0077100D03*
X0076700Y0081500D03*
X0094900Y0095200D03*
X0099800Y0091800D03*
X0115600Y0091200D03*
X0115800Y0087700D03*
X0152300Y0088100D03*
X0152400Y0082200D03*
X0121900Y0113000D03*
X0121900Y0116400D03*
X0100800Y0121600D03*
X0095800Y0119700D03*
X0051500Y0121100D03*
D14*
X0108714Y0096266D02*
X0111850Y0093130D01*
X0110282Y0093130D02*
X0110282Y0096266D01*
X0111850Y0096266D02*
X0108714Y0093130D01*
X0108714Y0094698D02*
X0111850Y0094698D01*
X0115450Y0079270D02*
X0118586Y0076134D01*
X0117018Y0076134D02*
X0117018Y0079270D01*
X0118586Y0079270D02*
X0115450Y0076134D01*
X0115450Y0077702D02*
X0118586Y0077702D01*
X0039386Y0072470D02*
X0036250Y0069334D01*
X0036250Y0070902D02*
X0039386Y0070902D01*
X0039386Y0069334D02*
X0036250Y0072470D01*
X0037818Y0072470D02*
X0037818Y0069334D01*
X0083815Y0023818D02*
X0083031Y0023034D01*
X0083031Y0019114D01*
X0085383Y0019114D01*
X0086167Y0019898D01*
X0086167Y0021466D01*
X0085383Y0022250D01*
X0083031Y0022250D01*
X0081563Y0022250D02*
X0081563Y0019114D01*
X0079211Y0019114D01*
X0078427Y0019898D01*
X0078427Y0022250D01*
X0076959Y0021466D02*
X0076175Y0020682D01*
X0073823Y0020682D01*
X0073823Y0019898D02*
X0073823Y0022250D01*
X0076175Y0022250D01*
X0076959Y0021466D01*
X0074607Y0019114D02*
X0073823Y0019898D01*
X0074607Y0019114D02*
X0076175Y0019114D01*
X0072355Y0019114D02*
X0070787Y0019114D01*
X0071571Y0018330D02*
X0071571Y0021466D01*
X0070787Y0022250D01*
X0069286Y0021466D02*
X0069286Y0019898D01*
X0068502Y0019114D01*
X0066934Y0019114D01*
X0066150Y0019898D01*
X0066150Y0021466D01*
X0066934Y0022250D01*
X0068502Y0022250D01*
X0069286Y0021466D01*
X0064682Y0022250D02*
X0064682Y0019114D01*
X0064682Y0020682D02*
X0063114Y0019114D01*
X0062330Y0019114D01*
X0083815Y0023818D02*
X0084599Y0023818D01*
X0087668Y0022250D02*
X0089236Y0022250D01*
X0088452Y0022250D02*
X0088452Y0019114D01*
X0089236Y0019114D01*
X0090704Y0019114D02*
X0093056Y0019114D01*
X0093840Y0019898D01*
X0093056Y0020682D01*
X0091488Y0020682D01*
X0090704Y0021466D01*
X0091488Y0022250D01*
X0093840Y0022250D01*
X0095308Y0020682D02*
X0098444Y0020682D01*
X0098444Y0019898D02*
X0097660Y0019114D01*
X0096092Y0019114D01*
X0095308Y0019898D01*
X0095308Y0020682D01*
X0096092Y0022250D02*
X0097660Y0022250D01*
X0098444Y0021466D01*
X0098444Y0019898D01*
X0099912Y0021466D02*
X0099912Y0018330D01*
X0100696Y0017546D01*
X0103048Y0017546D01*
X0103048Y0022250D01*
X0100696Y0022250D01*
X0099912Y0021466D01*
X0104566Y0021466D02*
X0104566Y0022250D01*
X0105350Y0022250D01*
X0105350Y0021466D01*
X0104566Y0021466D01*
X0088452Y0017546D02*
X0088452Y0016762D01*
X0137014Y0017498D02*
X0140150Y0017498D01*
X0140150Y0015930D02*
X0137014Y0019066D01*
X0138582Y0019066D02*
X0138582Y0015930D01*
X0137014Y0015930D02*
X0140150Y0019066D01*
D15*
X0160900Y0092037D02*
X0160900Y0125502D01*
X0212081Y0125502D01*
X0212081Y0092037D01*
X0159148Y0105257D02*
X0150290Y0105257D01*
X0159148Y0105257D02*
X0159148Y0113131D01*
X0152258Y0124943D02*
X0134542Y0124943D01*
X0127652Y0113131D02*
X0127652Y0105257D01*
X0136510Y0105257D01*
X0021299Y0103624D02*
X0021299Y0094176D01*
X0008701Y0094176D01*
X0008701Y0103624D01*
X0021299Y0103624D01*
X0020512Y0101587D02*
X0020512Y0096213D01*
X0020510Y0096145D01*
X0020505Y0096078D01*
X0020496Y0096011D01*
X0020483Y0095944D01*
X0020466Y0095879D01*
X0020447Y0095814D01*
X0020423Y0095750D01*
X0020396Y0095688D01*
X0020366Y0095627D01*
X0020333Y0095569D01*
X0020297Y0095512D01*
X0020257Y0095457D01*
X0020215Y0095404D01*
X0020169Y0095353D01*
X0020122Y0095306D01*
X0020071Y0095260D01*
X0020018Y0095218D01*
X0019963Y0095178D01*
X0019906Y0095142D01*
X0019848Y0095109D01*
X0019787Y0095079D01*
X0019725Y0095052D01*
X0019661Y0095028D01*
X0019596Y0095009D01*
X0019531Y0094992D01*
X0019464Y0094979D01*
X0019397Y0094970D01*
X0019330Y0094965D01*
X0019262Y0094963D01*
X0010738Y0094963D01*
X0010670Y0094965D01*
X0010603Y0094970D01*
X0010536Y0094979D01*
X0010469Y0094992D01*
X0010404Y0095009D01*
X0010339Y0095028D01*
X0010275Y0095052D01*
X0010213Y0095079D01*
X0010152Y0095109D01*
X0010094Y0095142D01*
X0010037Y0095178D01*
X0009982Y0095218D01*
X0009929Y0095260D01*
X0009878Y0095306D01*
X0009831Y0095353D01*
X0009785Y0095404D01*
X0009743Y0095457D01*
X0009703Y0095512D01*
X0009667Y0095569D01*
X0009634Y0095627D01*
X0009604Y0095688D01*
X0009577Y0095750D01*
X0009553Y0095814D01*
X0009534Y0095879D01*
X0009517Y0095944D01*
X0009504Y0096011D01*
X0009495Y0096078D01*
X0009490Y0096145D01*
X0009488Y0096213D01*
X0009488Y0101587D01*
X0009490Y0101655D01*
X0009495Y0101722D01*
X0009504Y0101789D01*
X0009517Y0101856D01*
X0009534Y0101921D01*
X0009553Y0101986D01*
X0009577Y0102050D01*
X0009604Y0102112D01*
X0009634Y0102173D01*
X0009667Y0102231D01*
X0009703Y0102288D01*
X0009743Y0102343D01*
X0009785Y0102396D01*
X0009831Y0102447D01*
X0009878Y0102494D01*
X0009929Y0102540D01*
X0009982Y0102582D01*
X0010037Y0102622D01*
X0010094Y0102658D01*
X0010152Y0102691D01*
X0010213Y0102721D01*
X0010275Y0102748D01*
X0010339Y0102772D01*
X0010404Y0102791D01*
X0010469Y0102808D01*
X0010536Y0102821D01*
X0010603Y0102830D01*
X0010670Y0102835D01*
X0010738Y0102837D01*
X0019262Y0102837D01*
X0019330Y0102835D01*
X0019397Y0102830D01*
X0019464Y0102821D01*
X0019531Y0102808D01*
X0019596Y0102791D01*
X0019661Y0102772D01*
X0019725Y0102748D01*
X0019787Y0102721D01*
X0019848Y0102691D01*
X0019906Y0102658D01*
X0019963Y0102622D01*
X0020018Y0102582D01*
X0020071Y0102540D01*
X0020122Y0102494D01*
X0020169Y0102447D01*
X0020215Y0102396D01*
X0020257Y0102343D01*
X0020297Y0102288D01*
X0020333Y0102231D01*
X0020366Y0102173D01*
X0020396Y0102112D01*
X0020423Y0102050D01*
X0020447Y0101986D01*
X0020466Y0101921D01*
X0020483Y0101856D01*
X0020496Y0101789D01*
X0020505Y0101722D01*
X0020510Y0101655D01*
X0020512Y0101587D01*
D16*
X0035901Y0110302D02*
X0037298Y0111699D01*
X0063499Y0111699D01*
X0063499Y0084101D01*
X0035901Y0084101D01*
X0035901Y0110302D01*
X0034700Y0112400D02*
X0034702Y0112449D01*
X0034708Y0112497D01*
X0034718Y0112545D01*
X0034732Y0112592D01*
X0034749Y0112638D01*
X0034770Y0112682D01*
X0034795Y0112724D01*
X0034823Y0112764D01*
X0034855Y0112802D01*
X0034889Y0112837D01*
X0034926Y0112869D01*
X0034965Y0112898D01*
X0035007Y0112924D01*
X0035051Y0112946D01*
X0035096Y0112964D01*
X0035143Y0112979D01*
X0035190Y0112990D01*
X0035239Y0112997D01*
X0035288Y0113000D01*
X0035337Y0112999D01*
X0035385Y0112994D01*
X0035434Y0112985D01*
X0035481Y0112972D01*
X0035527Y0112955D01*
X0035571Y0112935D01*
X0035614Y0112911D01*
X0035655Y0112884D01*
X0035693Y0112853D01*
X0035729Y0112820D01*
X0035761Y0112784D01*
X0035791Y0112745D01*
X0035818Y0112704D01*
X0035841Y0112660D01*
X0035860Y0112615D01*
X0035876Y0112569D01*
X0035888Y0112522D01*
X0035896Y0112473D01*
X0035900Y0112424D01*
X0035900Y0112376D01*
X0035896Y0112327D01*
X0035888Y0112278D01*
X0035876Y0112231D01*
X0035860Y0112185D01*
X0035841Y0112140D01*
X0035818Y0112096D01*
X0035791Y0112055D01*
X0035761Y0112016D01*
X0035729Y0111980D01*
X0035693Y0111947D01*
X0035655Y0111916D01*
X0035614Y0111889D01*
X0035571Y0111865D01*
X0035527Y0111845D01*
X0035481Y0111828D01*
X0035434Y0111815D01*
X0035385Y0111806D01*
X0035337Y0111801D01*
X0035288Y0111800D01*
X0035239Y0111803D01*
X0035190Y0111810D01*
X0035143Y0111821D01*
X0035096Y0111836D01*
X0035051Y0111854D01*
X0035007Y0111876D01*
X0034965Y0111902D01*
X0034926Y0111931D01*
X0034889Y0111963D01*
X0034855Y0111998D01*
X0034823Y0112036D01*
X0034795Y0112076D01*
X0034770Y0112118D01*
X0034749Y0112162D01*
X0034732Y0112208D01*
X0034718Y0112255D01*
X0034708Y0112303D01*
X0034702Y0112351D01*
X0034700Y0112400D01*
D17*
X0034800Y0108200D02*
X0034800Y0088200D01*
X0064800Y0088200D01*
X0064800Y0108200D01*
X0034800Y0108200D01*
D18*
X0132278Y0093902D02*
X0135547Y0093902D01*
X0133912Y0095537D02*
X0133912Y0092267D01*
X0152691Y0093902D02*
X0155960Y0093902D01*
M02*
