%
M48
M72
T01C0.01000
T02C0.02200
T03C0.02800
T04C0.03543
T05C0.03700
T06C0.11024
%
T01
X42250Y31800
X54250Y19300
X64250Y26800
X68250Y23800
X81250Y20800
X86250Y20800
X86250Y14800
X81250Y14800
X85250Y29800
X63250Y43800
X63250Y49800
X63250Y55800
X72250Y67800
X79250Y82800
X83250Y85800
X71250Y83800
X61250Y85800
X71250Y99800
X68250Y105800
X78250Y102800
X79750Y114300
X84250Y117300
X71250Y116800
X68250Y123800
X71250Y131800
X82250Y131800
X97250Y139800
X95250Y147800
X97250Y155800
X113250Y161800
X120250Y155800
X125250Y148800
X125250Y143800
X125250Y136800
X125250Y130800
X105250Y133800
X104250Y127800
X100250Y124800
X99250Y118800
X102250Y110800
X103750Y93300
X101250Y83800
X104250Y73800
X125250Y85800
X125250Y91800
X128250Y79800
X132250Y75800
X154250Y72800
X166250Y72800
X171250Y80800
X178250Y72800
X182250Y61800
X192250Y67800
X203250Y88800
X171250Y90800
X149250Y105800
X159250Y118800
X149250Y119800
X125250Y112800
X125250Y104800
X74250Y145300
X79250Y147800
X71250Y152800
X66250Y155800
X57250Y155800
X49250Y152800
X44250Y159800
X33250Y144800
X43250Y140800
X66250Y144800
X53250Y116800
X55250Y101800
X113250Y148800
X125250Y166800
X180250Y118800
X188250Y125800
X190250Y165800
X156250Y56800
X147250Y43800
X139250Y40800
X128250Y39800
X123250Y45800
X133250Y52800
X162250Y35800
X166250Y35800
X170250Y35800
X176250Y28800
X190250Y36800
X201250Y44800
X157250Y27800
X157250Y18800
X145250Y16800
X92250Y51800
X87250Y51800
X83250Y51800
X79250Y51800
T02
X42250Y72800
X42250Y77800
X42250Y82800
X42250Y87800
X42250Y92800
X42250Y97800
X42250Y102800
X42250Y107800
X42250Y112800
X42250Y117800
T03
X141376Y95737
X149250Y95737
X149250Y87863
X141376Y87863
X157124Y87863
X157124Y95737
T04
X205793Y107139
X205793Y124461
X213006Y80989
X213006Y54217
T05
X26250Y77800
X26250Y95300
X26250Y112800
T06
X16030Y17580
X16030Y166020
X212470Y166020
X212470Y17580
M30
