G75*
%MOIN*%
%OFA0B0*%
%FSLAX25Y25*%
%IPPOS*%
%LPD*%
%AMOC8*
5,1,8,0,0,1.08239X$1,22.5*
%
%ADD10C,0.04800*%
%ADD11C,0.04200*%
%ADD12C,0.02600*%
%ADD13C,0.01600*%
%ADD14C,0.01000*%
D10*
X0141376Y0087863D03*
X0149250Y0087863D03*
X0149250Y0095737D03*
X0141376Y0095737D03*
X0157124Y0095737D03*
X0157124Y0087863D03*
D11*
X0042250Y0087800D03*
X0042250Y0082800D03*
X0042250Y0077800D03*
X0042250Y0072800D03*
X0042250Y0092800D03*
X0042250Y0097800D03*
X0042250Y0102800D03*
X0042250Y0107800D03*
X0042250Y0112800D03*
X0042250Y0117800D03*
D12*
X0053250Y0116800D03*
X0068250Y0123800D03*
X0071250Y0116800D03*
X0079750Y0114300D03*
X0084250Y0117300D03*
X0099250Y0118800D03*
X0100250Y0124800D03*
X0104250Y0127800D03*
X0105250Y0133800D03*
X0097250Y0139800D03*
X0095250Y0147800D03*
X0097250Y0155800D03*
X0113250Y0161800D03*
X0120250Y0155800D03*
X0125250Y0148800D03*
X0125250Y0143800D03*
X0125250Y0136800D03*
X0125250Y0130800D03*
X0125250Y0112800D03*
X0125250Y0104800D03*
X0125250Y0091800D03*
X0125250Y0085800D03*
X0128250Y0079800D03*
X0132250Y0075800D03*
X0154250Y0072800D03*
X0166250Y0072800D03*
X0171250Y0080800D03*
X0178250Y0072800D03*
X0182250Y0061800D03*
X0192250Y0067800D03*
X0203250Y0088800D03*
X0171250Y0090800D03*
X0149250Y0105800D03*
X0159250Y0118800D03*
X0149250Y0119800D03*
X0180250Y0118800D03*
X0188250Y0125800D03*
X0190250Y0165800D03*
X0125250Y0166800D03*
X0113250Y0148800D03*
X0082250Y0131800D03*
X0071250Y0131800D03*
X0066250Y0144800D03*
X0074250Y0145300D03*
X0079250Y0147800D03*
X0071250Y0152800D03*
X0066250Y0155800D03*
X0057250Y0155800D03*
X0049250Y0152800D03*
X0044250Y0159800D03*
X0033250Y0144800D03*
X0043250Y0140800D03*
X0068250Y0105800D03*
X0071250Y0099800D03*
X0078250Y0102800D03*
X0083250Y0085800D03*
X0079250Y0082800D03*
X0071250Y0083800D03*
X0061250Y0085800D03*
X0055250Y0101800D03*
X0072250Y0067800D03*
X0063250Y0055800D03*
X0063250Y0049800D03*
X0063250Y0043800D03*
X0079250Y0051800D03*
X0083250Y0051800D03*
X0087250Y0051800D03*
X0092250Y0051800D03*
X0085250Y0029800D03*
X0086250Y0020800D03*
X0081250Y0020800D03*
X0081250Y0014800D03*
X0086250Y0014800D03*
X0068250Y0023800D03*
X0064250Y0026800D03*
X0054250Y0019300D03*
X0042250Y0031800D03*
X0104250Y0073800D03*
X0101250Y0083800D03*
X0103750Y0093300D03*
X0102250Y0110800D03*
X0156250Y0056800D03*
X0147250Y0043800D03*
X0139250Y0040800D03*
X0128250Y0039800D03*
X0123250Y0045800D03*
X0133250Y0052800D03*
X0162250Y0035800D03*
X0166250Y0035800D03*
X0170250Y0035800D03*
X0176250Y0028800D03*
X0190250Y0036800D03*
X0201250Y0044800D03*
X0157250Y0027800D03*
X0157250Y0018800D03*
X0145250Y0016800D03*
D13*
X0022361Y0009328D02*
X0021100Y0008600D01*
X0118250Y0008600D01*
X0118250Y0153699D01*
X0117791Y0154157D01*
X0117350Y0155223D01*
X0117350Y0156377D01*
X0117791Y0157443D01*
X0118250Y0157901D01*
X0118250Y0175000D01*
X0021100Y0175000D01*
X0022361Y0174272D01*
X0024281Y0172352D01*
X0025639Y0170001D01*
X0026341Y0167378D01*
X0026341Y0164663D01*
X0025639Y0162040D01*
X0024281Y0159689D01*
X0022361Y0157769D01*
X0020010Y0156411D01*
X0017387Y0155709D01*
X0014672Y0155709D01*
X0012049Y0156411D01*
X0009698Y0157769D01*
X0007778Y0159689D01*
X0007050Y0160950D01*
X0007050Y0022650D01*
X0007778Y0023911D01*
X0009698Y0025831D01*
X0012049Y0027189D01*
X0014672Y0027891D01*
X0017387Y0027891D01*
X0020010Y0027189D01*
X0022361Y0025831D01*
X0024281Y0023911D01*
X0025639Y0021560D01*
X0026341Y0018937D01*
X0026341Y0016222D01*
X0025639Y0013599D01*
X0024281Y0011248D01*
X0022361Y0009328D01*
X0023227Y0010194D02*
X0118250Y0010194D01*
X0118250Y0011793D02*
X0024595Y0011793D01*
X0025518Y0013391D02*
X0078695Y0013391D01*
X0078791Y0013157D02*
X0079607Y0012341D01*
X0080673Y0011900D01*
X0081827Y0011900D01*
X0082893Y0012341D01*
X0083708Y0013157D01*
X0083750Y0013257D01*
X0083791Y0013157D01*
X0084607Y0012341D01*
X0085673Y0011900D01*
X0086827Y0011900D01*
X0087893Y0012341D01*
X0088708Y0013157D01*
X0089150Y0014223D01*
X0089150Y0015377D01*
X0088708Y0016443D01*
X0087893Y0017258D01*
X0086827Y0017700D01*
X0085673Y0017700D01*
X0084607Y0017258D01*
X0083791Y0016443D01*
X0083750Y0016343D01*
X0083708Y0016443D01*
X0082893Y0017258D01*
X0081827Y0017700D01*
X0080673Y0017700D01*
X0079607Y0017258D01*
X0078791Y0016443D01*
X0078350Y0015377D01*
X0078350Y0014223D01*
X0078791Y0013157D01*
X0078350Y0014990D02*
X0026011Y0014990D01*
X0026341Y0016588D02*
X0053219Y0016588D01*
X0053673Y0016400D02*
X0054827Y0016400D01*
X0055893Y0016841D01*
X0056708Y0017657D01*
X0057150Y0018723D01*
X0057150Y0019877D01*
X0056708Y0020943D01*
X0055893Y0021758D01*
X0054827Y0022200D01*
X0053673Y0022200D01*
X0052607Y0021758D01*
X0051791Y0020943D01*
X0051350Y0019877D01*
X0051350Y0018723D01*
X0051791Y0017657D01*
X0052607Y0016841D01*
X0053673Y0016400D01*
X0055281Y0016588D02*
X0078937Y0016588D01*
X0079607Y0018341D02*
X0080673Y0017900D01*
X0081827Y0017900D01*
X0082893Y0018341D01*
X0083708Y0019157D01*
X0083750Y0019257D01*
X0083791Y0019157D01*
X0084607Y0018341D01*
X0085673Y0017900D01*
X0086827Y0017900D01*
X0087893Y0018341D01*
X0088708Y0019157D01*
X0089150Y0020223D01*
X0089150Y0021377D01*
X0088708Y0022443D01*
X0087893Y0023258D01*
X0086827Y0023700D01*
X0085673Y0023700D01*
X0084607Y0023258D01*
X0083791Y0022443D01*
X0083750Y0022342D01*
X0083708Y0022443D01*
X0082893Y0023258D01*
X0081827Y0023700D01*
X0080673Y0023700D01*
X0079607Y0023258D01*
X0078791Y0022443D01*
X0078350Y0021377D01*
X0078350Y0020223D01*
X0078791Y0019157D01*
X0079607Y0018341D01*
X0079981Y0018187D02*
X0056928Y0018187D01*
X0057150Y0019785D02*
X0078531Y0019785D01*
X0078353Y0021384D02*
X0056268Y0021384D01*
X0052232Y0021384D02*
X0025686Y0021384D01*
X0026114Y0019785D02*
X0051350Y0019785D01*
X0051572Y0018187D02*
X0026341Y0018187D01*
X0024817Y0022982D02*
X0079331Y0022982D01*
X0083169Y0022982D02*
X0084331Y0022982D01*
X0088169Y0022982D02*
X0118250Y0022982D01*
X0118250Y0021384D02*
X0089147Y0021384D01*
X0088969Y0019785D02*
X0118250Y0019785D01*
X0118250Y0018187D02*
X0087519Y0018187D01*
X0088563Y0016588D02*
X0118250Y0016588D01*
X0118250Y0014990D02*
X0089150Y0014990D01*
X0088805Y0013391D02*
X0118250Y0013391D01*
X0118250Y0024581D02*
X0023611Y0024581D01*
X0021758Y0026179D02*
X0118250Y0026179D01*
X0118250Y0027778D02*
X0087329Y0027778D01*
X0087708Y0028157D02*
X0086893Y0027341D01*
X0085827Y0026900D01*
X0084673Y0026900D01*
X0083607Y0027341D01*
X0082791Y0028157D01*
X0082350Y0029223D01*
X0082350Y0030377D01*
X0082791Y0031443D01*
X0083607Y0032258D01*
X0084673Y0032700D01*
X0085827Y0032700D01*
X0086893Y0032258D01*
X0087708Y0031443D01*
X0088150Y0030377D01*
X0088150Y0029223D01*
X0087708Y0028157D01*
X0088150Y0029376D02*
X0118250Y0029376D01*
X0118250Y0030975D02*
X0087902Y0030975D01*
X0086133Y0032573D02*
X0118250Y0032573D01*
X0118250Y0034172D02*
X0043979Y0034172D01*
X0043893Y0034258D02*
X0042827Y0034700D01*
X0041673Y0034700D01*
X0040607Y0034258D01*
X0039791Y0033443D01*
X0039350Y0032377D01*
X0039350Y0031223D01*
X0039791Y0030157D01*
X0040607Y0029341D01*
X0041673Y0028900D01*
X0042827Y0028900D01*
X0043893Y0029341D01*
X0044708Y0030157D01*
X0045150Y0031223D01*
X0045150Y0032377D01*
X0044708Y0033443D01*
X0043893Y0034258D01*
X0045069Y0032573D02*
X0084367Y0032573D01*
X0082598Y0030975D02*
X0045047Y0030975D01*
X0043927Y0029376D02*
X0082350Y0029376D01*
X0083171Y0027778D02*
X0017811Y0027778D01*
X0014248Y0027778D02*
X0007050Y0027778D01*
X0007050Y0029376D02*
X0040573Y0029376D01*
X0039453Y0030975D02*
X0007050Y0030975D01*
X0007050Y0032573D02*
X0039431Y0032573D01*
X0040520Y0034172D02*
X0007050Y0034172D01*
X0007050Y0035770D02*
X0118250Y0035770D01*
X0118250Y0037369D02*
X0007050Y0037369D01*
X0007050Y0038967D02*
X0118250Y0038967D01*
X0118250Y0040566D02*
X0007050Y0040566D01*
X0007050Y0042164D02*
X0060789Y0042164D01*
X0060791Y0042157D02*
X0061607Y0041341D01*
X0062673Y0040900D01*
X0063827Y0040900D01*
X0064893Y0041341D01*
X0065708Y0042157D01*
X0066150Y0043223D01*
X0066150Y0044377D01*
X0065708Y0045443D01*
X0064893Y0046258D01*
X0063827Y0046700D01*
X0062673Y0046700D01*
X0061607Y0046258D01*
X0060791Y0045443D01*
X0060350Y0044377D01*
X0060350Y0043223D01*
X0060791Y0042157D01*
X0060350Y0043763D02*
X0007050Y0043763D01*
X0007050Y0045361D02*
X0060758Y0045361D01*
X0065742Y0045361D02*
X0118250Y0045361D01*
X0118250Y0043763D02*
X0066150Y0043763D01*
X0065711Y0042164D02*
X0118250Y0042164D01*
X0121250Y0042164D02*
X0136676Y0042164D01*
X0136791Y0042443D02*
X0136350Y0041377D01*
X0136350Y0040223D01*
X0136791Y0039157D01*
X0137607Y0038341D01*
X0138673Y0037900D01*
X0139827Y0037900D01*
X0140893Y0038341D01*
X0141708Y0039157D01*
X0142150Y0040223D01*
X0142150Y0041377D01*
X0141708Y0042443D01*
X0140893Y0043258D01*
X0139827Y0043700D01*
X0138673Y0043700D01*
X0137607Y0043258D01*
X0136791Y0042443D01*
X0136350Y0040566D02*
X0121250Y0040566D01*
X0121250Y0038967D02*
X0136982Y0038967D01*
X0141518Y0038967D02*
X0186399Y0038967D01*
X0186382Y0037369D02*
X0172739Y0037369D01*
X0172708Y0037443D02*
X0171893Y0038258D01*
X0170827Y0038700D01*
X0169673Y0038700D01*
X0168607Y0038258D01*
X0168250Y0037901D01*
X0167893Y0038258D01*
X0166827Y0038700D01*
X0165673Y0038700D01*
X0164607Y0038258D01*
X0164250Y0037901D01*
X0163893Y0038258D01*
X0162827Y0038700D01*
X0161673Y0038700D01*
X0160607Y0038258D01*
X0159791Y0037443D01*
X0159350Y0036377D01*
X0159350Y0035223D01*
X0159791Y0034157D01*
X0160607Y0033341D01*
X0161673Y0032900D01*
X0162827Y0032900D01*
X0163893Y0033341D01*
X0164250Y0033699D01*
X0164607Y0033341D01*
X0165673Y0032900D01*
X0166827Y0032900D01*
X0167893Y0033341D01*
X0168250Y0033699D01*
X0168607Y0033341D01*
X0169673Y0032900D01*
X0170827Y0032900D01*
X0171893Y0033341D01*
X0172708Y0034157D01*
X0173150Y0035223D01*
X0173150Y0036377D01*
X0172708Y0037443D01*
X0173150Y0035770D02*
X0186365Y0035770D01*
X0186349Y0034172D02*
X0172714Y0034172D01*
X0174607Y0031258D02*
X0173791Y0030443D01*
X0173350Y0029377D01*
X0173350Y0028223D01*
X0173360Y0028200D01*
X0170244Y0028200D01*
X0168609Y0029835D01*
X0167727Y0030200D01*
X0158951Y0030200D01*
X0158893Y0030258D01*
X0157827Y0030700D01*
X0156673Y0030700D01*
X0155607Y0030258D01*
X0154791Y0029443D01*
X0154350Y0028377D01*
X0154350Y0027223D01*
X0154791Y0026157D01*
X0155607Y0025341D01*
X0155783Y0025269D01*
X0121250Y0025800D01*
X0121250Y0043699D01*
X0121607Y0043341D01*
X0122673Y0042900D01*
X0123827Y0042900D01*
X0124893Y0043341D01*
X0125708Y0044157D01*
X0126150Y0045223D01*
X0126150Y0046377D01*
X0125708Y0047443D01*
X0124893Y0048258D01*
X0123827Y0048700D01*
X0122673Y0048700D01*
X0121607Y0048258D01*
X0121250Y0047901D01*
X0121250Y0094400D01*
X0123949Y0094400D01*
X0123607Y0094258D01*
X0122791Y0093443D01*
X0122350Y0092377D01*
X0122350Y0091223D01*
X0122791Y0090157D01*
X0123607Y0089341D01*
X0124673Y0088900D01*
X0125827Y0088900D01*
X0126893Y0089341D01*
X0127708Y0090157D01*
X0128150Y0091223D01*
X0128150Y0092377D01*
X0127708Y0093443D01*
X0126893Y0094258D01*
X0126139Y0094571D01*
X0126609Y0094765D01*
X0127285Y0095441D01*
X0127650Y0096323D01*
X0127650Y0103099D01*
X0127708Y0103157D01*
X0128150Y0104223D01*
X0128150Y0105377D01*
X0127708Y0106443D01*
X0126893Y0107258D01*
X0125827Y0107700D01*
X0124673Y0107700D01*
X0123607Y0107258D01*
X0122791Y0106443D01*
X0122350Y0105377D01*
X0122350Y0104223D01*
X0122791Y0103157D01*
X0122850Y0103099D01*
X0122850Y0099200D01*
X0121250Y0099200D01*
X0121250Y0119800D01*
X0130850Y0119800D01*
X0130850Y0081101D01*
X0130708Y0081443D01*
X0129893Y0082258D01*
X0128827Y0082700D01*
X0127673Y0082700D01*
X0126607Y0082258D01*
X0125791Y0081443D01*
X0125350Y0080377D01*
X0125350Y0079223D01*
X0125791Y0078157D01*
X0126607Y0077341D01*
X0127673Y0076900D01*
X0128827Y0076900D01*
X0129720Y0077270D01*
X0129350Y0076377D01*
X0129350Y0075223D01*
X0129791Y0074157D01*
X0130607Y0073341D01*
X0131673Y0072900D01*
X0132827Y0072900D01*
X0133850Y0073324D01*
X0133850Y0070794D01*
X0131215Y0068159D01*
X0130850Y0067277D01*
X0130850Y0054501D01*
X0130791Y0054443D01*
X0130350Y0053377D01*
X0130350Y0052223D01*
X0130791Y0051157D01*
X0131607Y0050341D01*
X0132673Y0049900D01*
X0133827Y0049900D01*
X0134893Y0050341D01*
X0135708Y0051157D01*
X0136150Y0052223D01*
X0136150Y0053377D01*
X0135708Y0054443D01*
X0135650Y0054501D01*
X0135650Y0065806D01*
X0137609Y0067765D01*
X0138285Y0068441D01*
X0138650Y0069323D01*
X0138650Y0078277D01*
X0138285Y0079159D01*
X0135650Y0081794D01*
X0135650Y0119800D01*
X0146350Y0119800D01*
X0146350Y0119223D01*
X0146791Y0118157D01*
X0147607Y0117341D01*
X0148673Y0116900D01*
X0149827Y0116900D01*
X0150893Y0117341D01*
X0151708Y0118157D01*
X0152150Y0119223D01*
X0152150Y0119800D01*
X0156525Y0119800D01*
X0156350Y0119377D01*
X0156350Y0118223D01*
X0156791Y0117157D01*
X0157607Y0116341D01*
X0158673Y0115900D01*
X0159827Y0115900D01*
X0160893Y0116341D01*
X0161708Y0117157D01*
X0162150Y0118223D01*
X0162150Y0119377D01*
X0161975Y0119800D01*
X0177525Y0119800D01*
X0177350Y0119377D01*
X0177350Y0118223D01*
X0177791Y0117157D01*
X0178607Y0116341D01*
X0179673Y0115900D01*
X0180827Y0115900D01*
X0181893Y0116341D01*
X0182708Y0117157D01*
X0183150Y0118223D01*
X0183150Y0119377D01*
X0182975Y0119800D01*
X0187250Y0119800D01*
X0186307Y0030251D01*
X0184256Y0028200D01*
X0179140Y0028200D01*
X0179150Y0028223D01*
X0179150Y0029377D01*
X0178708Y0030443D01*
X0177893Y0031258D01*
X0176827Y0031700D01*
X0175673Y0031700D01*
X0174607Y0031258D01*
X0174323Y0030975D02*
X0121250Y0030975D01*
X0121250Y0032573D02*
X0186332Y0032573D01*
X0186315Y0030975D02*
X0178177Y0030975D01*
X0179150Y0029376D02*
X0185432Y0029376D01*
X0185250Y0025800D02*
X0190250Y0030800D01*
X0190250Y0036800D01*
X0186416Y0040566D02*
X0142150Y0040566D01*
X0141824Y0042164D02*
X0144789Y0042164D01*
X0144791Y0042157D02*
X0145607Y0041341D01*
X0146673Y0040900D01*
X0147827Y0040900D01*
X0148893Y0041341D01*
X0149708Y0042157D01*
X0150150Y0043223D01*
X0150150Y0044377D01*
X0149708Y0045443D01*
X0148893Y0046258D01*
X0147827Y0046700D01*
X0146673Y0046700D01*
X0145607Y0046258D01*
X0144791Y0045443D01*
X0144350Y0044377D01*
X0144350Y0043223D01*
X0144791Y0042157D01*
X0144350Y0043763D02*
X0125314Y0043763D01*
X0126150Y0045361D02*
X0144758Y0045361D01*
X0149742Y0045361D02*
X0186466Y0045361D01*
X0186450Y0043763D02*
X0150150Y0043763D01*
X0149711Y0042164D02*
X0186433Y0042164D01*
X0186483Y0046960D02*
X0125909Y0046960D01*
X0124169Y0048558D02*
X0186500Y0048558D01*
X0186517Y0050157D02*
X0134447Y0050157D01*
X0135956Y0051755D02*
X0186534Y0051755D01*
X0186551Y0053354D02*
X0136150Y0053354D01*
X0135650Y0054952D02*
X0153996Y0054952D01*
X0153791Y0055157D02*
X0154607Y0054341D01*
X0155673Y0053900D01*
X0156827Y0053900D01*
X0157893Y0054341D01*
X0158708Y0055157D01*
X0159150Y0056223D01*
X0159150Y0057377D01*
X0158708Y0058443D01*
X0157893Y0059258D01*
X0156827Y0059700D01*
X0155673Y0059700D01*
X0154607Y0059258D01*
X0153791Y0058443D01*
X0153350Y0057377D01*
X0153350Y0056223D01*
X0153791Y0055157D01*
X0153350Y0056551D02*
X0135650Y0056551D01*
X0135650Y0058149D02*
X0153670Y0058149D01*
X0158504Y0054952D02*
X0186567Y0054952D01*
X0186584Y0056551D02*
X0159150Y0056551D01*
X0158830Y0058149D02*
X0186601Y0058149D01*
X0186618Y0059748D02*
X0184299Y0059748D01*
X0183893Y0059341D02*
X0184708Y0060157D01*
X0185150Y0061223D01*
X0185150Y0062377D01*
X0184708Y0063443D01*
X0183893Y0064258D01*
X0182827Y0064700D01*
X0181673Y0064700D01*
X0180607Y0064258D01*
X0179791Y0063443D01*
X0179350Y0062377D01*
X0179350Y0061223D01*
X0179791Y0060157D01*
X0180607Y0059341D01*
X0181673Y0058900D01*
X0182827Y0058900D01*
X0183893Y0059341D01*
X0185150Y0061346D02*
X0186635Y0061346D01*
X0186652Y0062945D02*
X0184915Y0062945D01*
X0183205Y0064543D02*
X0186668Y0064543D01*
X0186685Y0066142D02*
X0135986Y0066142D01*
X0135650Y0064543D02*
X0181295Y0064543D01*
X0179585Y0062945D02*
X0135650Y0062945D01*
X0135650Y0061346D02*
X0179350Y0061346D01*
X0180201Y0059748D02*
X0135650Y0059748D01*
X0130850Y0059748D02*
X0121250Y0059748D01*
X0121250Y0061346D02*
X0130850Y0061346D01*
X0130850Y0062945D02*
X0121250Y0062945D01*
X0121250Y0064543D02*
X0130850Y0064543D01*
X0130850Y0066142D02*
X0121250Y0066142D01*
X0121250Y0067740D02*
X0131042Y0067740D01*
X0132395Y0069339D02*
X0121250Y0069339D01*
X0121250Y0070937D02*
X0133850Y0070937D01*
X0133850Y0072536D02*
X0121250Y0072536D01*
X0121250Y0074134D02*
X0129814Y0074134D01*
X0129350Y0075733D02*
X0121250Y0075733D01*
X0121250Y0077332D02*
X0126631Y0077332D01*
X0125471Y0078930D02*
X0121250Y0078930D01*
X0121250Y0080529D02*
X0125413Y0080529D01*
X0126476Y0082127D02*
X0121250Y0082127D01*
X0121250Y0083726D02*
X0123223Y0083726D01*
X0123607Y0083341D02*
X0124673Y0082900D01*
X0125827Y0082900D01*
X0126893Y0083341D01*
X0127708Y0084157D01*
X0128150Y0085223D01*
X0128150Y0086377D01*
X0127708Y0087443D01*
X0126893Y0088258D01*
X0125827Y0088700D01*
X0124673Y0088700D01*
X0123607Y0088258D01*
X0122791Y0087443D01*
X0122350Y0086377D01*
X0122350Y0085223D01*
X0122791Y0084157D01*
X0123607Y0083341D01*
X0122350Y0085324D02*
X0121250Y0085324D01*
X0121250Y0086923D02*
X0122576Y0086923D01*
X0121250Y0088521D02*
X0124241Y0088521D01*
X0126259Y0088521D02*
X0130850Y0088521D01*
X0130850Y0086923D02*
X0127924Y0086923D01*
X0128150Y0085324D02*
X0130850Y0085324D01*
X0130850Y0083726D02*
X0127277Y0083726D01*
X0130024Y0082127D02*
X0130850Y0082127D01*
X0133250Y0080800D02*
X0133250Y0163517D01*
X0130250Y0166517D01*
X0125533Y0166517D01*
X0125250Y0166800D01*
X0118250Y0166848D02*
X0026341Y0166848D01*
X0026341Y0165250D02*
X0118250Y0165250D01*
X0118250Y0163651D02*
X0115500Y0163651D01*
X0115708Y0163443D02*
X0114893Y0164258D01*
X0113827Y0164700D01*
X0112673Y0164700D01*
X0111607Y0164258D01*
X0110791Y0163443D01*
X0110350Y0162377D01*
X0110350Y0161223D01*
X0110791Y0160157D01*
X0111607Y0159341D01*
X0112673Y0158900D01*
X0113827Y0158900D01*
X0114893Y0159341D01*
X0115708Y0160157D01*
X0116150Y0161223D01*
X0116150Y0162377D01*
X0115708Y0163443D01*
X0116150Y0162053D02*
X0118250Y0162053D01*
X0118250Y0160454D02*
X0115831Y0160454D01*
X0118250Y0158856D02*
X0046998Y0158856D01*
X0047150Y0159223D02*
X0047150Y0160377D01*
X0046708Y0161443D01*
X0045893Y0162258D01*
X0044827Y0162700D01*
X0043673Y0162700D01*
X0042607Y0162258D01*
X0041791Y0161443D01*
X0041350Y0160377D01*
X0041350Y0159223D01*
X0041791Y0158157D01*
X0042150Y0157799D01*
X0042150Y0149930D01*
X0045150Y0146930D01*
X0045150Y0143001D01*
X0044893Y0143258D01*
X0043827Y0143700D01*
X0042673Y0143700D01*
X0041607Y0143258D01*
X0040791Y0142443D01*
X0040350Y0141377D01*
X0040350Y0140223D01*
X0040791Y0139157D01*
X0041607Y0138341D01*
X0042673Y0137900D01*
X0043827Y0137900D01*
X0044893Y0138341D01*
X0045150Y0138599D01*
X0045150Y0120930D01*
X0046150Y0119930D01*
X0046150Y0114900D01*
X0045383Y0114900D01*
X0044983Y0115300D01*
X0045387Y0115704D01*
X0045950Y0117064D01*
X0045950Y0118536D01*
X0045387Y0119896D01*
X0044346Y0120937D01*
X0042986Y0121500D01*
X0041514Y0121500D01*
X0040154Y0120937D01*
X0039113Y0119896D01*
X0038550Y0118536D01*
X0038550Y0117064D01*
X0039113Y0115704D01*
X0039517Y0115300D01*
X0039113Y0114896D01*
X0038550Y0113536D01*
X0038550Y0112064D01*
X0039113Y0110704D01*
X0039517Y0110300D01*
X0039117Y0109900D01*
X0037350Y0109900D01*
X0037350Y0137670D01*
X0035350Y0139670D01*
X0035350Y0142799D01*
X0035708Y0143157D01*
X0036150Y0144223D01*
X0036150Y0145377D01*
X0035708Y0146443D01*
X0034893Y0147258D01*
X0033827Y0147700D01*
X0032673Y0147700D01*
X0031607Y0147258D01*
X0030791Y0146443D01*
X0030350Y0145377D01*
X0030350Y0144223D01*
X0030791Y0143157D01*
X0031150Y0142799D01*
X0031150Y0137930D01*
X0032380Y0136700D01*
X0033150Y0135930D01*
X0033150Y0107930D01*
X0034380Y0106700D01*
X0035380Y0105700D01*
X0039117Y0105700D01*
X0039517Y0105300D01*
X0039113Y0104896D01*
X0038550Y0103536D01*
X0038550Y0102064D01*
X0039113Y0100704D01*
X0039517Y0100300D01*
X0039113Y0099896D01*
X0038550Y0098536D01*
X0038550Y0097064D01*
X0039113Y0095704D01*
X0039517Y0095300D01*
X0039113Y0094896D01*
X0038550Y0093536D01*
X0038550Y0092064D01*
X0039113Y0090704D01*
X0039517Y0090300D01*
X0039113Y0089896D01*
X0038550Y0088536D01*
X0038550Y0087064D01*
X0039113Y0085704D01*
X0039517Y0085300D01*
X0039113Y0084896D01*
X0038550Y0083536D01*
X0038550Y0082064D01*
X0039113Y0080704D01*
X0039517Y0080300D01*
X0039113Y0079896D01*
X0038550Y0078536D01*
X0038550Y0077064D01*
X0039113Y0075704D01*
X0039517Y0075300D01*
X0039113Y0074896D01*
X0038550Y0073536D01*
X0038550Y0072064D01*
X0039113Y0070704D01*
X0040154Y0069663D01*
X0041514Y0069100D01*
X0042986Y0069100D01*
X0044346Y0069663D01*
X0045387Y0070704D01*
X0045950Y0072064D01*
X0045950Y0073536D01*
X0045387Y0074896D01*
X0044983Y0075300D01*
X0045387Y0075704D01*
X0045950Y0077064D01*
X0045950Y0078536D01*
X0045387Y0079896D01*
X0044983Y0080300D01*
X0045387Y0080704D01*
X0045950Y0082064D01*
X0045950Y0083536D01*
X0045387Y0084896D01*
X0044983Y0085300D01*
X0045387Y0085704D01*
X0045950Y0087064D01*
X0045950Y0088536D01*
X0045387Y0089896D01*
X0044983Y0090300D01*
X0045387Y0090704D01*
X0045950Y0092064D01*
X0045950Y0093536D01*
X0045387Y0094896D01*
X0044983Y0095300D01*
X0045387Y0095704D01*
X0045950Y0097064D01*
X0045950Y0098536D01*
X0045387Y0099896D01*
X0044983Y0100300D01*
X0045083Y0100400D01*
X0049727Y0100400D01*
X0050609Y0100765D01*
X0052441Y0102597D01*
X0052350Y0102377D01*
X0052350Y0101223D01*
X0052791Y0100157D01*
X0053607Y0099341D01*
X0054673Y0098900D01*
X0055827Y0098900D01*
X0056893Y0099341D01*
X0057708Y0100157D01*
X0058150Y0101223D01*
X0058150Y0102377D01*
X0057726Y0103400D01*
X0066549Y0103400D01*
X0066607Y0103341D01*
X0067673Y0102900D01*
X0068827Y0102900D01*
X0069893Y0103341D01*
X0070708Y0104157D01*
X0071150Y0105223D01*
X0071150Y0106377D01*
X0070708Y0107443D01*
X0069893Y0108258D01*
X0068827Y0108700D01*
X0067673Y0108700D01*
X0066607Y0108258D01*
X0066549Y0108200D01*
X0051773Y0108200D01*
X0050891Y0107835D01*
X0050215Y0107159D01*
X0048256Y0105200D01*
X0045083Y0105200D01*
X0044983Y0105300D01*
X0045387Y0105704D01*
X0045950Y0107064D01*
X0045950Y0108536D01*
X0045387Y0109896D01*
X0044983Y0110300D01*
X0045383Y0110700D01*
X0048120Y0110700D01*
X0049350Y0111930D01*
X0050350Y0112930D01*
X0050350Y0121670D01*
X0049350Y0122670D01*
X0049350Y0148670D01*
X0048120Y0149900D01*
X0048120Y0149900D01*
X0047729Y0150291D01*
X0048673Y0149900D01*
X0049827Y0149900D01*
X0050893Y0150341D01*
X0051708Y0151157D01*
X0052150Y0152223D01*
X0052150Y0153377D01*
X0051708Y0154443D01*
X0050893Y0155258D01*
X0049827Y0155700D01*
X0048673Y0155700D01*
X0047607Y0155258D01*
X0046791Y0154443D01*
X0046350Y0153377D01*
X0046350Y0152223D01*
X0046741Y0151279D01*
X0046350Y0151670D01*
X0046350Y0157799D01*
X0046708Y0158157D01*
X0047150Y0159223D01*
X0047118Y0160454D02*
X0110669Y0160454D01*
X0110350Y0162053D02*
X0046099Y0162053D01*
X0042401Y0162053D02*
X0025642Y0162053D01*
X0026070Y0163651D02*
X0111000Y0163651D01*
X0118250Y0168447D02*
X0026055Y0168447D01*
X0025613Y0170045D02*
X0118250Y0170045D01*
X0118250Y0171644D02*
X0024690Y0171644D01*
X0023391Y0173242D02*
X0118250Y0173242D01*
X0118250Y0174841D02*
X0021376Y0174841D01*
X0024723Y0160454D02*
X0041382Y0160454D01*
X0041502Y0158856D02*
X0023448Y0158856D01*
X0021474Y0157257D02*
X0042150Y0157257D01*
X0042150Y0155659D02*
X0007050Y0155659D01*
X0007050Y0157257D02*
X0010585Y0157257D01*
X0008611Y0158856D02*
X0007050Y0158856D01*
X0007050Y0160454D02*
X0007336Y0160454D01*
X0007050Y0154060D02*
X0042150Y0154060D01*
X0042150Y0152462D02*
X0007050Y0152462D01*
X0007050Y0150863D02*
X0042150Y0150863D01*
X0042816Y0149265D02*
X0007050Y0149265D01*
X0007050Y0147666D02*
X0032591Y0147666D01*
X0033909Y0147666D02*
X0044414Y0147666D01*
X0045150Y0146068D02*
X0035864Y0146068D01*
X0036150Y0144469D02*
X0045150Y0144469D01*
X0049350Y0144469D02*
X0063350Y0144469D01*
X0063350Y0144223D02*
X0063791Y0143157D01*
X0064607Y0142341D01*
X0065673Y0141900D01*
X0066827Y0141900D01*
X0067893Y0142341D01*
X0068708Y0143157D01*
X0069150Y0144223D01*
X0069150Y0145377D01*
X0068708Y0146443D01*
X0067893Y0147258D01*
X0066827Y0147700D01*
X0065673Y0147700D01*
X0064607Y0147258D01*
X0063791Y0146443D01*
X0063350Y0145377D01*
X0063350Y0144223D01*
X0064078Y0142870D02*
X0049350Y0142870D01*
X0049350Y0141272D02*
X0094721Y0141272D01*
X0094791Y0141443D02*
X0094350Y0140377D01*
X0094350Y0139223D01*
X0094791Y0138157D01*
X0095607Y0137341D01*
X0096673Y0136900D01*
X0097827Y0136900D01*
X0098893Y0137341D01*
X0099708Y0138157D01*
X0100150Y0139223D01*
X0100150Y0140377D01*
X0099708Y0141443D01*
X0098893Y0142258D01*
X0097827Y0142700D01*
X0096673Y0142700D01*
X0095607Y0142258D01*
X0094791Y0141443D01*
X0094350Y0139673D02*
X0049350Y0139673D01*
X0049350Y0138075D02*
X0094874Y0138075D01*
X0099626Y0138075D02*
X0118250Y0138075D01*
X0118250Y0139673D02*
X0100150Y0139673D01*
X0099779Y0141272D02*
X0118250Y0141272D01*
X0118250Y0142870D02*
X0075922Y0142870D01*
X0075893Y0142841D02*
X0076708Y0143657D01*
X0077150Y0144723D01*
X0077150Y0145877D01*
X0076708Y0146943D01*
X0075893Y0147758D01*
X0074827Y0148200D01*
X0073673Y0148200D01*
X0072607Y0147758D01*
X0071791Y0146943D01*
X0071350Y0145877D01*
X0071350Y0144723D01*
X0071791Y0143657D01*
X0072607Y0142841D01*
X0073673Y0142400D01*
X0074827Y0142400D01*
X0075893Y0142841D01*
X0077045Y0144469D02*
X0118250Y0144469D01*
X0118250Y0146068D02*
X0114231Y0146068D01*
X0113827Y0145900D02*
X0114893Y0146341D01*
X0115708Y0147157D01*
X0116150Y0148223D01*
X0116150Y0149377D01*
X0115708Y0150443D01*
X0114893Y0151258D01*
X0113827Y0151700D01*
X0112673Y0151700D01*
X0111607Y0151258D01*
X0110791Y0150443D01*
X0110350Y0149377D01*
X0110350Y0148223D01*
X0110791Y0147157D01*
X0111607Y0146341D01*
X0112673Y0145900D01*
X0113827Y0145900D01*
X0112269Y0146068D02*
X0097619Y0146068D01*
X0097708Y0146157D02*
X0098150Y0147223D01*
X0098150Y0148377D01*
X0097708Y0149443D01*
X0096893Y0150258D01*
X0095827Y0150700D01*
X0094673Y0150700D01*
X0093607Y0150258D01*
X0092791Y0149443D01*
X0092350Y0148377D01*
X0092350Y0147223D01*
X0092791Y0146157D01*
X0093607Y0145341D01*
X0094673Y0144900D01*
X0095827Y0144900D01*
X0096893Y0145341D01*
X0097708Y0146157D01*
X0098150Y0147666D02*
X0110581Y0147666D01*
X0110350Y0149265D02*
X0097782Y0149265D01*
X0097827Y0152900D02*
X0098893Y0153341D01*
X0099708Y0154157D01*
X0100150Y0155223D01*
X0100150Y0156377D01*
X0099708Y0157443D01*
X0098893Y0158258D01*
X0097827Y0158700D01*
X0096673Y0158700D01*
X0095607Y0158258D01*
X0094791Y0157443D01*
X0094350Y0156377D01*
X0094350Y0155223D01*
X0094791Y0154157D01*
X0095607Y0153341D01*
X0096673Y0152900D01*
X0097827Y0152900D01*
X0099611Y0154060D02*
X0117889Y0154060D01*
X0118250Y0152462D02*
X0074150Y0152462D01*
X0074150Y0152223D02*
X0074150Y0153377D01*
X0073708Y0154443D01*
X0072893Y0155258D01*
X0071827Y0155700D01*
X0070673Y0155700D01*
X0069607Y0155258D01*
X0068852Y0154503D01*
X0069150Y0155223D01*
X0069150Y0156377D01*
X0068708Y0157443D01*
X0067893Y0158258D01*
X0066827Y0158700D01*
X0065673Y0158700D01*
X0064607Y0158258D01*
X0063791Y0157443D01*
X0063350Y0156377D01*
X0063350Y0155223D01*
X0063791Y0154157D01*
X0064607Y0153341D01*
X0065673Y0152900D01*
X0066827Y0152900D01*
X0067893Y0153341D01*
X0068648Y0154097D01*
X0068350Y0153377D01*
X0068350Y0152223D01*
X0068791Y0151157D01*
X0069607Y0150341D01*
X0070673Y0149900D01*
X0071827Y0149900D01*
X0072893Y0150341D01*
X0073708Y0151157D01*
X0074150Y0152223D01*
X0073414Y0150863D02*
X0111212Y0150863D01*
X0115288Y0150863D02*
X0118250Y0150863D01*
X0118250Y0149265D02*
X0116150Y0149265D01*
X0115919Y0147666D02*
X0118250Y0147666D01*
X0117350Y0155659D02*
X0100150Y0155659D01*
X0099785Y0157257D02*
X0117715Y0157257D01*
X0094715Y0157257D02*
X0068785Y0157257D01*
X0069150Y0155659D02*
X0070573Y0155659D01*
X0071927Y0155659D02*
X0094350Y0155659D01*
X0094889Y0154060D02*
X0073867Y0154060D01*
X0069086Y0150863D02*
X0051414Y0150863D01*
X0052150Y0152462D02*
X0068350Y0152462D01*
X0068611Y0154060D02*
X0068633Y0154060D01*
X0063889Y0154060D02*
X0051867Y0154060D01*
X0049927Y0155659D02*
X0063350Y0155659D01*
X0063715Y0157257D02*
X0046350Y0157257D01*
X0046350Y0155659D02*
X0048573Y0155659D01*
X0046633Y0154060D02*
X0046350Y0154060D01*
X0046350Y0152462D02*
X0046350Y0152462D01*
X0048755Y0149265D02*
X0092718Y0149265D01*
X0092350Y0147666D02*
X0075985Y0147666D01*
X0077071Y0146068D02*
X0092881Y0146068D01*
X0102791Y0135443D02*
X0103607Y0136258D01*
X0104673Y0136700D01*
X0105827Y0136700D01*
X0106893Y0136258D01*
X0107708Y0135443D01*
X0108150Y0134377D01*
X0108150Y0133223D01*
X0107708Y0132157D01*
X0106893Y0131341D01*
X0105827Y0130900D01*
X0104673Y0130900D01*
X0103607Y0131341D01*
X0102791Y0132157D01*
X0102350Y0133223D01*
X0102350Y0134377D01*
X0102791Y0135443D01*
X0102558Y0134878D02*
X0049350Y0134878D01*
X0049350Y0136476D02*
X0104133Y0136476D01*
X0106367Y0136476D02*
X0118250Y0136476D01*
X0118250Y0134878D02*
X0107942Y0134878D01*
X0108150Y0133279D02*
X0118250Y0133279D01*
X0118250Y0131681D02*
X0107232Y0131681D01*
X0105893Y0130258D02*
X0104827Y0130700D01*
X0103673Y0130700D01*
X0102607Y0130258D01*
X0101791Y0129443D01*
X0101350Y0128377D01*
X0101350Y0127483D01*
X0100827Y0127700D01*
X0099673Y0127700D01*
X0098607Y0127258D01*
X0097791Y0126443D01*
X0097350Y0125377D01*
X0097350Y0124223D01*
X0097791Y0123157D01*
X0098607Y0122341D01*
X0099673Y0121900D01*
X0100827Y0121900D01*
X0101893Y0122341D01*
X0102708Y0123157D01*
X0103150Y0124223D01*
X0103150Y0125117D01*
X0103673Y0124900D01*
X0104827Y0124900D01*
X0105893Y0125341D01*
X0106708Y0126157D01*
X0107150Y0127223D01*
X0107150Y0128377D01*
X0106708Y0129443D01*
X0105893Y0130258D01*
X0106069Y0130082D02*
X0118250Y0130082D01*
X0118250Y0128484D02*
X0107106Y0128484D01*
X0107010Y0126885D02*
X0118250Y0126885D01*
X0118250Y0125287D02*
X0105761Y0125287D01*
X0102928Y0123688D02*
X0118250Y0123688D01*
X0118250Y0122090D02*
X0101285Y0122090D01*
X0100893Y0121258D02*
X0099827Y0121700D01*
X0098673Y0121700D01*
X0097607Y0121258D01*
X0096791Y0120443D01*
X0096350Y0119377D01*
X0096350Y0118223D01*
X0096791Y0117157D01*
X0097607Y0116341D01*
X0098673Y0115900D01*
X0099827Y0115900D01*
X0100893Y0116341D01*
X0101708Y0117157D01*
X0102150Y0118223D01*
X0102150Y0119377D01*
X0101708Y0120443D01*
X0100893Y0121258D01*
X0101660Y0120491D02*
X0118250Y0120491D01*
X0118250Y0118893D02*
X0102150Y0118893D01*
X0101765Y0117294D02*
X0118250Y0117294D01*
X0118250Y0115696D02*
X0082311Y0115696D01*
X0082208Y0115943D02*
X0082650Y0114877D01*
X0082650Y0113723D01*
X0082208Y0112657D01*
X0081393Y0111841D01*
X0080327Y0111400D01*
X0079173Y0111400D01*
X0078107Y0111841D01*
X0077291Y0112657D01*
X0076850Y0113723D01*
X0076850Y0114877D01*
X0077291Y0115943D01*
X0078107Y0116758D01*
X0079173Y0117200D01*
X0080327Y0117200D01*
X0081393Y0116758D01*
X0082208Y0115943D01*
X0082650Y0114097D02*
X0118250Y0114097D01*
X0118250Y0112499D02*
X0104652Y0112499D01*
X0104708Y0112443D02*
X0103893Y0113258D01*
X0102827Y0113700D01*
X0101673Y0113700D01*
X0100607Y0113258D01*
X0099791Y0112443D01*
X0099350Y0111377D01*
X0099350Y0110223D01*
X0099791Y0109157D01*
X0100607Y0108341D01*
X0101673Y0107900D01*
X0102827Y0107900D01*
X0103893Y0108341D01*
X0104708Y0109157D01*
X0105150Y0110223D01*
X0105150Y0111377D01*
X0104708Y0112443D01*
X0105150Y0110900D02*
X0118250Y0110900D01*
X0118250Y0109302D02*
X0104768Y0109302D01*
X0099732Y0109302D02*
X0045633Y0109302D01*
X0045950Y0107703D02*
X0050759Y0107703D01*
X0049161Y0106105D02*
X0045553Y0106105D01*
X0042250Y0102800D02*
X0049250Y0102800D01*
X0052250Y0105800D01*
X0068250Y0105800D01*
X0070853Y0104506D02*
X0075855Y0104506D01*
X0075791Y0104443D02*
X0075350Y0103377D01*
X0075350Y0102223D01*
X0075791Y0101157D01*
X0076607Y0100341D01*
X0077673Y0099900D01*
X0078827Y0099900D01*
X0079893Y0100341D01*
X0080708Y0101157D01*
X0081150Y0102223D01*
X0081150Y0103377D01*
X0080708Y0104443D01*
X0079893Y0105258D01*
X0078827Y0105700D01*
X0077673Y0105700D01*
X0076607Y0105258D01*
X0075791Y0104443D01*
X0075350Y0102908D02*
X0068845Y0102908D01*
X0067655Y0102908D02*
X0057930Y0102908D01*
X0058150Y0101309D02*
X0075729Y0101309D01*
X0080771Y0101309D02*
X0118250Y0101309D01*
X0118250Y0099711D02*
X0057262Y0099711D01*
X0053238Y0099711D02*
X0045463Y0099711D01*
X0045950Y0098112D02*
X0118250Y0098112D01*
X0118250Y0096514D02*
X0045722Y0096514D01*
X0045367Y0094915D02*
X0101280Y0094915D01*
X0101291Y0094943D02*
X0100850Y0093877D01*
X0100850Y0092723D01*
X0101291Y0091657D01*
X0102107Y0090841D01*
X0103173Y0090400D01*
X0104327Y0090400D01*
X0105393Y0090841D01*
X0106208Y0091657D01*
X0106650Y0092723D01*
X0106650Y0093877D01*
X0106208Y0094943D01*
X0105393Y0095758D01*
X0104327Y0096200D01*
X0103173Y0096200D01*
X0102107Y0095758D01*
X0101291Y0094943D01*
X0100850Y0093317D02*
X0045950Y0093317D01*
X0045807Y0091718D02*
X0101266Y0091718D01*
X0106234Y0091718D02*
X0118250Y0091718D01*
X0118250Y0090120D02*
X0045163Y0090120D01*
X0045950Y0088521D02*
X0060241Y0088521D01*
X0060673Y0088700D02*
X0059607Y0088258D01*
X0058791Y0087443D01*
X0058350Y0086377D01*
X0058350Y0085223D01*
X0058791Y0084157D01*
X0059607Y0083341D01*
X0060673Y0082900D01*
X0061827Y0082900D01*
X0062893Y0083341D01*
X0063708Y0084157D01*
X0064150Y0085223D01*
X0064150Y0086377D01*
X0063708Y0087443D01*
X0062893Y0088258D01*
X0061827Y0088700D01*
X0060673Y0088700D01*
X0062259Y0088521D02*
X0118250Y0088521D01*
X0118250Y0086923D02*
X0063924Y0086923D01*
X0064150Y0085324D02*
X0077766Y0085324D01*
X0077607Y0085258D02*
X0076791Y0084443D01*
X0076350Y0083377D01*
X0076350Y0082223D01*
X0076791Y0081157D01*
X0077607Y0080341D01*
X0078673Y0079900D01*
X0079827Y0079900D01*
X0080893Y0080341D01*
X0081708Y0081157D01*
X0082150Y0082223D01*
X0082150Y0083377D01*
X0081708Y0084443D01*
X0080893Y0085258D01*
X0079827Y0085700D01*
X0078673Y0085700D01*
X0077607Y0085258D01*
X0076494Y0083726D02*
X0063277Y0083726D01*
X0059223Y0083726D02*
X0045871Y0083726D01*
X0045950Y0082127D02*
X0076390Y0082127D01*
X0077420Y0080529D02*
X0045211Y0080529D01*
X0045787Y0078930D02*
X0118250Y0078930D01*
X0118250Y0077332D02*
X0045950Y0077332D01*
X0045399Y0075733D02*
X0102082Y0075733D01*
X0101791Y0075443D02*
X0101350Y0074377D01*
X0101350Y0073223D01*
X0101791Y0072157D01*
X0102607Y0071341D01*
X0103673Y0070900D01*
X0104827Y0070900D01*
X0105893Y0071341D01*
X0106708Y0072157D01*
X0107150Y0073223D01*
X0107150Y0074377D01*
X0106708Y0075443D01*
X0105893Y0076258D01*
X0104827Y0076700D01*
X0103673Y0076700D01*
X0102607Y0076258D01*
X0101791Y0075443D01*
X0101350Y0074134D02*
X0045702Y0074134D01*
X0045950Y0072536D02*
X0101635Y0072536D01*
X0103583Y0070937D02*
X0045483Y0070937D01*
X0043563Y0069339D02*
X0069749Y0069339D01*
X0069791Y0069443D02*
X0069350Y0068377D01*
X0069350Y0067223D01*
X0069791Y0066157D01*
X0070607Y0065341D01*
X0071673Y0064900D01*
X0072827Y0064900D01*
X0073893Y0065341D01*
X0074708Y0066157D01*
X0075150Y0067223D01*
X0075150Y0068377D01*
X0074708Y0069443D01*
X0073893Y0070258D01*
X0072827Y0070700D01*
X0071673Y0070700D01*
X0070607Y0070258D01*
X0069791Y0069443D01*
X0069350Y0067740D02*
X0007050Y0067740D01*
X0007050Y0066142D02*
X0069807Y0066142D01*
X0074693Y0066142D02*
X0118250Y0066142D01*
X0118250Y0067740D02*
X0075150Y0067740D01*
X0074751Y0069339D02*
X0118250Y0069339D01*
X0118250Y0070937D02*
X0104917Y0070937D01*
X0106865Y0072536D02*
X0118250Y0072536D01*
X0118250Y0074134D02*
X0107150Y0074134D01*
X0106418Y0075733D02*
X0118250Y0075733D01*
X0118250Y0080529D02*
X0081080Y0080529D01*
X0082110Y0082127D02*
X0098822Y0082127D01*
X0098791Y0082157D02*
X0099607Y0081341D01*
X0100673Y0080900D01*
X0101827Y0080900D01*
X0102893Y0081341D01*
X0103708Y0082157D01*
X0104150Y0083223D01*
X0104150Y0084377D01*
X0103708Y0085443D01*
X0102893Y0086258D01*
X0101827Y0086700D01*
X0100673Y0086700D01*
X0099607Y0086258D01*
X0098791Y0085443D01*
X0098350Y0084377D01*
X0098350Y0083223D01*
X0098791Y0082157D01*
X0098350Y0083726D02*
X0082006Y0083726D01*
X0080734Y0085324D02*
X0098742Y0085324D01*
X0103758Y0085324D02*
X0118250Y0085324D01*
X0118250Y0083726D02*
X0104150Y0083726D01*
X0103678Y0082127D02*
X0118250Y0082127D01*
X0121250Y0090120D02*
X0122829Y0090120D01*
X0122350Y0091718D02*
X0121250Y0091718D01*
X0121250Y0093317D02*
X0122739Y0093317D01*
X0125250Y0096800D02*
X0125250Y0104800D01*
X0122652Y0106105D02*
X0121250Y0106105D01*
X0121250Y0107703D02*
X0130850Y0107703D01*
X0130850Y0106105D02*
X0127848Y0106105D01*
X0128150Y0104506D02*
X0130850Y0104506D01*
X0130850Y0102908D02*
X0127650Y0102908D01*
X0127650Y0101309D02*
X0130850Y0101309D01*
X0130850Y0099711D02*
X0127650Y0099711D01*
X0127650Y0098112D02*
X0130850Y0098112D01*
X0130850Y0096514D02*
X0127650Y0096514D01*
X0126759Y0094915D02*
X0130850Y0094915D01*
X0130850Y0093317D02*
X0127761Y0093317D01*
X0128150Y0091718D02*
X0130850Y0091718D01*
X0130850Y0090120D02*
X0127671Y0090120D01*
X0125250Y0096800D02*
X0085250Y0096800D01*
X0083250Y0094800D01*
X0083250Y0085800D01*
X0081150Y0102908D02*
X0118250Y0102908D01*
X0118250Y0104506D02*
X0080645Y0104506D01*
X0082050Y0112499D02*
X0099848Y0112499D01*
X0099350Y0110900D02*
X0048320Y0110900D01*
X0049919Y0112499D02*
X0077450Y0112499D01*
X0076850Y0114097D02*
X0054303Y0114097D01*
X0053827Y0113900D02*
X0054893Y0114341D01*
X0055708Y0115157D01*
X0056150Y0116223D01*
X0056150Y0117377D01*
X0055708Y0118443D01*
X0054893Y0119258D01*
X0053827Y0119700D01*
X0052673Y0119700D01*
X0051607Y0119258D01*
X0050791Y0118443D01*
X0050350Y0117377D01*
X0050350Y0116223D01*
X0050791Y0115157D01*
X0051607Y0114341D01*
X0052673Y0113900D01*
X0053827Y0113900D01*
X0052197Y0114097D02*
X0050350Y0114097D01*
X0050350Y0115696D02*
X0050568Y0115696D01*
X0050350Y0117294D02*
X0050350Y0117294D01*
X0050350Y0118893D02*
X0051242Y0118893D01*
X0050350Y0120491D02*
X0096840Y0120491D01*
X0096350Y0118893D02*
X0055258Y0118893D01*
X0056150Y0117294D02*
X0096735Y0117294D01*
X0099215Y0122090D02*
X0070641Y0122090D01*
X0070708Y0122157D02*
X0071150Y0123223D01*
X0071150Y0124377D01*
X0070708Y0125443D01*
X0069893Y0126258D01*
X0068827Y0126700D01*
X0067673Y0126700D01*
X0066607Y0126258D01*
X0065791Y0125443D01*
X0065350Y0124377D01*
X0065350Y0123223D01*
X0065791Y0122157D01*
X0066607Y0121341D01*
X0067673Y0120900D01*
X0068827Y0120900D01*
X0069893Y0121341D01*
X0070708Y0122157D01*
X0071150Y0123688D02*
X0097572Y0123688D01*
X0097350Y0125287D02*
X0070773Y0125287D01*
X0065727Y0125287D02*
X0049350Y0125287D01*
X0049350Y0126885D02*
X0098234Y0126885D01*
X0101394Y0128484D02*
X0049350Y0128484D01*
X0049350Y0130082D02*
X0079866Y0130082D01*
X0079791Y0130157D02*
X0080607Y0129341D01*
X0081673Y0128900D01*
X0082827Y0128900D01*
X0083893Y0129341D01*
X0084708Y0130157D01*
X0085150Y0131223D01*
X0085150Y0132377D01*
X0084708Y0133443D01*
X0083893Y0134258D01*
X0082827Y0134700D01*
X0081673Y0134700D01*
X0080607Y0134258D01*
X0079791Y0133443D01*
X0079350Y0132377D01*
X0079350Y0131223D01*
X0079791Y0130157D01*
X0079350Y0131681D02*
X0049350Y0131681D01*
X0049350Y0133279D02*
X0079724Y0133279D01*
X0084776Y0133279D02*
X0102350Y0133279D01*
X0103268Y0131681D02*
X0085150Y0131681D01*
X0084634Y0130082D02*
X0102431Y0130082D01*
X0121250Y0118893D02*
X0130850Y0118893D01*
X0130850Y0117294D02*
X0121250Y0117294D01*
X0121250Y0115696D02*
X0124663Y0115696D01*
X0124673Y0115700D02*
X0123607Y0115258D01*
X0122791Y0114443D01*
X0122350Y0113377D01*
X0122350Y0112223D01*
X0122791Y0111157D01*
X0123607Y0110341D01*
X0124673Y0109900D01*
X0125827Y0109900D01*
X0126893Y0110341D01*
X0127708Y0111157D01*
X0128150Y0112223D01*
X0128150Y0113377D01*
X0127708Y0114443D01*
X0126893Y0115258D01*
X0125827Y0115700D01*
X0124673Y0115700D01*
X0125837Y0115696D02*
X0130850Y0115696D01*
X0130850Y0114097D02*
X0127852Y0114097D01*
X0128150Y0112499D02*
X0130850Y0112499D01*
X0130850Y0110900D02*
X0127451Y0110900D01*
X0130850Y0109302D02*
X0121250Y0109302D01*
X0121250Y0110900D02*
X0123049Y0110900D01*
X0122350Y0112499D02*
X0121250Y0112499D01*
X0121250Y0114097D02*
X0122648Y0114097D01*
X0118250Y0107703D02*
X0070448Y0107703D01*
X0071150Y0106105D02*
X0118250Y0106105D01*
X0121250Y0104506D02*
X0122350Y0104506D01*
X0122850Y0102908D02*
X0121250Y0102908D01*
X0121250Y0101309D02*
X0122850Y0101309D01*
X0122850Y0099711D02*
X0121250Y0099711D01*
X0118250Y0094915D02*
X0106220Y0094915D01*
X0106650Y0093317D02*
X0118250Y0093317D01*
X0133250Y0080800D02*
X0136250Y0077800D01*
X0136250Y0069800D01*
X0133250Y0066800D01*
X0133250Y0052800D01*
X0130544Y0051755D02*
X0121250Y0051755D01*
X0121250Y0050157D02*
X0132053Y0050157D01*
X0130350Y0053354D02*
X0121250Y0053354D01*
X0121250Y0054952D02*
X0130850Y0054952D01*
X0130850Y0056551D02*
X0121250Y0056551D01*
X0121250Y0058149D02*
X0130850Y0058149D01*
X0137585Y0067740D02*
X0186702Y0067740D01*
X0186719Y0069339D02*
X0138650Y0069339D01*
X0138650Y0070937D02*
X0152011Y0070937D01*
X0151791Y0071157D02*
X0152607Y0070341D01*
X0153673Y0069900D01*
X0154827Y0069900D01*
X0155893Y0070341D01*
X0156708Y0071157D01*
X0157150Y0072223D01*
X0157150Y0073377D01*
X0156708Y0074443D01*
X0155893Y0075258D01*
X0154827Y0075700D01*
X0153673Y0075700D01*
X0152607Y0075258D01*
X0151791Y0074443D01*
X0151350Y0073377D01*
X0151350Y0072223D01*
X0151791Y0071157D01*
X0151350Y0072536D02*
X0138650Y0072536D01*
X0138650Y0074134D02*
X0151664Y0074134D01*
X0156836Y0074134D02*
X0163664Y0074134D01*
X0163791Y0074443D02*
X0163350Y0073377D01*
X0163350Y0072223D01*
X0163791Y0071157D01*
X0164607Y0070341D01*
X0165673Y0069900D01*
X0166827Y0069900D01*
X0167893Y0070341D01*
X0168708Y0071157D01*
X0169150Y0072223D01*
X0169150Y0073377D01*
X0168708Y0074443D01*
X0167893Y0075258D01*
X0166827Y0075700D01*
X0165673Y0075700D01*
X0164607Y0075258D01*
X0163791Y0074443D01*
X0163350Y0072536D02*
X0157150Y0072536D01*
X0156489Y0070937D02*
X0164011Y0070937D01*
X0168489Y0070937D02*
X0186736Y0070937D01*
X0186752Y0072536D02*
X0169150Y0072536D01*
X0168836Y0074134D02*
X0186769Y0074134D01*
X0186786Y0075733D02*
X0138650Y0075733D01*
X0138650Y0077332D02*
X0186803Y0077332D01*
X0186820Y0078930D02*
X0173481Y0078930D01*
X0173708Y0079157D02*
X0174150Y0080223D01*
X0174150Y0081377D01*
X0173708Y0082443D01*
X0172893Y0083258D01*
X0171827Y0083700D01*
X0170673Y0083700D01*
X0169607Y0083258D01*
X0168791Y0082443D01*
X0168350Y0081377D01*
X0168350Y0080223D01*
X0168791Y0079157D01*
X0169607Y0078341D01*
X0170673Y0077900D01*
X0171827Y0077900D01*
X0172893Y0078341D01*
X0173708Y0079157D01*
X0174150Y0080529D02*
X0186837Y0080529D01*
X0186853Y0082127D02*
X0173839Y0082127D01*
X0168661Y0082127D02*
X0135650Y0082127D01*
X0135650Y0083726D02*
X0156398Y0083726D01*
X0156141Y0083766D02*
X0156793Y0083663D01*
X0157124Y0083663D01*
X0157455Y0083663D01*
X0158108Y0083766D01*
X0158736Y0083971D01*
X0159325Y0084271D01*
X0159860Y0084659D01*
X0160328Y0085127D01*
X0160716Y0085662D01*
X0161016Y0086251D01*
X0161221Y0086879D01*
X0161324Y0087532D01*
X0161324Y0087863D01*
X0161324Y0088194D01*
X0161221Y0088846D01*
X0161016Y0089475D01*
X0160716Y0090064D01*
X0160328Y0090599D01*
X0159860Y0091067D01*
X0159325Y0091455D01*
X0158736Y0091755D01*
X0158303Y0091896D01*
X0159390Y0092346D01*
X0160515Y0093471D01*
X0161124Y0094941D01*
X0161124Y0096533D01*
X0160515Y0098003D01*
X0159390Y0099128D01*
X0157920Y0099737D01*
X0156328Y0099737D01*
X0154858Y0099128D01*
X0153733Y0098003D01*
X0153187Y0096685D01*
X0152641Y0098003D01*
X0151516Y0099128D01*
X0150046Y0099737D01*
X0148454Y0099737D01*
X0146984Y0099128D01*
X0145859Y0098003D01*
X0145313Y0096685D01*
X0144767Y0098003D01*
X0143642Y0099128D01*
X0142172Y0099737D01*
X0140580Y0099737D01*
X0139110Y0099128D01*
X0137985Y0098003D01*
X0137376Y0096533D01*
X0137376Y0094941D01*
X0137985Y0093471D01*
X0139110Y0092346D01*
X0140428Y0091800D01*
X0139110Y0091254D01*
X0137985Y0090129D01*
X0137376Y0088659D01*
X0137376Y0087067D01*
X0137985Y0085597D01*
X0139110Y0084472D01*
X0140580Y0083863D01*
X0142172Y0083863D01*
X0143642Y0084472D01*
X0144767Y0085597D01*
X0145313Y0086915D01*
X0145859Y0085597D01*
X0146984Y0084472D01*
X0148454Y0083863D01*
X0150046Y0083863D01*
X0151516Y0084472D01*
X0152641Y0085597D01*
X0153091Y0086684D01*
X0153232Y0086251D01*
X0153532Y0085662D01*
X0153920Y0085127D01*
X0154388Y0084659D01*
X0154923Y0084271D01*
X0155512Y0083971D01*
X0156141Y0083766D01*
X0157124Y0083726D02*
X0157124Y0083726D01*
X0157124Y0083663D02*
X0157124Y0087863D01*
X0161324Y0087863D01*
X0157124Y0087863D01*
X0157124Y0087863D01*
X0157124Y0087863D01*
X0157124Y0083663D01*
X0157850Y0083726D02*
X0186870Y0083726D01*
X0186887Y0085324D02*
X0160471Y0085324D01*
X0161227Y0086923D02*
X0186904Y0086923D01*
X0186921Y0088521D02*
X0173072Y0088521D01*
X0172893Y0088341D02*
X0173708Y0089157D01*
X0174150Y0090223D01*
X0174150Y0091377D01*
X0173708Y0092443D01*
X0172893Y0093258D01*
X0171827Y0093700D01*
X0170673Y0093700D01*
X0169607Y0093258D01*
X0168791Y0092443D01*
X0168350Y0091377D01*
X0168350Y0090223D01*
X0168791Y0089157D01*
X0169607Y0088341D01*
X0170673Y0087900D01*
X0171827Y0087900D01*
X0172893Y0088341D01*
X0174107Y0090120D02*
X0186938Y0090120D01*
X0186954Y0091718D02*
X0174009Y0091718D01*
X0172752Y0093317D02*
X0186971Y0093317D01*
X0186988Y0094915D02*
X0161113Y0094915D01*
X0161124Y0096514D02*
X0187005Y0096514D01*
X0187022Y0098112D02*
X0160406Y0098112D01*
X0157983Y0099711D02*
X0187039Y0099711D01*
X0187055Y0101309D02*
X0135650Y0101309D01*
X0135650Y0099711D02*
X0140517Y0099711D01*
X0142235Y0099711D02*
X0148391Y0099711D01*
X0150109Y0099711D02*
X0156265Y0099711D01*
X0153842Y0098112D02*
X0152532Y0098112D01*
X0150893Y0103341D02*
X0149827Y0102900D01*
X0148673Y0102900D01*
X0147607Y0103341D01*
X0146791Y0104157D01*
X0146350Y0105223D01*
X0146350Y0106377D01*
X0146791Y0107443D01*
X0147607Y0108258D01*
X0148673Y0108700D01*
X0149827Y0108700D01*
X0150893Y0108258D01*
X0151708Y0107443D01*
X0152150Y0106377D01*
X0152150Y0105223D01*
X0151708Y0104157D01*
X0150893Y0103341D01*
X0149845Y0102908D02*
X0187072Y0102908D01*
X0187089Y0104506D02*
X0151853Y0104506D01*
X0152150Y0106105D02*
X0187106Y0106105D01*
X0187123Y0107703D02*
X0151448Y0107703D01*
X0147052Y0107703D02*
X0135650Y0107703D01*
X0135650Y0106105D02*
X0146350Y0106105D01*
X0146647Y0104506D02*
X0135650Y0104506D01*
X0135650Y0102908D02*
X0148655Y0102908D01*
X0145968Y0098112D02*
X0144658Y0098112D01*
X0138094Y0098112D02*
X0135650Y0098112D01*
X0135650Y0096514D02*
X0137376Y0096514D01*
X0137387Y0094915D02*
X0135650Y0094915D01*
X0135650Y0093317D02*
X0138139Y0093317D01*
X0140231Y0091718D02*
X0135650Y0091718D01*
X0135650Y0090120D02*
X0137981Y0090120D01*
X0137376Y0088521D02*
X0135650Y0088521D01*
X0135650Y0086923D02*
X0137436Y0086923D01*
X0138258Y0085324D02*
X0135650Y0085324D01*
X0136916Y0080529D02*
X0168350Y0080529D01*
X0169019Y0078930D02*
X0138380Y0078930D01*
X0144494Y0085324D02*
X0146132Y0085324D01*
X0152368Y0085324D02*
X0153777Y0085324D01*
X0157124Y0085324D02*
X0157124Y0085324D01*
X0157124Y0086923D02*
X0157124Y0086923D01*
X0160676Y0090120D02*
X0168393Y0090120D01*
X0168491Y0091718D02*
X0158809Y0091718D01*
X0160360Y0093317D02*
X0169748Y0093317D01*
X0169428Y0088521D02*
X0161272Y0088521D01*
X0135650Y0109302D02*
X0187139Y0109302D01*
X0187156Y0110900D02*
X0135650Y0110900D01*
X0135650Y0112499D02*
X0187173Y0112499D01*
X0187190Y0114097D02*
X0135650Y0114097D01*
X0135650Y0115696D02*
X0187207Y0115696D01*
X0187224Y0117294D02*
X0182765Y0117294D01*
X0183150Y0118893D02*
X0187240Y0118893D01*
X0177735Y0117294D02*
X0161765Y0117294D01*
X0162150Y0118893D02*
X0177350Y0118893D01*
X0156735Y0117294D02*
X0150779Y0117294D01*
X0152013Y0118893D02*
X0156350Y0118893D01*
X0147721Y0117294D02*
X0135650Y0117294D01*
X0135650Y0118893D02*
X0146487Y0118893D01*
X0118250Y0064543D02*
X0007050Y0064543D01*
X0007050Y0062945D02*
X0118250Y0062945D01*
X0118250Y0061346D02*
X0007050Y0061346D01*
X0007050Y0059748D02*
X0118250Y0059748D01*
X0118250Y0058149D02*
X0065002Y0058149D01*
X0064893Y0058258D02*
X0063827Y0058700D01*
X0062673Y0058700D01*
X0061607Y0058258D01*
X0060791Y0057443D01*
X0060350Y0056377D01*
X0060350Y0055223D01*
X0060791Y0054157D01*
X0061607Y0053341D01*
X0062673Y0052900D01*
X0063827Y0052900D01*
X0064893Y0053341D01*
X0065708Y0054157D01*
X0066150Y0055223D01*
X0066150Y0056377D01*
X0065708Y0057443D01*
X0064893Y0058258D01*
X0066078Y0056551D02*
X0118250Y0056551D01*
X0118250Y0054952D02*
X0066038Y0054952D01*
X0064905Y0053354D02*
X0076755Y0053354D01*
X0076791Y0053443D02*
X0076350Y0052377D01*
X0076350Y0051223D01*
X0076791Y0050157D01*
X0077607Y0049341D01*
X0078673Y0048900D01*
X0079827Y0048900D01*
X0080893Y0049341D01*
X0081250Y0049699D01*
X0081607Y0049341D01*
X0082673Y0048900D01*
X0083827Y0048900D01*
X0084893Y0049341D01*
X0085250Y0049699D01*
X0085607Y0049341D01*
X0086673Y0048900D01*
X0087827Y0048900D01*
X0088893Y0049341D01*
X0089708Y0050157D01*
X0089792Y0050157D01*
X0089791Y0050157D02*
X0090607Y0049341D01*
X0091673Y0048900D01*
X0092827Y0048900D01*
X0093893Y0049341D01*
X0094708Y0050157D01*
X0118250Y0050157D01*
X0118250Y0051755D02*
X0095150Y0051755D01*
X0095150Y0051223D02*
X0095150Y0052377D01*
X0094708Y0053443D01*
X0093893Y0054258D01*
X0092827Y0054700D01*
X0091673Y0054700D01*
X0090607Y0054258D01*
X0089791Y0053443D01*
X0089750Y0053343D01*
X0089708Y0053443D01*
X0088893Y0054258D01*
X0087827Y0054700D01*
X0086673Y0054700D01*
X0085607Y0054258D01*
X0085250Y0053901D01*
X0084893Y0054258D01*
X0083827Y0054700D01*
X0082673Y0054700D01*
X0081607Y0054258D01*
X0081250Y0053901D01*
X0080893Y0054258D01*
X0079827Y0054700D01*
X0078673Y0054700D01*
X0077607Y0054258D01*
X0076791Y0053443D01*
X0076350Y0051755D02*
X0007050Y0051755D01*
X0007050Y0050157D02*
X0076792Y0050157D01*
X0089708Y0050157D02*
X0089750Y0050257D01*
X0089791Y0050157D01*
X0089745Y0053354D02*
X0089755Y0053354D01*
X0094745Y0053354D02*
X0118250Y0053354D01*
X0118250Y0048558D02*
X0007050Y0048558D01*
X0007050Y0046960D02*
X0118250Y0046960D01*
X0121250Y0048558D02*
X0122331Y0048558D01*
X0121250Y0037369D02*
X0159761Y0037369D01*
X0159350Y0035770D02*
X0121250Y0035770D01*
X0121250Y0034172D02*
X0159786Y0034172D01*
X0154764Y0029376D02*
X0121250Y0029376D01*
X0121250Y0027778D02*
X0154350Y0027778D01*
X0154782Y0026179D02*
X0121250Y0026179D01*
X0094708Y0050157D02*
X0095150Y0051223D01*
X0061595Y0053354D02*
X0007050Y0053354D01*
X0007050Y0054952D02*
X0060462Y0054952D01*
X0060422Y0056551D02*
X0007050Y0056551D01*
X0007050Y0058149D02*
X0061498Y0058149D01*
X0040937Y0069339D02*
X0007050Y0069339D01*
X0007050Y0070937D02*
X0039017Y0070937D01*
X0038550Y0072536D02*
X0030391Y0072536D01*
X0030017Y0072162D02*
X0031888Y0074033D01*
X0032900Y0076477D01*
X0032900Y0079123D01*
X0031888Y0081567D01*
X0030017Y0083438D01*
X0027573Y0084450D01*
X0024927Y0084450D01*
X0022483Y0083438D01*
X0020612Y0081567D01*
X0019600Y0079123D01*
X0019600Y0076477D01*
X0020612Y0074033D01*
X0022483Y0072162D01*
X0024927Y0071150D01*
X0027573Y0071150D01*
X0030017Y0072162D01*
X0031930Y0074134D02*
X0038798Y0074134D01*
X0039101Y0075733D02*
X0032592Y0075733D01*
X0032900Y0077332D02*
X0038550Y0077332D01*
X0038713Y0078930D02*
X0032900Y0078930D01*
X0032318Y0080529D02*
X0039289Y0080529D01*
X0038550Y0082127D02*
X0031327Y0082127D01*
X0029322Y0083726D02*
X0038629Y0083726D01*
X0039493Y0085324D02*
X0007050Y0085324D01*
X0007050Y0083726D02*
X0023178Y0083726D01*
X0021173Y0082127D02*
X0007050Y0082127D01*
X0007050Y0080529D02*
X0020182Y0080529D01*
X0019600Y0078930D02*
X0007050Y0078930D01*
X0007050Y0077332D02*
X0019600Y0077332D01*
X0019908Y0075733D02*
X0007050Y0075733D01*
X0007050Y0074134D02*
X0020570Y0074134D01*
X0022109Y0072536D02*
X0007050Y0072536D01*
X0007050Y0086923D02*
X0038609Y0086923D01*
X0038550Y0088521D02*
X0007050Y0088521D01*
X0007050Y0090120D02*
X0022026Y0090120D01*
X0022483Y0089662D02*
X0024927Y0088650D01*
X0027573Y0088650D01*
X0030017Y0089662D01*
X0031888Y0091533D01*
X0032900Y0093977D01*
X0032900Y0096623D01*
X0031888Y0099067D01*
X0030017Y0100938D01*
X0027573Y0101950D01*
X0024927Y0101950D01*
X0022483Y0100938D01*
X0020612Y0099067D01*
X0019600Y0096623D01*
X0019600Y0093977D01*
X0020612Y0091533D01*
X0022483Y0089662D01*
X0020536Y0091718D02*
X0007050Y0091718D01*
X0007050Y0093317D02*
X0019874Y0093317D01*
X0019600Y0094915D02*
X0007050Y0094915D01*
X0007050Y0096514D02*
X0019600Y0096514D01*
X0020217Y0098112D02*
X0007050Y0098112D01*
X0007050Y0099711D02*
X0021256Y0099711D01*
X0023380Y0101309D02*
X0007050Y0101309D01*
X0007050Y0102908D02*
X0038550Y0102908D01*
X0038863Y0101309D02*
X0029120Y0101309D01*
X0031244Y0099711D02*
X0039037Y0099711D01*
X0038550Y0098112D02*
X0032283Y0098112D01*
X0032900Y0096514D02*
X0038778Y0096514D01*
X0039133Y0094915D02*
X0032900Y0094915D01*
X0032626Y0093317D02*
X0038550Y0093317D01*
X0038693Y0091718D02*
X0031964Y0091718D01*
X0030474Y0090120D02*
X0039337Y0090120D01*
X0045891Y0086923D02*
X0058576Y0086923D01*
X0058350Y0085324D02*
X0045007Y0085324D01*
X0051153Y0101309D02*
X0052350Y0101309D01*
X0038952Y0104506D02*
X0007050Y0104506D01*
X0007050Y0106105D02*
X0034975Y0106105D01*
X0033377Y0107703D02*
X0030558Y0107703D01*
X0030017Y0107162D02*
X0031888Y0109033D01*
X0032900Y0111477D01*
X0032900Y0114123D01*
X0031888Y0116567D01*
X0030017Y0118438D01*
X0027573Y0119450D01*
X0024927Y0119450D01*
X0022483Y0118438D01*
X0020612Y0116567D01*
X0019600Y0114123D01*
X0019600Y0111477D01*
X0020612Y0109033D01*
X0022483Y0107162D01*
X0024927Y0106150D01*
X0027573Y0106150D01*
X0030017Y0107162D01*
X0031999Y0109302D02*
X0033150Y0109302D01*
X0033150Y0110900D02*
X0032661Y0110900D01*
X0032900Y0112499D02*
X0033150Y0112499D01*
X0033150Y0114097D02*
X0032900Y0114097D01*
X0033150Y0115696D02*
X0032248Y0115696D01*
X0033150Y0117294D02*
X0031160Y0117294D01*
X0033150Y0118893D02*
X0028918Y0118893D01*
X0033150Y0120491D02*
X0007050Y0120491D01*
X0007050Y0118893D02*
X0023582Y0118893D01*
X0021340Y0117294D02*
X0007050Y0117294D01*
X0007050Y0115696D02*
X0020252Y0115696D01*
X0019600Y0114097D02*
X0007050Y0114097D01*
X0007050Y0112499D02*
X0019600Y0112499D01*
X0019839Y0110900D02*
X0007050Y0110900D01*
X0007050Y0109302D02*
X0020501Y0109302D01*
X0021942Y0107703D02*
X0007050Y0107703D01*
X0007050Y0122090D02*
X0033150Y0122090D01*
X0033150Y0123688D02*
X0007050Y0123688D01*
X0007050Y0125287D02*
X0033150Y0125287D01*
X0033150Y0126885D02*
X0007050Y0126885D01*
X0007050Y0128484D02*
X0033150Y0128484D01*
X0033150Y0130082D02*
X0007050Y0130082D01*
X0007050Y0131681D02*
X0033150Y0131681D01*
X0033150Y0133279D02*
X0007050Y0133279D01*
X0007050Y0134878D02*
X0033150Y0134878D01*
X0032604Y0136476D02*
X0007050Y0136476D01*
X0007050Y0138075D02*
X0031150Y0138075D01*
X0031150Y0139673D02*
X0007050Y0139673D01*
X0007050Y0141272D02*
X0031150Y0141272D01*
X0031078Y0142870D02*
X0007050Y0142870D01*
X0007050Y0144469D02*
X0030350Y0144469D01*
X0030636Y0146068D02*
X0007050Y0146068D01*
X0035422Y0142870D02*
X0041219Y0142870D01*
X0040350Y0141272D02*
X0035350Y0141272D01*
X0035350Y0139673D02*
X0040578Y0139673D01*
X0042251Y0138075D02*
X0036945Y0138075D01*
X0037350Y0136476D02*
X0045150Y0136476D01*
X0045150Y0134878D02*
X0037350Y0134878D01*
X0037350Y0133279D02*
X0045150Y0133279D01*
X0045150Y0131681D02*
X0037350Y0131681D01*
X0037350Y0130082D02*
X0045150Y0130082D01*
X0045150Y0128484D02*
X0037350Y0128484D01*
X0037350Y0126885D02*
X0045150Y0126885D01*
X0045150Y0125287D02*
X0037350Y0125287D01*
X0037350Y0123688D02*
X0045150Y0123688D01*
X0045150Y0122090D02*
X0037350Y0122090D01*
X0037350Y0120491D02*
X0039709Y0120491D01*
X0038698Y0118893D02*
X0037350Y0118893D01*
X0037350Y0117294D02*
X0038550Y0117294D01*
X0039122Y0115696D02*
X0037350Y0115696D01*
X0037350Y0114097D02*
X0038783Y0114097D01*
X0038550Y0112499D02*
X0037350Y0112499D01*
X0037350Y0110900D02*
X0039032Y0110900D01*
X0045378Y0115696D02*
X0046150Y0115696D01*
X0046150Y0117294D02*
X0045950Y0117294D01*
X0045802Y0118893D02*
X0046150Y0118893D01*
X0045589Y0120491D02*
X0044791Y0120491D01*
X0049930Y0122090D02*
X0065859Y0122090D01*
X0065350Y0123688D02*
X0049350Y0123688D01*
X0055932Y0115696D02*
X0077189Y0115696D01*
X0045150Y0138075D02*
X0044249Y0138075D01*
X0049350Y0146068D02*
X0063636Y0146068D01*
X0065591Y0147666D02*
X0049350Y0147666D01*
X0066909Y0147666D02*
X0072515Y0147666D01*
X0071429Y0146068D02*
X0068864Y0146068D01*
X0069150Y0144469D02*
X0071455Y0144469D01*
X0072578Y0142870D02*
X0068422Y0142870D01*
X0169068Y0029376D02*
X0173350Y0029376D01*
X0169250Y0025800D02*
X0185250Y0025800D01*
X0169250Y0025800D02*
X0167250Y0027800D01*
X0157250Y0027800D01*
X0084981Y0018187D02*
X0082519Y0018187D01*
X0083563Y0016588D02*
X0083937Y0016588D01*
X0010301Y0026179D02*
X0007050Y0026179D01*
X0007050Y0024581D02*
X0008448Y0024581D01*
X0007242Y0022982D02*
X0007050Y0022982D01*
D14*
X0036250Y0107800D02*
X0035250Y0108800D01*
X0035250Y0136800D01*
X0033250Y0138800D01*
X0033250Y0144800D01*
X0044250Y0150800D02*
X0047250Y0147800D01*
X0047250Y0121800D01*
X0048250Y0120800D01*
X0048250Y0113800D01*
X0047250Y0112800D01*
X0042250Y0112800D01*
X0042250Y0107800D02*
X0036250Y0107800D01*
X0044250Y0150800D02*
X0044250Y0159800D01*
M02*
