G75*
%MOIN*%
%OFA0B0*%
%FSLAX25Y25*%
%IPPOS*%
%LPD*%
%AMOC8*
5,1,8,0,0,1.08239X$1,22.5*
%
%ADD10R,0.04737X0.02375*%
%ADD11R,0.02493X0.01902*%
%ADD12R,0.03556X0.04343*%
%ADD13R,0.01902X0.02493*%
%ADD14R,0.01784X0.02178*%
%ADD15R,0.02178X0.01784*%
%ADD16R,0.08600X0.02200*%
%ADD17R,0.09400X0.03000*%
%ADD18R,0.04343X0.03556*%
%ADD19R,0.05800X0.03000*%
%ADD20R,0.03000X0.05800*%
%ADD21R,0.05524X0.06312*%
%ADD22R,0.05600X0.05600*%
%ADD23C,0.05600*%
%ADD24R,0.05524X0.06706*%
%ADD25R,0.03950X0.05524*%
%ADD26R,0.06706X0.05524*%
%ADD27R,0.06312X0.06312*%
%ADD28R,0.05524X0.03950*%
%ADD29C,0.11824*%
%ADD30R,0.01784X0.03950*%
%ADD31R,0.10052X0.07020*%
%ADD32R,0.05524X0.05524*%
%ADD33R,0.10643X0.05524*%
%ADD34C,0.04343*%
%ADD35C,0.06312*%
%ADD36C,0.05000*%
%ADD37C,0.04500*%
%ADD38R,0.09658X0.02769*%
%ADD39R,0.10643X0.08674*%
%ADD40C,0.03400*%
D10*
X0056341Y0072965D03*
X0056341Y0075524D03*
X0056341Y0078083D03*
X0056341Y0080643D03*
X0056341Y0088965D03*
X0056341Y0091524D03*
X0056341Y0094083D03*
X0056341Y0096643D03*
X0056341Y0105965D03*
X0056341Y0108524D03*
X0056341Y0111083D03*
X0056341Y0113643D03*
X0056341Y0120965D03*
X0056341Y0123524D03*
X0056341Y0126083D03*
X0056341Y0128643D03*
X0074156Y0128643D03*
X0074156Y0126083D03*
X0074156Y0123524D03*
X0074156Y0120965D03*
X0074156Y0113643D03*
X0074156Y0111083D03*
X0074156Y0108524D03*
X0074156Y0105965D03*
X0074156Y0096643D03*
X0074156Y0094083D03*
X0074156Y0091524D03*
X0074156Y0088965D03*
X0074156Y0080643D03*
X0074156Y0078083D03*
X0074156Y0075524D03*
X0074156Y0072965D03*
X0061156Y0144965D03*
X0061156Y0147524D03*
X0061156Y0150083D03*
X0061156Y0152643D03*
X0043341Y0152643D03*
X0043341Y0150083D03*
X0043341Y0147524D03*
X0043341Y0144965D03*
D11*
X0035250Y0149796D03*
X0035250Y0151804D03*
X0052250Y0125804D03*
X0052250Y0123796D03*
X0052250Y0110804D03*
X0052250Y0108796D03*
X0052250Y0093804D03*
X0052250Y0091796D03*
X0052250Y0077804D03*
X0052250Y0075796D03*
X0079250Y0077796D03*
X0079250Y0079804D03*
X0079250Y0091796D03*
X0079250Y0093804D03*
X0080250Y0109296D03*
X0080250Y0111304D03*
X0080250Y0123296D03*
X0080250Y0125304D03*
X0068250Y0147796D03*
X0068250Y0149804D03*
D12*
X0055809Y0159800D03*
X0050691Y0159800D03*
X0056691Y0134800D03*
X0061809Y0134800D03*
X0120691Y0057800D03*
X0125809Y0057800D03*
X0133691Y0057800D03*
X0138809Y0057800D03*
X0139691Y0051800D03*
X0144809Y0051800D03*
X0159691Y0061800D03*
X0164809Y0061800D03*
X0171691Y0061800D03*
X0176809Y0061800D03*
X0178691Y0091800D03*
X0183809Y0091800D03*
X0182809Y0113800D03*
X0177691Y0113800D03*
X0119809Y0033800D03*
X0114691Y0033800D03*
X0119691Y0027800D03*
X0124809Y0027800D03*
X0135691Y0027800D03*
X0140809Y0027800D03*
X0079809Y0031800D03*
X0074691Y0031800D03*
X0074809Y0037800D03*
X0069691Y0037800D03*
X0069691Y0045800D03*
X0074809Y0045800D03*
X0035809Y0031800D03*
X0030691Y0031800D03*
D13*
X0088246Y0073800D03*
X0090254Y0073800D03*
X0093246Y0073800D03*
X0095254Y0073800D03*
X0084254Y0079800D03*
X0082246Y0079800D03*
X0082246Y0091800D03*
X0084254Y0091800D03*
X0092246Y0097800D03*
X0094254Y0097800D03*
X0097246Y0097800D03*
X0099254Y0097800D03*
X0095254Y0104800D03*
X0093246Y0104800D03*
X0090254Y0104800D03*
X0088246Y0104800D03*
X0084754Y0111300D03*
X0082746Y0111300D03*
X0082746Y0122800D03*
X0084754Y0122800D03*
X0089246Y0128800D03*
X0091254Y0128800D03*
X0093246Y0128800D03*
X0095254Y0128800D03*
X0090254Y0135800D03*
X0088246Y0135800D03*
X0085254Y0135800D03*
X0083246Y0135800D03*
X0078254Y0141300D03*
X0076246Y0141300D03*
X0073254Y0141300D03*
X0071246Y0141300D03*
X0074246Y0153800D03*
X0076254Y0153800D03*
X0078246Y0153800D03*
X0080254Y0153800D03*
X0084246Y0159800D03*
X0086254Y0159800D03*
X0089246Y0159800D03*
X0091254Y0159800D03*
X0172246Y0072800D03*
X0174254Y0072800D03*
D14*
X0168234Y0080800D03*
X0166266Y0080800D03*
X0127234Y0108800D03*
X0125266Y0108800D03*
X0103734Y0097800D03*
X0101766Y0097800D03*
X0099234Y0104800D03*
X0097266Y0104800D03*
X0084734Y0105800D03*
X0082766Y0105800D03*
X0082766Y0108800D03*
X0084734Y0108800D03*
X0084734Y0114300D03*
X0082766Y0114300D03*
X0082766Y0120300D03*
X0084734Y0120300D03*
X0084734Y0125300D03*
X0082766Y0125300D03*
X0082766Y0127800D03*
X0084734Y0127800D03*
X0076234Y0131800D03*
X0074266Y0131800D03*
X0078266Y0135800D03*
X0080234Y0135800D03*
X0080234Y0138300D03*
X0078266Y0138300D03*
X0077766Y0144300D03*
X0079734Y0144300D03*
X0080234Y0151300D03*
X0078266Y0151300D03*
X0078266Y0156300D03*
X0080234Y0156300D03*
X0080234Y0158800D03*
X0078266Y0158800D03*
X0063234Y0155800D03*
X0061266Y0155800D03*
X0093266Y0135800D03*
X0095234Y0135800D03*
X0097266Y0128800D03*
X0099234Y0128800D03*
X0076234Y0116800D03*
X0074266Y0116800D03*
X0074266Y0099800D03*
X0076234Y0099800D03*
X0082266Y0097800D03*
X0084234Y0097800D03*
X0084234Y0094800D03*
X0082266Y0094800D03*
X0082266Y0089300D03*
X0084234Y0089300D03*
X0076234Y0083800D03*
X0074266Y0083800D03*
X0082266Y0082800D03*
X0084234Y0082800D03*
X0084234Y0076800D03*
X0082266Y0076800D03*
X0082266Y0073800D03*
X0084234Y0073800D03*
X0098266Y0073800D03*
X0100234Y0073800D03*
X0096234Y0159800D03*
X0094266Y0159800D03*
D15*
X0103250Y0159816D03*
X0103250Y0161784D03*
X0106250Y0161784D03*
X0106250Y0159816D03*
X0101250Y0135784D03*
X0101250Y0133816D03*
X0098250Y0133816D03*
X0098250Y0135784D03*
X0109250Y0130784D03*
X0109250Y0128816D03*
X0112250Y0128816D03*
X0112250Y0130784D03*
X0108250Y0105784D03*
X0108250Y0103816D03*
X0105250Y0103816D03*
X0105250Y0105784D03*
X0109250Y0099784D03*
X0109250Y0097816D03*
X0112250Y0097816D03*
X0112250Y0099784D03*
X0112250Y0074784D03*
X0112250Y0072816D03*
X0109250Y0072816D03*
X0109250Y0074784D03*
X0079250Y0086816D03*
X0079250Y0088784D03*
X0080250Y0117316D03*
X0080250Y0119284D03*
X0076250Y0147816D03*
X0076250Y0149784D03*
X0065250Y0149784D03*
X0065250Y0147816D03*
X0038250Y0149816D03*
X0038250Y0151784D03*
D16*
X0086550Y0151600D03*
X0086550Y0149000D03*
X0086550Y0146600D03*
X0086550Y0144000D03*
X0086550Y0141600D03*
X0086550Y0139000D03*
X0091550Y0125600D03*
X0091550Y0123000D03*
X0091550Y0120600D03*
X0091550Y0118000D03*
X0091550Y0115600D03*
X0091550Y0113000D03*
X0091550Y0110600D03*
X0091550Y0108000D03*
X0091550Y0094600D03*
X0091550Y0092000D03*
X0091550Y0089600D03*
X0091550Y0087000D03*
X0091550Y0084600D03*
X0091550Y0082000D03*
X0091550Y0079600D03*
X0091550Y0077000D03*
X0110950Y0077000D03*
X0110950Y0079600D03*
X0110950Y0082000D03*
X0110950Y0084600D03*
X0110950Y0087000D03*
X0110950Y0089600D03*
X0110950Y0092000D03*
X0110950Y0094600D03*
X0110950Y0108000D03*
X0110950Y0110600D03*
X0110950Y0113000D03*
X0110950Y0115600D03*
X0110950Y0118000D03*
X0110950Y0120600D03*
X0110950Y0123000D03*
X0110950Y0125600D03*
X0105950Y0139000D03*
X0105950Y0141600D03*
X0105950Y0144000D03*
X0105950Y0146600D03*
X0105950Y0149000D03*
X0105950Y0151600D03*
X0105950Y0154000D03*
X0105950Y0156600D03*
X0086550Y0156600D03*
X0086550Y0154000D03*
D17*
X0049550Y0053300D03*
X0049550Y0048300D03*
X0049550Y0043300D03*
X0049550Y0038300D03*
X0030950Y0038300D03*
X0030950Y0043300D03*
X0030950Y0048300D03*
X0030950Y0053300D03*
D18*
X0058250Y0055359D03*
X0058250Y0050241D03*
X0058250Y0043359D03*
X0058250Y0038241D03*
X0072250Y0024359D03*
X0072250Y0019241D03*
X0066250Y0019359D03*
X0066250Y0014241D03*
X0043250Y0019241D03*
X0043250Y0024359D03*
X0084250Y0057241D03*
X0084250Y0062359D03*
X0100250Y0040359D03*
X0100250Y0035241D03*
X0153250Y0036241D03*
X0153250Y0041359D03*
X0162250Y0049241D03*
X0162250Y0054359D03*
X0168250Y0054359D03*
X0174250Y0054359D03*
X0174250Y0049241D03*
X0168250Y0049241D03*
X0176250Y0038359D03*
X0176250Y0033241D03*
X0174250Y0023359D03*
X0174250Y0018241D03*
X0168250Y0018241D03*
X0168250Y0023359D03*
X0162250Y0023359D03*
X0162250Y0018241D03*
X0120250Y0161241D03*
X0120250Y0166359D03*
D19*
X0132350Y0106824D03*
X0132350Y0103674D03*
X0132350Y0100524D03*
X0132350Y0097375D03*
X0132350Y0094225D03*
X0132350Y0091076D03*
X0132350Y0087926D03*
X0132350Y0084776D03*
X0166150Y0084776D03*
X0166150Y0087926D03*
X0166150Y0091076D03*
X0166150Y0094225D03*
X0166150Y0097375D03*
X0166150Y0100524D03*
X0166150Y0103674D03*
X0166150Y0106824D03*
X0059350Y0023500D03*
X0059350Y0016100D03*
X0049150Y0016100D03*
X0049150Y0019800D03*
X0049150Y0023500D03*
D20*
X0084550Y0035700D03*
X0091950Y0035700D03*
X0091950Y0045900D03*
X0088250Y0045900D03*
X0084550Y0045900D03*
X0116550Y0050900D03*
X0120250Y0050900D03*
X0123950Y0050900D03*
X0135550Y0045900D03*
X0142950Y0045900D03*
X0142950Y0035700D03*
X0139250Y0035700D03*
X0135550Y0035700D03*
X0123950Y0040700D03*
X0116550Y0040700D03*
X0138226Y0078900D03*
X0141376Y0078900D03*
X0144526Y0078900D03*
X0147675Y0078900D03*
X0150825Y0078900D03*
X0153974Y0078900D03*
X0157124Y0078900D03*
X0160274Y0078900D03*
X0160274Y0112700D03*
X0157124Y0112700D03*
X0153974Y0112700D03*
X0150825Y0112700D03*
X0147675Y0112700D03*
X0144526Y0112700D03*
X0141376Y0112700D03*
X0138226Y0112700D03*
D21*
X0177100Y0107131D03*
X0183400Y0107131D03*
X0183400Y0098469D03*
X0177100Y0098469D03*
D22*
X0157124Y0095737D03*
D23*
X0157124Y0087863D03*
X0149250Y0087863D03*
X0141376Y0087863D03*
X0141376Y0095737D03*
X0149250Y0095737D03*
D24*
X0166699Y0127540D03*
X0173195Y0127540D03*
D25*
X0160203Y0128721D03*
X0156404Y0128721D03*
X0152604Y0128721D03*
X0148805Y0128721D03*
X0145006Y0128721D03*
X0141207Y0128721D03*
D26*
X0132171Y0131083D03*
X0132171Y0136989D03*
X0132171Y0142894D03*
X0132171Y0148800D03*
X0132171Y0154706D03*
X0132171Y0160611D03*
X0132171Y0166517D03*
X0182329Y0166517D03*
X0182329Y0160611D03*
X0182329Y0154706D03*
X0182329Y0148800D03*
X0182329Y0142894D03*
X0182329Y0136989D03*
X0182329Y0131083D03*
D27*
X0100250Y0062280D03*
X0100250Y0047320D03*
D28*
X0106250Y0042343D03*
X0106250Y0035257D03*
D29*
X0016030Y0017580D03*
X0016030Y0166020D03*
X0212470Y0166020D03*
X0212470Y0017580D03*
D30*
X0170187Y0029894D03*
X0168219Y0029894D03*
X0166250Y0029894D03*
X0164281Y0029894D03*
X0162313Y0029894D03*
X0162313Y0041706D03*
X0164281Y0041706D03*
X0166250Y0041706D03*
X0168219Y0041706D03*
X0170187Y0041706D03*
D31*
X0166250Y0035800D03*
D32*
X0182250Y0026934D03*
X0190250Y0026934D03*
X0190250Y0018666D03*
X0182250Y0018666D03*
X0182250Y0045666D03*
X0182250Y0053934D03*
D33*
X0202179Y0057761D03*
X0202179Y0067603D03*
X0202179Y0077446D03*
D34*
X0213006Y0080989D03*
X0213006Y0054217D03*
X0205793Y0107139D03*
X0205793Y0124461D03*
D35*
X0129250Y0017800D03*
X0094250Y0017800D03*
D36*
X0044350Y0072800D02*
X0040150Y0072800D01*
X0040150Y0077800D02*
X0044350Y0077800D01*
X0044350Y0082800D02*
X0040150Y0082800D01*
X0040150Y0087800D02*
X0044350Y0087800D01*
X0044350Y0092800D02*
X0040150Y0092800D01*
X0040150Y0097800D02*
X0044350Y0097800D01*
X0044350Y0102800D02*
X0040150Y0102800D01*
X0040150Y0107800D02*
X0044350Y0107800D01*
X0044350Y0112800D02*
X0040150Y0112800D01*
X0040150Y0117800D02*
X0044350Y0117800D01*
D37*
X0026250Y0112800D03*
X0026250Y0095300D03*
X0026250Y0077800D03*
D38*
X0195163Y0109501D03*
X0195163Y0112650D03*
X0195163Y0115800D03*
X0195163Y0118950D03*
X0195163Y0122099D03*
D39*
X0195754Y0133320D03*
X0216817Y0133320D03*
X0216817Y0098280D03*
X0195557Y0098280D03*
D40*
X0203250Y0088800D03*
X0178250Y0072800D03*
X0171250Y0080800D03*
X0166250Y0072800D03*
X0154250Y0072800D03*
X0156250Y0056800D03*
X0147250Y0043800D03*
X0139250Y0040800D03*
X0128250Y0039800D03*
X0123250Y0045800D03*
X0133250Y0052800D03*
X0132250Y0075800D03*
X0128250Y0079800D03*
X0125250Y0085800D03*
X0125250Y0091800D03*
X0125250Y0104800D03*
X0125250Y0112800D03*
X0104250Y0127800D03*
X0100250Y0124800D03*
X0099250Y0118800D03*
X0102250Y0110800D03*
X0084250Y0117300D03*
X0079750Y0114300D03*
X0071250Y0116800D03*
X0068250Y0123800D03*
X0071250Y0131800D03*
X0082250Y0131800D03*
X0097250Y0139800D03*
X0095250Y0147800D03*
X0097250Y0155800D03*
X0113250Y0161800D03*
X0120250Y0155800D03*
X0125250Y0148800D03*
X0125250Y0143800D03*
X0125250Y0136800D03*
X0125250Y0130800D03*
X0105250Y0133800D03*
X0113250Y0148800D03*
X0125250Y0166800D03*
X0079250Y0147800D03*
X0074250Y0145300D03*
X0066250Y0144800D03*
X0071250Y0152800D03*
X0066250Y0155800D03*
X0057250Y0155800D03*
X0049250Y0152800D03*
X0044250Y0159800D03*
X0033250Y0144800D03*
X0043250Y0140800D03*
X0053250Y0116800D03*
X0068250Y0105800D03*
X0071250Y0099800D03*
X0078250Y0102800D03*
X0083250Y0085800D03*
X0079250Y0082800D03*
X0071250Y0083800D03*
X0061250Y0085800D03*
X0055250Y0101800D03*
X0072250Y0067800D03*
X0063250Y0055800D03*
X0063250Y0049800D03*
X0063250Y0043800D03*
X0079250Y0051800D03*
X0083250Y0051800D03*
X0087250Y0051800D03*
X0092250Y0051800D03*
X0085250Y0029800D03*
X0086250Y0020800D03*
X0081250Y0020800D03*
X0081250Y0014800D03*
X0086250Y0014800D03*
X0068250Y0023800D03*
X0064250Y0026800D03*
X0054250Y0019300D03*
X0042250Y0031800D03*
X0104250Y0073800D03*
X0101250Y0083800D03*
X0103750Y0093300D03*
X0149250Y0105800D03*
X0159250Y0118800D03*
X0149250Y0119800D03*
X0180250Y0118800D03*
X0188250Y0125800D03*
X0171250Y0090800D03*
X0192250Y0067800D03*
X0182250Y0061800D03*
X0201250Y0044800D03*
X0190250Y0036800D03*
X0176250Y0028800D03*
X0170250Y0035800D03*
X0166250Y0035800D03*
X0162250Y0035800D03*
X0157250Y0027800D03*
X0157250Y0018800D03*
X0145250Y0016800D03*
X0190250Y0165800D03*
M02*
